%TF.GenerationSoftware,KiCad,Pcbnew,7.0.6*%
%TF.CreationDate,2023-10-17T01:06:07-04:00*%
%TF.ProjectId,tstick-5gw-pro-USB-V2-pcb,74737469-636b-42d3-9567-772d70726f2d,v0.0.2*%
%TF.SameCoordinates,Original*%
%TF.FileFunction,Copper,L2,Inr*%
%TF.FilePolarity,Positive*%
%FSLAX46Y46*%
G04 Gerber Fmt 4.6, Leading zero omitted, Abs format (unit mm)*
G04 Created by KiCad (PCBNEW 7.0.6) date 2023-10-17 01:06:07*
%MOMM*%
%LPD*%
G01*
G04 APERTURE LIST*
%TA.AperFunction,ComponentPad*%
%ADD10O,2.100000X1.000000*%
%TD*%
%TA.AperFunction,ComponentPad*%
%ADD11O,1.800000X1.000000*%
%TD*%
%TA.AperFunction,ComponentPad*%
%ADD12O,1.700000X1.700000*%
%TD*%
%TA.AperFunction,ViaPad*%
%ADD13C,0.558800*%
%TD*%
%TA.AperFunction,ViaPad*%
%ADD14C,0.508000*%
%TD*%
G04 APERTURE END LIST*
D10*
%TO.N,GND*%
%TO.C,J1*%
X105815000Y-56130000D03*
D11*
X101635000Y-56130000D03*
D10*
X105815000Y-64770000D03*
D11*
X101635000Y-64770000D03*
%TD*%
D12*
%TO.N,+3V3*%
%TO.C,BOARDLAYOUT1*%
X134580000Y-49060000D03*
%TO.N,GND*%
X137120000Y-49060000D03*
%TO.N,/IO8*%
X139660000Y-49060000D03*
%TO.N,/IO7*%
X142200000Y-49060000D03*
%TO.N,/IO6*%
X144740000Y-49060000D03*
%TO.N,/EN*%
X147280000Y-49060000D03*
%TO.N,GND*%
X152360000Y-71920000D03*
%TO.N,/IO1*%
X149820000Y-71920000D03*
%TO.N,/IO2*%
X147280000Y-71920000D03*
%TO.N,/IO4*%
X144740000Y-71920000D03*
%TO.N,/IO5*%
X142200000Y-71920000D03*
%TO.N,/COPI*%
X139660000Y-71920000D03*
%TO.N,/SCK*%
X137120000Y-71920000D03*
%TO.N,/CIPO*%
X134580000Y-71920000D03*
%TO.N,GND*%
X114260000Y-71920000D03*
%TO.N,+3V3*%
X111720000Y-71920000D03*
%TO.N,/SDA*%
X109180000Y-71920000D03*
%TO.N,/SCL*%
X106640000Y-71920000D03*
%TD*%
D13*
%TO.N,+BATT*%
X117200000Y-49875000D03*
X110200000Y-53600000D03*
X113800000Y-55975000D03*
X115375000Y-57331700D03*
D14*
X109079300Y-67650700D03*
D13*
%TO.N,+1V8*%
X126075000Y-62975000D03*
X121825000Y-64525000D03*
X119225000Y-62750000D03*
X117675000Y-61625000D03*
X119329300Y-64190700D03*
X123875000Y-62575000D03*
X120978401Y-63750000D03*
X118728859Y-57250000D03*
%TO.N,+3V3*%
X134150000Y-61010000D03*
X152160000Y-50400000D03*
X119319300Y-67170700D03*
X150480000Y-48930000D03*
X119300000Y-65700000D03*
X126050000Y-57151250D03*
X120983646Y-68383646D03*
X132725000Y-54925000D03*
X123800000Y-67350000D03*
X113283630Y-69533269D03*
X134150000Y-57250000D03*
X131885000Y-51525000D03*
D14*
%TO.N,GND*%
X107310000Y-63710000D03*
X134750000Y-51000000D03*
X123749999Y-60524999D03*
X149540000Y-56790000D03*
X109133300Y-64274497D03*
X126820000Y-49050000D03*
X109133300Y-65350000D03*
X123790000Y-72095000D03*
X128140000Y-51880000D03*
X150375000Y-57575000D03*
X153450000Y-70325000D03*
X110750000Y-62675000D03*
X109100000Y-68750000D03*
X148078573Y-61430720D03*
X114615000Y-63210000D03*
X146580000Y-61375000D03*
X153430000Y-50530000D03*
X145850000Y-60590000D03*
X145800000Y-57600000D03*
X128140000Y-48610000D03*
X122670000Y-52320000D03*
X150350000Y-59075000D03*
X110199497Y-62675000D03*
X109133300Y-65900000D03*
X122050000Y-68470000D03*
X149580000Y-61375000D03*
X115805700Y-62730700D03*
X109975000Y-60150000D03*
X112369999Y-69365699D03*
X116740000Y-50930000D03*
X107670000Y-50920000D03*
X132162500Y-62762500D03*
X122175000Y-59300000D03*
X133300000Y-56528700D03*
X111819540Y-62656755D03*
X131490000Y-72060000D03*
X145800000Y-59090000D03*
X109200000Y-62850000D03*
X118750000Y-56528700D03*
X126800000Y-57198750D03*
X107362105Y-57250000D03*
X122178399Y-63746601D03*
X109133300Y-66435221D03*
X116549300Y-68020700D03*
X148080000Y-56800000D03*
X109133300Y-64825000D03*
X111269094Y-62648836D03*
X122910000Y-48650000D03*
X150375000Y-60550000D03*
X127250000Y-57875000D03*
X116125000Y-72125000D03*
X114027256Y-69500475D03*
X146575000Y-56825000D03*
X149750000Y-48925000D03*
X110050000Y-67100000D03*
%TO.N,/EN*%
X132450000Y-60750000D03*
X150450000Y-52925000D03*
D13*
%TO.N,VUSB*%
X111309999Y-69495699D03*
X107250000Y-58075000D03*
X107375000Y-62850000D03*
D14*
%TO.N,/SCL*%
X125640000Y-57890000D03*
X132625000Y-58550000D03*
X109550000Y-57975000D03*
X127325000Y-60375000D03*
X117607931Y-70065500D03*
%TO.N,/SDA*%
X118925000Y-70575000D03*
X125425000Y-58750000D03*
X109550000Y-58925000D03*
X132745650Y-59805650D03*
%TO.N,/THRM*%
X114423699Y-56498699D03*
X107950000Y-56100000D03*
%TO.N,/IO4*%
X149570000Y-54260000D03*
%TO.N,/IO5*%
X148330000Y-54370000D03*
%TO.N,/IO9*%
X126650000Y-51675000D03*
X134575000Y-55611300D03*
%TO.N,/IO17*%
X141700000Y-52950000D03*
X115570000Y-56070000D03*
%TO.N,/IO3*%
X134635000Y-53465000D03*
X133600000Y-51450000D03*
%TO.N,/SCK*%
X136790000Y-66160000D03*
%TO.N,/CIPO*%
X134568159Y-66765050D03*
%TO.N,/IO39*%
X139700000Y-65700000D03*
X129250000Y-68425000D03*
%TO.N,/IO40*%
X128275000Y-68400000D03*
X139700000Y-65036503D03*
%TO.N,/IO41*%
X127340000Y-68300000D03*
X139700000Y-64400000D03*
%TO.N,/IO42*%
X139690000Y-63725000D03*
X126270000Y-68380000D03*
%TO.N,SYS*%
X115550000Y-65025000D03*
X114500000Y-67775000D03*
X112451373Y-62579797D03*
X111349999Y-68555699D03*
%TD*%
%TA.AperFunction,Conductor*%
%TO.N,GND*%
G36*
X151918666Y-47791424D02*
G01*
X152051813Y-47798402D01*
X152218779Y-47807779D01*
X152237407Y-47808826D01*
X152239255Y-47809023D01*
X152393847Y-47833508D01*
X152558389Y-47861465D01*
X152560065Y-47861832D01*
X152621132Y-47878194D01*
X152714893Y-47903318D01*
X152871722Y-47948499D01*
X152873211Y-47948998D01*
X153024383Y-48007027D01*
X153173788Y-48068913D01*
X153175097Y-48069516D01*
X153320132Y-48143415D01*
X153461014Y-48221279D01*
X153462144Y-48221957D01*
X153599070Y-48310878D01*
X153600991Y-48312241D01*
X153730082Y-48403836D01*
X153731021Y-48404549D01*
X153857771Y-48507189D01*
X153858452Y-48507768D01*
X153977824Y-48614445D01*
X153978565Y-48615145D01*
X154093953Y-48730533D01*
X154094656Y-48731277D01*
X154162286Y-48806955D01*
X154201325Y-48850640D01*
X154201909Y-48851327D01*
X154304549Y-48978076D01*
X154305262Y-48979016D01*
X154398220Y-49110027D01*
X154487141Y-49246954D01*
X154487819Y-49248084D01*
X154565688Y-49388976D01*
X154639575Y-49533987D01*
X154640185Y-49535310D01*
X154702077Y-49684729D01*
X154760093Y-49835868D01*
X154760600Y-49837381D01*
X154805779Y-49994197D01*
X154847266Y-50149033D01*
X154847637Y-50150727D01*
X154875594Y-50315269D01*
X154900073Y-50469828D01*
X154900272Y-50471690D01*
X154910709Y-50657517D01*
X154913979Y-50719913D01*
X154917675Y-50790433D01*
X154917700Y-50791383D01*
X154917700Y-70190416D01*
X154917675Y-70191367D01*
X154915037Y-70241705D01*
X154910709Y-70324282D01*
X154900272Y-70510108D01*
X154900073Y-70511970D01*
X154875594Y-70666530D01*
X154847637Y-70831071D01*
X154847266Y-70832765D01*
X154805779Y-70987602D01*
X154760600Y-71144418D01*
X154760093Y-71145930D01*
X154702077Y-71297070D01*
X154640185Y-71446488D01*
X154639575Y-71447811D01*
X154565688Y-71592823D01*
X154487819Y-71733714D01*
X154487141Y-71734844D01*
X154398220Y-71871772D01*
X154305262Y-72002782D01*
X154304549Y-72003722D01*
X154201909Y-72130471D01*
X154201325Y-72131158D01*
X154094668Y-72250508D01*
X154093953Y-72251265D01*
X153978565Y-72366653D01*
X153977808Y-72367368D01*
X153858458Y-72474025D01*
X153857771Y-72474609D01*
X153731022Y-72577249D01*
X153730082Y-72577962D01*
X153599072Y-72670920D01*
X153462144Y-72759841D01*
X153461014Y-72760519D01*
X153320123Y-72838388D01*
X153175111Y-72912275D01*
X153173788Y-72912885D01*
X153024370Y-72974777D01*
X152873230Y-73032793D01*
X152871718Y-73033300D01*
X152714902Y-73078479D01*
X152560065Y-73119966D01*
X152558371Y-73120337D01*
X152393830Y-73148294D01*
X152239270Y-73172773D01*
X152237408Y-73172972D01*
X152051582Y-73183409D01*
X151985938Y-73186849D01*
X151918666Y-73190375D01*
X151917717Y-73190400D01*
X102038683Y-73190400D01*
X102037733Y-73190375D01*
X101967213Y-73186679D01*
X101904817Y-73183409D01*
X101718990Y-73172972D01*
X101717128Y-73172773D01*
X101562569Y-73148294D01*
X101398027Y-73120337D01*
X101396333Y-73119966D01*
X101241497Y-73078479D01*
X101084681Y-73033300D01*
X101083168Y-73032793D01*
X100932029Y-72974777D01*
X100782610Y-72912885D01*
X100781287Y-72912275D01*
X100636276Y-72838388D01*
X100495384Y-72760519D01*
X100494254Y-72759841D01*
X100357327Y-72670920D01*
X100226316Y-72577962D01*
X100225376Y-72577249D01*
X100098627Y-72474609D01*
X100097940Y-72474025D01*
X99978577Y-72367356D01*
X99977833Y-72366653D01*
X99862445Y-72251265D01*
X99861745Y-72250524D01*
X99755068Y-72131152D01*
X99754489Y-72130471D01*
X99651849Y-72003721D01*
X99651136Y-72002782D01*
X99592402Y-71920004D01*
X105632247Y-71920004D01*
X105651610Y-72116602D01*
X105651610Y-72116603D01*
X105692460Y-72251265D01*
X105708958Y-72305650D01*
X105802084Y-72479878D01*
X105927411Y-72632589D01*
X106080122Y-72757916D01*
X106254350Y-72851042D01*
X106405843Y-72896997D01*
X106443397Y-72908389D01*
X106639996Y-72927753D01*
X106640000Y-72927753D01*
X106640004Y-72927753D01*
X106797282Y-72912261D01*
X106836603Y-72908389D01*
X107025650Y-72851042D01*
X107199878Y-72757916D01*
X107352589Y-72632589D01*
X107477916Y-72479878D01*
X107571042Y-72305650D01*
X107628389Y-72116603D01*
X107632261Y-72077282D01*
X107647753Y-71920004D01*
X108172247Y-71920004D01*
X108191610Y-72116602D01*
X108191610Y-72116603D01*
X108232460Y-72251265D01*
X108248958Y-72305650D01*
X108342084Y-72479878D01*
X108467411Y-72632589D01*
X108620122Y-72757916D01*
X108794350Y-72851042D01*
X108945843Y-72896997D01*
X108983397Y-72908389D01*
X109179996Y-72927753D01*
X109180000Y-72927753D01*
X109180004Y-72927753D01*
X109337282Y-72912261D01*
X109376603Y-72908389D01*
X109565650Y-72851042D01*
X109739878Y-72757916D01*
X109892589Y-72632589D01*
X110017916Y-72479878D01*
X110111042Y-72305650D01*
X110168389Y-72116603D01*
X110172261Y-72077282D01*
X110187753Y-71920004D01*
X110712247Y-71920004D01*
X110731610Y-72116602D01*
X110731610Y-72116603D01*
X110772460Y-72251265D01*
X110788958Y-72305650D01*
X110882084Y-72479878D01*
X111007411Y-72632589D01*
X111160122Y-72757916D01*
X111334350Y-72851042D01*
X111485843Y-72896997D01*
X111523397Y-72908389D01*
X111719996Y-72927753D01*
X111720000Y-72927753D01*
X111720004Y-72927753D01*
X111877282Y-72912261D01*
X111916603Y-72908389D01*
X112105650Y-72851042D01*
X112279878Y-72757916D01*
X112432589Y-72632589D01*
X112557916Y-72479878D01*
X112651042Y-72305650D01*
X112708389Y-72116603D01*
X112712261Y-72077282D01*
X112727753Y-71920004D01*
X112727753Y-71919995D01*
X112717786Y-71818799D01*
X113212474Y-71818799D01*
X113212475Y-71818800D01*
X113768606Y-71818800D01*
X113760000Y-71848111D01*
X113760000Y-71991889D01*
X113768606Y-72021200D01*
X113212475Y-72021200D01*
X113222826Y-72126305D01*
X113222826Y-72126306D01*
X113283002Y-72324676D01*
X113283007Y-72324688D01*
X113380726Y-72507507D01*
X113380729Y-72507512D01*
X113512239Y-72667758D01*
X113512241Y-72667760D01*
X113672487Y-72799270D01*
X113672492Y-72799273D01*
X113855311Y-72896992D01*
X113855323Y-72896997D01*
X114053693Y-72957173D01*
X114158799Y-72967524D01*
X114158800Y-72967523D01*
X114158799Y-72410591D01*
X114224237Y-72420000D01*
X114295763Y-72420000D01*
X114361200Y-72410591D01*
X114361200Y-72967524D01*
X114466305Y-72957173D01*
X114466306Y-72957173D01*
X114664676Y-72896997D01*
X114664688Y-72896992D01*
X114847507Y-72799273D01*
X114847512Y-72799270D01*
X115007758Y-72667760D01*
X115007760Y-72667758D01*
X115139270Y-72507512D01*
X115139273Y-72507507D01*
X115236992Y-72324688D01*
X115236997Y-72324676D01*
X115297173Y-72126306D01*
X115297173Y-72126305D01*
X115307525Y-72021200D01*
X114751394Y-72021200D01*
X114760000Y-71991889D01*
X114760000Y-71920004D01*
X133572247Y-71920004D01*
X133591610Y-72116602D01*
X133591610Y-72116603D01*
X133632460Y-72251265D01*
X133648958Y-72305650D01*
X133742084Y-72479878D01*
X133867411Y-72632589D01*
X134020122Y-72757916D01*
X134194350Y-72851042D01*
X134345843Y-72896997D01*
X134383397Y-72908389D01*
X134579996Y-72927753D01*
X134580000Y-72927753D01*
X134580004Y-72927753D01*
X134737282Y-72912261D01*
X134776603Y-72908389D01*
X134965650Y-72851042D01*
X135139878Y-72757916D01*
X135292589Y-72632589D01*
X135417916Y-72479878D01*
X135511042Y-72305650D01*
X135568389Y-72116603D01*
X135572261Y-72077282D01*
X135587753Y-71920004D01*
X136112247Y-71920004D01*
X136131610Y-72116602D01*
X136131610Y-72116603D01*
X136172460Y-72251265D01*
X136188958Y-72305650D01*
X136282084Y-72479878D01*
X136407411Y-72632589D01*
X136560122Y-72757916D01*
X136734350Y-72851042D01*
X136885843Y-72896997D01*
X136923397Y-72908389D01*
X137119996Y-72927753D01*
X137120000Y-72927753D01*
X137120004Y-72927753D01*
X137277282Y-72912261D01*
X137316603Y-72908389D01*
X137505650Y-72851042D01*
X137679878Y-72757916D01*
X137832589Y-72632589D01*
X137957916Y-72479878D01*
X138051042Y-72305650D01*
X138108389Y-72116603D01*
X138112261Y-72077282D01*
X138127753Y-71920004D01*
X138652247Y-71920004D01*
X138671610Y-72116602D01*
X138671610Y-72116603D01*
X138712460Y-72251265D01*
X138728958Y-72305650D01*
X138822084Y-72479878D01*
X138947411Y-72632589D01*
X139100122Y-72757916D01*
X139274350Y-72851042D01*
X139425843Y-72896997D01*
X139463397Y-72908389D01*
X139659996Y-72927753D01*
X139660000Y-72927753D01*
X139660004Y-72927753D01*
X139817282Y-72912261D01*
X139856603Y-72908389D01*
X140045650Y-72851042D01*
X140219878Y-72757916D01*
X140372589Y-72632589D01*
X140497916Y-72479878D01*
X140591042Y-72305650D01*
X140648389Y-72116603D01*
X140652261Y-72077282D01*
X140667753Y-71920004D01*
X141192247Y-71920004D01*
X141211610Y-72116602D01*
X141211610Y-72116603D01*
X141252460Y-72251265D01*
X141268958Y-72305650D01*
X141362084Y-72479878D01*
X141487411Y-72632589D01*
X141640122Y-72757916D01*
X141814350Y-72851042D01*
X141965843Y-72896997D01*
X142003397Y-72908389D01*
X142199996Y-72927753D01*
X142200000Y-72927753D01*
X142200004Y-72927753D01*
X142357282Y-72912261D01*
X142396603Y-72908389D01*
X142585650Y-72851042D01*
X142759878Y-72757916D01*
X142912589Y-72632589D01*
X143037916Y-72479878D01*
X143131042Y-72305650D01*
X143188389Y-72116603D01*
X143192261Y-72077282D01*
X143207753Y-71920004D01*
X143732247Y-71920004D01*
X143751610Y-72116602D01*
X143751610Y-72116603D01*
X143792460Y-72251265D01*
X143808958Y-72305650D01*
X143902084Y-72479878D01*
X144027411Y-72632589D01*
X144180122Y-72757916D01*
X144354350Y-72851042D01*
X144505843Y-72896997D01*
X144543397Y-72908389D01*
X144739996Y-72927753D01*
X144740000Y-72927753D01*
X144740004Y-72927753D01*
X144897282Y-72912261D01*
X144936603Y-72908389D01*
X145125650Y-72851042D01*
X145299878Y-72757916D01*
X145452589Y-72632589D01*
X145577916Y-72479878D01*
X145671042Y-72305650D01*
X145728389Y-72116603D01*
X145732261Y-72077282D01*
X145747753Y-71920004D01*
X146272247Y-71920004D01*
X146291610Y-72116602D01*
X146291610Y-72116603D01*
X146332460Y-72251265D01*
X146348958Y-72305650D01*
X146442084Y-72479878D01*
X146567411Y-72632589D01*
X146720122Y-72757916D01*
X146894350Y-72851042D01*
X147045843Y-72896997D01*
X147083397Y-72908389D01*
X147279996Y-72927753D01*
X147280000Y-72927753D01*
X147280004Y-72927753D01*
X147437282Y-72912261D01*
X147476603Y-72908389D01*
X147665650Y-72851042D01*
X147839878Y-72757916D01*
X147992589Y-72632589D01*
X148117916Y-72479878D01*
X148211042Y-72305650D01*
X148268389Y-72116603D01*
X148272261Y-72077282D01*
X148287753Y-71920004D01*
X148812247Y-71920004D01*
X148831610Y-72116602D01*
X148831610Y-72116603D01*
X148872460Y-72251265D01*
X148888958Y-72305650D01*
X148982084Y-72479878D01*
X149107411Y-72632589D01*
X149260122Y-72757916D01*
X149434350Y-72851042D01*
X149585843Y-72896997D01*
X149623397Y-72908389D01*
X149819996Y-72927753D01*
X149820000Y-72927753D01*
X149820004Y-72927753D01*
X149977282Y-72912261D01*
X150016603Y-72908389D01*
X150205650Y-72851042D01*
X150379878Y-72757916D01*
X150532589Y-72632589D01*
X150657916Y-72479878D01*
X150751042Y-72305650D01*
X150808389Y-72116603D01*
X150812261Y-72077282D01*
X150827753Y-71920004D01*
X150827753Y-71919995D01*
X150817786Y-71818799D01*
X151312474Y-71818799D01*
X151312475Y-71818800D01*
X151868606Y-71818800D01*
X151860000Y-71848111D01*
X151860000Y-71991889D01*
X151868606Y-72021200D01*
X151312475Y-72021200D01*
X151322826Y-72126305D01*
X151322826Y-72126306D01*
X151383002Y-72324676D01*
X151383007Y-72324688D01*
X151480726Y-72507507D01*
X151480729Y-72507512D01*
X151612239Y-72667758D01*
X151612241Y-72667760D01*
X151772487Y-72799270D01*
X151772492Y-72799273D01*
X151955311Y-72896992D01*
X151955323Y-72896997D01*
X152153693Y-72957173D01*
X152258799Y-72967524D01*
X152258800Y-72967524D01*
X152258800Y-72410591D01*
X152324237Y-72420000D01*
X152395763Y-72420000D01*
X152461199Y-72410591D01*
X152461199Y-72967524D01*
X152566305Y-72957173D01*
X152566306Y-72957173D01*
X152764676Y-72896997D01*
X152764688Y-72896992D01*
X152947507Y-72799273D01*
X152947512Y-72799270D01*
X153107758Y-72667760D01*
X153107760Y-72667758D01*
X153239270Y-72507512D01*
X153239273Y-72507507D01*
X153336992Y-72324688D01*
X153336997Y-72324676D01*
X153397173Y-72126306D01*
X153397173Y-72126305D01*
X153407525Y-72021200D01*
X152851394Y-72021200D01*
X152860000Y-71991889D01*
X152860000Y-71848111D01*
X152851394Y-71818800D01*
X153407525Y-71818800D01*
X153407525Y-71818799D01*
X153397173Y-71713694D01*
X153397173Y-71713693D01*
X153336997Y-71515323D01*
X153336992Y-71515311D01*
X153239273Y-71332492D01*
X153239270Y-71332487D01*
X153107760Y-71172241D01*
X153107758Y-71172239D01*
X152947512Y-71040729D01*
X152947507Y-71040726D01*
X152764688Y-70943007D01*
X152764676Y-70943002D01*
X152566305Y-70882826D01*
X152461199Y-70872474D01*
X152461199Y-71429408D01*
X152395763Y-71420000D01*
X152324237Y-71420000D01*
X152258800Y-71429408D01*
X152258800Y-70872475D01*
X152258799Y-70872474D01*
X152153694Y-70882826D01*
X152153693Y-70882826D01*
X151955323Y-70943002D01*
X151955311Y-70943007D01*
X151772492Y-71040726D01*
X151772487Y-71040729D01*
X151612241Y-71172239D01*
X151612239Y-71172241D01*
X151480729Y-71332487D01*
X151480726Y-71332492D01*
X151383007Y-71515311D01*
X151383002Y-71515323D01*
X151322826Y-71713693D01*
X151322826Y-71713694D01*
X151312474Y-71818799D01*
X150817786Y-71818799D01*
X150808389Y-71723397D01*
X150808389Y-71723396D01*
X150784563Y-71644856D01*
X150751042Y-71534350D01*
X150657916Y-71360122D01*
X150532589Y-71207411D01*
X150379878Y-71082084D01*
X150205650Y-70988958D01*
X150205643Y-70988955D01*
X150205641Y-70988955D01*
X150016602Y-70931610D01*
X149820004Y-70912247D01*
X149819996Y-70912247D01*
X149623397Y-70931610D01*
X149623396Y-70931610D01*
X149434358Y-70988955D01*
X149434352Y-70988957D01*
X149434350Y-70988958D01*
X149434347Y-70988959D01*
X149434346Y-70988960D01*
X149260125Y-71082082D01*
X149260120Y-71082085D01*
X149107412Y-71207410D01*
X149107410Y-71207412D01*
X148982085Y-71360120D01*
X148982082Y-71360125D01*
X148888960Y-71534346D01*
X148888955Y-71534358D01*
X148831610Y-71723396D01*
X148831610Y-71723397D01*
X148812247Y-71919995D01*
X148812247Y-71920004D01*
X148287753Y-71920004D01*
X148287753Y-71919995D01*
X148268389Y-71723397D01*
X148268389Y-71723396D01*
X148244563Y-71644856D01*
X148211042Y-71534350D01*
X148117916Y-71360122D01*
X147992589Y-71207411D01*
X147839878Y-71082084D01*
X147665650Y-70988958D01*
X147665643Y-70988955D01*
X147665641Y-70988955D01*
X147476602Y-70931610D01*
X147280004Y-70912247D01*
X147279996Y-70912247D01*
X147083397Y-70931610D01*
X147083396Y-70931610D01*
X146894358Y-70988955D01*
X146894352Y-70988957D01*
X146894350Y-70988958D01*
X146894347Y-70988959D01*
X146894346Y-70988960D01*
X146720125Y-71082082D01*
X146720120Y-71082085D01*
X146567412Y-71207410D01*
X146567410Y-71207412D01*
X146442085Y-71360120D01*
X146442082Y-71360125D01*
X146348960Y-71534346D01*
X146348955Y-71534358D01*
X146291610Y-71723396D01*
X146291610Y-71723397D01*
X146272247Y-71919995D01*
X146272247Y-71920004D01*
X145747753Y-71920004D01*
X145747753Y-71919995D01*
X145728389Y-71723397D01*
X145728389Y-71723396D01*
X145704563Y-71644856D01*
X145671042Y-71534350D01*
X145577916Y-71360122D01*
X145452589Y-71207411D01*
X145299878Y-71082084D01*
X145125650Y-70988958D01*
X145125643Y-70988955D01*
X145125641Y-70988955D01*
X144936602Y-70931610D01*
X144740004Y-70912247D01*
X144739996Y-70912247D01*
X144543397Y-70931610D01*
X144543396Y-70931610D01*
X144354358Y-70988955D01*
X144354352Y-70988957D01*
X144354350Y-70988958D01*
X144354347Y-70988959D01*
X144354346Y-70988960D01*
X144180125Y-71082082D01*
X144180120Y-71082085D01*
X144027412Y-71207410D01*
X144027410Y-71207412D01*
X143902085Y-71360120D01*
X143902082Y-71360125D01*
X143808960Y-71534346D01*
X143808955Y-71534358D01*
X143751610Y-71723396D01*
X143751610Y-71723397D01*
X143732247Y-71919995D01*
X143732247Y-71920004D01*
X143207753Y-71920004D01*
X143207753Y-71919995D01*
X143188389Y-71723397D01*
X143188389Y-71723396D01*
X143164563Y-71644856D01*
X143131042Y-71534350D01*
X143037916Y-71360122D01*
X142912589Y-71207411D01*
X142759878Y-71082084D01*
X142585650Y-70988958D01*
X142585643Y-70988955D01*
X142585641Y-70988955D01*
X142396602Y-70931610D01*
X142200004Y-70912247D01*
X142199996Y-70912247D01*
X142003397Y-70931610D01*
X142003396Y-70931610D01*
X141814358Y-70988955D01*
X141814352Y-70988957D01*
X141814350Y-70988958D01*
X141814347Y-70988959D01*
X141814346Y-70988960D01*
X141640125Y-71082082D01*
X141640120Y-71082085D01*
X141487412Y-71207410D01*
X141487410Y-71207412D01*
X141362085Y-71360120D01*
X141362082Y-71360125D01*
X141268960Y-71534346D01*
X141268955Y-71534358D01*
X141211610Y-71723396D01*
X141211610Y-71723397D01*
X141192247Y-71919995D01*
X141192247Y-71920004D01*
X140667753Y-71920004D01*
X140667753Y-71919995D01*
X140648389Y-71723397D01*
X140648389Y-71723396D01*
X140624563Y-71644856D01*
X140591042Y-71534350D01*
X140497916Y-71360122D01*
X140372589Y-71207411D01*
X140219878Y-71082084D01*
X140045650Y-70988958D01*
X140045643Y-70988955D01*
X140045641Y-70988955D01*
X139856602Y-70931610D01*
X139660004Y-70912247D01*
X139659996Y-70912247D01*
X139463397Y-70931610D01*
X139463396Y-70931610D01*
X139274358Y-70988955D01*
X139274352Y-70988957D01*
X139274350Y-70988958D01*
X139274347Y-70988959D01*
X139274346Y-70988960D01*
X139100125Y-71082082D01*
X139100120Y-71082085D01*
X138947412Y-71207410D01*
X138947410Y-71207412D01*
X138822085Y-71360120D01*
X138822082Y-71360125D01*
X138728960Y-71534346D01*
X138728955Y-71534358D01*
X138671610Y-71723396D01*
X138671610Y-71723397D01*
X138652247Y-71919995D01*
X138652247Y-71920004D01*
X138127753Y-71920004D01*
X138127753Y-71919995D01*
X138108389Y-71723397D01*
X138108389Y-71723396D01*
X138084563Y-71644856D01*
X138051042Y-71534350D01*
X137957916Y-71360122D01*
X137832589Y-71207411D01*
X137679878Y-71082084D01*
X137505650Y-70988958D01*
X137505643Y-70988955D01*
X137505641Y-70988955D01*
X137316602Y-70931610D01*
X137120004Y-70912247D01*
X137119996Y-70912247D01*
X136923397Y-70931610D01*
X136923396Y-70931610D01*
X136734358Y-70988955D01*
X136734352Y-70988957D01*
X136734350Y-70988958D01*
X136734347Y-70988959D01*
X136734346Y-70988960D01*
X136560125Y-71082082D01*
X136560120Y-71082085D01*
X136407412Y-71207410D01*
X136407410Y-71207412D01*
X136282085Y-71360120D01*
X136282082Y-71360125D01*
X136188960Y-71534346D01*
X136188955Y-71534358D01*
X136131610Y-71723396D01*
X136131610Y-71723397D01*
X136112247Y-71919995D01*
X136112247Y-71920004D01*
X135587753Y-71920004D01*
X135587753Y-71919995D01*
X135568389Y-71723397D01*
X135568389Y-71723396D01*
X135544563Y-71644856D01*
X135511042Y-71534350D01*
X135417916Y-71360122D01*
X135292589Y-71207411D01*
X135139878Y-71082084D01*
X134965650Y-70988958D01*
X134965643Y-70988955D01*
X134965641Y-70988955D01*
X134776602Y-70931610D01*
X134580004Y-70912247D01*
X134579996Y-70912247D01*
X134383397Y-70931610D01*
X134383396Y-70931610D01*
X134194358Y-70988955D01*
X134194352Y-70988957D01*
X134194350Y-70988958D01*
X134194347Y-70988959D01*
X134194346Y-70988960D01*
X134020125Y-71082082D01*
X134020120Y-71082085D01*
X133867412Y-71207410D01*
X133867410Y-71207412D01*
X133742085Y-71360120D01*
X133742082Y-71360125D01*
X133648960Y-71534346D01*
X133648955Y-71534358D01*
X133591610Y-71723396D01*
X133591610Y-71723397D01*
X133572247Y-71919995D01*
X133572247Y-71920004D01*
X114760000Y-71920004D01*
X114760000Y-71848111D01*
X114751394Y-71818800D01*
X115307525Y-71818800D01*
X115307525Y-71818799D01*
X115297173Y-71713694D01*
X115297173Y-71713693D01*
X115236997Y-71515323D01*
X115236992Y-71515311D01*
X115139273Y-71332492D01*
X115139270Y-71332487D01*
X115007760Y-71172241D01*
X115007758Y-71172239D01*
X114847512Y-71040729D01*
X114847507Y-71040726D01*
X114664688Y-70943007D01*
X114664676Y-70943002D01*
X114466305Y-70882826D01*
X114361200Y-70872474D01*
X114361199Y-70872475D01*
X114361199Y-71429408D01*
X114295763Y-71420000D01*
X114224237Y-71420000D01*
X114158800Y-71429408D01*
X114158800Y-70872475D01*
X114158799Y-70872474D01*
X114053694Y-70882826D01*
X114053693Y-70882826D01*
X113855323Y-70943002D01*
X113855311Y-70943007D01*
X113672492Y-71040726D01*
X113672487Y-71040729D01*
X113512241Y-71172239D01*
X113512239Y-71172241D01*
X113380729Y-71332487D01*
X113380726Y-71332492D01*
X113283007Y-71515311D01*
X113283002Y-71515323D01*
X113222826Y-71713693D01*
X113222826Y-71713694D01*
X113212474Y-71818799D01*
X112717786Y-71818799D01*
X112708389Y-71723397D01*
X112708389Y-71723396D01*
X112684563Y-71644856D01*
X112651042Y-71534350D01*
X112557916Y-71360122D01*
X112432589Y-71207411D01*
X112279878Y-71082084D01*
X112105650Y-70988958D01*
X112105643Y-70988955D01*
X112105641Y-70988955D01*
X111916602Y-70931610D01*
X111720004Y-70912247D01*
X111719996Y-70912247D01*
X111523397Y-70931610D01*
X111523396Y-70931610D01*
X111334358Y-70988955D01*
X111334352Y-70988957D01*
X111334350Y-70988958D01*
X111334347Y-70988959D01*
X111334346Y-70988960D01*
X111160125Y-71082082D01*
X111160120Y-71082085D01*
X111007412Y-71207410D01*
X111007410Y-71207412D01*
X110882085Y-71360120D01*
X110882082Y-71360125D01*
X110788960Y-71534346D01*
X110788955Y-71534358D01*
X110731610Y-71723396D01*
X110731610Y-71723397D01*
X110712247Y-71919995D01*
X110712247Y-71920004D01*
X110187753Y-71920004D01*
X110187753Y-71919995D01*
X110168389Y-71723397D01*
X110168389Y-71723396D01*
X110144563Y-71644856D01*
X110111042Y-71534350D01*
X110017916Y-71360122D01*
X109892589Y-71207411D01*
X109739878Y-71082084D01*
X109565650Y-70988958D01*
X109565643Y-70988955D01*
X109565641Y-70988955D01*
X109376602Y-70931610D01*
X109180004Y-70912247D01*
X109179996Y-70912247D01*
X108983397Y-70931610D01*
X108983396Y-70931610D01*
X108794358Y-70988955D01*
X108794352Y-70988957D01*
X108794350Y-70988958D01*
X108794347Y-70988959D01*
X108794346Y-70988960D01*
X108620125Y-71082082D01*
X108620120Y-71082085D01*
X108467412Y-71207410D01*
X108467410Y-71207412D01*
X108342085Y-71360120D01*
X108342082Y-71360125D01*
X108248960Y-71534346D01*
X108248955Y-71534358D01*
X108191610Y-71723396D01*
X108191610Y-71723397D01*
X108172247Y-71919995D01*
X108172247Y-71920004D01*
X107647753Y-71920004D01*
X107647753Y-71919995D01*
X107628389Y-71723397D01*
X107628389Y-71723396D01*
X107604563Y-71644856D01*
X107571042Y-71534350D01*
X107477916Y-71360122D01*
X107352589Y-71207411D01*
X107199878Y-71082084D01*
X107025650Y-70988958D01*
X107025643Y-70988955D01*
X107025641Y-70988955D01*
X106836602Y-70931610D01*
X106640004Y-70912247D01*
X106639996Y-70912247D01*
X106443397Y-70931610D01*
X106443396Y-70931610D01*
X106254358Y-70988955D01*
X106254352Y-70988957D01*
X106254350Y-70988958D01*
X106254347Y-70988959D01*
X106254346Y-70988960D01*
X106080125Y-71082082D01*
X106080120Y-71082085D01*
X105927412Y-71207410D01*
X105927410Y-71207412D01*
X105802085Y-71360120D01*
X105802082Y-71360125D01*
X105708960Y-71534346D01*
X105708955Y-71534358D01*
X105651610Y-71723396D01*
X105651610Y-71723397D01*
X105632247Y-71919995D01*
X105632247Y-71920004D01*
X99592402Y-71920004D01*
X99558179Y-71871772D01*
X99469257Y-71734844D01*
X99468579Y-71733714D01*
X99462877Y-71723397D01*
X99390711Y-71592823D01*
X99316816Y-71447797D01*
X99316213Y-71446488D01*
X99254322Y-71297070D01*
X99196298Y-71145911D01*
X99195799Y-71144422D01*
X99150614Y-70987579D01*
X99150451Y-70986972D01*
X99119772Y-70872474D01*
X99109132Y-70832765D01*
X99108765Y-70831089D01*
X99080801Y-70666506D01*
X99056323Y-70511955D01*
X99056126Y-70510107D01*
X99048650Y-70376990D01*
X99045690Y-70324282D01*
X99038724Y-70191366D01*
X99038700Y-70190417D01*
X99038700Y-69402681D01*
X101459500Y-69402681D01*
X101499050Y-69665079D01*
X101577262Y-69918641D01*
X101577265Y-69918647D01*
X101577266Y-69918650D01*
X101647985Y-70065500D01*
X101692400Y-70157728D01*
X101692400Y-70157730D01*
X101841882Y-70376979D01*
X101841891Y-70376990D01*
X102022368Y-70571499D01*
X102022372Y-70571503D01*
X102022377Y-70571508D01*
X102229845Y-70736958D01*
X102229854Y-70736963D01*
X102459642Y-70869632D01*
X102459657Y-70869640D01*
X102706666Y-70966584D01*
X102706665Y-70966584D01*
X102706671Y-70966585D01*
X102706673Y-70966586D01*
X102965381Y-71025635D01*
X102965383Y-71025635D01*
X102965387Y-71025636D01*
X102965385Y-71025636D01*
X103144570Y-71039063D01*
X103163745Y-71040500D01*
X103163746Y-71040500D01*
X103296254Y-71040500D01*
X103296255Y-71040500D01*
X103320025Y-71038718D01*
X103494613Y-71025636D01*
X103494616Y-71025635D01*
X103494619Y-71025635D01*
X103753327Y-70966586D01*
X103753330Y-70966584D01*
X103753333Y-70966584D01*
X103993119Y-70872475D01*
X104000345Y-70869639D01*
X104230155Y-70736958D01*
X104433243Y-70575001D01*
X118513028Y-70575001D01*
X118533191Y-70702308D01*
X118591705Y-70817147D01*
X118591706Y-70817148D01*
X118591708Y-70817151D01*
X118682849Y-70908292D01*
X118682851Y-70908293D01*
X118682852Y-70908294D01*
X118797691Y-70966808D01*
X118797692Y-70966808D01*
X118797694Y-70966809D01*
X118886581Y-70980887D01*
X118924999Y-70986972D01*
X118925000Y-70986972D01*
X118925001Y-70986972D01*
X118948958Y-70983177D01*
X119052306Y-70966809D01*
X119167151Y-70908292D01*
X119258292Y-70817151D01*
X119316809Y-70702306D01*
X119336972Y-70575000D01*
X119316809Y-70447694D01*
X119316808Y-70447692D01*
X119316808Y-70447691D01*
X119258294Y-70332852D01*
X119258293Y-70332851D01*
X119258292Y-70332849D01*
X119167151Y-70241708D01*
X119167148Y-70241706D01*
X119167147Y-70241705D01*
X119052308Y-70183191D01*
X119052309Y-70183191D01*
X118925001Y-70163028D01*
X118924999Y-70163028D01*
X118797691Y-70183191D01*
X118682852Y-70241705D01*
X118591705Y-70332852D01*
X118533191Y-70447691D01*
X118513028Y-70574998D01*
X118513028Y-70575001D01*
X104433243Y-70575001D01*
X104437623Y-70571508D01*
X104618114Y-70376984D01*
X104767598Y-70157733D01*
X104812014Y-70065501D01*
X117195959Y-70065501D01*
X117216122Y-70192808D01*
X117274636Y-70307647D01*
X117274637Y-70307648D01*
X117274639Y-70307651D01*
X117365780Y-70398792D01*
X117365782Y-70398793D01*
X117365783Y-70398794D01*
X117480622Y-70457308D01*
X117480623Y-70457308D01*
X117480625Y-70457309D01*
X117569512Y-70471387D01*
X117607930Y-70477472D01*
X117607931Y-70477472D01*
X117607932Y-70477472D01*
X117631889Y-70473677D01*
X117735237Y-70457309D01*
X117850082Y-70398792D01*
X117941223Y-70307651D01*
X117999740Y-70192806D01*
X118019903Y-70065500D01*
X117999740Y-69938194D01*
X117999739Y-69938192D01*
X117999739Y-69938191D01*
X117941225Y-69823352D01*
X117941224Y-69823351D01*
X117941223Y-69823349D01*
X117850082Y-69732208D01*
X117850079Y-69732206D01*
X117850078Y-69732205D01*
X117735239Y-69673691D01*
X117735240Y-69673691D01*
X117607932Y-69653528D01*
X117607930Y-69653528D01*
X117480622Y-69673691D01*
X117365783Y-69732205D01*
X117274636Y-69823352D01*
X117216122Y-69938191D01*
X117195959Y-70065498D01*
X117195959Y-70065501D01*
X104812014Y-70065501D01*
X104882734Y-69918650D01*
X104960950Y-69665078D01*
X104986479Y-69495701D01*
X110873254Y-69495701D01*
X110890944Y-69618743D01*
X110942584Y-69731817D01*
X110942588Y-69731824D01*
X111023988Y-69825765D01*
X111023989Y-69825765D01*
X111023992Y-69825769D01*
X111128569Y-69892976D01*
X111128571Y-69892977D01*
X111247839Y-69927998D01*
X111247842Y-69927998D01*
X111247844Y-69927999D01*
X111247846Y-69927999D01*
X111372152Y-69927999D01*
X111372154Y-69927999D01*
X111372156Y-69927998D01*
X111372158Y-69927998D01*
X111431791Y-69910487D01*
X111491429Y-69892976D01*
X111596006Y-69825769D01*
X111677412Y-69731821D01*
X111729053Y-69618744D01*
X111741342Y-69533271D01*
X112846885Y-69533271D01*
X112864575Y-69656313D01*
X112916215Y-69769387D01*
X112916219Y-69769394D01*
X112997619Y-69863335D01*
X112997620Y-69863335D01*
X112997623Y-69863339D01*
X113098237Y-69927999D01*
X113102202Y-69930547D01*
X113221470Y-69965568D01*
X113221473Y-69965568D01*
X113221475Y-69965569D01*
X113221477Y-69965569D01*
X113345783Y-69965569D01*
X113345785Y-69965569D01*
X113345787Y-69965568D01*
X113345789Y-69965568D01*
X113405422Y-69948057D01*
X113465060Y-69930546D01*
X113569637Y-69863339D01*
X113651043Y-69769391D01*
X113702684Y-69656314D01*
X113720375Y-69533269D01*
X113714973Y-69495699D01*
X113702684Y-69410224D01*
X113651044Y-69297150D01*
X113651043Y-69297147D01*
X113618491Y-69259580D01*
X113569640Y-69203202D01*
X113569639Y-69203201D01*
X113569637Y-69203199D01*
X113465060Y-69135992D01*
X113465057Y-69135990D01*
X113345789Y-69100969D01*
X113345785Y-69100969D01*
X113221475Y-69100969D01*
X113221470Y-69100969D01*
X113102203Y-69135990D01*
X113102202Y-69135990D01*
X113056079Y-69165632D01*
X112997623Y-69203199D01*
X112997622Y-69203199D01*
X112997619Y-69203202D01*
X112916219Y-69297143D01*
X112916215Y-69297150D01*
X112864575Y-69410224D01*
X112846885Y-69533266D01*
X112846885Y-69533271D01*
X111741342Y-69533271D01*
X111746744Y-69495699D01*
X111729053Y-69372654D01*
X111677412Y-69259577D01*
X111628560Y-69203199D01*
X111596009Y-69165632D01*
X111596008Y-69165631D01*
X111596006Y-69165629D01*
X111491429Y-69098422D01*
X111491426Y-69098420D01*
X111372158Y-69063399D01*
X111372154Y-69063399D01*
X111247844Y-69063399D01*
X111247839Y-69063399D01*
X111128572Y-69098420D01*
X111128571Y-69098420D01*
X111070108Y-69135992D01*
X111023992Y-69165629D01*
X111023991Y-69165629D01*
X111023988Y-69165632D01*
X110942588Y-69259573D01*
X110942584Y-69259580D01*
X110890944Y-69372654D01*
X110873254Y-69495696D01*
X110873254Y-69495701D01*
X104986479Y-69495701D01*
X105000500Y-69402681D01*
X105000500Y-69137319D01*
X104960950Y-68874922D01*
X104904468Y-68691809D01*
X104882737Y-68621358D01*
X104882735Y-68621355D01*
X104882734Y-68621350D01*
X104851119Y-68555700D01*
X110938027Y-68555700D01*
X110958190Y-68683007D01*
X111016704Y-68797846D01*
X111016705Y-68797847D01*
X111016707Y-68797850D01*
X111107848Y-68888991D01*
X111107850Y-68888992D01*
X111107851Y-68888993D01*
X111222690Y-68947507D01*
X111222691Y-68947507D01*
X111222693Y-68947508D01*
X111311580Y-68961586D01*
X111349998Y-68967671D01*
X111349999Y-68967671D01*
X111350000Y-68967671D01*
X111373957Y-68963876D01*
X111477305Y-68947508D01*
X111592150Y-68888991D01*
X111683291Y-68797850D01*
X111741808Y-68683005D01*
X111761971Y-68555699D01*
X111757474Y-68527308D01*
X111754209Y-68506690D01*
X111741808Y-68428393D01*
X111741807Y-68428391D01*
X111741807Y-68428390D01*
X111719010Y-68383648D01*
X120546901Y-68383648D01*
X120564591Y-68506690D01*
X120616231Y-68619764D01*
X120616235Y-68619771D01*
X120697635Y-68713712D01*
X120697636Y-68713712D01*
X120697639Y-68713716D01*
X120802216Y-68780923D01*
X120802218Y-68780924D01*
X120921486Y-68815945D01*
X120921489Y-68815945D01*
X120921491Y-68815946D01*
X120921493Y-68815946D01*
X121045799Y-68815946D01*
X121045801Y-68815946D01*
X121045803Y-68815945D01*
X121045805Y-68815945D01*
X121128006Y-68791808D01*
X121165076Y-68780923D01*
X121269653Y-68713716D01*
X121351059Y-68619768D01*
X121402700Y-68506691D01*
X121408596Y-68465676D01*
X121420391Y-68383648D01*
X121420391Y-68383643D01*
X121419867Y-68380001D01*
X125858028Y-68380001D01*
X125878191Y-68507308D01*
X125936705Y-68622147D01*
X125936706Y-68622148D01*
X125936708Y-68622151D01*
X126027849Y-68713292D01*
X126027851Y-68713293D01*
X126027852Y-68713294D01*
X126142691Y-68771808D01*
X126142692Y-68771808D01*
X126142694Y-68771809D01*
X126200245Y-68780924D01*
X126269999Y-68791972D01*
X126270000Y-68791972D01*
X126270001Y-68791972D01*
X126293958Y-68788177D01*
X126397306Y-68771809D01*
X126512151Y-68713292D01*
X126603292Y-68622151D01*
X126661809Y-68507306D01*
X126681612Y-68382271D01*
X126681972Y-68380001D01*
X126681972Y-68379998D01*
X126671447Y-68313548D01*
X126669301Y-68300001D01*
X126928028Y-68300001D01*
X126948191Y-68427308D01*
X127006705Y-68542147D01*
X127006706Y-68542148D01*
X127006708Y-68542151D01*
X127097849Y-68633292D01*
X127097851Y-68633293D01*
X127097852Y-68633294D01*
X127212691Y-68691808D01*
X127212692Y-68691808D01*
X127212694Y-68691809D01*
X127301581Y-68705887D01*
X127339999Y-68711972D01*
X127340000Y-68711972D01*
X127340001Y-68711972D01*
X127363958Y-68708177D01*
X127467306Y-68691809D01*
X127582151Y-68633292D01*
X127673292Y-68542151D01*
X127731809Y-68427306D01*
X127736134Y-68400001D01*
X127863028Y-68400001D01*
X127883191Y-68527308D01*
X127941705Y-68642147D01*
X127941706Y-68642148D01*
X127941708Y-68642151D01*
X128032849Y-68733292D01*
X128032851Y-68733293D01*
X128032852Y-68733294D01*
X128147691Y-68791808D01*
X128147692Y-68791808D01*
X128147694Y-68791809D01*
X128236581Y-68805887D01*
X128274999Y-68811972D01*
X128275000Y-68811972D01*
X128275001Y-68811972D01*
X128298958Y-68808177D01*
X128402306Y-68791809D01*
X128517151Y-68733292D01*
X128608292Y-68642151D01*
X128666809Y-68527306D01*
X128683012Y-68425001D01*
X128838028Y-68425001D01*
X128858191Y-68552308D01*
X128916705Y-68667147D01*
X128916706Y-68667148D01*
X128916708Y-68667151D01*
X129007849Y-68758292D01*
X129007851Y-68758293D01*
X129007852Y-68758294D01*
X129122691Y-68816808D01*
X129122692Y-68816808D01*
X129122694Y-68816809D01*
X129211581Y-68830887D01*
X129249999Y-68836972D01*
X129250000Y-68836972D01*
X129250001Y-68836972D01*
X129273958Y-68833177D01*
X129377306Y-68816809D01*
X129492151Y-68758292D01*
X129583292Y-68667151D01*
X129641809Y-68552306D01*
X129661435Y-68428390D01*
X129661972Y-68425001D01*
X129661972Y-68424998D01*
X129642174Y-68300000D01*
X129641809Y-68297694D01*
X129641808Y-68297692D01*
X129641808Y-68297691D01*
X129583294Y-68182852D01*
X129583293Y-68182851D01*
X129583292Y-68182849D01*
X129492151Y-68091708D01*
X129492148Y-68091706D01*
X129492147Y-68091705D01*
X129377308Y-68033191D01*
X129377309Y-68033191D01*
X129250001Y-68013028D01*
X129249999Y-68013028D01*
X129122691Y-68033191D01*
X129007852Y-68091705D01*
X128916705Y-68182852D01*
X128858191Y-68297691D01*
X128838028Y-68424998D01*
X128838028Y-68425001D01*
X128683012Y-68425001D01*
X128686972Y-68400000D01*
X128684381Y-68383643D01*
X128673280Y-68313551D01*
X128666809Y-68272694D01*
X128666808Y-68272692D01*
X128666808Y-68272691D01*
X128608294Y-68157852D01*
X128608293Y-68157851D01*
X128608292Y-68157849D01*
X128517151Y-68066708D01*
X128517148Y-68066706D01*
X128517147Y-68066705D01*
X128402308Y-68008191D01*
X128402309Y-68008191D01*
X128275001Y-67988028D01*
X128274999Y-67988028D01*
X128147691Y-68008191D01*
X128032852Y-68066705D01*
X127941705Y-68157852D01*
X127883191Y-68272691D01*
X127863028Y-68399998D01*
X127863028Y-68400001D01*
X127736134Y-68400001D01*
X127751972Y-68300000D01*
X127751606Y-68297691D01*
X127744382Y-68252082D01*
X127731809Y-68172694D01*
X127731808Y-68172692D01*
X127731808Y-68172691D01*
X127673294Y-68057852D01*
X127673293Y-68057851D01*
X127673292Y-68057849D01*
X127582151Y-67966708D01*
X127582148Y-67966706D01*
X127582147Y-67966705D01*
X127467308Y-67908191D01*
X127467309Y-67908191D01*
X127340001Y-67888028D01*
X127339999Y-67888028D01*
X127212691Y-67908191D01*
X127097852Y-67966705D01*
X127006705Y-68057852D01*
X126948191Y-68172691D01*
X126928028Y-68299998D01*
X126928028Y-68300001D01*
X126669301Y-68300001D01*
X126661809Y-68252694D01*
X126661808Y-68252692D01*
X126661808Y-68252691D01*
X126603294Y-68137852D01*
X126603293Y-68137851D01*
X126603292Y-68137849D01*
X126512151Y-68046708D01*
X126512148Y-68046706D01*
X126512147Y-68046705D01*
X126397308Y-67988191D01*
X126397309Y-67988191D01*
X126270001Y-67968028D01*
X126269999Y-67968028D01*
X126142691Y-67988191D01*
X126027852Y-68046705D01*
X125936705Y-68137852D01*
X125878191Y-68252691D01*
X125858028Y-68379998D01*
X125858028Y-68380001D01*
X121419867Y-68380001D01*
X121402700Y-68260601D01*
X121367193Y-68182852D01*
X121351059Y-68147524D01*
X121342678Y-68137852D01*
X121269656Y-68053579D01*
X121269655Y-68053578D01*
X121269653Y-68053576D01*
X121167911Y-67988191D01*
X121165073Y-67986367D01*
X121045805Y-67951346D01*
X121045801Y-67951346D01*
X120921491Y-67951346D01*
X120921486Y-67951346D01*
X120802219Y-67986367D01*
X120802218Y-67986367D01*
X120760733Y-68013028D01*
X120697639Y-68053576D01*
X120697638Y-68053576D01*
X120697635Y-68053579D01*
X120616235Y-68147520D01*
X120616231Y-68147527D01*
X120564591Y-68260601D01*
X120546901Y-68383643D01*
X120546901Y-68383648D01*
X111719010Y-68383648D01*
X111683293Y-68313551D01*
X111683292Y-68313550D01*
X111683291Y-68313548D01*
X111592150Y-68222407D01*
X111592147Y-68222405D01*
X111592146Y-68222404D01*
X111477307Y-68163890D01*
X111477308Y-68163890D01*
X111350000Y-68143727D01*
X111349998Y-68143727D01*
X111222690Y-68163890D01*
X111107851Y-68222404D01*
X111016704Y-68313551D01*
X110958190Y-68428390D01*
X110938027Y-68555697D01*
X110938027Y-68555700D01*
X104851119Y-68555700D01*
X104767599Y-68382270D01*
X104767599Y-68382269D01*
X104618117Y-68163020D01*
X104618108Y-68163009D01*
X104437631Y-67968500D01*
X104437626Y-67968496D01*
X104437623Y-67968492D01*
X104230155Y-67803042D01*
X104194229Y-67782300D01*
X104000357Y-67670367D01*
X104000342Y-67670359D01*
X103950254Y-67650701D01*
X108667328Y-67650701D01*
X108687491Y-67778008D01*
X108746005Y-67892847D01*
X108746006Y-67892848D01*
X108746008Y-67892851D01*
X108837149Y-67983992D01*
X108837151Y-67983993D01*
X108837152Y-67983994D01*
X108951991Y-68042508D01*
X108951992Y-68042508D01*
X108951994Y-68042509D01*
X109040881Y-68056587D01*
X109079299Y-68062672D01*
X109079300Y-68062672D01*
X109079301Y-68062672D01*
X109103258Y-68058877D01*
X109206606Y-68042509D01*
X109321451Y-67983992D01*
X109412592Y-67892851D01*
X109471109Y-67778006D01*
X109471585Y-67775001D01*
X114088028Y-67775001D01*
X114108191Y-67902308D01*
X114166705Y-68017147D01*
X114166706Y-68017148D01*
X114166708Y-68017151D01*
X114257849Y-68108292D01*
X114257851Y-68108293D01*
X114257852Y-68108294D01*
X114372691Y-68166808D01*
X114372692Y-68166808D01*
X114372694Y-68166809D01*
X114461581Y-68180887D01*
X114499999Y-68186972D01*
X114500000Y-68186972D01*
X114500001Y-68186972D01*
X114526032Y-68182849D01*
X114627306Y-68166809D01*
X114742151Y-68108292D01*
X114833292Y-68017151D01*
X114891809Y-67902306D01*
X114911972Y-67775000D01*
X114891809Y-67647694D01*
X114891808Y-67647692D01*
X114891808Y-67647691D01*
X114833294Y-67532852D01*
X114833293Y-67532851D01*
X114833292Y-67532849D01*
X114742151Y-67441708D01*
X114742148Y-67441706D01*
X114742147Y-67441705D01*
X114627308Y-67383191D01*
X114627309Y-67383191D01*
X114500001Y-67363028D01*
X114499999Y-67363028D01*
X114372691Y-67383191D01*
X114257852Y-67441705D01*
X114166705Y-67532852D01*
X114108191Y-67647691D01*
X114088028Y-67774998D01*
X114088028Y-67775001D01*
X109471585Y-67775001D01*
X109491272Y-67650700D01*
X109490795Y-67647691D01*
X109472607Y-67532852D01*
X109471109Y-67523394D01*
X109471108Y-67523392D01*
X109471108Y-67523391D01*
X109412594Y-67408552D01*
X109412593Y-67408551D01*
X109412592Y-67408549D01*
X109321451Y-67317408D01*
X109321448Y-67317406D01*
X109321447Y-67317405D01*
X109206608Y-67258891D01*
X109206609Y-67258891D01*
X109079301Y-67238728D01*
X109079299Y-67238728D01*
X108951991Y-67258891D01*
X108837152Y-67317405D01*
X108746005Y-67408552D01*
X108687491Y-67523391D01*
X108667328Y-67650698D01*
X108667328Y-67650701D01*
X103950254Y-67650701D01*
X103753333Y-67573415D01*
X103753334Y-67573415D01*
X103494612Y-67514363D01*
X103494614Y-67514363D01*
X103304996Y-67500155D01*
X103296255Y-67499500D01*
X103163745Y-67499500D01*
X103155003Y-67500155D01*
X102965386Y-67514363D01*
X102706666Y-67573415D01*
X102459657Y-67670359D01*
X102459642Y-67670367D01*
X102229854Y-67803036D01*
X102229838Y-67803047D01*
X102022382Y-67968487D01*
X102022368Y-67968500D01*
X101841891Y-68163009D01*
X101841882Y-68163020D01*
X101692400Y-68382268D01*
X101692400Y-68382270D01*
X101577266Y-68621350D01*
X101577262Y-68621358D01*
X101499050Y-68874920D01*
X101459500Y-69137318D01*
X101459500Y-69402681D01*
X99038700Y-69402681D01*
X99038700Y-67170702D01*
X118882555Y-67170702D01*
X118900245Y-67293744D01*
X118951885Y-67406818D01*
X118951889Y-67406825D01*
X119033289Y-67500766D01*
X119033290Y-67500766D01*
X119033293Y-67500770D01*
X119137870Y-67567977D01*
X119137872Y-67567978D01*
X119257140Y-67602999D01*
X119257143Y-67602999D01*
X119257145Y-67603000D01*
X119257147Y-67603000D01*
X119381453Y-67603000D01*
X119381455Y-67603000D01*
X119381457Y-67602999D01*
X119381459Y-67602999D01*
X119482210Y-67573415D01*
X119500730Y-67567977D01*
X119605307Y-67500770D01*
X119686713Y-67406822D01*
X119712662Y-67350002D01*
X123363255Y-67350002D01*
X123380945Y-67473044D01*
X123432585Y-67586118D01*
X123432589Y-67586125D01*
X123513989Y-67680066D01*
X123513990Y-67680066D01*
X123513993Y-67680070D01*
X123618570Y-67747277D01*
X123618572Y-67747278D01*
X123737840Y-67782299D01*
X123737843Y-67782299D01*
X123737845Y-67782300D01*
X123737847Y-67782300D01*
X123862153Y-67782300D01*
X123862155Y-67782300D01*
X123862157Y-67782299D01*
X123862159Y-67782299D01*
X123921792Y-67764788D01*
X123981430Y-67747277D01*
X124086007Y-67680070D01*
X124167413Y-67586122D01*
X124219054Y-67473045D01*
X124236745Y-67350000D01*
X124219054Y-67226955D01*
X124167413Y-67113878D01*
X124153951Y-67098342D01*
X124086010Y-67019933D01*
X124086009Y-67019932D01*
X124086007Y-67019930D01*
X123981430Y-66952723D01*
X123981427Y-66952721D01*
X123862159Y-66917700D01*
X123862155Y-66917700D01*
X123737845Y-66917700D01*
X123737840Y-66917700D01*
X123618573Y-66952721D01*
X123618572Y-66952721D01*
X123553239Y-66994707D01*
X123513993Y-67019930D01*
X123513992Y-67019930D01*
X123513989Y-67019933D01*
X123432589Y-67113874D01*
X123432585Y-67113881D01*
X123380945Y-67226955D01*
X123363255Y-67349997D01*
X123363255Y-67350002D01*
X119712662Y-67350002D01*
X119738354Y-67293745D01*
X119756045Y-67170700D01*
X119747875Y-67113878D01*
X119738354Y-67047655D01*
X119719877Y-67007197D01*
X119686713Y-66934578D01*
X119672088Y-66917700D01*
X119605310Y-66840633D01*
X119605309Y-66840632D01*
X119605307Y-66840630D01*
X119500730Y-66773423D01*
X119500727Y-66773421D01*
X119472222Y-66765051D01*
X134156187Y-66765051D01*
X134176350Y-66892358D01*
X134234864Y-67007197D01*
X134234865Y-67007198D01*
X134234867Y-67007201D01*
X134326008Y-67098342D01*
X134326010Y-67098343D01*
X134326011Y-67098344D01*
X134440850Y-67156858D01*
X134440851Y-67156858D01*
X134440853Y-67156859D01*
X134528224Y-67170697D01*
X134568158Y-67177022D01*
X134568159Y-67177022D01*
X134568160Y-67177022D01*
X134608062Y-67170702D01*
X134695465Y-67156859D01*
X134810310Y-67098342D01*
X134901451Y-67007201D01*
X134959968Y-66892356D01*
X134980131Y-66765050D01*
X134959968Y-66637744D01*
X134959967Y-66637742D01*
X134959967Y-66637741D01*
X134901453Y-66522902D01*
X134901452Y-66522901D01*
X134901451Y-66522899D01*
X134810310Y-66431758D01*
X134810307Y-66431756D01*
X134810306Y-66431755D01*
X134695467Y-66373241D01*
X134695468Y-66373241D01*
X134568160Y-66353078D01*
X134568158Y-66353078D01*
X134440850Y-66373241D01*
X134326011Y-66431755D01*
X134234864Y-66522902D01*
X134176350Y-66637741D01*
X134156187Y-66765048D01*
X134156187Y-66765051D01*
X119472222Y-66765051D01*
X119381459Y-66738400D01*
X119381455Y-66738400D01*
X119257145Y-66738400D01*
X119257140Y-66738400D01*
X119137873Y-66773421D01*
X119137872Y-66773421D01*
X119072539Y-66815407D01*
X119033293Y-66840630D01*
X119033292Y-66840630D01*
X119033289Y-66840633D01*
X118951889Y-66934574D01*
X118951885Y-66934581D01*
X118900245Y-67047655D01*
X118882555Y-67170697D01*
X118882555Y-67170702D01*
X99038700Y-67170702D01*
X99038700Y-66160001D01*
X136378028Y-66160001D01*
X136398191Y-66287308D01*
X136456705Y-66402147D01*
X136456706Y-66402148D01*
X136456708Y-66402151D01*
X136547849Y-66493292D01*
X136547851Y-66493293D01*
X136547852Y-66493294D01*
X136662691Y-66551808D01*
X136662692Y-66551808D01*
X136662694Y-66551809D01*
X136751581Y-66565887D01*
X136789999Y-66571972D01*
X136790000Y-66571972D01*
X136790001Y-66571972D01*
X136813958Y-66568177D01*
X136917306Y-66551809D01*
X137032151Y-66493292D01*
X137123292Y-66402151D01*
X137181809Y-66287306D01*
X137201972Y-66160000D01*
X137181809Y-66032694D01*
X137181808Y-66032692D01*
X137181808Y-66032691D01*
X137123294Y-65917852D01*
X137123293Y-65917851D01*
X137123292Y-65917849D01*
X137032151Y-65826708D01*
X137032148Y-65826706D01*
X137032147Y-65826705D01*
X136917308Y-65768191D01*
X136917309Y-65768191D01*
X136790001Y-65748028D01*
X136789999Y-65748028D01*
X136662691Y-65768191D01*
X136547852Y-65826705D01*
X136456705Y-65917852D01*
X136398191Y-66032691D01*
X136378028Y-66159998D01*
X136378028Y-66160001D01*
X99038700Y-66160001D01*
X99038700Y-65700002D01*
X118863255Y-65700002D01*
X118880945Y-65823044D01*
X118932585Y-65936118D01*
X118932589Y-65936125D01*
X119013989Y-66030066D01*
X119013990Y-66030066D01*
X119013993Y-66030070D01*
X119110062Y-66091809D01*
X119118572Y-66097278D01*
X119237840Y-66132299D01*
X119237843Y-66132299D01*
X119237845Y-66132300D01*
X119237847Y-66132300D01*
X119362153Y-66132300D01*
X119362155Y-66132300D01*
X119362157Y-66132299D01*
X119362159Y-66132299D01*
X119431384Y-66111972D01*
X119481430Y-66097277D01*
X119586007Y-66030070D01*
X119667413Y-65936122D01*
X119719054Y-65823045D01*
X119736745Y-65700000D01*
X119719054Y-65576955D01*
X119667413Y-65463878D01*
X119662191Y-65457852D01*
X119586010Y-65369933D01*
X119586009Y-65369932D01*
X119586007Y-65369930D01*
X119481430Y-65302723D01*
X119481427Y-65302721D01*
X119362159Y-65267700D01*
X119362155Y-65267700D01*
X119237845Y-65267700D01*
X119237840Y-65267700D01*
X119118573Y-65302721D01*
X119118572Y-65302721D01*
X119057427Y-65342017D01*
X119013993Y-65369930D01*
X119013992Y-65369930D01*
X119013989Y-65369933D01*
X118932589Y-65463874D01*
X118932585Y-65463881D01*
X118880945Y-65576955D01*
X118863255Y-65699997D01*
X118863255Y-65700002D01*
X99038700Y-65700002D01*
X99038700Y-64871200D01*
X100536522Y-64871200D01*
X100573420Y-65020900D01*
X100652689Y-65171938D01*
X100765799Y-65299613D01*
X100765803Y-65299616D01*
X100906177Y-65396509D01*
X100906181Y-65396511D01*
X101065671Y-65456999D01*
X101065670Y-65456999D01*
X101192494Y-65472398D01*
X101192513Y-65472400D01*
X101533799Y-65472400D01*
X101533800Y-65472399D01*
X101533800Y-65070000D01*
X101736200Y-65070000D01*
X101736200Y-65472399D01*
X101736201Y-65472400D01*
X102077487Y-65472400D01*
X102077505Y-65472398D01*
X102204329Y-65456999D01*
X102363818Y-65396511D01*
X102363822Y-65396509D01*
X102504196Y-65299616D01*
X102504200Y-65299613D01*
X102617310Y-65171938D01*
X102696579Y-65020900D01*
X102733478Y-64871200D01*
X104566522Y-64871200D01*
X104603420Y-65020900D01*
X104682689Y-65171938D01*
X104795799Y-65299613D01*
X104795803Y-65299616D01*
X104936177Y-65396509D01*
X104936181Y-65396511D01*
X105095671Y-65456999D01*
X105095670Y-65456999D01*
X105222494Y-65472398D01*
X105222513Y-65472400D01*
X105713799Y-65472400D01*
X105713800Y-65472398D01*
X105713800Y-65070000D01*
X105916199Y-65070000D01*
X105916199Y-65472398D01*
X105916201Y-65472400D01*
X106407487Y-65472400D01*
X106407505Y-65472398D01*
X106534329Y-65456999D01*
X106693818Y-65396511D01*
X106693822Y-65396509D01*
X106834196Y-65299616D01*
X106834200Y-65299613D01*
X106947310Y-65171938D01*
X107024427Y-65025001D01*
X115138028Y-65025001D01*
X115158191Y-65152308D01*
X115216705Y-65267147D01*
X115216706Y-65267148D01*
X115216708Y-65267151D01*
X115307849Y-65358292D01*
X115307851Y-65358293D01*
X115307852Y-65358294D01*
X115422691Y-65416808D01*
X115422692Y-65416808D01*
X115422694Y-65416809D01*
X115511581Y-65430887D01*
X115549999Y-65436972D01*
X115550000Y-65436972D01*
X115550001Y-65436972D01*
X115573958Y-65433177D01*
X115677306Y-65416809D01*
X115792151Y-65358292D01*
X115883292Y-65267151D01*
X115941809Y-65152306D01*
X115960150Y-65036503D01*
X115961972Y-65025001D01*
X115961972Y-65024998D01*
X115954382Y-64977082D01*
X115941809Y-64897694D01*
X115941808Y-64897692D01*
X115941808Y-64897691D01*
X115883294Y-64782852D01*
X115883293Y-64782851D01*
X115883292Y-64782849D01*
X115792151Y-64691708D01*
X115792148Y-64691706D01*
X115792147Y-64691705D01*
X115677308Y-64633191D01*
X115677309Y-64633191D01*
X115550001Y-64613028D01*
X115549999Y-64613028D01*
X115422691Y-64633191D01*
X115307852Y-64691705D01*
X115216705Y-64782852D01*
X115158191Y-64897691D01*
X115138028Y-65024998D01*
X115138028Y-65025001D01*
X107024427Y-65025001D01*
X107026579Y-65020900D01*
X107063478Y-64871200D01*
X106648113Y-64871200D01*
X106668895Y-64798160D01*
X106658546Y-64686479D01*
X106649743Y-64668800D01*
X107063477Y-64668800D01*
X107063477Y-64668799D01*
X107026579Y-64519099D01*
X106947310Y-64368061D01*
X106834200Y-64240386D01*
X106834196Y-64240383D01*
X106762221Y-64190702D01*
X118892555Y-64190702D01*
X118910245Y-64313744D01*
X118961885Y-64426818D01*
X118961889Y-64426825D01*
X119043289Y-64520766D01*
X119043290Y-64520766D01*
X119043293Y-64520770D01*
X119147870Y-64587977D01*
X119147872Y-64587978D01*
X119267140Y-64622999D01*
X119267143Y-64622999D01*
X119267145Y-64623000D01*
X119267147Y-64623000D01*
X119391453Y-64623000D01*
X119391455Y-64623000D01*
X119391457Y-64622999D01*
X119391459Y-64622999D01*
X119451092Y-64605488D01*
X119510730Y-64587977D01*
X119608722Y-64525002D01*
X121388255Y-64525002D01*
X121405945Y-64648044D01*
X121457585Y-64761118D01*
X121457589Y-64761125D01*
X121538989Y-64855066D01*
X121538990Y-64855066D01*
X121538993Y-64855070D01*
X121643570Y-64922277D01*
X121643572Y-64922278D01*
X121762840Y-64957299D01*
X121762843Y-64957299D01*
X121762845Y-64957300D01*
X121762847Y-64957300D01*
X121887153Y-64957300D01*
X121887155Y-64957300D01*
X121887157Y-64957299D01*
X121887159Y-64957299D01*
X121946792Y-64939788D01*
X122006430Y-64922277D01*
X122111007Y-64855070D01*
X122192413Y-64761122D01*
X122244054Y-64648045D01*
X122261413Y-64527308D01*
X122261745Y-64525002D01*
X122261745Y-64524997D01*
X122244054Y-64401955D01*
X122192414Y-64288881D01*
X122192413Y-64288878D01*
X122111007Y-64194930D01*
X122006430Y-64127723D01*
X122006427Y-64127721D01*
X121887159Y-64092700D01*
X121887155Y-64092700D01*
X121762845Y-64092700D01*
X121762840Y-64092700D01*
X121643573Y-64127721D01*
X121643572Y-64127721D01*
X121596688Y-64157852D01*
X121538993Y-64194930D01*
X121538992Y-64194930D01*
X121538989Y-64194933D01*
X121457589Y-64288874D01*
X121457585Y-64288881D01*
X121405945Y-64401955D01*
X121388255Y-64524997D01*
X121388255Y-64525002D01*
X119608722Y-64525002D01*
X119615307Y-64520770D01*
X119696713Y-64426822D01*
X119748354Y-64313745D01*
X119758902Y-64240383D01*
X119766045Y-64190702D01*
X119766045Y-64190697D01*
X119748354Y-64067655D01*
X119736302Y-64041265D01*
X119696713Y-63954578D01*
X119615307Y-63860630D01*
X119510730Y-63793423D01*
X119510727Y-63793421D01*
X119391459Y-63758400D01*
X119391455Y-63758400D01*
X119267145Y-63758400D01*
X119267140Y-63758400D01*
X119147873Y-63793421D01*
X119147872Y-63793421D01*
X119082539Y-63835407D01*
X119043293Y-63860630D01*
X119043292Y-63860630D01*
X119043289Y-63860633D01*
X118961889Y-63954574D01*
X118961885Y-63954581D01*
X118910245Y-64067655D01*
X118892555Y-64190697D01*
X118892555Y-64190702D01*
X106762221Y-64190702D01*
X106693822Y-64143490D01*
X106693818Y-64143488D01*
X106534328Y-64083000D01*
X106534329Y-64083000D01*
X106407505Y-64067601D01*
X106407487Y-64067600D01*
X105916201Y-64067600D01*
X105916199Y-64067601D01*
X105916199Y-64470000D01*
X105713800Y-64470000D01*
X105713800Y-64067601D01*
X105713799Y-64067600D01*
X105222513Y-64067600D01*
X105222494Y-64067601D01*
X105095670Y-64083000D01*
X104936181Y-64143488D01*
X104936177Y-64143490D01*
X104795803Y-64240383D01*
X104795799Y-64240386D01*
X104682689Y-64368061D01*
X104603420Y-64519099D01*
X104566522Y-64668799D01*
X104566523Y-64668800D01*
X104981887Y-64668800D01*
X104961105Y-64741840D01*
X104971454Y-64853521D01*
X104980257Y-64871200D01*
X104566522Y-64871200D01*
X102733478Y-64871200D01*
X102318113Y-64871200D01*
X102338895Y-64798160D01*
X102328546Y-64686479D01*
X102319743Y-64668800D01*
X102733477Y-64668800D01*
X102733477Y-64668799D01*
X102696579Y-64519099D01*
X102617310Y-64368061D01*
X102504200Y-64240386D01*
X102504196Y-64240383D01*
X102363822Y-64143490D01*
X102363818Y-64143488D01*
X102204328Y-64083000D01*
X102204329Y-64083000D01*
X102077505Y-64067601D01*
X102077487Y-64067600D01*
X101736201Y-64067600D01*
X101736200Y-64067601D01*
X101736200Y-64470000D01*
X101533800Y-64470000D01*
X101533800Y-64067601D01*
X101533799Y-64067600D01*
X101192513Y-64067600D01*
X101192494Y-64067601D01*
X101065670Y-64083000D01*
X100906181Y-64143488D01*
X100906177Y-64143490D01*
X100765803Y-64240383D01*
X100765799Y-64240386D01*
X100652689Y-64368061D01*
X100573420Y-64519099D01*
X100536522Y-64668799D01*
X100536523Y-64668800D01*
X100951887Y-64668800D01*
X100931105Y-64741840D01*
X100941454Y-64853521D01*
X100950257Y-64871200D01*
X100536522Y-64871200D01*
X99038700Y-64871200D01*
X99038700Y-63411246D01*
X104819500Y-63411246D01*
X104859641Y-63547951D01*
X104859644Y-63547957D01*
X104936676Y-63667821D01*
X104936677Y-63667822D01*
X105044354Y-63761124D01*
X105044355Y-63761124D01*
X105044358Y-63761127D01*
X105173966Y-63820317D01*
X105279564Y-63835500D01*
X105279570Y-63835500D01*
X105350430Y-63835500D01*
X105350436Y-63835500D01*
X105456034Y-63820317D01*
X105585642Y-63761127D01*
X105598481Y-63750002D01*
X120541656Y-63750002D01*
X120559346Y-63873044D01*
X120610986Y-63986118D01*
X120610990Y-63986125D01*
X120692390Y-64080066D01*
X120692391Y-64080066D01*
X120692394Y-64080070D01*
X120796971Y-64147277D01*
X120796973Y-64147278D01*
X120916241Y-64182299D01*
X120916244Y-64182299D01*
X120916246Y-64182300D01*
X120916248Y-64182300D01*
X121040554Y-64182300D01*
X121040556Y-64182300D01*
X121040558Y-64182299D01*
X121040560Y-64182299D01*
X121100193Y-64164788D01*
X121159831Y-64147277D01*
X121264408Y-64080070D01*
X121345814Y-63986122D01*
X121397455Y-63873045D01*
X121413547Y-63761124D01*
X121415146Y-63750002D01*
X121415146Y-63749997D01*
X121411552Y-63725001D01*
X139278028Y-63725001D01*
X139298191Y-63852308D01*
X139356705Y-63967147D01*
X139356706Y-63967148D01*
X139356708Y-63967151D01*
X139430823Y-64041266D01*
X139441689Y-64067499D01*
X139430823Y-64093732D01*
X139366706Y-64157849D01*
X139366706Y-64157851D01*
X139308191Y-64272691D01*
X139288028Y-64399998D01*
X139288028Y-64400001D01*
X139308191Y-64527308D01*
X139366706Y-64642148D01*
X139366706Y-64642149D01*
X139416574Y-64692018D01*
X139427440Y-64718251D01*
X139416574Y-64744484D01*
X139366707Y-64794352D01*
X139366706Y-64794354D01*
X139308191Y-64909194D01*
X139288028Y-65036501D01*
X139288028Y-65036504D01*
X139308191Y-65163811D01*
X139366706Y-65278651D01*
X139366706Y-65278652D01*
X139430071Y-65342018D01*
X139440937Y-65368251D01*
X139430071Y-65394484D01*
X139366706Y-65457849D01*
X139366706Y-65457851D01*
X139308191Y-65572691D01*
X139288028Y-65699998D01*
X139288028Y-65700001D01*
X139308191Y-65827308D01*
X139366705Y-65942147D01*
X139366706Y-65942148D01*
X139366708Y-65942151D01*
X139457849Y-66033292D01*
X139457851Y-66033293D01*
X139457852Y-66033294D01*
X139572691Y-66091808D01*
X139572692Y-66091808D01*
X139572694Y-66091809D01*
X139661581Y-66105887D01*
X139699999Y-66111972D01*
X139700000Y-66111972D01*
X139700001Y-66111972D01*
X139723958Y-66108177D01*
X139827306Y-66091809D01*
X139942151Y-66033292D01*
X140033292Y-65942151D01*
X140091809Y-65827306D01*
X140111972Y-65700000D01*
X140091809Y-65572694D01*
X140091808Y-65572692D01*
X140091808Y-65572691D01*
X140033294Y-65457852D01*
X140033293Y-65457851D01*
X140033292Y-65457849D01*
X139969926Y-65394483D01*
X139959061Y-65368251D01*
X139969927Y-65342018D01*
X140033292Y-65278654D01*
X140091809Y-65163809D01*
X140111972Y-65036503D01*
X140110860Y-65029484D01*
X140104382Y-64988585D01*
X140091809Y-64909197D01*
X140091808Y-64909195D01*
X140091808Y-64909194D01*
X140033293Y-64794354D01*
X140033293Y-64794353D01*
X139983424Y-64744483D01*
X139972558Y-64718250D01*
X139983424Y-64692018D01*
X140033292Y-64642151D01*
X140091809Y-64527306D01*
X140108177Y-64423958D01*
X140111972Y-64400001D01*
X140111972Y-64399998D01*
X140104382Y-64352082D01*
X140091809Y-64272694D01*
X140091808Y-64272692D01*
X140091808Y-64272691D01*
X140033294Y-64157852D01*
X140033293Y-64157851D01*
X140033292Y-64157849D01*
X139959175Y-64083732D01*
X139948310Y-64057500D01*
X139959175Y-64031267D01*
X140023292Y-63967151D01*
X140081809Y-63852306D01*
X140101972Y-63725000D01*
X140081809Y-63597694D01*
X140081808Y-63597692D01*
X140081808Y-63597691D01*
X140023294Y-63482852D01*
X140023293Y-63482851D01*
X140023292Y-63482849D01*
X139932151Y-63391708D01*
X139932148Y-63391706D01*
X139932147Y-63391705D01*
X139817308Y-63333191D01*
X139817309Y-63333191D01*
X139690001Y-63313028D01*
X139689999Y-63313028D01*
X139562691Y-63333191D01*
X139447852Y-63391705D01*
X139356705Y-63482852D01*
X139298191Y-63597691D01*
X139278028Y-63724998D01*
X139278028Y-63725001D01*
X121411552Y-63725001D01*
X121397455Y-63626955D01*
X121361377Y-63547957D01*
X121345814Y-63513878D01*
X121318927Y-63482849D01*
X121264411Y-63419933D01*
X121264410Y-63419932D01*
X121264408Y-63419930D01*
X121159831Y-63352723D01*
X121159828Y-63352721D01*
X121040560Y-63317700D01*
X121040556Y-63317700D01*
X120916246Y-63317700D01*
X120916241Y-63317700D01*
X120796974Y-63352721D01*
X120796973Y-63352721D01*
X120736313Y-63391705D01*
X120692394Y-63419930D01*
X120692393Y-63419930D01*
X120692390Y-63419933D01*
X120610990Y-63513874D01*
X120610986Y-63513881D01*
X120559346Y-63626955D01*
X120541656Y-63749997D01*
X120541656Y-63750002D01*
X105598481Y-63750002D01*
X105693324Y-63667820D01*
X105770357Y-63547955D01*
X105810500Y-63411242D01*
X105810500Y-63268758D01*
X105793577Y-63211125D01*
X105770358Y-63132048D01*
X105770357Y-63132047D01*
X105770357Y-63132045D01*
X105693324Y-63012180D01*
X105693323Y-63012178D01*
X105693322Y-63012177D01*
X105585645Y-62918875D01*
X105585642Y-62918873D01*
X105585638Y-62918871D01*
X105456033Y-62859682D01*
X105388707Y-62850002D01*
X106938255Y-62850002D01*
X106955945Y-62973044D01*
X107007585Y-63086118D01*
X107007589Y-63086125D01*
X107088989Y-63180066D01*
X107088990Y-63180066D01*
X107088993Y-63180070D01*
X107193570Y-63247277D01*
X107193572Y-63247278D01*
X107312840Y-63282299D01*
X107312843Y-63282299D01*
X107312845Y-63282300D01*
X107312847Y-63282300D01*
X107437153Y-63282300D01*
X107437155Y-63282300D01*
X107437157Y-63282299D01*
X107437159Y-63282299D01*
X107496792Y-63264788D01*
X107556430Y-63247277D01*
X107661007Y-63180070D01*
X107742413Y-63086122D01*
X107794054Y-62973045D01*
X107811745Y-62850000D01*
X107810954Y-62844501D01*
X107794054Y-62726955D01*
X107742414Y-62613881D01*
X107742413Y-62613878D01*
X107712883Y-62579798D01*
X112039401Y-62579798D01*
X112059564Y-62707105D01*
X112118078Y-62821944D01*
X112118079Y-62821945D01*
X112118081Y-62821948D01*
X112209222Y-62913089D01*
X112209224Y-62913090D01*
X112209225Y-62913091D01*
X112324064Y-62971605D01*
X112324065Y-62971605D01*
X112324067Y-62971606D01*
X112412954Y-62985684D01*
X112451372Y-62991769D01*
X112451373Y-62991769D01*
X112451374Y-62991769D01*
X112487027Y-62986122D01*
X112578679Y-62971606D01*
X112693524Y-62913089D01*
X112784665Y-62821948D01*
X112821324Y-62750002D01*
X118788255Y-62750002D01*
X118805945Y-62873044D01*
X118857585Y-62986118D01*
X118857589Y-62986125D01*
X118938989Y-63080066D01*
X118938990Y-63080066D01*
X118938993Y-63080070D01*
X119043570Y-63147277D01*
X119043572Y-63147278D01*
X119162840Y-63182299D01*
X119162843Y-63182299D01*
X119162845Y-63182300D01*
X119162847Y-63182300D01*
X119287153Y-63182300D01*
X119287155Y-63182300D01*
X119287157Y-63182299D01*
X119287159Y-63182299D01*
X119346792Y-63164788D01*
X119406430Y-63147277D01*
X119511007Y-63080070D01*
X119592413Y-62986122D01*
X119644054Y-62873045D01*
X119661745Y-62750000D01*
X119660146Y-62738881D01*
X119644054Y-62626955D01*
X119622517Y-62579797D01*
X119620327Y-62575002D01*
X123438255Y-62575002D01*
X123455945Y-62698044D01*
X123507585Y-62811118D01*
X123507589Y-62811125D01*
X123588989Y-62905066D01*
X123588990Y-62905066D01*
X123588993Y-62905070D01*
X123692526Y-62971606D01*
X123693572Y-62972278D01*
X123812840Y-63007299D01*
X123812843Y-63007299D01*
X123812845Y-63007300D01*
X123812847Y-63007300D01*
X123937153Y-63007300D01*
X123937155Y-63007300D01*
X123937157Y-63007299D01*
X123937159Y-63007299D01*
X124009293Y-62986118D01*
X124047150Y-62975002D01*
X125638255Y-62975002D01*
X125655945Y-63098044D01*
X125707585Y-63211118D01*
X125707589Y-63211125D01*
X125788989Y-63305066D01*
X125788990Y-63305066D01*
X125788993Y-63305070D01*
X125893570Y-63372277D01*
X125893572Y-63372278D01*
X126012840Y-63407299D01*
X126012843Y-63407299D01*
X126012845Y-63407300D01*
X126012847Y-63407300D01*
X126137153Y-63407300D01*
X126137155Y-63407300D01*
X126137157Y-63407299D01*
X126137159Y-63407299D01*
X126196792Y-63389788D01*
X126256430Y-63372277D01*
X126361007Y-63305070D01*
X126442413Y-63211122D01*
X126494054Y-63098045D01*
X126499951Y-63057030D01*
X126511745Y-62975002D01*
X126511745Y-62974997D01*
X126494054Y-62851955D01*
X126442414Y-62738881D01*
X126442413Y-62738878D01*
X126407031Y-62698045D01*
X126361010Y-62644933D01*
X126361009Y-62644932D01*
X126361007Y-62644930D01*
X126256430Y-62577723D01*
X126256427Y-62577721D01*
X126137159Y-62542700D01*
X126137155Y-62542700D01*
X126012845Y-62542700D01*
X126012840Y-62542700D01*
X125893573Y-62577721D01*
X125893572Y-62577721D01*
X125828239Y-62619707D01*
X125788993Y-62644930D01*
X125788992Y-62644930D01*
X125788989Y-62644933D01*
X125707589Y-62738874D01*
X125707585Y-62738881D01*
X125655945Y-62851955D01*
X125638255Y-62974997D01*
X125638255Y-62975002D01*
X124047150Y-62975002D01*
X124056430Y-62972277D01*
X124161007Y-62905070D01*
X124242413Y-62811122D01*
X124294054Y-62698045D01*
X124311055Y-62579798D01*
X124311745Y-62575002D01*
X124311745Y-62574997D01*
X124294054Y-62451955D01*
X124279430Y-62419933D01*
X124242413Y-62338878D01*
X124241348Y-62337649D01*
X124161010Y-62244933D01*
X124161009Y-62244932D01*
X124161007Y-62244930D01*
X124056430Y-62177723D01*
X124056427Y-62177721D01*
X123937159Y-62142700D01*
X123937155Y-62142700D01*
X123812845Y-62142700D01*
X123812840Y-62142700D01*
X123693573Y-62177721D01*
X123693572Y-62177721D01*
X123628239Y-62219707D01*
X123588993Y-62244930D01*
X123588992Y-62244930D01*
X123588989Y-62244933D01*
X123507589Y-62338874D01*
X123507585Y-62338881D01*
X123455945Y-62451955D01*
X123438255Y-62574997D01*
X123438255Y-62575002D01*
X119620327Y-62575002D01*
X119592413Y-62513878D01*
X119539422Y-62452723D01*
X119511010Y-62419933D01*
X119511009Y-62419932D01*
X119511007Y-62419930D01*
X119406430Y-62352723D01*
X119406427Y-62352721D01*
X119287159Y-62317700D01*
X119287155Y-62317700D01*
X119162845Y-62317700D01*
X119162840Y-62317700D01*
X119043573Y-62352721D01*
X119043572Y-62352721D01*
X118978239Y-62394707D01*
X118938993Y-62419930D01*
X118938992Y-62419930D01*
X118938989Y-62419933D01*
X118857589Y-62513874D01*
X118857585Y-62513881D01*
X118805945Y-62626955D01*
X118788255Y-62749997D01*
X118788255Y-62750002D01*
X112821324Y-62750002D01*
X112843182Y-62707103D01*
X112863345Y-62579797D01*
X112863016Y-62577721D01*
X112852905Y-62513881D01*
X112843182Y-62452491D01*
X112843181Y-62452489D01*
X112843181Y-62452488D01*
X112784667Y-62337649D01*
X112784666Y-62337648D01*
X112784665Y-62337646D01*
X112693524Y-62246505D01*
X112693521Y-62246503D01*
X112693520Y-62246502D01*
X112578681Y-62187988D01*
X112578682Y-62187988D01*
X112451374Y-62167825D01*
X112451372Y-62167825D01*
X112324064Y-62187988D01*
X112209225Y-62246502D01*
X112118078Y-62337649D01*
X112059564Y-62452488D01*
X112039401Y-62579795D01*
X112039401Y-62579798D01*
X107712883Y-62579798D01*
X107712880Y-62579795D01*
X107661010Y-62519933D01*
X107661009Y-62519932D01*
X107661007Y-62519930D01*
X107556430Y-62452723D01*
X107556427Y-62452721D01*
X107437159Y-62417700D01*
X107437155Y-62417700D01*
X107312845Y-62417700D01*
X107312840Y-62417700D01*
X107193573Y-62452721D01*
X107193572Y-62452721D01*
X107128239Y-62494707D01*
X107088993Y-62519930D01*
X107088992Y-62519930D01*
X107088989Y-62519933D01*
X107007589Y-62613874D01*
X107007585Y-62613881D01*
X106955945Y-62726955D01*
X106938255Y-62849997D01*
X106938255Y-62850002D01*
X105388707Y-62850002D01*
X105350447Y-62844501D01*
X105350440Y-62844500D01*
X105350436Y-62844500D01*
X105279564Y-62844500D01*
X105279560Y-62844500D01*
X105279552Y-62844501D01*
X105173966Y-62859682D01*
X105044361Y-62918871D01*
X105044354Y-62918875D01*
X104936677Y-63012177D01*
X104936676Y-63012178D01*
X104859644Y-63132042D01*
X104859641Y-63132048D01*
X104819500Y-63268753D01*
X104819500Y-63411246D01*
X99038700Y-63411246D01*
X99038700Y-61625002D01*
X117238255Y-61625002D01*
X117255945Y-61748044D01*
X117307585Y-61861118D01*
X117307589Y-61861125D01*
X117388989Y-61955066D01*
X117388990Y-61955066D01*
X117388993Y-61955070D01*
X117493570Y-62022277D01*
X117493572Y-62022278D01*
X117612840Y-62057299D01*
X117612843Y-62057299D01*
X117612845Y-62057300D01*
X117612847Y-62057300D01*
X117737153Y-62057300D01*
X117737155Y-62057300D01*
X117737157Y-62057299D01*
X117737159Y-62057299D01*
X117796792Y-62039788D01*
X117856430Y-62022277D01*
X117961007Y-61955070D01*
X118042413Y-61861122D01*
X118094054Y-61748045D01*
X118111745Y-61625000D01*
X118094054Y-61501955D01*
X118042413Y-61388878D01*
X118000117Y-61340066D01*
X117961010Y-61294933D01*
X117961009Y-61294932D01*
X117961007Y-61294930D01*
X117856430Y-61227723D01*
X117856427Y-61227721D01*
X117737159Y-61192700D01*
X117737155Y-61192700D01*
X117612845Y-61192700D01*
X117612840Y-61192700D01*
X117493573Y-61227721D01*
X117493572Y-61227721D01*
X117428239Y-61269707D01*
X117388993Y-61294930D01*
X117388992Y-61294930D01*
X117388989Y-61294933D01*
X117307589Y-61388874D01*
X117307585Y-61388881D01*
X117255945Y-61501955D01*
X117238255Y-61624997D01*
X117238255Y-61625002D01*
X99038700Y-61625002D01*
X99038700Y-60375001D01*
X126913028Y-60375001D01*
X126933191Y-60502308D01*
X126991705Y-60617147D01*
X126991706Y-60617148D01*
X126991708Y-60617151D01*
X127082849Y-60708292D01*
X127082851Y-60708293D01*
X127082852Y-60708294D01*
X127197691Y-60766808D01*
X127197692Y-60766808D01*
X127197694Y-60766809D01*
X127286581Y-60780887D01*
X127324999Y-60786972D01*
X127325000Y-60786972D01*
X127325001Y-60786972D01*
X127348958Y-60783177D01*
X127452306Y-60766809D01*
X127485293Y-60750001D01*
X132038028Y-60750001D01*
X132058191Y-60877308D01*
X132116705Y-60992147D01*
X132116706Y-60992148D01*
X132116708Y-60992151D01*
X132207849Y-61083292D01*
X132207851Y-61083293D01*
X132207852Y-61083294D01*
X132322691Y-61141808D01*
X132322692Y-61141808D01*
X132322694Y-61141809D01*
X132411581Y-61155887D01*
X132449999Y-61161972D01*
X132450000Y-61161972D01*
X132450001Y-61161972D01*
X132473958Y-61158177D01*
X132577306Y-61141809D01*
X132692151Y-61083292D01*
X132765441Y-61010002D01*
X133713255Y-61010002D01*
X133730945Y-61133044D01*
X133782585Y-61246118D01*
X133782589Y-61246125D01*
X133863989Y-61340066D01*
X133863990Y-61340066D01*
X133863993Y-61340070D01*
X133968570Y-61407277D01*
X133968572Y-61407278D01*
X134087840Y-61442299D01*
X134087843Y-61442299D01*
X134087845Y-61442300D01*
X134087847Y-61442300D01*
X134212153Y-61442300D01*
X134212155Y-61442300D01*
X134212157Y-61442299D01*
X134212159Y-61442299D01*
X134271792Y-61424788D01*
X134331430Y-61407277D01*
X134436007Y-61340070D01*
X134517413Y-61246122D01*
X134569054Y-61133045D01*
X134586745Y-61010000D01*
X134584178Y-60992147D01*
X134569054Y-60886955D01*
X134517414Y-60773881D01*
X134517413Y-60773878D01*
X134460584Y-60708294D01*
X134436010Y-60679933D01*
X134436009Y-60679932D01*
X134436007Y-60679930D01*
X134331430Y-60612723D01*
X134331427Y-60612721D01*
X134212159Y-60577700D01*
X134212155Y-60577700D01*
X134087845Y-60577700D01*
X134087840Y-60577700D01*
X133968573Y-60612721D01*
X133968572Y-60612721D01*
X133903239Y-60654707D01*
X133863993Y-60679930D01*
X133863992Y-60679930D01*
X133863989Y-60679933D01*
X133782589Y-60773874D01*
X133782585Y-60773881D01*
X133730945Y-60886955D01*
X133713255Y-61009997D01*
X133713255Y-61010002D01*
X132765441Y-61010002D01*
X132783292Y-60992151D01*
X132841809Y-60877306D01*
X132861972Y-60750000D01*
X132841809Y-60622694D01*
X132841808Y-60622692D01*
X132841808Y-60622691D01*
X132783294Y-60507852D01*
X132783293Y-60507851D01*
X132783292Y-60507849D01*
X132692151Y-60416708D01*
X132692148Y-60416706D01*
X132692147Y-60416705D01*
X132577308Y-60358191D01*
X132577309Y-60358191D01*
X132450001Y-60338028D01*
X132449999Y-60338028D01*
X132322691Y-60358191D01*
X132207852Y-60416705D01*
X132116705Y-60507852D01*
X132058191Y-60622691D01*
X132038028Y-60749998D01*
X132038028Y-60750001D01*
X127485293Y-60750001D01*
X127567151Y-60708292D01*
X127658292Y-60617151D01*
X127716809Y-60502306D01*
X127736972Y-60375000D01*
X127716809Y-60247694D01*
X127716808Y-60247692D01*
X127716808Y-60247691D01*
X127658294Y-60132852D01*
X127658293Y-60132851D01*
X127658292Y-60132849D01*
X127567151Y-60041708D01*
X127567148Y-60041706D01*
X127567147Y-60041705D01*
X127452308Y-59983191D01*
X127452309Y-59983191D01*
X127325001Y-59963028D01*
X127324999Y-59963028D01*
X127197691Y-59983191D01*
X127082852Y-60041705D01*
X126991705Y-60132852D01*
X126933191Y-60247691D01*
X126913028Y-60374998D01*
X126913028Y-60375001D01*
X99038700Y-60375001D01*
X99038700Y-59805651D01*
X132333678Y-59805651D01*
X132353841Y-59932958D01*
X132412355Y-60047797D01*
X132412356Y-60047798D01*
X132412358Y-60047801D01*
X132503499Y-60138942D01*
X132503501Y-60138943D01*
X132503502Y-60138944D01*
X132618341Y-60197458D01*
X132618342Y-60197458D01*
X132618344Y-60197459D01*
X132707231Y-60211537D01*
X132745649Y-60217622D01*
X132745650Y-60217622D01*
X132745651Y-60217622D01*
X132769608Y-60213827D01*
X132872956Y-60197459D01*
X132987801Y-60138942D01*
X133078942Y-60047801D01*
X133137459Y-59932956D01*
X133157622Y-59805650D01*
X133137459Y-59678344D01*
X133137458Y-59678342D01*
X133137458Y-59678341D01*
X133078944Y-59563502D01*
X133078943Y-59563501D01*
X133078942Y-59563499D01*
X132987801Y-59472358D01*
X132987798Y-59472356D01*
X132987797Y-59472355D01*
X132872958Y-59413841D01*
X132872959Y-59413841D01*
X132745651Y-59393678D01*
X132745649Y-59393678D01*
X132618341Y-59413841D01*
X132503502Y-59472355D01*
X132412355Y-59563502D01*
X132353841Y-59678341D01*
X132333678Y-59805648D01*
X132333678Y-59805651D01*
X99038700Y-59805651D01*
X99038700Y-58925001D01*
X109138028Y-58925001D01*
X109158191Y-59052308D01*
X109216705Y-59167147D01*
X109216706Y-59167148D01*
X109216708Y-59167151D01*
X109307849Y-59258292D01*
X109307851Y-59258293D01*
X109307852Y-59258294D01*
X109422691Y-59316808D01*
X109422692Y-59316808D01*
X109422694Y-59316809D01*
X109511581Y-59330887D01*
X109549999Y-59336972D01*
X109550000Y-59336972D01*
X109550001Y-59336972D01*
X109573958Y-59333177D01*
X109677306Y-59316809D01*
X109792151Y-59258292D01*
X109883292Y-59167151D01*
X109941809Y-59052306D01*
X109961972Y-58925000D01*
X109941809Y-58797694D01*
X109941808Y-58797692D01*
X109941808Y-58797691D01*
X109917508Y-58750001D01*
X125013028Y-58750001D01*
X125033191Y-58877308D01*
X125091705Y-58992147D01*
X125091706Y-58992148D01*
X125091708Y-58992151D01*
X125182849Y-59083292D01*
X125182851Y-59083293D01*
X125182852Y-59083294D01*
X125297691Y-59141808D01*
X125297692Y-59141808D01*
X125297694Y-59141809D01*
X125386581Y-59155887D01*
X125424999Y-59161972D01*
X125425000Y-59161972D01*
X125425001Y-59161972D01*
X125448958Y-59158177D01*
X125552306Y-59141809D01*
X125667151Y-59083292D01*
X125758292Y-58992151D01*
X125816809Y-58877306D01*
X125836972Y-58750000D01*
X125816809Y-58622694D01*
X125816808Y-58622692D01*
X125816808Y-58622691D01*
X125779770Y-58550001D01*
X132213028Y-58550001D01*
X132233191Y-58677308D01*
X132291705Y-58792147D01*
X132291706Y-58792148D01*
X132291708Y-58792151D01*
X132382849Y-58883292D01*
X132382851Y-58883293D01*
X132382852Y-58883294D01*
X132497691Y-58941808D01*
X132497692Y-58941808D01*
X132497694Y-58941809D01*
X132586581Y-58955887D01*
X132624999Y-58961972D01*
X132625000Y-58961972D01*
X132625001Y-58961972D01*
X132648958Y-58958177D01*
X132752306Y-58941809D01*
X132867151Y-58883292D01*
X132958292Y-58792151D01*
X133016809Y-58677306D01*
X133036972Y-58550000D01*
X133016809Y-58422694D01*
X133016808Y-58422692D01*
X133016808Y-58422691D01*
X132958294Y-58307852D01*
X132958293Y-58307851D01*
X132958292Y-58307849D01*
X132867151Y-58216708D01*
X132867148Y-58216706D01*
X132867147Y-58216705D01*
X132752308Y-58158191D01*
X132752309Y-58158191D01*
X132625001Y-58138028D01*
X132624999Y-58138028D01*
X132497691Y-58158191D01*
X132382852Y-58216705D01*
X132291705Y-58307852D01*
X132233191Y-58422691D01*
X132213028Y-58549998D01*
X132213028Y-58550001D01*
X125779770Y-58550001D01*
X125758294Y-58507852D01*
X125758293Y-58507851D01*
X125758292Y-58507849D01*
X125667151Y-58416708D01*
X125667148Y-58416706D01*
X125667147Y-58416705D01*
X125561357Y-58362802D01*
X125542916Y-58341210D01*
X125545144Y-58312903D01*
X125566736Y-58294462D01*
X125584003Y-58293103D01*
X125617295Y-58298375D01*
X125639999Y-58301972D01*
X125640000Y-58301972D01*
X125640001Y-58301972D01*
X125663958Y-58298177D01*
X125767306Y-58281809D01*
X125776358Y-58277197D01*
X125882147Y-58223294D01*
X125882146Y-58223294D01*
X125882151Y-58223292D01*
X125973292Y-58132151D01*
X126031809Y-58017306D01*
X126051972Y-57890000D01*
X126045271Y-57847694D01*
X126043875Y-57838874D01*
X126031809Y-57762694D01*
X126031808Y-57762692D01*
X126031808Y-57762691D01*
X125973294Y-57647852D01*
X125973293Y-57647851D01*
X125973292Y-57647849D01*
X125972325Y-57646882D01*
X125971974Y-57646035D01*
X125971578Y-57645490D01*
X125971709Y-57645394D01*
X125961460Y-57620650D01*
X125972326Y-57594416D01*
X125998560Y-57583550D01*
X126112153Y-57583550D01*
X126112155Y-57583550D01*
X126112157Y-57583549D01*
X126112159Y-57583549D01*
X126182045Y-57563028D01*
X126231430Y-57548527D01*
X126336007Y-57481320D01*
X126417413Y-57387372D01*
X126469054Y-57274295D01*
X126472547Y-57250002D01*
X133713255Y-57250002D01*
X133730945Y-57373044D01*
X133782585Y-57486118D01*
X133782589Y-57486125D01*
X133863989Y-57580066D01*
X133863990Y-57580066D01*
X133863993Y-57580070D01*
X133968570Y-57647277D01*
X133968572Y-57647278D01*
X134087840Y-57682299D01*
X134087843Y-57682299D01*
X134087845Y-57682300D01*
X134087847Y-57682300D01*
X134212153Y-57682300D01*
X134212155Y-57682300D01*
X134212157Y-57682299D01*
X134212159Y-57682299D01*
X134282086Y-57661766D01*
X134331430Y-57647277D01*
X134436007Y-57580070D01*
X134517413Y-57486122D01*
X134569054Y-57373045D01*
X134586745Y-57250000D01*
X134584182Y-57232177D01*
X134569054Y-57126955D01*
X134540532Y-57064501D01*
X134517413Y-57013878D01*
X134506800Y-57001630D01*
X134436010Y-56919933D01*
X134436009Y-56919932D01*
X134436007Y-56919930D01*
X134331430Y-56852723D01*
X134331427Y-56852721D01*
X134212159Y-56817700D01*
X134212155Y-56817700D01*
X134087845Y-56817700D01*
X134087840Y-56817700D01*
X133968573Y-56852721D01*
X133968572Y-56852721D01*
X133909776Y-56890507D01*
X133863993Y-56919930D01*
X133863992Y-56919930D01*
X133863989Y-56919933D01*
X133782589Y-57013874D01*
X133782585Y-57013881D01*
X133730945Y-57126955D01*
X133713255Y-57249997D01*
X133713255Y-57250002D01*
X126472547Y-57250002D01*
X126486745Y-57151250D01*
X126484965Y-57138873D01*
X126469054Y-57028205D01*
X126417414Y-56915131D01*
X126417413Y-56915128D01*
X126363337Y-56852721D01*
X126336010Y-56821183D01*
X126336009Y-56821182D01*
X126336007Y-56821180D01*
X126231430Y-56753973D01*
X126231427Y-56753971D01*
X126112159Y-56718950D01*
X126112155Y-56718950D01*
X125987845Y-56718950D01*
X125987840Y-56718950D01*
X125868573Y-56753971D01*
X125868572Y-56753971D01*
X125803239Y-56795957D01*
X125763993Y-56821180D01*
X125763992Y-56821180D01*
X125763989Y-56821183D01*
X125682589Y-56915124D01*
X125682585Y-56915131D01*
X125630945Y-57028205D01*
X125613255Y-57151247D01*
X125613255Y-57151252D01*
X125630945Y-57274294D01*
X125682585Y-57387368D01*
X125682586Y-57387371D01*
X125713824Y-57423422D01*
X125722790Y-57450364D01*
X125710080Y-57475756D01*
X125683138Y-57484722D01*
X125679981Y-57484360D01*
X125640001Y-57478028D01*
X125639999Y-57478028D01*
X125512691Y-57498191D01*
X125397852Y-57556705D01*
X125306705Y-57647852D01*
X125248191Y-57762691D01*
X125228028Y-57889998D01*
X125228028Y-57890001D01*
X125248191Y-58017308D01*
X125306705Y-58132147D01*
X125306706Y-58132148D01*
X125306708Y-58132151D01*
X125397849Y-58223292D01*
X125397851Y-58223293D01*
X125397852Y-58223294D01*
X125503642Y-58277197D01*
X125522083Y-58298788D01*
X125519855Y-58327096D01*
X125498264Y-58345537D01*
X125480996Y-58346896D01*
X125425003Y-58338028D01*
X125424999Y-58338028D01*
X125297691Y-58358191D01*
X125182852Y-58416705D01*
X125091705Y-58507852D01*
X125033191Y-58622691D01*
X125013028Y-58749998D01*
X125013028Y-58750001D01*
X109917508Y-58750001D01*
X109883294Y-58682852D01*
X109883293Y-58682851D01*
X109883292Y-58682849D01*
X109792151Y-58591708D01*
X109792148Y-58591706D01*
X109792147Y-58591705D01*
X109677308Y-58533191D01*
X109677309Y-58533191D01*
X109550001Y-58513028D01*
X109549999Y-58513028D01*
X109422691Y-58533191D01*
X109307852Y-58591705D01*
X109216705Y-58682852D01*
X109158191Y-58797691D01*
X109138028Y-58924998D01*
X109138028Y-58925001D01*
X99038700Y-58925001D01*
X99038700Y-58075002D01*
X106813255Y-58075002D01*
X106830945Y-58198044D01*
X106882585Y-58311118D01*
X106882589Y-58311125D01*
X106963989Y-58405066D01*
X106963990Y-58405066D01*
X106963993Y-58405070D01*
X107068570Y-58472277D01*
X107068572Y-58472278D01*
X107187840Y-58507299D01*
X107187843Y-58507299D01*
X107187845Y-58507300D01*
X107187847Y-58507300D01*
X107312153Y-58507300D01*
X107312155Y-58507300D01*
X107312157Y-58507299D01*
X107312159Y-58507299D01*
X107371792Y-58489788D01*
X107431430Y-58472277D01*
X107536007Y-58405070D01*
X107617413Y-58311122D01*
X107669054Y-58198045D01*
X107686745Y-58075000D01*
X107683941Y-58055500D01*
X107672367Y-57975001D01*
X109138028Y-57975001D01*
X109158191Y-58102308D01*
X109216705Y-58217147D01*
X109216706Y-58217148D01*
X109216708Y-58217151D01*
X109307849Y-58308292D01*
X109307851Y-58308293D01*
X109307852Y-58308294D01*
X109422691Y-58366808D01*
X109422692Y-58366808D01*
X109422694Y-58366809D01*
X109511581Y-58380887D01*
X109549999Y-58386972D01*
X109550000Y-58386972D01*
X109550001Y-58386972D01*
X109573958Y-58383177D01*
X109677306Y-58366809D01*
X109792151Y-58308292D01*
X109883292Y-58217151D01*
X109941809Y-58102306D01*
X109958177Y-57998958D01*
X109961972Y-57975001D01*
X109961972Y-57974998D01*
X109954382Y-57927082D01*
X109941809Y-57847694D01*
X109941808Y-57847692D01*
X109941808Y-57847691D01*
X109883294Y-57732852D01*
X109883293Y-57732851D01*
X109883292Y-57732849D01*
X109792151Y-57641708D01*
X109792148Y-57641706D01*
X109792147Y-57641705D01*
X109677308Y-57583191D01*
X109677309Y-57583191D01*
X109550001Y-57563028D01*
X109549999Y-57563028D01*
X109422691Y-57583191D01*
X109307852Y-57641705D01*
X109216705Y-57732852D01*
X109158191Y-57847691D01*
X109138028Y-57974998D01*
X109138028Y-57975001D01*
X107672367Y-57975001D01*
X107669054Y-57951955D01*
X107621439Y-57847694D01*
X107617413Y-57838878D01*
X107555958Y-57767955D01*
X107536010Y-57744933D01*
X107536009Y-57744932D01*
X107536007Y-57744930D01*
X107431430Y-57677723D01*
X107431427Y-57677721D01*
X107312159Y-57642700D01*
X107312155Y-57642700D01*
X107187845Y-57642700D01*
X107187840Y-57642700D01*
X107068573Y-57677721D01*
X107068572Y-57677721D01*
X107003239Y-57719707D01*
X106963993Y-57744930D01*
X106963992Y-57744930D01*
X106963989Y-57744933D01*
X106882589Y-57838874D01*
X106882585Y-57838881D01*
X106830945Y-57951955D01*
X106813255Y-58074997D01*
X106813255Y-58075002D01*
X99038700Y-58075002D01*
X99038700Y-57631246D01*
X104819500Y-57631246D01*
X104859641Y-57767951D01*
X104859644Y-57767957D01*
X104936676Y-57887821D01*
X104936677Y-57887822D01*
X105044354Y-57981124D01*
X105044355Y-57981124D01*
X105044358Y-57981127D01*
X105173966Y-58040317D01*
X105279564Y-58055500D01*
X105279570Y-58055500D01*
X105350430Y-58055500D01*
X105350436Y-58055500D01*
X105456034Y-58040317D01*
X105585642Y-57981127D01*
X105690808Y-57890000D01*
X105693322Y-57887822D01*
X105693323Y-57887821D01*
X105693324Y-57887820D01*
X105770357Y-57767955D01*
X105806156Y-57646035D01*
X105810499Y-57631246D01*
X105810500Y-57631240D01*
X105810500Y-57488759D01*
X105810499Y-57488753D01*
X105770358Y-57352048D01*
X105770357Y-57352047D01*
X105770357Y-57352045D01*
X105757283Y-57331702D01*
X114938255Y-57331702D01*
X114955945Y-57454744D01*
X115007585Y-57567818D01*
X115007589Y-57567825D01*
X115088989Y-57661766D01*
X115088990Y-57661766D01*
X115088993Y-57661770D01*
X115193570Y-57728977D01*
X115193572Y-57728978D01*
X115312840Y-57763999D01*
X115312843Y-57763999D01*
X115312845Y-57764000D01*
X115312847Y-57764000D01*
X115437153Y-57764000D01*
X115437155Y-57764000D01*
X115437157Y-57763999D01*
X115437159Y-57763999D01*
X115543243Y-57732849D01*
X115556430Y-57728977D01*
X115661007Y-57661770D01*
X115742413Y-57567822D01*
X115794054Y-57454745D01*
X115805801Y-57373044D01*
X115811745Y-57331702D01*
X115811745Y-57331697D01*
X115799999Y-57250002D01*
X118292114Y-57250002D01*
X118309804Y-57373044D01*
X118361444Y-57486118D01*
X118361448Y-57486125D01*
X118442848Y-57580066D01*
X118442849Y-57580066D01*
X118442852Y-57580070D01*
X118547429Y-57647277D01*
X118547431Y-57647278D01*
X118666699Y-57682299D01*
X118666702Y-57682299D01*
X118666704Y-57682300D01*
X118666706Y-57682300D01*
X118791012Y-57682300D01*
X118791014Y-57682300D01*
X118791016Y-57682299D01*
X118791018Y-57682299D01*
X118860945Y-57661766D01*
X118910289Y-57647277D01*
X119014866Y-57580070D01*
X119096272Y-57486122D01*
X119147913Y-57373045D01*
X119165604Y-57250000D01*
X119163041Y-57232177D01*
X119147913Y-57126955D01*
X119119391Y-57064501D01*
X119096272Y-57013878D01*
X119085659Y-57001630D01*
X119014869Y-56919933D01*
X119014868Y-56919932D01*
X119014866Y-56919930D01*
X118910289Y-56852723D01*
X118910286Y-56852721D01*
X118791018Y-56817700D01*
X118791014Y-56817700D01*
X118666704Y-56817700D01*
X118666699Y-56817700D01*
X118547432Y-56852721D01*
X118547431Y-56852721D01*
X118488635Y-56890507D01*
X118442852Y-56919930D01*
X118442851Y-56919930D01*
X118442848Y-56919933D01*
X118361448Y-57013874D01*
X118361444Y-57013881D01*
X118309804Y-57126955D01*
X118292114Y-57249997D01*
X118292114Y-57250002D01*
X115799999Y-57250002D01*
X115794054Y-57208655D01*
X115762184Y-57138871D01*
X115742413Y-57095578D01*
X115728639Y-57079682D01*
X115661010Y-57001633D01*
X115661009Y-57001632D01*
X115661007Y-57001630D01*
X115556430Y-56934423D01*
X115556427Y-56934421D01*
X115437159Y-56899400D01*
X115437155Y-56899400D01*
X115312845Y-56899400D01*
X115312840Y-56899400D01*
X115193573Y-56934421D01*
X115193572Y-56934421D01*
X115128239Y-56976407D01*
X115088993Y-57001630D01*
X115088992Y-57001630D01*
X115088989Y-57001633D01*
X115007589Y-57095574D01*
X115007585Y-57095581D01*
X114955945Y-57208655D01*
X114938255Y-57331697D01*
X114938255Y-57331702D01*
X105757283Y-57331702D01*
X105704778Y-57250002D01*
X105693323Y-57232178D01*
X105693322Y-57232177D01*
X105585645Y-57138875D01*
X105585642Y-57138873D01*
X105585638Y-57138871D01*
X105456033Y-57079682D01*
X105350447Y-57064501D01*
X105350440Y-57064500D01*
X105350436Y-57064500D01*
X105279564Y-57064500D01*
X105279560Y-57064500D01*
X105279552Y-57064501D01*
X105173966Y-57079682D01*
X105044361Y-57138871D01*
X105044354Y-57138875D01*
X104936677Y-57232177D01*
X104936676Y-57232178D01*
X104859644Y-57352042D01*
X104859641Y-57352048D01*
X104819500Y-57488753D01*
X104819500Y-57631246D01*
X99038700Y-57631246D01*
X99038700Y-56231200D01*
X100536522Y-56231200D01*
X100573420Y-56380900D01*
X100652689Y-56531938D01*
X100765799Y-56659613D01*
X100765803Y-56659616D01*
X100906177Y-56756509D01*
X100906181Y-56756511D01*
X101065671Y-56816999D01*
X101065670Y-56816999D01*
X101192494Y-56832398D01*
X101192513Y-56832400D01*
X101533799Y-56832400D01*
X101533800Y-56832399D01*
X101533800Y-56430000D01*
X101736200Y-56430000D01*
X101736200Y-56832399D01*
X101736201Y-56832400D01*
X102077487Y-56832400D01*
X102077505Y-56832398D01*
X102204329Y-56816999D01*
X102363818Y-56756511D01*
X102363822Y-56756509D01*
X102504196Y-56659616D01*
X102504200Y-56659613D01*
X102617310Y-56531938D01*
X102696579Y-56380900D01*
X102733478Y-56231200D01*
X104566522Y-56231200D01*
X104603420Y-56380900D01*
X104682689Y-56531938D01*
X104795799Y-56659613D01*
X104795803Y-56659616D01*
X104936177Y-56756509D01*
X104936181Y-56756511D01*
X105095671Y-56816999D01*
X105095670Y-56816999D01*
X105222494Y-56832398D01*
X105222513Y-56832400D01*
X105713799Y-56832400D01*
X105713800Y-56832398D01*
X105713800Y-56430000D01*
X105916199Y-56430000D01*
X105916199Y-56832398D01*
X105916201Y-56832400D01*
X106407487Y-56832400D01*
X106407505Y-56832398D01*
X106534329Y-56816999D01*
X106693818Y-56756511D01*
X106693822Y-56756509D01*
X106834196Y-56659616D01*
X106834200Y-56659613D01*
X106947310Y-56531938D01*
X107026579Y-56380900D01*
X107063478Y-56231200D01*
X106648113Y-56231200D01*
X106668895Y-56158160D01*
X106663506Y-56100001D01*
X107538028Y-56100001D01*
X107558191Y-56227308D01*
X107616705Y-56342147D01*
X107616706Y-56342148D01*
X107616708Y-56342151D01*
X107707849Y-56433292D01*
X107707851Y-56433293D01*
X107707852Y-56433294D01*
X107822691Y-56491808D01*
X107822692Y-56491808D01*
X107822694Y-56491809D01*
X107911581Y-56505887D01*
X107949999Y-56511972D01*
X107950000Y-56511972D01*
X107950001Y-56511972D01*
X107973958Y-56508177D01*
X108077306Y-56491809D01*
X108192151Y-56433292D01*
X108283292Y-56342151D01*
X108341809Y-56227306D01*
X108361972Y-56100000D01*
X108361662Y-56098045D01*
X108350695Y-56028798D01*
X108342175Y-55975002D01*
X113363255Y-55975002D01*
X113380945Y-56098044D01*
X113432585Y-56211118D01*
X113432589Y-56211125D01*
X113513989Y-56305066D01*
X113513990Y-56305066D01*
X113513993Y-56305070D01*
X113618570Y-56372277D01*
X113618572Y-56372278D01*
X113737840Y-56407299D01*
X113737843Y-56407299D01*
X113737845Y-56407300D01*
X113737847Y-56407300D01*
X113862153Y-56407300D01*
X113862155Y-56407300D01*
X113977935Y-56373303D01*
X114006167Y-56376338D01*
X114023984Y-56398447D01*
X114025030Y-56414704D01*
X114011727Y-56498697D01*
X114011727Y-56498700D01*
X114031890Y-56626007D01*
X114090404Y-56740846D01*
X114090405Y-56740847D01*
X114090407Y-56740850D01*
X114181548Y-56831991D01*
X114181550Y-56831992D01*
X114181551Y-56831993D01*
X114296390Y-56890507D01*
X114296391Y-56890507D01*
X114296393Y-56890508D01*
X114385280Y-56904586D01*
X114423698Y-56910671D01*
X114423699Y-56910671D01*
X114423700Y-56910671D01*
X114447657Y-56906876D01*
X114551005Y-56890508D01*
X114665850Y-56831991D01*
X114756991Y-56740850D01*
X114815508Y-56626005D01*
X114835671Y-56498699D01*
X114815508Y-56371393D01*
X114815507Y-56371391D01*
X114815507Y-56371390D01*
X114756993Y-56256551D01*
X114756992Y-56256550D01*
X114756991Y-56256548D01*
X114665850Y-56165407D01*
X114665847Y-56165405D01*
X114665846Y-56165404D01*
X114551007Y-56106890D01*
X114551008Y-56106890D01*
X114423700Y-56086727D01*
X114423698Y-56086727D01*
X114296394Y-56106889D01*
X114296391Y-56106891D01*
X114275314Y-56117630D01*
X114247007Y-56119857D01*
X114225415Y-56101415D01*
X114221750Y-56079293D01*
X114223087Y-56070001D01*
X115158028Y-56070001D01*
X115178191Y-56197308D01*
X115236705Y-56312147D01*
X115236706Y-56312148D01*
X115236708Y-56312151D01*
X115327849Y-56403292D01*
X115327851Y-56403293D01*
X115327852Y-56403294D01*
X115442691Y-56461808D01*
X115442692Y-56461808D01*
X115442694Y-56461809D01*
X115531581Y-56475887D01*
X115569999Y-56481972D01*
X115570000Y-56481972D01*
X115570001Y-56481972D01*
X115593958Y-56478177D01*
X115697306Y-56461809D01*
X115812151Y-56403292D01*
X115903292Y-56312151D01*
X115961809Y-56197306D01*
X115981972Y-56070000D01*
X115975446Y-56028799D01*
X115971378Y-56003109D01*
X115961809Y-55942694D01*
X115961808Y-55942692D01*
X115961808Y-55942691D01*
X115903294Y-55827852D01*
X115903293Y-55827851D01*
X115903292Y-55827849D01*
X115812151Y-55736708D01*
X115812148Y-55736706D01*
X115812147Y-55736705D01*
X115697308Y-55678191D01*
X115697309Y-55678191D01*
X115570001Y-55658028D01*
X115569999Y-55658028D01*
X115442691Y-55678191D01*
X115327852Y-55736705D01*
X115236705Y-55827852D01*
X115178191Y-55942691D01*
X115158028Y-56069998D01*
X115158028Y-56070001D01*
X114223087Y-56070001D01*
X114223087Y-56069998D01*
X114236745Y-55975000D01*
X114236413Y-55972694D01*
X114219054Y-55851955D01*
X114208045Y-55827849D01*
X114167413Y-55738878D01*
X114167179Y-55738608D01*
X114086010Y-55644933D01*
X114086009Y-55644932D01*
X114086007Y-55644930D01*
X114033679Y-55611301D01*
X134163028Y-55611301D01*
X134183191Y-55738608D01*
X134241705Y-55853447D01*
X134241706Y-55853448D01*
X134241708Y-55853451D01*
X134332849Y-55944592D01*
X134332851Y-55944593D01*
X134332852Y-55944594D01*
X134447691Y-56003108D01*
X134447692Y-56003108D01*
X134447694Y-56003109D01*
X134536581Y-56017187D01*
X134574999Y-56023272D01*
X134575000Y-56023272D01*
X134575001Y-56023272D01*
X134598958Y-56019477D01*
X134702306Y-56003109D01*
X134817151Y-55944592D01*
X134908292Y-55853451D01*
X134966809Y-55738606D01*
X134986972Y-55611300D01*
X134985243Y-55600386D01*
X134976107Y-55542700D01*
X134966809Y-55483994D01*
X134966808Y-55483992D01*
X134966808Y-55483991D01*
X134908294Y-55369152D01*
X134908293Y-55369151D01*
X134908292Y-55369149D01*
X134817151Y-55278008D01*
X134817148Y-55278006D01*
X134817147Y-55278005D01*
X134702308Y-55219491D01*
X134702309Y-55219491D01*
X134575001Y-55199328D01*
X134574999Y-55199328D01*
X134447691Y-55219491D01*
X134332852Y-55278005D01*
X134241705Y-55369152D01*
X134183191Y-55483991D01*
X134163028Y-55611298D01*
X134163028Y-55611301D01*
X114033679Y-55611301D01*
X113981430Y-55577723D01*
X113981427Y-55577721D01*
X113862159Y-55542700D01*
X113862155Y-55542700D01*
X113737845Y-55542700D01*
X113737840Y-55542700D01*
X113618573Y-55577721D01*
X113618572Y-55577721D01*
X113583310Y-55600383D01*
X113513993Y-55644930D01*
X113513992Y-55644930D01*
X113513989Y-55644933D01*
X113432589Y-55738874D01*
X113432585Y-55738881D01*
X113380945Y-55851955D01*
X113363255Y-55974997D01*
X113363255Y-55975002D01*
X108342175Y-55975002D01*
X108341809Y-55972694D01*
X108341808Y-55972692D01*
X108341808Y-55972691D01*
X108283294Y-55857852D01*
X108283293Y-55857851D01*
X108283292Y-55857849D01*
X108192151Y-55766708D01*
X108192148Y-55766706D01*
X108192147Y-55766705D01*
X108077308Y-55708191D01*
X108077309Y-55708191D01*
X107950001Y-55688028D01*
X107949999Y-55688028D01*
X107822691Y-55708191D01*
X107707852Y-55766705D01*
X107616705Y-55857852D01*
X107558191Y-55972691D01*
X107538028Y-56099998D01*
X107538028Y-56100001D01*
X106663506Y-56100001D01*
X106658546Y-56046479D01*
X106649743Y-56028800D01*
X107063477Y-56028800D01*
X107063477Y-56028799D01*
X107026579Y-55879099D01*
X106947310Y-55728061D01*
X106834200Y-55600386D01*
X106834196Y-55600383D01*
X106693822Y-55503490D01*
X106693818Y-55503488D01*
X106534328Y-55443000D01*
X106534329Y-55443000D01*
X106407505Y-55427601D01*
X106407487Y-55427600D01*
X105916201Y-55427600D01*
X105916199Y-55427601D01*
X105916199Y-55830000D01*
X105713800Y-55830000D01*
X105713800Y-55427601D01*
X105713799Y-55427600D01*
X105222513Y-55427600D01*
X105222494Y-55427601D01*
X105095670Y-55443000D01*
X104936181Y-55503488D01*
X104936177Y-55503490D01*
X104795803Y-55600383D01*
X104795799Y-55600386D01*
X104682689Y-55728061D01*
X104603420Y-55879099D01*
X104566522Y-56028799D01*
X104566523Y-56028800D01*
X104981887Y-56028800D01*
X104961105Y-56101840D01*
X104971454Y-56213521D01*
X104980257Y-56231200D01*
X104566522Y-56231200D01*
X102733478Y-56231200D01*
X102318113Y-56231200D01*
X102338895Y-56158160D01*
X102328546Y-56046479D01*
X102319743Y-56028800D01*
X102733477Y-56028800D01*
X102733477Y-56028799D01*
X102696579Y-55879099D01*
X102617310Y-55728061D01*
X102504200Y-55600386D01*
X102504196Y-55600383D01*
X102363822Y-55503490D01*
X102363818Y-55503488D01*
X102204328Y-55443000D01*
X102204329Y-55443000D01*
X102077505Y-55427601D01*
X102077487Y-55427600D01*
X101736201Y-55427600D01*
X101736200Y-55427601D01*
X101736200Y-55830000D01*
X101533800Y-55830000D01*
X101533800Y-55427601D01*
X101533799Y-55427600D01*
X101192513Y-55427600D01*
X101192494Y-55427601D01*
X101065670Y-55443000D01*
X100906181Y-55503488D01*
X100906177Y-55503490D01*
X100765803Y-55600383D01*
X100765799Y-55600386D01*
X100652689Y-55728061D01*
X100573420Y-55879099D01*
X100536522Y-56028799D01*
X100536523Y-56028800D01*
X100951887Y-56028800D01*
X100931105Y-56101840D01*
X100941454Y-56213521D01*
X100950257Y-56231200D01*
X100536522Y-56231200D01*
X99038700Y-56231200D01*
X99038700Y-54925002D01*
X132288255Y-54925002D01*
X132305945Y-55048044D01*
X132357585Y-55161118D01*
X132357589Y-55161125D01*
X132438989Y-55255066D01*
X132438990Y-55255066D01*
X132438993Y-55255070D01*
X132543570Y-55322277D01*
X132543572Y-55322278D01*
X132662840Y-55357299D01*
X132662843Y-55357299D01*
X132662845Y-55357300D01*
X132662847Y-55357300D01*
X132787153Y-55357300D01*
X132787155Y-55357300D01*
X132787157Y-55357299D01*
X132787159Y-55357299D01*
X132846792Y-55339788D01*
X132906430Y-55322277D01*
X133011007Y-55255070D01*
X133092413Y-55161122D01*
X133144054Y-55048045D01*
X133161745Y-54925000D01*
X133144054Y-54801955D01*
X133092413Y-54688878D01*
X133011007Y-54594930D01*
X132906430Y-54527723D01*
X132906427Y-54527721D01*
X132787159Y-54492700D01*
X132787155Y-54492700D01*
X132662845Y-54492700D01*
X132662840Y-54492700D01*
X132543573Y-54527721D01*
X132543572Y-54527721D01*
X132478239Y-54569707D01*
X132438993Y-54594930D01*
X132438992Y-54594930D01*
X132438989Y-54594933D01*
X132357589Y-54688874D01*
X132357585Y-54688881D01*
X132305945Y-54801955D01*
X132288255Y-54924997D01*
X132288255Y-54925002D01*
X99038700Y-54925002D01*
X99038700Y-54370001D01*
X147918028Y-54370001D01*
X147938191Y-54497308D01*
X147996705Y-54612147D01*
X147996706Y-54612148D01*
X147996708Y-54612151D01*
X148087849Y-54703292D01*
X148087851Y-54703293D01*
X148087852Y-54703294D01*
X148202691Y-54761808D01*
X148202692Y-54761808D01*
X148202694Y-54761809D01*
X148291581Y-54775887D01*
X148329999Y-54781972D01*
X148330000Y-54781972D01*
X148330001Y-54781972D01*
X148353958Y-54778177D01*
X148457306Y-54761809D01*
X148572151Y-54703292D01*
X148663292Y-54612151D01*
X148721809Y-54497306D01*
X148741972Y-54370000D01*
X148724550Y-54260001D01*
X149158028Y-54260001D01*
X149178191Y-54387308D01*
X149236705Y-54502147D01*
X149236706Y-54502148D01*
X149236708Y-54502151D01*
X149327849Y-54593292D01*
X149327851Y-54593293D01*
X149327852Y-54593294D01*
X149442691Y-54651808D01*
X149442692Y-54651808D01*
X149442694Y-54651809D01*
X149531581Y-54665887D01*
X149569999Y-54671972D01*
X149570000Y-54671972D01*
X149570001Y-54671972D01*
X149593958Y-54668177D01*
X149697306Y-54651809D01*
X149812151Y-54593292D01*
X149903292Y-54502151D01*
X149961809Y-54387306D01*
X149981972Y-54260000D01*
X149961809Y-54132694D01*
X149961808Y-54132692D01*
X149961808Y-54132691D01*
X149903294Y-54017852D01*
X149903293Y-54017851D01*
X149903292Y-54017849D01*
X149812151Y-53926708D01*
X149812148Y-53926706D01*
X149812147Y-53926705D01*
X149697308Y-53868191D01*
X149697309Y-53868191D01*
X149570001Y-53848028D01*
X149569999Y-53848028D01*
X149442691Y-53868191D01*
X149327852Y-53926705D01*
X149236705Y-54017852D01*
X149178191Y-54132691D01*
X149158028Y-54259998D01*
X149158028Y-54260001D01*
X148724550Y-54260001D01*
X148721809Y-54242694D01*
X148721808Y-54242692D01*
X148721808Y-54242691D01*
X148663294Y-54127852D01*
X148663293Y-54127851D01*
X148663292Y-54127849D01*
X148572151Y-54036708D01*
X148572148Y-54036706D01*
X148572147Y-54036705D01*
X148457308Y-53978191D01*
X148457309Y-53978191D01*
X148330001Y-53958028D01*
X148329999Y-53958028D01*
X148202691Y-53978191D01*
X148087852Y-54036705D01*
X147996705Y-54127852D01*
X147938191Y-54242691D01*
X147918028Y-54369998D01*
X147918028Y-54370001D01*
X99038700Y-54370001D01*
X99038700Y-53600002D01*
X109763255Y-53600002D01*
X109780945Y-53723044D01*
X109832585Y-53836118D01*
X109832589Y-53836125D01*
X109913989Y-53930066D01*
X109913990Y-53930066D01*
X109913993Y-53930070D01*
X110018570Y-53997277D01*
X110018572Y-53997278D01*
X110137840Y-54032299D01*
X110137843Y-54032299D01*
X110137845Y-54032300D01*
X110137847Y-54032300D01*
X110262153Y-54032300D01*
X110262155Y-54032300D01*
X110262157Y-54032299D01*
X110262159Y-54032299D01*
X110321792Y-54014788D01*
X110381430Y-53997277D01*
X110486007Y-53930070D01*
X110567413Y-53836122D01*
X110619054Y-53723045D01*
X110636745Y-53600000D01*
X110619054Y-53476955D01*
X110613595Y-53465001D01*
X134223028Y-53465001D01*
X134243191Y-53592308D01*
X134301705Y-53707147D01*
X134301706Y-53707148D01*
X134301708Y-53707151D01*
X134392849Y-53798292D01*
X134392851Y-53798293D01*
X134392852Y-53798294D01*
X134507691Y-53856808D01*
X134507692Y-53856808D01*
X134507694Y-53856809D01*
X134596581Y-53870887D01*
X134634999Y-53876972D01*
X134635000Y-53876972D01*
X134635001Y-53876972D01*
X134658958Y-53873177D01*
X134762306Y-53856809D01*
X134877151Y-53798292D01*
X134968292Y-53707151D01*
X135026809Y-53592306D01*
X135046972Y-53465000D01*
X135026809Y-53337694D01*
X135026808Y-53337692D01*
X135026808Y-53337691D01*
X134968294Y-53222852D01*
X134968293Y-53222851D01*
X134968292Y-53222849D01*
X134877151Y-53131708D01*
X134877148Y-53131706D01*
X134877147Y-53131705D01*
X134762308Y-53073191D01*
X134762309Y-53073191D01*
X134635001Y-53053028D01*
X134634999Y-53053028D01*
X134507691Y-53073191D01*
X134392852Y-53131705D01*
X134301705Y-53222852D01*
X134243191Y-53337691D01*
X134223028Y-53464998D01*
X134223028Y-53465001D01*
X110613595Y-53465001D01*
X110567413Y-53363878D01*
X110565761Y-53361972D01*
X110486010Y-53269933D01*
X110486009Y-53269932D01*
X110486007Y-53269930D01*
X110381430Y-53202723D01*
X110381427Y-53202721D01*
X110262159Y-53167700D01*
X110262155Y-53167700D01*
X110137845Y-53167700D01*
X110137840Y-53167700D01*
X110018573Y-53202721D01*
X110018572Y-53202721D01*
X109987248Y-53222852D01*
X109913993Y-53269930D01*
X109913992Y-53269930D01*
X109913989Y-53269933D01*
X109832589Y-53363874D01*
X109832585Y-53363881D01*
X109780945Y-53476955D01*
X109763255Y-53599997D01*
X109763255Y-53600002D01*
X99038700Y-53600002D01*
X99038700Y-51622681D01*
X101459500Y-51622681D01*
X101499050Y-51885079D01*
X101577262Y-52138641D01*
X101577266Y-52138649D01*
X101692400Y-52377728D01*
X101692400Y-52377730D01*
X101841882Y-52596979D01*
X101841891Y-52596990D01*
X102022368Y-52791499D01*
X102022372Y-52791503D01*
X102022377Y-52791508D01*
X102229845Y-52956958D01*
X102229854Y-52956963D01*
X102459642Y-53089632D01*
X102459657Y-53089640D01*
X102706666Y-53186584D01*
X102706665Y-53186584D01*
X102706671Y-53186585D01*
X102706673Y-53186586D01*
X102965381Y-53245635D01*
X102965383Y-53245635D01*
X102965387Y-53245636D01*
X102965385Y-53245636D01*
X103134307Y-53258294D01*
X103163745Y-53260500D01*
X103163746Y-53260500D01*
X103296254Y-53260500D01*
X103296255Y-53260500D01*
X103325693Y-53258294D01*
X103494613Y-53245636D01*
X103494616Y-53245635D01*
X103494619Y-53245635D01*
X103753327Y-53186586D01*
X103753330Y-53186584D01*
X103753333Y-53186584D01*
X104000342Y-53089640D01*
X104000340Y-53089640D01*
X104000345Y-53089639D01*
X104230155Y-52956958D01*
X104238879Y-52950001D01*
X141288028Y-52950001D01*
X141308191Y-53077308D01*
X141366705Y-53192147D01*
X141366706Y-53192148D01*
X141366708Y-53192151D01*
X141457849Y-53283292D01*
X141457851Y-53283293D01*
X141457852Y-53283294D01*
X141572691Y-53341808D01*
X141572692Y-53341808D01*
X141572694Y-53341809D01*
X141661581Y-53355887D01*
X141699999Y-53361972D01*
X141700000Y-53361972D01*
X141700001Y-53361972D01*
X141723958Y-53358177D01*
X141827306Y-53341809D01*
X141942151Y-53283292D01*
X142033292Y-53192151D01*
X142091809Y-53077306D01*
X142111972Y-52950000D01*
X142108012Y-52925001D01*
X150038028Y-52925001D01*
X150058191Y-53052308D01*
X150116705Y-53167147D01*
X150116706Y-53167148D01*
X150116708Y-53167151D01*
X150207849Y-53258292D01*
X150207851Y-53258293D01*
X150207852Y-53258294D01*
X150322691Y-53316808D01*
X150322692Y-53316808D01*
X150322694Y-53316809D01*
X150411581Y-53330887D01*
X150449999Y-53336972D01*
X150450000Y-53336972D01*
X150450001Y-53336972D01*
X150473958Y-53333177D01*
X150577306Y-53316809D01*
X150692151Y-53258292D01*
X150783292Y-53167151D01*
X150841809Y-53052306D01*
X150861972Y-52925000D01*
X150841809Y-52797694D01*
X150841808Y-52797692D01*
X150841808Y-52797691D01*
X150783294Y-52682852D01*
X150783293Y-52682851D01*
X150783292Y-52682849D01*
X150692151Y-52591708D01*
X150692148Y-52591706D01*
X150692147Y-52591705D01*
X150577308Y-52533191D01*
X150577309Y-52533191D01*
X150450001Y-52513028D01*
X150449999Y-52513028D01*
X150322691Y-52533191D01*
X150207852Y-52591705D01*
X150116705Y-52682852D01*
X150058191Y-52797691D01*
X150038028Y-52924998D01*
X150038028Y-52925001D01*
X142108012Y-52925001D01*
X142108012Y-52925000D01*
X142104382Y-52902082D01*
X142091809Y-52822694D01*
X142091808Y-52822692D01*
X142091808Y-52822691D01*
X142033294Y-52707852D01*
X142033293Y-52707851D01*
X142033292Y-52707849D01*
X141942151Y-52616708D01*
X141942148Y-52616706D01*
X141942147Y-52616705D01*
X141827308Y-52558191D01*
X141827309Y-52558191D01*
X141700001Y-52538028D01*
X141699999Y-52538028D01*
X141572691Y-52558191D01*
X141457852Y-52616705D01*
X141366705Y-52707852D01*
X141308191Y-52822691D01*
X141288028Y-52949998D01*
X141288028Y-52950001D01*
X104238879Y-52950001D01*
X104437623Y-52791508D01*
X104618114Y-52596984D01*
X104767598Y-52377733D01*
X104882734Y-52138650D01*
X104960950Y-51885078D01*
X104992614Y-51675001D01*
X126238028Y-51675001D01*
X126258191Y-51802308D01*
X126316705Y-51917147D01*
X126316706Y-51917148D01*
X126316708Y-51917151D01*
X126407849Y-52008292D01*
X126407851Y-52008293D01*
X126407852Y-52008294D01*
X126522691Y-52066808D01*
X126522692Y-52066808D01*
X126522694Y-52066809D01*
X126611581Y-52080887D01*
X126649999Y-52086972D01*
X126650000Y-52086972D01*
X126650001Y-52086972D01*
X126673958Y-52083177D01*
X126777306Y-52066809D01*
X126892151Y-52008292D01*
X126983292Y-51917151D01*
X127041809Y-51802306D01*
X127061972Y-51675000D01*
X127041809Y-51547694D01*
X127041808Y-51547692D01*
X127041808Y-51547691D01*
X127030247Y-51525002D01*
X131448255Y-51525002D01*
X131465945Y-51648044D01*
X131517585Y-51761118D01*
X131517589Y-51761125D01*
X131598989Y-51855066D01*
X131598990Y-51855066D01*
X131598993Y-51855070D01*
X131695594Y-51917151D01*
X131703572Y-51922278D01*
X131822840Y-51957299D01*
X131822843Y-51957299D01*
X131822845Y-51957300D01*
X131822847Y-51957300D01*
X131947153Y-51957300D01*
X131947155Y-51957300D01*
X131947157Y-51957299D01*
X131947159Y-51957299D01*
X132006792Y-51939788D01*
X132066430Y-51922277D01*
X132171007Y-51855070D01*
X132252413Y-51761122D01*
X132304054Y-51648045D01*
X132321745Y-51525000D01*
X132310961Y-51450001D01*
X133188028Y-51450001D01*
X133208191Y-51577308D01*
X133266705Y-51692147D01*
X133266706Y-51692148D01*
X133266708Y-51692151D01*
X133357849Y-51783292D01*
X133357851Y-51783293D01*
X133357852Y-51783294D01*
X133472691Y-51841808D01*
X133472692Y-51841808D01*
X133472694Y-51841809D01*
X133556397Y-51855066D01*
X133599999Y-51861972D01*
X133600000Y-51861972D01*
X133600001Y-51861972D01*
X133623958Y-51858177D01*
X133727306Y-51841809D01*
X133842151Y-51783292D01*
X133933292Y-51692151D01*
X133991809Y-51577306D01*
X134011972Y-51450000D01*
X133991809Y-51322694D01*
X133991808Y-51322692D01*
X133991808Y-51322691D01*
X133933294Y-51207852D01*
X133933293Y-51207851D01*
X133933292Y-51207849D01*
X133842151Y-51116708D01*
X133842148Y-51116706D01*
X133842147Y-51116705D01*
X133727308Y-51058191D01*
X133727309Y-51058191D01*
X133600001Y-51038028D01*
X133599999Y-51038028D01*
X133472691Y-51058191D01*
X133357852Y-51116705D01*
X133266705Y-51207852D01*
X133208191Y-51322691D01*
X133188028Y-51449998D01*
X133188028Y-51450001D01*
X132310961Y-51450001D01*
X132310961Y-51449998D01*
X132304054Y-51401955D01*
X132252414Y-51288881D01*
X132252413Y-51288878D01*
X132247485Y-51283191D01*
X132171010Y-51194933D01*
X132171009Y-51194932D01*
X132171007Y-51194930D01*
X132066430Y-51127723D01*
X132066427Y-51127721D01*
X131947159Y-51092700D01*
X131947155Y-51092700D01*
X131822845Y-51092700D01*
X131822840Y-51092700D01*
X131703573Y-51127721D01*
X131703572Y-51127721D01*
X131638239Y-51169707D01*
X131598993Y-51194930D01*
X131598992Y-51194930D01*
X131598989Y-51194933D01*
X131517589Y-51288874D01*
X131517585Y-51288881D01*
X131465945Y-51401955D01*
X131448255Y-51524997D01*
X131448255Y-51525002D01*
X127030247Y-51525002D01*
X126983294Y-51432852D01*
X126983293Y-51432851D01*
X126983292Y-51432849D01*
X126892151Y-51341708D01*
X126892148Y-51341706D01*
X126892147Y-51341705D01*
X126777308Y-51283191D01*
X126777309Y-51283191D01*
X126650001Y-51263028D01*
X126649999Y-51263028D01*
X126522691Y-51283191D01*
X126407852Y-51341705D01*
X126316705Y-51432852D01*
X126258191Y-51547691D01*
X126238028Y-51674998D01*
X126238028Y-51675001D01*
X104992614Y-51675001D01*
X105000500Y-51622681D01*
X105000500Y-51357319D01*
X104960950Y-51094922D01*
X104928219Y-50988810D01*
X104882737Y-50841358D01*
X104882735Y-50841355D01*
X104882734Y-50841350D01*
X104767599Y-50602270D01*
X104767599Y-50602269D01*
X104629695Y-50400002D01*
X151723255Y-50400002D01*
X151740945Y-50523044D01*
X151792585Y-50636118D01*
X151792589Y-50636125D01*
X151873989Y-50730066D01*
X151873990Y-50730066D01*
X151873993Y-50730070D01*
X151978570Y-50797277D01*
X151978572Y-50797278D01*
X152097840Y-50832299D01*
X152097843Y-50832299D01*
X152097845Y-50832300D01*
X152097847Y-50832300D01*
X152222153Y-50832300D01*
X152222155Y-50832300D01*
X152222157Y-50832299D01*
X152222159Y-50832299D01*
X152281792Y-50814788D01*
X152341430Y-50797277D01*
X152446007Y-50730070D01*
X152527413Y-50636122D01*
X152579054Y-50523045D01*
X152596745Y-50400000D01*
X152579054Y-50276955D01*
X152527413Y-50163878D01*
X152515995Y-50150701D01*
X152446010Y-50069933D01*
X152446009Y-50069932D01*
X152446007Y-50069930D01*
X152341430Y-50002723D01*
X152341427Y-50002721D01*
X152222159Y-49967700D01*
X152222155Y-49967700D01*
X152097845Y-49967700D01*
X152097840Y-49967700D01*
X151978573Y-50002721D01*
X151978572Y-50002721D01*
X151925246Y-50036992D01*
X151873993Y-50069930D01*
X151873992Y-50069930D01*
X151873989Y-50069933D01*
X151792589Y-50163874D01*
X151792585Y-50163881D01*
X151740945Y-50276955D01*
X151723255Y-50399997D01*
X151723255Y-50400002D01*
X104629695Y-50400002D01*
X104618117Y-50383020D01*
X104618108Y-50383009D01*
X104437631Y-50188500D01*
X104437626Y-50188496D01*
X104437623Y-50188492D01*
X104230155Y-50023042D01*
X104230145Y-50023036D01*
X104000357Y-49890367D01*
X104000342Y-49890359D01*
X103961213Y-49875002D01*
X116763255Y-49875002D01*
X116780945Y-49998044D01*
X116832585Y-50111118D01*
X116832589Y-50111125D01*
X116913989Y-50205066D01*
X116913990Y-50205066D01*
X116913993Y-50205070D01*
X117018570Y-50272277D01*
X117018572Y-50272278D01*
X117137840Y-50307299D01*
X117137843Y-50307299D01*
X117137845Y-50307300D01*
X117137847Y-50307300D01*
X117262153Y-50307300D01*
X117262155Y-50307300D01*
X117262157Y-50307299D01*
X117262159Y-50307299D01*
X117321792Y-50289788D01*
X117381430Y-50272277D01*
X117486007Y-50205070D01*
X117567413Y-50111122D01*
X117619054Y-49998045D01*
X117627504Y-49939273D01*
X117636745Y-49875002D01*
X117636745Y-49874997D01*
X117619054Y-49751955D01*
X117588364Y-49684754D01*
X117567413Y-49638878D01*
X117550950Y-49619879D01*
X117486010Y-49544933D01*
X117486009Y-49544932D01*
X117486007Y-49544930D01*
X117381430Y-49477723D01*
X117381427Y-49477721D01*
X117262159Y-49442700D01*
X117262155Y-49442700D01*
X117137845Y-49442700D01*
X117137840Y-49442700D01*
X117018573Y-49477721D01*
X117018572Y-49477721D01*
X116953239Y-49519707D01*
X116913993Y-49544930D01*
X116913992Y-49544930D01*
X116913989Y-49544933D01*
X116832589Y-49638874D01*
X116832585Y-49638881D01*
X116780945Y-49751955D01*
X116763255Y-49874997D01*
X116763255Y-49875002D01*
X103961213Y-49875002D01*
X103753333Y-49793415D01*
X103753334Y-49793415D01*
X103494612Y-49734363D01*
X103494614Y-49734363D01*
X103304996Y-49720155D01*
X103296255Y-49719500D01*
X103163745Y-49719500D01*
X103155003Y-49720155D01*
X102965386Y-49734363D01*
X102706666Y-49793415D01*
X102459657Y-49890359D01*
X102459642Y-49890367D01*
X102229854Y-50023036D01*
X102229838Y-50023047D01*
X102022382Y-50188487D01*
X102022368Y-50188500D01*
X101841891Y-50383009D01*
X101841882Y-50383020D01*
X101692400Y-50602268D01*
X101692400Y-50602270D01*
X101577266Y-50841350D01*
X101577262Y-50841358D01*
X101499050Y-51094920D01*
X101459500Y-51357318D01*
X101459500Y-51622681D01*
X99038700Y-51622681D01*
X99038700Y-50791382D01*
X99038724Y-50790434D01*
X99045697Y-50657387D01*
X99046892Y-50636125D01*
X99056126Y-50471689D01*
X99056322Y-50469850D01*
X99080811Y-50315231D01*
X99082159Y-50307300D01*
X99108766Y-50150701D01*
X99109132Y-50149033D01*
X99150625Y-49994179D01*
X99195803Y-49837363D01*
X99196293Y-49835902D01*
X99254327Y-49684715D01*
X99316222Y-49535289D01*
X99316807Y-49534021D01*
X99390715Y-49388969D01*
X99468594Y-49248058D01*
X99469241Y-49246979D01*
X99558185Y-49110017D01*
X99593672Y-49060004D01*
X133572247Y-49060004D01*
X133591610Y-49256602D01*
X133591610Y-49256603D01*
X133648063Y-49442700D01*
X133648958Y-49445650D01*
X133742084Y-49619878D01*
X133867411Y-49772589D01*
X134020122Y-49897916D01*
X134194350Y-49991042D01*
X134345843Y-50036997D01*
X134383397Y-50048389D01*
X134579996Y-50067753D01*
X134580000Y-50067753D01*
X134580004Y-50067753D01*
X134737282Y-50052261D01*
X134776603Y-50048389D01*
X134965650Y-49991042D01*
X135139878Y-49897916D01*
X135292589Y-49772589D01*
X135417916Y-49619878D01*
X135511042Y-49445650D01*
X135568389Y-49256603D01*
X135572261Y-49217282D01*
X135587753Y-49060004D01*
X135587753Y-49059995D01*
X135577786Y-48958799D01*
X136072474Y-48958799D01*
X136072475Y-48958800D01*
X136628606Y-48958800D01*
X136620000Y-48988111D01*
X136620000Y-49131889D01*
X136628606Y-49161200D01*
X136072475Y-49161200D01*
X136082826Y-49266305D01*
X136082826Y-49266306D01*
X136143002Y-49464676D01*
X136143007Y-49464688D01*
X136240726Y-49647507D01*
X136240729Y-49647512D01*
X136372239Y-49807758D01*
X136372241Y-49807760D01*
X136532487Y-49939270D01*
X136532492Y-49939273D01*
X136715311Y-50036992D01*
X136715323Y-50036997D01*
X136913693Y-50097173D01*
X137018799Y-50107524D01*
X137018800Y-50107523D01*
X137018800Y-49550591D01*
X137084237Y-49560000D01*
X137155763Y-49560000D01*
X137221200Y-49550591D01*
X137221200Y-50107524D01*
X137326305Y-50097173D01*
X137326306Y-50097173D01*
X137524676Y-50036997D01*
X137524688Y-50036992D01*
X137707507Y-49939273D01*
X137707512Y-49939270D01*
X137867758Y-49807760D01*
X137867760Y-49807758D01*
X137999270Y-49647512D01*
X137999273Y-49647507D01*
X138096992Y-49464688D01*
X138096997Y-49464676D01*
X138157173Y-49266306D01*
X138157173Y-49266305D01*
X138167525Y-49161200D01*
X137611394Y-49161200D01*
X137620000Y-49131889D01*
X137620000Y-49060004D01*
X138652247Y-49060004D01*
X138671610Y-49256602D01*
X138671610Y-49256603D01*
X138728063Y-49442700D01*
X138728958Y-49445650D01*
X138822084Y-49619878D01*
X138947411Y-49772589D01*
X139100122Y-49897916D01*
X139274350Y-49991042D01*
X139425843Y-50036997D01*
X139463397Y-50048389D01*
X139659996Y-50067753D01*
X139660000Y-50067753D01*
X139660004Y-50067753D01*
X139817282Y-50052261D01*
X139856603Y-50048389D01*
X140045650Y-49991042D01*
X140219878Y-49897916D01*
X140372589Y-49772589D01*
X140497916Y-49619878D01*
X140591042Y-49445650D01*
X140648389Y-49256603D01*
X140652261Y-49217282D01*
X140667753Y-49060004D01*
X141192247Y-49060004D01*
X141211610Y-49256602D01*
X141211610Y-49256603D01*
X141268063Y-49442700D01*
X141268958Y-49445650D01*
X141362084Y-49619878D01*
X141487411Y-49772589D01*
X141640122Y-49897916D01*
X141814350Y-49991042D01*
X141965843Y-50036997D01*
X142003397Y-50048389D01*
X142199996Y-50067753D01*
X142200000Y-50067753D01*
X142200004Y-50067753D01*
X142357282Y-50052261D01*
X142396603Y-50048389D01*
X142585650Y-49991042D01*
X142759878Y-49897916D01*
X142912589Y-49772589D01*
X143037916Y-49619878D01*
X143131042Y-49445650D01*
X143188389Y-49256603D01*
X143192261Y-49217282D01*
X143207753Y-49060004D01*
X143732247Y-49060004D01*
X143751610Y-49256602D01*
X143751610Y-49256603D01*
X143808063Y-49442700D01*
X143808958Y-49445650D01*
X143902084Y-49619878D01*
X144027411Y-49772589D01*
X144180122Y-49897916D01*
X144354350Y-49991042D01*
X144505843Y-50036997D01*
X144543397Y-50048389D01*
X144739996Y-50067753D01*
X144740000Y-50067753D01*
X144740004Y-50067753D01*
X144897282Y-50052261D01*
X144936603Y-50048389D01*
X145125650Y-49991042D01*
X145299878Y-49897916D01*
X145452589Y-49772589D01*
X145577916Y-49619878D01*
X145671042Y-49445650D01*
X145728389Y-49256603D01*
X145732261Y-49217282D01*
X145747753Y-49060004D01*
X146272247Y-49060004D01*
X146291610Y-49256602D01*
X146291610Y-49256603D01*
X146348063Y-49442700D01*
X146348958Y-49445650D01*
X146442084Y-49619878D01*
X146567411Y-49772589D01*
X146720122Y-49897916D01*
X146894350Y-49991042D01*
X147045843Y-50036997D01*
X147083397Y-50048389D01*
X147279996Y-50067753D01*
X147280000Y-50067753D01*
X147280004Y-50067753D01*
X147437282Y-50052261D01*
X147476603Y-50048389D01*
X147665650Y-49991042D01*
X147839878Y-49897916D01*
X147992589Y-49772589D01*
X148117916Y-49619878D01*
X148211042Y-49445650D01*
X148268389Y-49256603D01*
X148272261Y-49217282D01*
X148287753Y-49060004D01*
X148287753Y-49059995D01*
X148274949Y-48930002D01*
X150043255Y-48930002D01*
X150060945Y-49053044D01*
X150112585Y-49166118D01*
X150112589Y-49166125D01*
X150193989Y-49260066D01*
X150193990Y-49260066D01*
X150193993Y-49260070D01*
X150298570Y-49327277D01*
X150298572Y-49327278D01*
X150417840Y-49362299D01*
X150417843Y-49362299D01*
X150417845Y-49362300D01*
X150417847Y-49362300D01*
X150542153Y-49362300D01*
X150542155Y-49362300D01*
X150542157Y-49362299D01*
X150542159Y-49362299D01*
X150601792Y-49344788D01*
X150661430Y-49327277D01*
X150766007Y-49260070D01*
X150847413Y-49166122D01*
X150899054Y-49053045D01*
X150912604Y-48958800D01*
X150916745Y-48930002D01*
X150916745Y-48929997D01*
X150899054Y-48806955D01*
X150888499Y-48783843D01*
X150847413Y-48693878D01*
X150814005Y-48655323D01*
X150766010Y-48599933D01*
X150766009Y-48599932D01*
X150766007Y-48599930D01*
X150661430Y-48532723D01*
X150661427Y-48532721D01*
X150542159Y-48497700D01*
X150542155Y-48497700D01*
X150417845Y-48497700D01*
X150417840Y-48497700D01*
X150298573Y-48532721D01*
X150298572Y-48532721D01*
X150253267Y-48561837D01*
X150193993Y-48599930D01*
X150193992Y-48599930D01*
X150193989Y-48599933D01*
X150112589Y-48693874D01*
X150112585Y-48693881D01*
X150060945Y-48806955D01*
X150043255Y-48929997D01*
X150043255Y-48930002D01*
X148274949Y-48930002D01*
X148268389Y-48863397D01*
X148268389Y-48863396D01*
X148244256Y-48783843D01*
X148211042Y-48674350D01*
X148117916Y-48500122D01*
X147992589Y-48347411D01*
X147839878Y-48222084D01*
X147665650Y-48128958D01*
X147665643Y-48128955D01*
X147665641Y-48128955D01*
X147476602Y-48071610D01*
X147280004Y-48052247D01*
X147279996Y-48052247D01*
X147083397Y-48071610D01*
X147083396Y-48071610D01*
X146894358Y-48128955D01*
X146894352Y-48128957D01*
X146894350Y-48128958D01*
X146894347Y-48128959D01*
X146894346Y-48128960D01*
X146720125Y-48222082D01*
X146720120Y-48222085D01*
X146567412Y-48347410D01*
X146567410Y-48347412D01*
X146442085Y-48500120D01*
X146442082Y-48500125D01*
X146348960Y-48674346D01*
X146348955Y-48674358D01*
X146291610Y-48863396D01*
X146291610Y-48863397D01*
X146272247Y-49059995D01*
X146272247Y-49060004D01*
X145747753Y-49060004D01*
X145747753Y-49059995D01*
X145728389Y-48863397D01*
X145728389Y-48863396D01*
X145704256Y-48783843D01*
X145671042Y-48674350D01*
X145577916Y-48500122D01*
X145452589Y-48347411D01*
X145299878Y-48222084D01*
X145125650Y-48128958D01*
X145125643Y-48128955D01*
X145125641Y-48128955D01*
X144936602Y-48071610D01*
X144740004Y-48052247D01*
X144739996Y-48052247D01*
X144543397Y-48071610D01*
X144543396Y-48071610D01*
X144354358Y-48128955D01*
X144354352Y-48128957D01*
X144354350Y-48128958D01*
X144354347Y-48128959D01*
X144354346Y-48128960D01*
X144180125Y-48222082D01*
X144180120Y-48222085D01*
X144027412Y-48347410D01*
X144027410Y-48347412D01*
X143902085Y-48500120D01*
X143902082Y-48500125D01*
X143808960Y-48674346D01*
X143808955Y-48674358D01*
X143751610Y-48863396D01*
X143751610Y-48863397D01*
X143732247Y-49059995D01*
X143732247Y-49060004D01*
X143207753Y-49060004D01*
X143207753Y-49059995D01*
X143188389Y-48863397D01*
X143188389Y-48863396D01*
X143164256Y-48783843D01*
X143131042Y-48674350D01*
X143037916Y-48500122D01*
X142912589Y-48347411D01*
X142759878Y-48222084D01*
X142585650Y-48128958D01*
X142585643Y-48128955D01*
X142585641Y-48128955D01*
X142396602Y-48071610D01*
X142200004Y-48052247D01*
X142199996Y-48052247D01*
X142003397Y-48071610D01*
X142003396Y-48071610D01*
X141814358Y-48128955D01*
X141814352Y-48128957D01*
X141814350Y-48128958D01*
X141814347Y-48128959D01*
X141814346Y-48128960D01*
X141640125Y-48222082D01*
X141640120Y-48222085D01*
X141487412Y-48347410D01*
X141487410Y-48347412D01*
X141362085Y-48500120D01*
X141362082Y-48500125D01*
X141268960Y-48674346D01*
X141268955Y-48674358D01*
X141211610Y-48863396D01*
X141211610Y-48863397D01*
X141192247Y-49059995D01*
X141192247Y-49060004D01*
X140667753Y-49060004D01*
X140667753Y-49059995D01*
X140648389Y-48863397D01*
X140648389Y-48863396D01*
X140624256Y-48783843D01*
X140591042Y-48674350D01*
X140497916Y-48500122D01*
X140372589Y-48347411D01*
X140219878Y-48222084D01*
X140045650Y-48128958D01*
X140045643Y-48128955D01*
X140045641Y-48128955D01*
X139856602Y-48071610D01*
X139660004Y-48052247D01*
X139659996Y-48052247D01*
X139463397Y-48071610D01*
X139463396Y-48071610D01*
X139274358Y-48128955D01*
X139274352Y-48128957D01*
X139274350Y-48128958D01*
X139274347Y-48128959D01*
X139274346Y-48128960D01*
X139100125Y-48222082D01*
X139100120Y-48222085D01*
X138947412Y-48347410D01*
X138947410Y-48347412D01*
X138822085Y-48500120D01*
X138822082Y-48500125D01*
X138728960Y-48674346D01*
X138728955Y-48674358D01*
X138671610Y-48863396D01*
X138671610Y-48863397D01*
X138652247Y-49059995D01*
X138652247Y-49060004D01*
X137620000Y-49060004D01*
X137620000Y-48988111D01*
X137611394Y-48958800D01*
X138167525Y-48958800D01*
X138167525Y-48958799D01*
X138157173Y-48853694D01*
X138157173Y-48853693D01*
X138096997Y-48655323D01*
X138096992Y-48655311D01*
X137999273Y-48472492D01*
X137999270Y-48472487D01*
X137867760Y-48312241D01*
X137867758Y-48312239D01*
X137707512Y-48180729D01*
X137707507Y-48180726D01*
X137524688Y-48083007D01*
X137524676Y-48083002D01*
X137326305Y-48022826D01*
X137221200Y-48012474D01*
X137221200Y-48569408D01*
X137155763Y-48560000D01*
X137084237Y-48560000D01*
X137018800Y-48569408D01*
X137018800Y-48012475D01*
X137018799Y-48012474D01*
X136913694Y-48022826D01*
X136913693Y-48022826D01*
X136715323Y-48083002D01*
X136715311Y-48083007D01*
X136532492Y-48180726D01*
X136532487Y-48180729D01*
X136372241Y-48312239D01*
X136372239Y-48312241D01*
X136240729Y-48472487D01*
X136240726Y-48472492D01*
X136143007Y-48655311D01*
X136143002Y-48655323D01*
X136082826Y-48853693D01*
X136082826Y-48853694D01*
X136072474Y-48958799D01*
X135577786Y-48958799D01*
X135568389Y-48863397D01*
X135568389Y-48863396D01*
X135544256Y-48783843D01*
X135511042Y-48674350D01*
X135417916Y-48500122D01*
X135292589Y-48347411D01*
X135139878Y-48222084D01*
X134965650Y-48128958D01*
X134965643Y-48128955D01*
X134965641Y-48128955D01*
X134776602Y-48071610D01*
X134580004Y-48052247D01*
X134579996Y-48052247D01*
X134383397Y-48071610D01*
X134383396Y-48071610D01*
X134194358Y-48128955D01*
X134194352Y-48128957D01*
X134194350Y-48128958D01*
X134194347Y-48128959D01*
X134194346Y-48128960D01*
X134020125Y-48222082D01*
X134020120Y-48222085D01*
X133867412Y-48347410D01*
X133867410Y-48347412D01*
X133742085Y-48500120D01*
X133742082Y-48500125D01*
X133648960Y-48674346D01*
X133648955Y-48674358D01*
X133591610Y-48863396D01*
X133591610Y-48863397D01*
X133572247Y-49059995D01*
X133572247Y-49060004D01*
X99593672Y-49060004D01*
X99651159Y-48978985D01*
X99651839Y-48978089D01*
X99754502Y-48851311D01*
X99755033Y-48850686D01*
X99861778Y-48731238D01*
X99862409Y-48730570D01*
X99977870Y-48615109D01*
X99978538Y-48614478D01*
X100097986Y-48507733D01*
X100098611Y-48507202D01*
X100225389Y-48404539D01*
X100226285Y-48403859D01*
X100357317Y-48310885D01*
X100494279Y-48221941D01*
X100495358Y-48221294D01*
X100636269Y-48143415D01*
X100781321Y-48069507D01*
X100782589Y-48068922D01*
X100932015Y-48007027D01*
X101083202Y-47948993D01*
X101084663Y-47948503D01*
X101241479Y-47903325D01*
X101396340Y-47861830D01*
X101398001Y-47861466D01*
X101562484Y-47833518D01*
X101717150Y-47809022D01*
X101718989Y-47808826D01*
X101904781Y-47798392D01*
X102037733Y-47791424D01*
X102038683Y-47791400D01*
X102038700Y-47791400D01*
X151917700Y-47791400D01*
X151917717Y-47791400D01*
X151918666Y-47791424D01*
G37*
%TD.AperFunction*%
%TD*%
M02*
