%TF.GenerationSoftware,KiCad,Pcbnew,7.0.6*%
%TF.CreationDate,2023-10-17T01:06:07-04:00*%
%TF.ProjectId,tstick-5gw-pro-USB-V2-pcb,74737469-636b-42d3-9567-772d70726f2d,v0.0.2*%
%TF.SameCoordinates,Original*%
%TF.FileFunction,Legend,Bot*%
%TF.FilePolarity,Positive*%
%FSLAX46Y46*%
G04 Gerber Fmt 4.6, Leading zero omitted, Abs format (unit mm)*
G04 Created by KiCad (PCBNEW 7.0.6) date 2023-10-17 01:06:07*
%MOMM*%
%LPD*%
G01*
G04 APERTURE LIST*
%ADD10C,0.101600*%
%ADD11C,0.150000*%
%ADD12C,0.200000*%
%ADD13C,3.301600*%
%ADD14C,0.751600*%
%ADD15O,2.201600X1.101600*%
%ADD16O,1.901600X1.101600*%
%ADD17O,1.801600X1.801600*%
G04 APERTURE END LIST*
D10*
X151640000Y-59820000D02*
X152000000Y-59460000D01*
X152635016Y-56294999D02*
X152635016Y-56944999D01*
X151342152Y-58167356D02*
G75*
G03*
X151265018Y-57659999I182948J287356D01*
G01*
D11*
X152730000Y-59910000D02*
X152630000Y-59710000D01*
X152830000Y-59710000D01*
X152730000Y-59910000D01*
G36*
X152730000Y-59910000D02*
G01*
X152630000Y-59710000D01*
X152830000Y-59710000D01*
X152730000Y-59910000D01*
G37*
X151730000Y-58730000D02*
X152730000Y-58730000D01*
D10*
X151288300Y-57121200D02*
X151245447Y-56998540D01*
X151348300Y-56991200D01*
X151288300Y-57121200D01*
G36*
X151288300Y-57121200D02*
G01*
X151245447Y-56998540D01*
X151348300Y-56991200D01*
X151288300Y-57121200D01*
G37*
X151225016Y-57979999D02*
X151025016Y-57879999D01*
X151225016Y-57779999D01*
X151225016Y-57979999D01*
G36*
X151225016Y-57979999D02*
G01*
X151025016Y-57879999D01*
X151225016Y-57779999D01*
X151225016Y-57979999D01*
G37*
X151990000Y-59820000D02*
X151600000Y-59440000D01*
D11*
X152720000Y-58110000D02*
X152595000Y-57410000D01*
X151780000Y-58820000D02*
X151580000Y-58720000D01*
X151780000Y-58620000D01*
X151780000Y-58820000D01*
G36*
X151780000Y-58820000D02*
G01*
X151580000Y-58720000D01*
X151780000Y-58620000D01*
X151780000Y-58820000D01*
G37*
X152730000Y-58730000D02*
X152730000Y-59730000D01*
D10*
X151305016Y-58229999D02*
X151262163Y-58107339D01*
X151365016Y-58099999D01*
X151305016Y-58229999D01*
G36*
X151305016Y-58229999D02*
G01*
X151262163Y-58107339D01*
X151365016Y-58099999D01*
X151305016Y-58229999D01*
G37*
X152347656Y-56612133D02*
G75*
G03*
X152855016Y-56535000I287344J-182867D01*
G01*
X151325435Y-57058559D02*
G75*
G03*
X151248301Y-56551200I182965J287359D01*
G01*
X151025016Y-57879999D02*
X151675016Y-57879999D01*
X152415016Y-56634999D02*
X152285016Y-56574999D01*
X152407676Y-56532146D01*
X152415016Y-56634999D01*
G36*
X152415016Y-56634999D02*
G01*
X152285016Y-56574999D01*
X152407676Y-56532146D01*
X152415016Y-56634999D01*
G37*
X152082029Y-59630000D02*
G75*
G03*
X152082029Y-59630000I-272029J0D01*
G01*
X152735016Y-56494999D02*
X152535016Y-56494999D01*
X152635016Y-56294999D01*
X152735016Y-56494999D01*
G36*
X152735016Y-56494999D02*
G01*
X152535016Y-56494999D01*
X152635016Y-56294999D01*
X152735016Y-56494999D01*
G37*
D11*
X151328247Y-59016010D02*
X150909199Y-58482676D01*
X151328247Y-58482676D02*
X150909199Y-59016010D01*
D12*
X132370952Y-50044647D02*
X132637618Y-50044647D01*
X132637618Y-50463695D02*
X132637618Y-49663695D01*
X132637618Y-49663695D02*
X132256666Y-49663695D01*
X131990000Y-50425600D02*
X131875714Y-50463695D01*
X131875714Y-50463695D02*
X131685238Y-50463695D01*
X131685238Y-50463695D02*
X131609047Y-50425600D01*
X131609047Y-50425600D02*
X131570952Y-50387504D01*
X131570952Y-50387504D02*
X131532857Y-50311314D01*
X131532857Y-50311314D02*
X131532857Y-50235123D01*
X131532857Y-50235123D02*
X131570952Y-50158933D01*
X131570952Y-50158933D02*
X131609047Y-50120838D01*
X131609047Y-50120838D02*
X131685238Y-50082742D01*
X131685238Y-50082742D02*
X131837619Y-50044647D01*
X131837619Y-50044647D02*
X131913809Y-50006552D01*
X131913809Y-50006552D02*
X131951904Y-49968457D01*
X131951904Y-49968457D02*
X131990000Y-49892266D01*
X131990000Y-49892266D02*
X131990000Y-49816076D01*
X131990000Y-49816076D02*
X131951904Y-49739885D01*
X131951904Y-49739885D02*
X131913809Y-49701790D01*
X131913809Y-49701790D02*
X131837619Y-49663695D01*
X131837619Y-49663695D02*
X131647142Y-49663695D01*
X131647142Y-49663695D02*
X131532857Y-49701790D01*
X130732856Y-50463695D02*
X130999523Y-50082742D01*
X131189999Y-50463695D02*
X131189999Y-49663695D01*
X131189999Y-49663695D02*
X130885237Y-49663695D01*
X130885237Y-49663695D02*
X130809047Y-49701790D01*
X130809047Y-49701790D02*
X130770952Y-49739885D01*
X130770952Y-49739885D02*
X130732856Y-49816076D01*
X130732856Y-49816076D02*
X130732856Y-49930361D01*
X130732856Y-49930361D02*
X130770952Y-50006552D01*
X130770952Y-50006552D02*
X130809047Y-50044647D01*
X130809047Y-50044647D02*
X130885237Y-50082742D01*
X130885237Y-50082742D02*
X131189999Y-50082742D01*
X129780475Y-50463695D02*
X129780475Y-49663695D01*
X129399523Y-50463695D02*
X129399523Y-49663695D01*
X129399523Y-49663695D02*
X128942380Y-50463695D01*
X128942380Y-50463695D02*
X128942380Y-49663695D01*
X131589999Y-51751695D02*
X131589999Y-50951695D01*
X131056666Y-50951695D02*
X130904285Y-50951695D01*
X130904285Y-50951695D02*
X130828095Y-50989790D01*
X130828095Y-50989790D02*
X130751904Y-51065980D01*
X130751904Y-51065980D02*
X130713809Y-51218361D01*
X130713809Y-51218361D02*
X130713809Y-51485028D01*
X130713809Y-51485028D02*
X130751904Y-51637409D01*
X130751904Y-51637409D02*
X130828095Y-51713600D01*
X130828095Y-51713600D02*
X130904285Y-51751695D01*
X130904285Y-51751695D02*
X131056666Y-51751695D01*
X131056666Y-51751695D02*
X131132857Y-51713600D01*
X131132857Y-51713600D02*
X131209047Y-51637409D01*
X131209047Y-51637409D02*
X131247143Y-51485028D01*
X131247143Y-51485028D02*
X131247143Y-51218361D01*
X131247143Y-51218361D02*
X131209047Y-51065980D01*
X131209047Y-51065980D02*
X131132857Y-50989790D01*
X131132857Y-50989790D02*
X131056666Y-50951695D01*
X130447143Y-50951695D02*
X129951905Y-50951695D01*
X129951905Y-50951695D02*
X130218571Y-51256457D01*
X130218571Y-51256457D02*
X130104286Y-51256457D01*
X130104286Y-51256457D02*
X130028095Y-51294552D01*
X130028095Y-51294552D02*
X129990000Y-51332647D01*
X129990000Y-51332647D02*
X129951905Y-51408838D01*
X129951905Y-51408838D02*
X129951905Y-51599314D01*
X129951905Y-51599314D02*
X129990000Y-51675504D01*
X129990000Y-51675504D02*
X130028095Y-51713600D01*
X130028095Y-51713600D02*
X130104286Y-51751695D01*
X130104286Y-51751695D02*
X130332857Y-51751695D01*
X130332857Y-51751695D02*
X130409048Y-51713600D01*
X130409048Y-51713600D02*
X130447143Y-51675504D01*
X127544285Y-49777123D02*
X127163332Y-49777123D01*
X127620475Y-50005695D02*
X127353808Y-49205695D01*
X127353808Y-49205695D02*
X127087142Y-50005695D01*
X126820475Y-50005695D02*
X126820475Y-49205695D01*
X126820475Y-49205695D02*
X126363332Y-50005695D01*
X126363332Y-50005695D02*
X126363332Y-49205695D01*
X126020476Y-49777123D02*
X125639523Y-49777123D01*
X126096666Y-50005695D02*
X125829999Y-49205695D01*
X125829999Y-49205695D02*
X125563333Y-50005695D01*
X124915714Y-50005695D02*
X125296666Y-50005695D01*
X125296666Y-50005695D02*
X125296666Y-49205695D01*
X124496666Y-49205695D02*
X124344285Y-49205695D01*
X124344285Y-49205695D02*
X124268095Y-49243790D01*
X124268095Y-49243790D02*
X124191904Y-49319980D01*
X124191904Y-49319980D02*
X124153809Y-49472361D01*
X124153809Y-49472361D02*
X124153809Y-49739028D01*
X124153809Y-49739028D02*
X124191904Y-49891409D01*
X124191904Y-49891409D02*
X124268095Y-49967600D01*
X124268095Y-49967600D02*
X124344285Y-50005695D01*
X124344285Y-50005695D02*
X124496666Y-50005695D01*
X124496666Y-50005695D02*
X124572857Y-49967600D01*
X124572857Y-49967600D02*
X124649047Y-49891409D01*
X124649047Y-49891409D02*
X124687143Y-49739028D01*
X124687143Y-49739028D02*
X124687143Y-49472361D01*
X124687143Y-49472361D02*
X124649047Y-49319980D01*
X124649047Y-49319980D02*
X124572857Y-49243790D01*
X124572857Y-49243790D02*
X124496666Y-49205695D01*
X123391905Y-49243790D02*
X123468095Y-49205695D01*
X123468095Y-49205695D02*
X123582381Y-49205695D01*
X123582381Y-49205695D02*
X123696667Y-49243790D01*
X123696667Y-49243790D02*
X123772857Y-49319980D01*
X123772857Y-49319980D02*
X123810952Y-49396171D01*
X123810952Y-49396171D02*
X123849048Y-49548552D01*
X123849048Y-49548552D02*
X123849048Y-49662838D01*
X123849048Y-49662838D02*
X123810952Y-49815219D01*
X123810952Y-49815219D02*
X123772857Y-49891409D01*
X123772857Y-49891409D02*
X123696667Y-49967600D01*
X123696667Y-49967600D02*
X123582381Y-50005695D01*
X123582381Y-50005695D02*
X123506190Y-50005695D01*
X123506190Y-50005695D02*
X123391905Y-49967600D01*
X123391905Y-49967600D02*
X123353809Y-49929504D01*
X123353809Y-49929504D02*
X123353809Y-49662838D01*
X123353809Y-49662838D02*
X123506190Y-49662838D01*
X122439524Y-49167600D02*
X123125238Y-50196171D01*
X126610952Y-50874647D02*
X126496666Y-50912742D01*
X126496666Y-50912742D02*
X126458571Y-50950838D01*
X126458571Y-50950838D02*
X126420475Y-51027028D01*
X126420475Y-51027028D02*
X126420475Y-51141314D01*
X126420475Y-51141314D02*
X126458571Y-51217504D01*
X126458571Y-51217504D02*
X126496666Y-51255600D01*
X126496666Y-51255600D02*
X126572856Y-51293695D01*
X126572856Y-51293695D02*
X126877618Y-51293695D01*
X126877618Y-51293695D02*
X126877618Y-50493695D01*
X126877618Y-50493695D02*
X126610952Y-50493695D01*
X126610952Y-50493695D02*
X126534761Y-50531790D01*
X126534761Y-50531790D02*
X126496666Y-50569885D01*
X126496666Y-50569885D02*
X126458571Y-50646076D01*
X126458571Y-50646076D02*
X126458571Y-50722266D01*
X126458571Y-50722266D02*
X126496666Y-50798457D01*
X126496666Y-50798457D02*
X126534761Y-50836552D01*
X126534761Y-50836552D02*
X126610952Y-50874647D01*
X126610952Y-50874647D02*
X126877618Y-50874647D01*
X126191904Y-50493695D02*
X125734761Y-50493695D01*
X125963333Y-51293695D02*
X125963333Y-50493695D01*
X125468094Y-51293695D02*
X125468094Y-50493695D01*
X125468094Y-50493695D02*
X125010951Y-51293695D01*
X125010951Y-51293695D02*
X125010951Y-50493695D01*
X124020475Y-51293695D02*
X124020475Y-50493695D01*
X123639523Y-51293695D02*
X123639523Y-50493695D01*
X123639523Y-50493695D02*
X123182380Y-51293695D01*
X123182380Y-51293695D02*
X123182380Y-50493695D01*
X125829999Y-52581695D02*
X125829999Y-51781695D01*
X125296666Y-51781695D02*
X125144285Y-51781695D01*
X125144285Y-51781695D02*
X125068095Y-51819790D01*
X125068095Y-51819790D02*
X124991904Y-51895980D01*
X124991904Y-51895980D02*
X124953809Y-52048361D01*
X124953809Y-52048361D02*
X124953809Y-52315028D01*
X124953809Y-52315028D02*
X124991904Y-52467409D01*
X124991904Y-52467409D02*
X125068095Y-52543600D01*
X125068095Y-52543600D02*
X125144285Y-52581695D01*
X125144285Y-52581695D02*
X125296666Y-52581695D01*
X125296666Y-52581695D02*
X125372857Y-52543600D01*
X125372857Y-52543600D02*
X125449047Y-52467409D01*
X125449047Y-52467409D02*
X125487143Y-52315028D01*
X125487143Y-52315028D02*
X125487143Y-52048361D01*
X125487143Y-52048361D02*
X125449047Y-51895980D01*
X125449047Y-51895980D02*
X125372857Y-51819790D01*
X125372857Y-51819790D02*
X125296666Y-51781695D01*
X124572857Y-52581695D02*
X124420476Y-52581695D01*
X124420476Y-52581695D02*
X124344286Y-52543600D01*
X124344286Y-52543600D02*
X124306190Y-52505504D01*
X124306190Y-52505504D02*
X124230000Y-52391219D01*
X124230000Y-52391219D02*
X124191905Y-52238838D01*
X124191905Y-52238838D02*
X124191905Y-51934076D01*
X124191905Y-51934076D02*
X124230000Y-51857885D01*
X124230000Y-51857885D02*
X124268095Y-51819790D01*
X124268095Y-51819790D02*
X124344286Y-51781695D01*
X124344286Y-51781695D02*
X124496667Y-51781695D01*
X124496667Y-51781695D02*
X124572857Y-51819790D01*
X124572857Y-51819790D02*
X124610952Y-51857885D01*
X124610952Y-51857885D02*
X124649048Y-51934076D01*
X124649048Y-51934076D02*
X124649048Y-52124552D01*
X124649048Y-52124552D02*
X124610952Y-52200742D01*
X124610952Y-52200742D02*
X124572857Y-52238838D01*
X124572857Y-52238838D02*
X124496667Y-52276933D01*
X124496667Y-52276933D02*
X124344286Y-52276933D01*
X124344286Y-52276933D02*
X124268095Y-52238838D01*
X124268095Y-52238838D02*
X124230000Y-52200742D01*
X124230000Y-52200742D02*
X124191905Y-52124552D01*
D11*
X152887982Y-58004295D02*
X152887982Y-57585247D01*
X152887982Y-57585247D02*
X152926077Y-57509057D01*
X152926077Y-57509057D02*
X153002268Y-57470961D01*
X153002268Y-57470961D02*
X153154649Y-57470961D01*
X153154649Y-57470961D02*
X153230839Y-57509057D01*
X152887982Y-57966200D02*
X152964173Y-58004295D01*
X152964173Y-58004295D02*
X153154649Y-58004295D01*
X153154649Y-58004295D02*
X153230839Y-57966200D01*
X153230839Y-57966200D02*
X153268935Y-57890009D01*
X153268935Y-57890009D02*
X153268935Y-57813819D01*
X153268935Y-57813819D02*
X153230839Y-57737628D01*
X153230839Y-57737628D02*
X153154649Y-57699533D01*
X153154649Y-57699533D02*
X152964173Y-57699533D01*
X152964173Y-57699533D02*
X152887982Y-57661438D01*
X151035331Y-55912161D02*
X150616283Y-55912161D01*
X150616283Y-55912161D02*
X151035331Y-56445495D01*
X151035331Y-56445495D02*
X150616283Y-56445495D01*
X153228247Y-55862676D02*
X153037771Y-56396010D01*
X152847294Y-55862676D02*
X153037771Y-56396010D01*
X153037771Y-56396010D02*
X153113961Y-56586486D01*
X153113961Y-56586486D02*
X153152056Y-56624581D01*
X153152056Y-56624581D02*
X153228247Y-56662676D01*
X152030482Y-57530961D02*
X152030482Y-58178580D01*
X152030482Y-58178580D02*
X152068577Y-58254771D01*
X152068577Y-58254771D02*
X152106673Y-58292866D01*
X152106673Y-58292866D02*
X152182863Y-58330961D01*
X152182863Y-58330961D02*
X152297149Y-58330961D01*
X152297149Y-58330961D02*
X152373339Y-58292866D01*
X152030482Y-58026200D02*
X152106673Y-58064295D01*
X152106673Y-58064295D02*
X152259054Y-58064295D01*
X152259054Y-58064295D02*
X152335244Y-58026200D01*
X152335244Y-58026200D02*
X152373339Y-57988104D01*
X152373339Y-57988104D02*
X152411435Y-57911914D01*
X152411435Y-57911914D02*
X152411435Y-57683342D01*
X152411435Y-57683342D02*
X152373339Y-57607152D01*
X152373339Y-57607152D02*
X152335244Y-57569057D01*
X152335244Y-57569057D02*
X152259054Y-57530961D01*
X152259054Y-57530961D02*
X152106673Y-57530961D01*
X152106673Y-57530961D02*
X152030482Y-57569057D01*
D12*
X153456041Y-62531600D02*
X153341755Y-62569695D01*
X153341755Y-62569695D02*
X153151279Y-62569695D01*
X153151279Y-62569695D02*
X153075088Y-62531600D01*
X153075088Y-62531600D02*
X153036993Y-62493504D01*
X153036993Y-62493504D02*
X152998898Y-62417314D01*
X152998898Y-62417314D02*
X152998898Y-62341123D01*
X152998898Y-62341123D02*
X153036993Y-62264933D01*
X153036993Y-62264933D02*
X153075088Y-62226838D01*
X153075088Y-62226838D02*
X153151279Y-62188742D01*
X153151279Y-62188742D02*
X153303660Y-62150647D01*
X153303660Y-62150647D02*
X153379850Y-62112552D01*
X153379850Y-62112552D02*
X153417945Y-62074457D01*
X153417945Y-62074457D02*
X153456041Y-61998266D01*
X153456041Y-61998266D02*
X153456041Y-61922076D01*
X153456041Y-61922076D02*
X153417945Y-61845885D01*
X153417945Y-61845885D02*
X153379850Y-61807790D01*
X153379850Y-61807790D02*
X153303660Y-61769695D01*
X153303660Y-61769695D02*
X153113183Y-61769695D01*
X153113183Y-61769695D02*
X152998898Y-61807790D01*
X152198897Y-62493504D02*
X152236993Y-62531600D01*
X152236993Y-62531600D02*
X152351278Y-62569695D01*
X152351278Y-62569695D02*
X152427469Y-62569695D01*
X152427469Y-62569695D02*
X152541755Y-62531600D01*
X152541755Y-62531600D02*
X152617945Y-62455409D01*
X152617945Y-62455409D02*
X152656040Y-62379219D01*
X152656040Y-62379219D02*
X152694136Y-62226838D01*
X152694136Y-62226838D02*
X152694136Y-62112552D01*
X152694136Y-62112552D02*
X152656040Y-61960171D01*
X152656040Y-61960171D02*
X152617945Y-61883980D01*
X152617945Y-61883980D02*
X152541755Y-61807790D01*
X152541755Y-61807790D02*
X152427469Y-61769695D01*
X152427469Y-61769695D02*
X152351278Y-61769695D01*
X152351278Y-61769695D02*
X152236993Y-61807790D01*
X152236993Y-61807790D02*
X152198897Y-61845885D01*
X151475088Y-62569695D02*
X151856040Y-62569695D01*
X151856040Y-62569695D02*
X151856040Y-61769695D01*
X150598897Y-62150647D02*
X149989374Y-62150647D01*
X149989374Y-62379219D02*
X150598897Y-62379219D01*
X148998897Y-62569695D02*
X148998897Y-61769695D01*
X148465564Y-61769695D02*
X148313183Y-61769695D01*
X148313183Y-61769695D02*
X148236993Y-61807790D01*
X148236993Y-61807790D02*
X148160802Y-61883980D01*
X148160802Y-61883980D02*
X148122707Y-62036361D01*
X148122707Y-62036361D02*
X148122707Y-62303028D01*
X148122707Y-62303028D02*
X148160802Y-62455409D01*
X148160802Y-62455409D02*
X148236993Y-62531600D01*
X148236993Y-62531600D02*
X148313183Y-62569695D01*
X148313183Y-62569695D02*
X148465564Y-62569695D01*
X148465564Y-62569695D02*
X148541755Y-62531600D01*
X148541755Y-62531600D02*
X148617945Y-62455409D01*
X148617945Y-62455409D02*
X148656041Y-62303028D01*
X148656041Y-62303028D02*
X148656041Y-62036361D01*
X148656041Y-62036361D02*
X148617945Y-61883980D01*
X148617945Y-61883980D02*
X148541755Y-61807790D01*
X148541755Y-61807790D02*
X148465564Y-61769695D01*
X147360803Y-62569695D02*
X147817946Y-62569695D01*
X147589374Y-62569695D02*
X147589374Y-61769695D01*
X147589374Y-61769695D02*
X147665565Y-61883980D01*
X147665565Y-61883980D02*
X147741755Y-61960171D01*
X147741755Y-61960171D02*
X147817946Y-61998266D01*
X146598898Y-62569695D02*
X147056041Y-62569695D01*
X146827469Y-62569695D02*
X146827469Y-61769695D01*
X146827469Y-61769695D02*
X146903660Y-61883980D01*
X146903660Y-61883980D02*
X146979850Y-61960171D01*
X146979850Y-61960171D02*
X147056041Y-61998266D01*
X153456041Y-63819600D02*
X153341755Y-63857695D01*
X153341755Y-63857695D02*
X153151279Y-63857695D01*
X153151279Y-63857695D02*
X153075088Y-63819600D01*
X153075088Y-63819600D02*
X153036993Y-63781504D01*
X153036993Y-63781504D02*
X152998898Y-63705314D01*
X152998898Y-63705314D02*
X152998898Y-63629123D01*
X152998898Y-63629123D02*
X153036993Y-63552933D01*
X153036993Y-63552933D02*
X153075088Y-63514838D01*
X153075088Y-63514838D02*
X153151279Y-63476742D01*
X153151279Y-63476742D02*
X153303660Y-63438647D01*
X153303660Y-63438647D02*
X153379850Y-63400552D01*
X153379850Y-63400552D02*
X153417945Y-63362457D01*
X153417945Y-63362457D02*
X153456041Y-63286266D01*
X153456041Y-63286266D02*
X153456041Y-63210076D01*
X153456041Y-63210076D02*
X153417945Y-63133885D01*
X153417945Y-63133885D02*
X153379850Y-63095790D01*
X153379850Y-63095790D02*
X153303660Y-63057695D01*
X153303660Y-63057695D02*
X153113183Y-63057695D01*
X153113183Y-63057695D02*
X152998898Y-63095790D01*
X152656040Y-63857695D02*
X152656040Y-63057695D01*
X152656040Y-63057695D02*
X152465564Y-63057695D01*
X152465564Y-63057695D02*
X152351278Y-63095790D01*
X152351278Y-63095790D02*
X152275088Y-63171980D01*
X152275088Y-63171980D02*
X152236993Y-63248171D01*
X152236993Y-63248171D02*
X152198897Y-63400552D01*
X152198897Y-63400552D02*
X152198897Y-63514838D01*
X152198897Y-63514838D02*
X152236993Y-63667219D01*
X152236993Y-63667219D02*
X152275088Y-63743409D01*
X152275088Y-63743409D02*
X152351278Y-63819600D01*
X152351278Y-63819600D02*
X152465564Y-63857695D01*
X152465564Y-63857695D02*
X152656040Y-63857695D01*
X151894136Y-63629123D02*
X151513183Y-63629123D01*
X151970326Y-63857695D02*
X151703659Y-63057695D01*
X151703659Y-63057695D02*
X151436993Y-63857695D01*
X150560802Y-63438647D02*
X149951279Y-63438647D01*
X149951279Y-63667219D02*
X150560802Y-63667219D01*
X148960802Y-63857695D02*
X148960802Y-63057695D01*
X148427469Y-63057695D02*
X148275088Y-63057695D01*
X148275088Y-63057695D02*
X148198898Y-63095790D01*
X148198898Y-63095790D02*
X148122707Y-63171980D01*
X148122707Y-63171980D02*
X148084612Y-63324361D01*
X148084612Y-63324361D02*
X148084612Y-63591028D01*
X148084612Y-63591028D02*
X148122707Y-63743409D01*
X148122707Y-63743409D02*
X148198898Y-63819600D01*
X148198898Y-63819600D02*
X148275088Y-63857695D01*
X148275088Y-63857695D02*
X148427469Y-63857695D01*
X148427469Y-63857695D02*
X148503660Y-63819600D01*
X148503660Y-63819600D02*
X148579850Y-63743409D01*
X148579850Y-63743409D02*
X148617946Y-63591028D01*
X148617946Y-63591028D02*
X148617946Y-63324361D01*
X148617946Y-63324361D02*
X148579850Y-63171980D01*
X148579850Y-63171980D02*
X148503660Y-63095790D01*
X148503660Y-63095790D02*
X148427469Y-63057695D01*
X147322708Y-63857695D02*
X147779851Y-63857695D01*
X147551279Y-63857695D02*
X147551279Y-63057695D01*
X147551279Y-63057695D02*
X147627470Y-63171980D01*
X147627470Y-63171980D02*
X147703660Y-63248171D01*
X147703660Y-63248171D02*
X147779851Y-63286266D01*
X147017946Y-63133885D02*
X146979850Y-63095790D01*
X146979850Y-63095790D02*
X146903660Y-63057695D01*
X146903660Y-63057695D02*
X146713184Y-63057695D01*
X146713184Y-63057695D02*
X146636993Y-63095790D01*
X146636993Y-63095790D02*
X146598898Y-63133885D01*
X146598898Y-63133885D02*
X146560803Y-63210076D01*
X146560803Y-63210076D02*
X146560803Y-63286266D01*
X146560803Y-63286266D02*
X146598898Y-63400552D01*
X146598898Y-63400552D02*
X147056041Y-63857695D01*
X147056041Y-63857695D02*
X146560803Y-63857695D01*
X153456041Y-65107600D02*
X153341755Y-65145695D01*
X153341755Y-65145695D02*
X153151279Y-65145695D01*
X153151279Y-65145695D02*
X153075088Y-65107600D01*
X153075088Y-65107600D02*
X153036993Y-65069504D01*
X153036993Y-65069504D02*
X152998898Y-64993314D01*
X152998898Y-64993314D02*
X152998898Y-64917123D01*
X152998898Y-64917123D02*
X153036993Y-64840933D01*
X153036993Y-64840933D02*
X153075088Y-64802838D01*
X153075088Y-64802838D02*
X153151279Y-64764742D01*
X153151279Y-64764742D02*
X153303660Y-64726647D01*
X153303660Y-64726647D02*
X153379850Y-64688552D01*
X153379850Y-64688552D02*
X153417945Y-64650457D01*
X153417945Y-64650457D02*
X153456041Y-64574266D01*
X153456041Y-64574266D02*
X153456041Y-64498076D01*
X153456041Y-64498076D02*
X153417945Y-64421885D01*
X153417945Y-64421885D02*
X153379850Y-64383790D01*
X153379850Y-64383790D02*
X153303660Y-64345695D01*
X153303660Y-64345695D02*
X153113183Y-64345695D01*
X153113183Y-64345695D02*
X152998898Y-64383790D01*
X152770326Y-64345695D02*
X152313183Y-64345695D01*
X152541755Y-65145695D02*
X152541755Y-64345695D01*
X152084612Y-64917123D02*
X151703659Y-64917123D01*
X152160802Y-65145695D02*
X151894135Y-64345695D01*
X151894135Y-64345695D02*
X151627469Y-65145695D01*
X151475088Y-64345695D02*
X151017945Y-64345695D01*
X151246517Y-65145695D02*
X151246517Y-64345695D01*
X150751278Y-64345695D02*
X150751278Y-64993314D01*
X150751278Y-64993314D02*
X150713183Y-65069504D01*
X150713183Y-65069504D02*
X150675088Y-65107600D01*
X150675088Y-65107600D02*
X150598897Y-65145695D01*
X150598897Y-65145695D02*
X150446516Y-65145695D01*
X150446516Y-65145695D02*
X150370326Y-65107600D01*
X150370326Y-65107600D02*
X150332231Y-65069504D01*
X150332231Y-65069504D02*
X150294135Y-64993314D01*
X150294135Y-64993314D02*
X150294135Y-64345695D01*
X149951279Y-65107600D02*
X149836993Y-65145695D01*
X149836993Y-65145695D02*
X149646517Y-65145695D01*
X149646517Y-65145695D02*
X149570326Y-65107600D01*
X149570326Y-65107600D02*
X149532231Y-65069504D01*
X149532231Y-65069504D02*
X149494136Y-64993314D01*
X149494136Y-64993314D02*
X149494136Y-64917123D01*
X149494136Y-64917123D02*
X149532231Y-64840933D01*
X149532231Y-64840933D02*
X149570326Y-64802838D01*
X149570326Y-64802838D02*
X149646517Y-64764742D01*
X149646517Y-64764742D02*
X149798898Y-64726647D01*
X149798898Y-64726647D02*
X149875088Y-64688552D01*
X149875088Y-64688552D02*
X149913183Y-64650457D01*
X149913183Y-64650457D02*
X149951279Y-64574266D01*
X149951279Y-64574266D02*
X149951279Y-64498076D01*
X149951279Y-64498076D02*
X149913183Y-64421885D01*
X149913183Y-64421885D02*
X149875088Y-64383790D01*
X149875088Y-64383790D02*
X149798898Y-64345695D01*
X149798898Y-64345695D02*
X149608421Y-64345695D01*
X149608421Y-64345695D02*
X149494136Y-64383790D01*
X148160802Y-65145695D02*
X148541754Y-65145695D01*
X148541754Y-65145695D02*
X148541754Y-64345695D01*
X147894135Y-64726647D02*
X147627469Y-64726647D01*
X147513183Y-65145695D02*
X147894135Y-65145695D01*
X147894135Y-65145695D02*
X147894135Y-64345695D01*
X147894135Y-64345695D02*
X147513183Y-64345695D01*
X147170325Y-65145695D02*
X147170325Y-64345695D01*
X147170325Y-64345695D02*
X146979849Y-64345695D01*
X146979849Y-64345695D02*
X146865563Y-64383790D01*
X146865563Y-64383790D02*
X146789373Y-64459980D01*
X146789373Y-64459980D02*
X146751278Y-64536171D01*
X146751278Y-64536171D02*
X146713182Y-64688552D01*
X146713182Y-64688552D02*
X146713182Y-64802838D01*
X146713182Y-64802838D02*
X146751278Y-64955219D01*
X146751278Y-64955219D02*
X146789373Y-65031409D01*
X146789373Y-65031409D02*
X146865563Y-65107600D01*
X146865563Y-65107600D02*
X146979849Y-65145695D01*
X146979849Y-65145695D02*
X147170325Y-65145695D01*
X145760801Y-64726647D02*
X145151278Y-64726647D01*
X145151278Y-64955219D02*
X145760801Y-64955219D01*
X144160801Y-65145695D02*
X144160801Y-64345695D01*
X143627468Y-64345695D02*
X143475087Y-64345695D01*
X143475087Y-64345695D02*
X143398897Y-64383790D01*
X143398897Y-64383790D02*
X143322706Y-64459980D01*
X143322706Y-64459980D02*
X143284611Y-64612361D01*
X143284611Y-64612361D02*
X143284611Y-64879028D01*
X143284611Y-64879028D02*
X143322706Y-65031409D01*
X143322706Y-65031409D02*
X143398897Y-65107600D01*
X143398897Y-65107600D02*
X143475087Y-65145695D01*
X143475087Y-65145695D02*
X143627468Y-65145695D01*
X143627468Y-65145695D02*
X143703659Y-65107600D01*
X143703659Y-65107600D02*
X143779849Y-65031409D01*
X143779849Y-65031409D02*
X143817945Y-64879028D01*
X143817945Y-64879028D02*
X143817945Y-64612361D01*
X143817945Y-64612361D02*
X143779849Y-64459980D01*
X143779849Y-64459980D02*
X143703659Y-64383790D01*
X143703659Y-64383790D02*
X143627468Y-64345695D01*
X142598897Y-64612361D02*
X142598897Y-65145695D01*
X142789373Y-64307600D02*
X142979850Y-64879028D01*
X142979850Y-64879028D02*
X142484611Y-64879028D01*
X141836992Y-64345695D02*
X141989373Y-64345695D01*
X141989373Y-64345695D02*
X142065564Y-64383790D01*
X142065564Y-64383790D02*
X142103659Y-64421885D01*
X142103659Y-64421885D02*
X142179849Y-64536171D01*
X142179849Y-64536171D02*
X142217945Y-64688552D01*
X142217945Y-64688552D02*
X142217945Y-64993314D01*
X142217945Y-64993314D02*
X142179849Y-65069504D01*
X142179849Y-65069504D02*
X142141754Y-65107600D01*
X142141754Y-65107600D02*
X142065564Y-65145695D01*
X142065564Y-65145695D02*
X141913183Y-65145695D01*
X141913183Y-65145695D02*
X141836992Y-65107600D01*
X141836992Y-65107600D02*
X141798897Y-65069504D01*
X141798897Y-65069504D02*
X141760802Y-64993314D01*
X141760802Y-64993314D02*
X141760802Y-64802838D01*
X141760802Y-64802838D02*
X141798897Y-64726647D01*
X141798897Y-64726647D02*
X141836992Y-64688552D01*
X141836992Y-64688552D02*
X141913183Y-64650457D01*
X141913183Y-64650457D02*
X142065564Y-64650457D01*
X142065564Y-64650457D02*
X142141754Y-64688552D01*
X142141754Y-64688552D02*
X142179849Y-64726647D01*
X142179849Y-64726647D02*
X142217945Y-64802838D01*
X153417945Y-66433695D02*
X153417945Y-65633695D01*
X153036993Y-66433695D02*
X153036993Y-65633695D01*
X153036993Y-65633695D02*
X152770327Y-66205123D01*
X152770327Y-66205123D02*
X152503660Y-65633695D01*
X152503660Y-65633695D02*
X152503660Y-66433695D01*
X152122707Y-65633695D02*
X152122707Y-66281314D01*
X152122707Y-66281314D02*
X152084612Y-66357504D01*
X152084612Y-66357504D02*
X152046517Y-66395600D01*
X152046517Y-66395600D02*
X151970326Y-66433695D01*
X151970326Y-66433695D02*
X151817945Y-66433695D01*
X151817945Y-66433695D02*
X151741755Y-66395600D01*
X151741755Y-66395600D02*
X151703660Y-66357504D01*
X151703660Y-66357504D02*
X151665564Y-66281314D01*
X151665564Y-66281314D02*
X151665564Y-65633695D01*
X150675088Y-66433695D02*
X150675088Y-65633695D01*
X150294136Y-66433695D02*
X150294136Y-65633695D01*
X150294136Y-65633695D02*
X149836993Y-66433695D01*
X149836993Y-66433695D02*
X149836993Y-65633695D01*
X149570327Y-65633695D02*
X149113184Y-65633695D01*
X149341756Y-66433695D02*
X149341756Y-65633695D01*
X148236993Y-66014647D02*
X147627470Y-66014647D01*
X147627470Y-66243219D02*
X148236993Y-66243219D01*
X146636993Y-66433695D02*
X146636993Y-65633695D01*
X146103660Y-65633695D02*
X145951279Y-65633695D01*
X145951279Y-65633695D02*
X145875089Y-65671790D01*
X145875089Y-65671790D02*
X145798898Y-65747980D01*
X145798898Y-65747980D02*
X145760803Y-65900361D01*
X145760803Y-65900361D02*
X145760803Y-66167028D01*
X145760803Y-66167028D02*
X145798898Y-66319409D01*
X145798898Y-66319409D02*
X145875089Y-66395600D01*
X145875089Y-66395600D02*
X145951279Y-66433695D01*
X145951279Y-66433695D02*
X146103660Y-66433695D01*
X146103660Y-66433695D02*
X146179851Y-66395600D01*
X146179851Y-66395600D02*
X146256041Y-66319409D01*
X146256041Y-66319409D02*
X146294137Y-66167028D01*
X146294137Y-66167028D02*
X146294137Y-65900361D01*
X146294137Y-65900361D02*
X146256041Y-65747980D01*
X146256041Y-65747980D02*
X146179851Y-65671790D01*
X146179851Y-65671790D02*
X146103660Y-65633695D01*
X145456042Y-65709885D02*
X145417946Y-65671790D01*
X145417946Y-65671790D02*
X145341756Y-65633695D01*
X145341756Y-65633695D02*
X145151280Y-65633695D01*
X145151280Y-65633695D02*
X145075089Y-65671790D01*
X145075089Y-65671790D02*
X145036994Y-65709885D01*
X145036994Y-65709885D02*
X144998899Y-65786076D01*
X144998899Y-65786076D02*
X144998899Y-65862266D01*
X144998899Y-65862266D02*
X145036994Y-65976552D01*
X145036994Y-65976552D02*
X145494137Y-66433695D01*
X145494137Y-66433695D02*
X144998899Y-66433695D01*
X144236994Y-66433695D02*
X144694137Y-66433695D01*
X144465565Y-66433695D02*
X144465565Y-65633695D01*
X144465565Y-65633695D02*
X144541756Y-65747980D01*
X144541756Y-65747980D02*
X144617946Y-65824171D01*
X144617946Y-65824171D02*
X144694137Y-65862266D01*
X153151279Y-67302647D02*
X153417945Y-67302647D01*
X153417945Y-67721695D02*
X153417945Y-66921695D01*
X153417945Y-66921695D02*
X153036993Y-66921695D01*
X152732231Y-66921695D02*
X152732231Y-67569314D01*
X152732231Y-67569314D02*
X152694136Y-67645504D01*
X152694136Y-67645504D02*
X152656041Y-67683600D01*
X152656041Y-67683600D02*
X152579850Y-67721695D01*
X152579850Y-67721695D02*
X152427469Y-67721695D01*
X152427469Y-67721695D02*
X152351279Y-67683600D01*
X152351279Y-67683600D02*
X152313184Y-67645504D01*
X152313184Y-67645504D02*
X152275088Y-67569314D01*
X152275088Y-67569314D02*
X152275088Y-66921695D01*
X151894136Y-67302647D02*
X151627470Y-67302647D01*
X151513184Y-67721695D02*
X151894136Y-67721695D01*
X151894136Y-67721695D02*
X151894136Y-66921695D01*
X151894136Y-66921695D02*
X151513184Y-66921695D01*
X150789374Y-67721695D02*
X151170326Y-67721695D01*
X151170326Y-67721695D02*
X151170326Y-66921695D01*
X149494136Y-66959790D02*
X149570326Y-66921695D01*
X149570326Y-66921695D02*
X149684612Y-66921695D01*
X149684612Y-66921695D02*
X149798898Y-66959790D01*
X149798898Y-66959790D02*
X149875088Y-67035980D01*
X149875088Y-67035980D02*
X149913183Y-67112171D01*
X149913183Y-67112171D02*
X149951279Y-67264552D01*
X149951279Y-67264552D02*
X149951279Y-67378838D01*
X149951279Y-67378838D02*
X149913183Y-67531219D01*
X149913183Y-67531219D02*
X149875088Y-67607409D01*
X149875088Y-67607409D02*
X149798898Y-67683600D01*
X149798898Y-67683600D02*
X149684612Y-67721695D01*
X149684612Y-67721695D02*
X149608421Y-67721695D01*
X149608421Y-67721695D02*
X149494136Y-67683600D01*
X149494136Y-67683600D02*
X149456040Y-67645504D01*
X149456040Y-67645504D02*
X149456040Y-67378838D01*
X149456040Y-67378838D02*
X149608421Y-67378838D01*
X149151279Y-67493123D02*
X148770326Y-67493123D01*
X149227469Y-67721695D02*
X148960802Y-66921695D01*
X148960802Y-66921695D02*
X148694136Y-67721695D01*
X148427469Y-66921695D02*
X148427469Y-67569314D01*
X148427469Y-67569314D02*
X148389374Y-67645504D01*
X148389374Y-67645504D02*
X148351279Y-67683600D01*
X148351279Y-67683600D02*
X148275088Y-67721695D01*
X148275088Y-67721695D02*
X148122707Y-67721695D01*
X148122707Y-67721695D02*
X148046517Y-67683600D01*
X148046517Y-67683600D02*
X148008422Y-67645504D01*
X148008422Y-67645504D02*
X147970326Y-67569314D01*
X147970326Y-67569314D02*
X147970326Y-66921695D01*
X147170327Y-66959790D02*
X147246517Y-66921695D01*
X147246517Y-66921695D02*
X147360803Y-66921695D01*
X147360803Y-66921695D02*
X147475089Y-66959790D01*
X147475089Y-66959790D02*
X147551279Y-67035980D01*
X147551279Y-67035980D02*
X147589374Y-67112171D01*
X147589374Y-67112171D02*
X147627470Y-67264552D01*
X147627470Y-67264552D02*
X147627470Y-67378838D01*
X147627470Y-67378838D02*
X147589374Y-67531219D01*
X147589374Y-67531219D02*
X147551279Y-67607409D01*
X147551279Y-67607409D02*
X147475089Y-67683600D01*
X147475089Y-67683600D02*
X147360803Y-67721695D01*
X147360803Y-67721695D02*
X147284612Y-67721695D01*
X147284612Y-67721695D02*
X147170327Y-67683600D01*
X147170327Y-67683600D02*
X147132231Y-67645504D01*
X147132231Y-67645504D02*
X147132231Y-67378838D01*
X147132231Y-67378838D02*
X147284612Y-67378838D01*
X146789374Y-67302647D02*
X146522708Y-67302647D01*
X146408422Y-67721695D02*
X146789374Y-67721695D01*
X146789374Y-67721695D02*
X146789374Y-66921695D01*
X146789374Y-66921695D02*
X146408422Y-66921695D01*
X145456040Y-67721695D02*
X145456040Y-66921695D01*
X145075088Y-67721695D02*
X145075088Y-66921695D01*
X145075088Y-66921695D02*
X144617945Y-67721695D01*
X144617945Y-67721695D02*
X144617945Y-66921695D01*
X144351279Y-66921695D02*
X143894136Y-66921695D01*
X144122708Y-67721695D02*
X144122708Y-66921695D01*
X143017945Y-67302647D02*
X142408422Y-67302647D01*
X142408422Y-67531219D02*
X143017945Y-67531219D01*
X141417945Y-67721695D02*
X141417945Y-66921695D01*
X140884612Y-66921695D02*
X140732231Y-66921695D01*
X140732231Y-66921695D02*
X140656041Y-66959790D01*
X140656041Y-66959790D02*
X140579850Y-67035980D01*
X140579850Y-67035980D02*
X140541755Y-67188361D01*
X140541755Y-67188361D02*
X140541755Y-67455028D01*
X140541755Y-67455028D02*
X140579850Y-67607409D01*
X140579850Y-67607409D02*
X140656041Y-67683600D01*
X140656041Y-67683600D02*
X140732231Y-67721695D01*
X140732231Y-67721695D02*
X140884612Y-67721695D01*
X140884612Y-67721695D02*
X140960803Y-67683600D01*
X140960803Y-67683600D02*
X141036993Y-67607409D01*
X141036993Y-67607409D02*
X141075089Y-67455028D01*
X141075089Y-67455028D02*
X141075089Y-67188361D01*
X141075089Y-67188361D02*
X141036993Y-67035980D01*
X141036993Y-67035980D02*
X140960803Y-66959790D01*
X140960803Y-66959790D02*
X140884612Y-66921695D01*
X139779851Y-67721695D02*
X140236994Y-67721695D01*
X140008422Y-67721695D02*
X140008422Y-66921695D01*
X140008422Y-66921695D02*
X140084613Y-67035980D01*
X140084613Y-67035980D02*
X140160803Y-67112171D01*
X140160803Y-67112171D02*
X140236994Y-67150266D01*
X139513184Y-66921695D02*
X138979850Y-66921695D01*
X138979850Y-66921695D02*
X139322708Y-67721695D01*
X153227945Y-53633695D02*
X153227945Y-52833695D01*
X153227945Y-52833695D02*
X152961279Y-53405123D01*
X152961279Y-53405123D02*
X152694612Y-52833695D01*
X152694612Y-52833695D02*
X152694612Y-53633695D01*
X152313659Y-53633695D02*
X152313659Y-52833695D01*
X151932707Y-53633695D02*
X151932707Y-52833695D01*
X151932707Y-52833695D02*
X151666041Y-53405123D01*
X151666041Y-53405123D02*
X151399374Y-52833695D01*
X151399374Y-52833695D02*
X151399374Y-53633695D01*
X151018421Y-52833695D02*
X151018421Y-53481314D01*
X151018421Y-53481314D02*
X150980326Y-53557504D01*
X150980326Y-53557504D02*
X150942231Y-53595600D01*
X150942231Y-53595600D02*
X150866040Y-53633695D01*
X150866040Y-53633695D02*
X150713659Y-53633695D01*
X150713659Y-53633695D02*
X150637469Y-53595600D01*
X150637469Y-53595600D02*
X150599374Y-53557504D01*
X150599374Y-53557504D02*
X150561278Y-53481314D01*
X150561278Y-53481314D02*
X150561278Y-52833695D01*
X153075564Y-54121695D02*
X152923183Y-54121695D01*
X152923183Y-54121695D02*
X152846993Y-54159790D01*
X152846993Y-54159790D02*
X152770802Y-54235980D01*
X152770802Y-54235980D02*
X152732707Y-54388361D01*
X152732707Y-54388361D02*
X152732707Y-54655028D01*
X152732707Y-54655028D02*
X152770802Y-54807409D01*
X152770802Y-54807409D02*
X152846993Y-54883600D01*
X152846993Y-54883600D02*
X152923183Y-54921695D01*
X152923183Y-54921695D02*
X153075564Y-54921695D01*
X153075564Y-54921695D02*
X153151755Y-54883600D01*
X153151755Y-54883600D02*
X153227945Y-54807409D01*
X153227945Y-54807409D02*
X153266041Y-54655028D01*
X153266041Y-54655028D02*
X153266041Y-54388361D01*
X153266041Y-54388361D02*
X153227945Y-54235980D01*
X153227945Y-54235980D02*
X153151755Y-54159790D01*
X153151755Y-54159790D02*
X153075564Y-54121695D01*
X151932707Y-54921695D02*
X152199374Y-54540742D01*
X152389850Y-54921695D02*
X152389850Y-54121695D01*
X152389850Y-54121695D02*
X152085088Y-54121695D01*
X152085088Y-54121695D02*
X152008898Y-54159790D01*
X152008898Y-54159790D02*
X151970803Y-54197885D01*
X151970803Y-54197885D02*
X151932707Y-54274076D01*
X151932707Y-54274076D02*
X151932707Y-54388361D01*
X151932707Y-54388361D02*
X151970803Y-54464552D01*
X151970803Y-54464552D02*
X152008898Y-54502647D01*
X152008898Y-54502647D02*
X152085088Y-54540742D01*
X152085088Y-54540742D02*
X152389850Y-54540742D01*
X151589850Y-54921695D02*
X151589850Y-54121695D01*
X151208898Y-54502647D02*
X150942232Y-54502647D01*
X150827946Y-54921695D02*
X151208898Y-54921695D01*
X151208898Y-54921695D02*
X151208898Y-54121695D01*
X151208898Y-54121695D02*
X150827946Y-54121695D01*
X150485088Y-54921695D02*
X150485088Y-54121695D01*
X150485088Y-54121695D02*
X150027945Y-54921695D01*
X150027945Y-54921695D02*
X150027945Y-54121695D01*
X149761279Y-54121695D02*
X149304136Y-54121695D01*
X149532708Y-54921695D02*
X149532708Y-54121695D01*
X149075565Y-54693123D02*
X148694612Y-54693123D01*
X149151755Y-54921695D02*
X148885088Y-54121695D01*
X148885088Y-54121695D02*
X148618422Y-54921695D01*
X148466041Y-54121695D02*
X148008898Y-54121695D01*
X148237470Y-54921695D02*
X148237470Y-54121695D01*
X147742231Y-54921695D02*
X147742231Y-54121695D01*
X147208898Y-54121695D02*
X147056517Y-54121695D01*
X147056517Y-54121695D02*
X146980327Y-54159790D01*
X146980327Y-54159790D02*
X146904136Y-54235980D01*
X146904136Y-54235980D02*
X146866041Y-54388361D01*
X146866041Y-54388361D02*
X146866041Y-54655028D01*
X146866041Y-54655028D02*
X146904136Y-54807409D01*
X146904136Y-54807409D02*
X146980327Y-54883600D01*
X146980327Y-54883600D02*
X147056517Y-54921695D01*
X147056517Y-54921695D02*
X147208898Y-54921695D01*
X147208898Y-54921695D02*
X147285089Y-54883600D01*
X147285089Y-54883600D02*
X147361279Y-54807409D01*
X147361279Y-54807409D02*
X147399375Y-54655028D01*
X147399375Y-54655028D02*
X147399375Y-54388361D01*
X147399375Y-54388361D02*
X147361279Y-54235980D01*
X147361279Y-54235980D02*
X147285089Y-54159790D01*
X147285089Y-54159790D02*
X147208898Y-54121695D01*
X146523184Y-54921695D02*
X146523184Y-54121695D01*
X146523184Y-54121695D02*
X146066041Y-54921695D01*
X146066041Y-54921695D02*
X146066041Y-54121695D01*
X124200802Y-59069504D02*
X124238898Y-59107600D01*
X124238898Y-59107600D02*
X124353183Y-59145695D01*
X124353183Y-59145695D02*
X124429374Y-59145695D01*
X124429374Y-59145695D02*
X124543660Y-59107600D01*
X124543660Y-59107600D02*
X124619850Y-59031409D01*
X124619850Y-59031409D02*
X124657945Y-58955219D01*
X124657945Y-58955219D02*
X124696041Y-58802838D01*
X124696041Y-58802838D02*
X124696041Y-58688552D01*
X124696041Y-58688552D02*
X124657945Y-58536171D01*
X124657945Y-58536171D02*
X124619850Y-58459980D01*
X124619850Y-58459980D02*
X124543660Y-58383790D01*
X124543660Y-58383790D02*
X124429374Y-58345695D01*
X124429374Y-58345695D02*
X124353183Y-58345695D01*
X124353183Y-58345695D02*
X124238898Y-58383790D01*
X124238898Y-58383790D02*
X124200802Y-58421885D01*
X123515088Y-58612361D02*
X123515088Y-59145695D01*
X123857945Y-58612361D02*
X123857945Y-59031409D01*
X123857945Y-59031409D02*
X123819850Y-59107600D01*
X123819850Y-59107600D02*
X123743660Y-59145695D01*
X123743660Y-59145695D02*
X123629374Y-59145695D01*
X123629374Y-59145695D02*
X123553183Y-59107600D01*
X123553183Y-59107600D02*
X123515088Y-59069504D01*
X123172231Y-59107600D02*
X123096040Y-59145695D01*
X123096040Y-59145695D02*
X122943659Y-59145695D01*
X122943659Y-59145695D02*
X122867469Y-59107600D01*
X122867469Y-59107600D02*
X122829373Y-59031409D01*
X122829373Y-59031409D02*
X122829373Y-58993314D01*
X122829373Y-58993314D02*
X122867469Y-58917123D01*
X122867469Y-58917123D02*
X122943659Y-58879028D01*
X122943659Y-58879028D02*
X123057945Y-58879028D01*
X123057945Y-58879028D02*
X123134135Y-58840933D01*
X123134135Y-58840933D02*
X123172231Y-58764742D01*
X123172231Y-58764742D02*
X123172231Y-58726647D01*
X123172231Y-58726647D02*
X123134135Y-58650457D01*
X123134135Y-58650457D02*
X123057945Y-58612361D01*
X123057945Y-58612361D02*
X122943659Y-58612361D01*
X122943659Y-58612361D02*
X122867469Y-58650457D01*
X122600802Y-58612361D02*
X122296040Y-58612361D01*
X122486516Y-58345695D02*
X122486516Y-59031409D01*
X122486516Y-59031409D02*
X122448421Y-59107600D01*
X122448421Y-59107600D02*
X122372231Y-59145695D01*
X122372231Y-59145695D02*
X122296040Y-59145695D01*
X121915088Y-59145695D02*
X121991278Y-59107600D01*
X121991278Y-59107600D02*
X122029373Y-59069504D01*
X122029373Y-59069504D02*
X122067469Y-58993314D01*
X122067469Y-58993314D02*
X122067469Y-58764742D01*
X122067469Y-58764742D02*
X122029373Y-58688552D01*
X122029373Y-58688552D02*
X121991278Y-58650457D01*
X121991278Y-58650457D02*
X121915088Y-58612361D01*
X121915088Y-58612361D02*
X121800802Y-58612361D01*
X121800802Y-58612361D02*
X121724611Y-58650457D01*
X121724611Y-58650457D02*
X121686516Y-58688552D01*
X121686516Y-58688552D02*
X121648421Y-58764742D01*
X121648421Y-58764742D02*
X121648421Y-58993314D01*
X121648421Y-58993314D02*
X121686516Y-59069504D01*
X121686516Y-59069504D02*
X121724611Y-59107600D01*
X121724611Y-59107600D02*
X121800802Y-59145695D01*
X121800802Y-59145695D02*
X121915088Y-59145695D01*
X121305563Y-59145695D02*
X121305563Y-58612361D01*
X121305563Y-58688552D02*
X121267468Y-58650457D01*
X121267468Y-58650457D02*
X121191278Y-58612361D01*
X121191278Y-58612361D02*
X121076992Y-58612361D01*
X121076992Y-58612361D02*
X121000801Y-58650457D01*
X121000801Y-58650457D02*
X120962706Y-58726647D01*
X120962706Y-58726647D02*
X120962706Y-59145695D01*
X120962706Y-58726647D02*
X120924611Y-58650457D01*
X120924611Y-58650457D02*
X120848420Y-58612361D01*
X120848420Y-58612361D02*
X120734135Y-58612361D01*
X120734135Y-58612361D02*
X120657944Y-58650457D01*
X120657944Y-58650457D02*
X120619849Y-58726647D01*
X120619849Y-58726647D02*
X120619849Y-59145695D01*
X119743658Y-58345695D02*
X119286515Y-58345695D01*
X119515087Y-59145695D02*
X119515087Y-58345695D01*
X119019848Y-58840933D02*
X118410325Y-58840933D01*
X118067468Y-59107600D02*
X117953182Y-59145695D01*
X117953182Y-59145695D02*
X117762706Y-59145695D01*
X117762706Y-59145695D02*
X117686515Y-59107600D01*
X117686515Y-59107600D02*
X117648420Y-59069504D01*
X117648420Y-59069504D02*
X117610325Y-58993314D01*
X117610325Y-58993314D02*
X117610325Y-58917123D01*
X117610325Y-58917123D02*
X117648420Y-58840933D01*
X117648420Y-58840933D02*
X117686515Y-58802838D01*
X117686515Y-58802838D02*
X117762706Y-58764742D01*
X117762706Y-58764742D02*
X117915087Y-58726647D01*
X117915087Y-58726647D02*
X117991277Y-58688552D01*
X117991277Y-58688552D02*
X118029372Y-58650457D01*
X118029372Y-58650457D02*
X118067468Y-58574266D01*
X118067468Y-58574266D02*
X118067468Y-58498076D01*
X118067468Y-58498076D02*
X118029372Y-58421885D01*
X118029372Y-58421885D02*
X117991277Y-58383790D01*
X117991277Y-58383790D02*
X117915087Y-58345695D01*
X117915087Y-58345695D02*
X117724610Y-58345695D01*
X117724610Y-58345695D02*
X117610325Y-58383790D01*
X117381753Y-58612361D02*
X117076991Y-58612361D01*
X117267467Y-58345695D02*
X117267467Y-59031409D01*
X117267467Y-59031409D02*
X117229372Y-59107600D01*
X117229372Y-59107600D02*
X117153182Y-59145695D01*
X117153182Y-59145695D02*
X117076991Y-59145695D01*
X116810324Y-59145695D02*
X116810324Y-58612361D01*
X116810324Y-58345695D02*
X116848420Y-58383790D01*
X116848420Y-58383790D02*
X116810324Y-58421885D01*
X116810324Y-58421885D02*
X116772229Y-58383790D01*
X116772229Y-58383790D02*
X116810324Y-58345695D01*
X116810324Y-58345695D02*
X116810324Y-58421885D01*
X116086515Y-59107600D02*
X116162706Y-59145695D01*
X116162706Y-59145695D02*
X116315087Y-59145695D01*
X116315087Y-59145695D02*
X116391277Y-59107600D01*
X116391277Y-59107600D02*
X116429372Y-59069504D01*
X116429372Y-59069504D02*
X116467468Y-58993314D01*
X116467468Y-58993314D02*
X116467468Y-58764742D01*
X116467468Y-58764742D02*
X116429372Y-58688552D01*
X116429372Y-58688552D02*
X116391277Y-58650457D01*
X116391277Y-58650457D02*
X116315087Y-58612361D01*
X116315087Y-58612361D02*
X116162706Y-58612361D01*
X116162706Y-58612361D02*
X116086515Y-58650457D01*
X115743658Y-59145695D02*
X115743658Y-58345695D01*
X115667468Y-58840933D02*
X115438896Y-59145695D01*
X115438896Y-58612361D02*
X115743658Y-58917123D01*
X114219849Y-58726647D02*
X114105563Y-58764742D01*
X114105563Y-58764742D02*
X114067468Y-58802838D01*
X114067468Y-58802838D02*
X114029372Y-58879028D01*
X114029372Y-58879028D02*
X114029372Y-58993314D01*
X114029372Y-58993314D02*
X114067468Y-59069504D01*
X114067468Y-59069504D02*
X114105563Y-59107600D01*
X114105563Y-59107600D02*
X114181753Y-59145695D01*
X114181753Y-59145695D02*
X114486515Y-59145695D01*
X114486515Y-59145695D02*
X114486515Y-58345695D01*
X114486515Y-58345695D02*
X114219849Y-58345695D01*
X114219849Y-58345695D02*
X114143658Y-58383790D01*
X114143658Y-58383790D02*
X114105563Y-58421885D01*
X114105563Y-58421885D02*
X114067468Y-58498076D01*
X114067468Y-58498076D02*
X114067468Y-58574266D01*
X114067468Y-58574266D02*
X114105563Y-58650457D01*
X114105563Y-58650457D02*
X114143658Y-58688552D01*
X114143658Y-58688552D02*
X114219849Y-58726647D01*
X114219849Y-58726647D02*
X114486515Y-58726647D01*
X113572230Y-59145695D02*
X113648420Y-59107600D01*
X113648420Y-59107600D02*
X113686515Y-59069504D01*
X113686515Y-59069504D02*
X113724611Y-58993314D01*
X113724611Y-58993314D02*
X113724611Y-58764742D01*
X113724611Y-58764742D02*
X113686515Y-58688552D01*
X113686515Y-58688552D02*
X113648420Y-58650457D01*
X113648420Y-58650457D02*
X113572230Y-58612361D01*
X113572230Y-58612361D02*
X113457944Y-58612361D01*
X113457944Y-58612361D02*
X113381753Y-58650457D01*
X113381753Y-58650457D02*
X113343658Y-58688552D01*
X113343658Y-58688552D02*
X113305563Y-58764742D01*
X113305563Y-58764742D02*
X113305563Y-58993314D01*
X113305563Y-58993314D02*
X113343658Y-59069504D01*
X113343658Y-59069504D02*
X113381753Y-59107600D01*
X113381753Y-59107600D02*
X113457944Y-59145695D01*
X113457944Y-59145695D02*
X113572230Y-59145695D01*
X112619848Y-59145695D02*
X112619848Y-58726647D01*
X112619848Y-58726647D02*
X112657943Y-58650457D01*
X112657943Y-58650457D02*
X112734134Y-58612361D01*
X112734134Y-58612361D02*
X112886515Y-58612361D01*
X112886515Y-58612361D02*
X112962705Y-58650457D01*
X112619848Y-59107600D02*
X112696039Y-59145695D01*
X112696039Y-59145695D02*
X112886515Y-59145695D01*
X112886515Y-59145695D02*
X112962705Y-59107600D01*
X112962705Y-59107600D02*
X113000801Y-59031409D01*
X113000801Y-59031409D02*
X113000801Y-58955219D01*
X113000801Y-58955219D02*
X112962705Y-58879028D01*
X112962705Y-58879028D02*
X112886515Y-58840933D01*
X112886515Y-58840933D02*
X112696039Y-58840933D01*
X112696039Y-58840933D02*
X112619848Y-58802838D01*
X112238895Y-59145695D02*
X112238895Y-58612361D01*
X112238895Y-58764742D02*
X112200800Y-58688552D01*
X112200800Y-58688552D02*
X112162705Y-58650457D01*
X112162705Y-58650457D02*
X112086514Y-58612361D01*
X112086514Y-58612361D02*
X112010324Y-58612361D01*
X111400800Y-59145695D02*
X111400800Y-58345695D01*
X111400800Y-59107600D02*
X111476991Y-59145695D01*
X111476991Y-59145695D02*
X111629372Y-59145695D01*
X111629372Y-59145695D02*
X111705562Y-59107600D01*
X111705562Y-59107600D02*
X111743657Y-59069504D01*
X111743657Y-59069504D02*
X111781753Y-58993314D01*
X111781753Y-58993314D02*
X111781753Y-58764742D01*
X111781753Y-58764742D02*
X111743657Y-58688552D01*
X111743657Y-58688552D02*
X111705562Y-58650457D01*
X111705562Y-58650457D02*
X111629372Y-58612361D01*
X111629372Y-58612361D02*
X111476991Y-58612361D01*
X111476991Y-58612361D02*
X111400800Y-58650457D01*
X110486514Y-58612361D02*
X110296038Y-59145695D01*
X110296038Y-59145695D02*
X110105561Y-58612361D01*
X109381752Y-59145695D02*
X109838895Y-59145695D01*
X109610323Y-59145695D02*
X109610323Y-58345695D01*
X109610323Y-58345695D02*
X109686514Y-58459980D01*
X109686514Y-58459980D02*
X109762704Y-58536171D01*
X109762704Y-58536171D02*
X109838895Y-58574266D01*
X109038894Y-59069504D02*
X109000799Y-59107600D01*
X109000799Y-59107600D02*
X109038894Y-59145695D01*
X109038894Y-59145695D02*
X109076990Y-59107600D01*
X109076990Y-59107600D02*
X109038894Y-59069504D01*
X109038894Y-59069504D02*
X109038894Y-59145695D01*
X108505561Y-58345695D02*
X108429371Y-58345695D01*
X108429371Y-58345695D02*
X108353180Y-58383790D01*
X108353180Y-58383790D02*
X108315085Y-58421885D01*
X108315085Y-58421885D02*
X108276990Y-58498076D01*
X108276990Y-58498076D02*
X108238895Y-58650457D01*
X108238895Y-58650457D02*
X108238895Y-58840933D01*
X108238895Y-58840933D02*
X108276990Y-58993314D01*
X108276990Y-58993314D02*
X108315085Y-59069504D01*
X108315085Y-59069504D02*
X108353180Y-59107600D01*
X108353180Y-59107600D02*
X108429371Y-59145695D01*
X108429371Y-59145695D02*
X108505561Y-59145695D01*
X108505561Y-59145695D02*
X108581752Y-59107600D01*
X108581752Y-59107600D02*
X108619847Y-59069504D01*
X108619847Y-59069504D02*
X108657942Y-58993314D01*
X108657942Y-58993314D02*
X108696038Y-58840933D01*
X108696038Y-58840933D02*
X108696038Y-58650457D01*
X108696038Y-58650457D02*
X108657942Y-58498076D01*
X108657942Y-58498076D02*
X108619847Y-58421885D01*
X108619847Y-58421885D02*
X108581752Y-58383790D01*
X108581752Y-58383790D02*
X108505561Y-58345695D01*
X107324609Y-58421885D02*
X107286513Y-58383790D01*
X107286513Y-58383790D02*
X107210323Y-58345695D01*
X107210323Y-58345695D02*
X107019847Y-58345695D01*
X107019847Y-58345695D02*
X106943656Y-58383790D01*
X106943656Y-58383790D02*
X106905561Y-58421885D01*
X106905561Y-58421885D02*
X106867466Y-58498076D01*
X106867466Y-58498076D02*
X106867466Y-58574266D01*
X106867466Y-58574266D02*
X106905561Y-58688552D01*
X106905561Y-58688552D02*
X107362704Y-59145695D01*
X107362704Y-59145695D02*
X106867466Y-59145695D01*
X106372227Y-58345695D02*
X106296037Y-58345695D01*
X106296037Y-58345695D02*
X106219846Y-58383790D01*
X106219846Y-58383790D02*
X106181751Y-58421885D01*
X106181751Y-58421885D02*
X106143656Y-58498076D01*
X106143656Y-58498076D02*
X106105561Y-58650457D01*
X106105561Y-58650457D02*
X106105561Y-58840933D01*
X106105561Y-58840933D02*
X106143656Y-58993314D01*
X106143656Y-58993314D02*
X106181751Y-59069504D01*
X106181751Y-59069504D02*
X106219846Y-59107600D01*
X106219846Y-59107600D02*
X106296037Y-59145695D01*
X106296037Y-59145695D02*
X106372227Y-59145695D01*
X106372227Y-59145695D02*
X106448418Y-59107600D01*
X106448418Y-59107600D02*
X106486513Y-59069504D01*
X106486513Y-59069504D02*
X106524608Y-58993314D01*
X106524608Y-58993314D02*
X106562704Y-58840933D01*
X106562704Y-58840933D02*
X106562704Y-58650457D01*
X106562704Y-58650457D02*
X106524608Y-58498076D01*
X106524608Y-58498076D02*
X106486513Y-58421885D01*
X106486513Y-58421885D02*
X106448418Y-58383790D01*
X106448418Y-58383790D02*
X106372227Y-58345695D01*
X105800799Y-58421885D02*
X105762703Y-58383790D01*
X105762703Y-58383790D02*
X105686513Y-58345695D01*
X105686513Y-58345695D02*
X105496037Y-58345695D01*
X105496037Y-58345695D02*
X105419846Y-58383790D01*
X105419846Y-58383790D02*
X105381751Y-58421885D01*
X105381751Y-58421885D02*
X105343656Y-58498076D01*
X105343656Y-58498076D02*
X105343656Y-58574266D01*
X105343656Y-58574266D02*
X105381751Y-58688552D01*
X105381751Y-58688552D02*
X105838894Y-59145695D01*
X105838894Y-59145695D02*
X105343656Y-59145695D01*
X105076989Y-58345695D02*
X104581751Y-58345695D01*
X104581751Y-58345695D02*
X104848417Y-58650457D01*
X104848417Y-58650457D02*
X104734132Y-58650457D01*
X104734132Y-58650457D02*
X104657941Y-58688552D01*
X104657941Y-58688552D02*
X104619846Y-58726647D01*
X104619846Y-58726647D02*
X104581751Y-58802838D01*
X104581751Y-58802838D02*
X104581751Y-58993314D01*
X104581751Y-58993314D02*
X104619846Y-59069504D01*
X104619846Y-59069504D02*
X104657941Y-59107600D01*
X104657941Y-59107600D02*
X104734132Y-59145695D01*
X104734132Y-59145695D02*
X104962703Y-59145695D01*
X104962703Y-59145695D02*
X105038894Y-59107600D01*
X105038894Y-59107600D02*
X105076989Y-59069504D01*
X104238893Y-58840933D02*
X103629370Y-58840933D01*
X102829370Y-59145695D02*
X103286513Y-59145695D01*
X103057941Y-59145695D02*
X103057941Y-58345695D01*
X103057941Y-58345695D02*
X103134132Y-58459980D01*
X103134132Y-58459980D02*
X103210322Y-58536171D01*
X103210322Y-58536171D02*
X103286513Y-58574266D01*
X102334131Y-58345695D02*
X102257941Y-58345695D01*
X102257941Y-58345695D02*
X102181750Y-58383790D01*
X102181750Y-58383790D02*
X102143655Y-58421885D01*
X102143655Y-58421885D02*
X102105560Y-58498076D01*
X102105560Y-58498076D02*
X102067465Y-58650457D01*
X102067465Y-58650457D02*
X102067465Y-58840933D01*
X102067465Y-58840933D02*
X102105560Y-58993314D01*
X102105560Y-58993314D02*
X102143655Y-59069504D01*
X102143655Y-59069504D02*
X102181750Y-59107600D01*
X102181750Y-59107600D02*
X102257941Y-59145695D01*
X102257941Y-59145695D02*
X102334131Y-59145695D01*
X102334131Y-59145695D02*
X102410322Y-59107600D01*
X102410322Y-59107600D02*
X102448417Y-59069504D01*
X102448417Y-59069504D02*
X102486512Y-58993314D01*
X102486512Y-58993314D02*
X102524608Y-58840933D01*
X102524608Y-58840933D02*
X102524608Y-58650457D01*
X102524608Y-58650457D02*
X102486512Y-58498076D01*
X102486512Y-58498076D02*
X102448417Y-58421885D01*
X102448417Y-58421885D02*
X102410322Y-58383790D01*
X102410322Y-58383790D02*
X102334131Y-58345695D01*
X124657945Y-60433695D02*
X124657945Y-59633695D01*
X124276993Y-60433695D02*
X124276993Y-59633695D01*
X124276993Y-59633695D02*
X124086517Y-59633695D01*
X124086517Y-59633695D02*
X123972231Y-59671790D01*
X123972231Y-59671790D02*
X123896041Y-59747980D01*
X123896041Y-59747980D02*
X123857946Y-59824171D01*
X123857946Y-59824171D02*
X123819850Y-59976552D01*
X123819850Y-59976552D02*
X123819850Y-60090838D01*
X123819850Y-60090838D02*
X123857946Y-60243219D01*
X123857946Y-60243219D02*
X123896041Y-60319409D01*
X123896041Y-60319409D02*
X123972231Y-60395600D01*
X123972231Y-60395600D02*
X124086517Y-60433695D01*
X124086517Y-60433695D02*
X124276993Y-60433695D01*
X123476993Y-60433695D02*
X123476993Y-59633695D01*
X123476993Y-59633695D02*
X123210327Y-60205123D01*
X123210327Y-60205123D02*
X122943660Y-59633695D01*
X122943660Y-59633695D02*
X122943660Y-60433695D01*
X122562707Y-60433695D02*
X122562707Y-59633695D01*
X121800803Y-60433695D02*
X122181755Y-60433695D01*
X122181755Y-60433695D02*
X122181755Y-59633695D01*
X120924612Y-60433695D02*
X120924612Y-59633695D01*
X120924612Y-59633695D02*
X120657946Y-60205123D01*
X120657946Y-60205123D02*
X120391279Y-59633695D01*
X120391279Y-59633695D02*
X120391279Y-60433695D01*
X119667469Y-60395600D02*
X119743660Y-60433695D01*
X119743660Y-60433695D02*
X119896041Y-60433695D01*
X119896041Y-60433695D02*
X119972231Y-60395600D01*
X119972231Y-60395600D02*
X120010326Y-60357504D01*
X120010326Y-60357504D02*
X120048422Y-60281314D01*
X120048422Y-60281314D02*
X120048422Y-60052742D01*
X120048422Y-60052742D02*
X120010326Y-59976552D01*
X120010326Y-59976552D02*
X119972231Y-59938457D01*
X119972231Y-59938457D02*
X119896041Y-59900361D01*
X119896041Y-59900361D02*
X119743660Y-59900361D01*
X119743660Y-59900361D02*
X119667469Y-59938457D01*
X118905565Y-59671790D02*
X118981755Y-59633695D01*
X118981755Y-59633695D02*
X119096041Y-59633695D01*
X119096041Y-59633695D02*
X119210327Y-59671790D01*
X119210327Y-59671790D02*
X119286517Y-59747980D01*
X119286517Y-59747980D02*
X119324612Y-59824171D01*
X119324612Y-59824171D02*
X119362708Y-59976552D01*
X119362708Y-59976552D02*
X119362708Y-60090838D01*
X119362708Y-60090838D02*
X119324612Y-60243219D01*
X119324612Y-60243219D02*
X119286517Y-60319409D01*
X119286517Y-60319409D02*
X119210327Y-60395600D01*
X119210327Y-60395600D02*
X119096041Y-60433695D01*
X119096041Y-60433695D02*
X119019850Y-60433695D01*
X119019850Y-60433695D02*
X118905565Y-60395600D01*
X118905565Y-60395600D02*
X118867469Y-60357504D01*
X118867469Y-60357504D02*
X118867469Y-60090838D01*
X118867469Y-60090838D02*
X119019850Y-60090838D01*
X118524612Y-60433695D02*
X118524612Y-59900361D01*
X118524612Y-59633695D02*
X118562708Y-59671790D01*
X118562708Y-59671790D02*
X118524612Y-59709885D01*
X118524612Y-59709885D02*
X118486517Y-59671790D01*
X118486517Y-59671790D02*
X118524612Y-59633695D01*
X118524612Y-59633695D02*
X118524612Y-59709885D01*
X118029375Y-60433695D02*
X118105565Y-60395600D01*
X118105565Y-60395600D02*
X118143660Y-60319409D01*
X118143660Y-60319409D02*
X118143660Y-59633695D01*
X117610327Y-60433695D02*
X117686517Y-60395600D01*
X117686517Y-60395600D02*
X117724612Y-60319409D01*
X117724612Y-60319409D02*
X117724612Y-59633695D01*
X116696040Y-59633695D02*
X116696040Y-60281314D01*
X116696040Y-60281314D02*
X116657945Y-60357504D01*
X116657945Y-60357504D02*
X116619850Y-60395600D01*
X116619850Y-60395600D02*
X116543659Y-60433695D01*
X116543659Y-60433695D02*
X116391278Y-60433695D01*
X116391278Y-60433695D02*
X116315088Y-60395600D01*
X116315088Y-60395600D02*
X116276993Y-60357504D01*
X116276993Y-60357504D02*
X116238897Y-60281314D01*
X116238897Y-60281314D02*
X116238897Y-59633695D01*
X115857945Y-59900361D02*
X115857945Y-60433695D01*
X115857945Y-59976552D02*
X115819850Y-59938457D01*
X115819850Y-59938457D02*
X115743660Y-59900361D01*
X115743660Y-59900361D02*
X115629374Y-59900361D01*
X115629374Y-59900361D02*
X115553183Y-59938457D01*
X115553183Y-59938457D02*
X115515088Y-60014647D01*
X115515088Y-60014647D02*
X115515088Y-60433695D01*
X115134135Y-60433695D02*
X115134135Y-59900361D01*
X115134135Y-59633695D02*
X115172231Y-59671790D01*
X115172231Y-59671790D02*
X115134135Y-59709885D01*
X115134135Y-59709885D02*
X115096040Y-59671790D01*
X115096040Y-59671790D02*
X115134135Y-59633695D01*
X115134135Y-59633695D02*
X115134135Y-59709885D01*
X114829374Y-59900361D02*
X114638898Y-60433695D01*
X114638898Y-60433695D02*
X114448421Y-59900361D01*
X113838897Y-60395600D02*
X113915088Y-60433695D01*
X113915088Y-60433695D02*
X114067469Y-60433695D01*
X114067469Y-60433695D02*
X114143659Y-60395600D01*
X114143659Y-60395600D02*
X114181755Y-60319409D01*
X114181755Y-60319409D02*
X114181755Y-60014647D01*
X114181755Y-60014647D02*
X114143659Y-59938457D01*
X114143659Y-59938457D02*
X114067469Y-59900361D01*
X114067469Y-59900361D02*
X113915088Y-59900361D01*
X113915088Y-59900361D02*
X113838897Y-59938457D01*
X113838897Y-59938457D02*
X113800802Y-60014647D01*
X113800802Y-60014647D02*
X113800802Y-60090838D01*
X113800802Y-60090838D02*
X114181755Y-60167028D01*
X113457945Y-60433695D02*
X113457945Y-59900361D01*
X113457945Y-60052742D02*
X113419850Y-59976552D01*
X113419850Y-59976552D02*
X113381755Y-59938457D01*
X113381755Y-59938457D02*
X113305564Y-59900361D01*
X113305564Y-59900361D02*
X113229374Y-59900361D01*
X113000803Y-60395600D02*
X112924612Y-60433695D01*
X112924612Y-60433695D02*
X112772231Y-60433695D01*
X112772231Y-60433695D02*
X112696041Y-60395600D01*
X112696041Y-60395600D02*
X112657945Y-60319409D01*
X112657945Y-60319409D02*
X112657945Y-60281314D01*
X112657945Y-60281314D02*
X112696041Y-60205123D01*
X112696041Y-60205123D02*
X112772231Y-60167028D01*
X112772231Y-60167028D02*
X112886517Y-60167028D01*
X112886517Y-60167028D02*
X112962707Y-60128933D01*
X112962707Y-60128933D02*
X113000803Y-60052742D01*
X113000803Y-60052742D02*
X113000803Y-60014647D01*
X113000803Y-60014647D02*
X112962707Y-59938457D01*
X112962707Y-59938457D02*
X112886517Y-59900361D01*
X112886517Y-59900361D02*
X112772231Y-59900361D01*
X112772231Y-59900361D02*
X112696041Y-59938457D01*
X112315088Y-60433695D02*
X112315088Y-59900361D01*
X112315088Y-59633695D02*
X112353184Y-59671790D01*
X112353184Y-59671790D02*
X112315088Y-59709885D01*
X112315088Y-59709885D02*
X112276993Y-59671790D01*
X112276993Y-59671790D02*
X112315088Y-59633695D01*
X112315088Y-59633695D02*
X112315088Y-59709885D01*
X112048422Y-59900361D02*
X111743660Y-59900361D01*
X111934136Y-59633695D02*
X111934136Y-60319409D01*
X111934136Y-60319409D02*
X111896041Y-60395600D01*
X111896041Y-60395600D02*
X111819851Y-60433695D01*
X111819851Y-60433695D02*
X111743660Y-60433695D01*
X111553184Y-59900361D02*
X111362708Y-60433695D01*
X111172231Y-59900361D02*
X111362708Y-60433695D01*
X111362708Y-60433695D02*
X111438898Y-60624171D01*
X111438898Y-60624171D02*
X111476993Y-60662266D01*
X111476993Y-60662266D02*
X111553184Y-60700361D01*
X124696041Y-61493123D02*
X124315088Y-61493123D01*
X124772231Y-61721695D02*
X124505564Y-60921695D01*
X124505564Y-60921695D02*
X124238898Y-61721695D01*
X123857946Y-61721695D02*
X123934136Y-61683600D01*
X123934136Y-61683600D02*
X123972231Y-61607409D01*
X123972231Y-61607409D02*
X123972231Y-60921695D01*
X123553183Y-61721695D02*
X123553183Y-60921695D01*
X123553183Y-61226457D02*
X123476993Y-61188361D01*
X123476993Y-61188361D02*
X123324612Y-61188361D01*
X123324612Y-61188361D02*
X123248421Y-61226457D01*
X123248421Y-61226457D02*
X123210326Y-61264552D01*
X123210326Y-61264552D02*
X123172231Y-61340742D01*
X123172231Y-61340742D02*
X123172231Y-61569314D01*
X123172231Y-61569314D02*
X123210326Y-61645504D01*
X123210326Y-61645504D02*
X123248421Y-61683600D01*
X123248421Y-61683600D02*
X123324612Y-61721695D01*
X123324612Y-61721695D02*
X123476993Y-61721695D01*
X123476993Y-61721695D02*
X123553183Y-61683600D01*
X122524611Y-61683600D02*
X122600802Y-61721695D01*
X122600802Y-61721695D02*
X122753183Y-61721695D01*
X122753183Y-61721695D02*
X122829373Y-61683600D01*
X122829373Y-61683600D02*
X122867469Y-61607409D01*
X122867469Y-61607409D02*
X122867469Y-61302647D01*
X122867469Y-61302647D02*
X122829373Y-61226457D01*
X122829373Y-61226457D02*
X122753183Y-61188361D01*
X122753183Y-61188361D02*
X122600802Y-61188361D01*
X122600802Y-61188361D02*
X122524611Y-61226457D01*
X122524611Y-61226457D02*
X122486516Y-61302647D01*
X122486516Y-61302647D02*
X122486516Y-61378838D01*
X122486516Y-61378838D02*
X122867469Y-61455028D01*
X122143659Y-61721695D02*
X122143659Y-61188361D01*
X122143659Y-61340742D02*
X122105564Y-61264552D01*
X122105564Y-61264552D02*
X122067469Y-61226457D01*
X122067469Y-61226457D02*
X121991278Y-61188361D01*
X121991278Y-61188361D02*
X121915088Y-61188361D01*
X121762707Y-61188361D02*
X121457945Y-61188361D01*
X121648421Y-60921695D02*
X121648421Y-61607409D01*
X121648421Y-61607409D02*
X121610326Y-61683600D01*
X121610326Y-61683600D02*
X121534136Y-61721695D01*
X121534136Y-61721695D02*
X121457945Y-61721695D01*
X120581754Y-61721695D02*
X120581754Y-60921695D01*
X120581754Y-60921695D02*
X120124611Y-61721695D01*
X120124611Y-61721695D02*
X120124611Y-60921695D01*
X119743659Y-61721695D02*
X119743659Y-61188361D01*
X119743659Y-60921695D02*
X119781755Y-60959790D01*
X119781755Y-60959790D02*
X119743659Y-60997885D01*
X119743659Y-60997885D02*
X119705564Y-60959790D01*
X119705564Y-60959790D02*
X119743659Y-60921695D01*
X119743659Y-60921695D02*
X119743659Y-60997885D01*
X119438898Y-61188361D02*
X119248422Y-61721695D01*
X119057945Y-61188361D02*
X119248422Y-61721695D01*
X119248422Y-61721695D02*
X119324612Y-61912171D01*
X119324612Y-61912171D02*
X119362707Y-61950266D01*
X119362707Y-61950266D02*
X119438898Y-61988361D01*
X118638898Y-61721695D02*
X118715088Y-61683600D01*
X118715088Y-61683600D02*
X118753183Y-61645504D01*
X118753183Y-61645504D02*
X118791279Y-61569314D01*
X118791279Y-61569314D02*
X118791279Y-61340742D01*
X118791279Y-61340742D02*
X118753183Y-61264552D01*
X118753183Y-61264552D02*
X118715088Y-61226457D01*
X118715088Y-61226457D02*
X118638898Y-61188361D01*
X118638898Y-61188361D02*
X118524612Y-61188361D01*
X118524612Y-61188361D02*
X118448421Y-61226457D01*
X118448421Y-61226457D02*
X118410326Y-61264552D01*
X118410326Y-61264552D02*
X118372231Y-61340742D01*
X118372231Y-61340742D02*
X118372231Y-61569314D01*
X118372231Y-61569314D02*
X118410326Y-61645504D01*
X118410326Y-61645504D02*
X118448421Y-61683600D01*
X118448421Y-61683600D02*
X118524612Y-61721695D01*
X118524612Y-61721695D02*
X118638898Y-61721695D01*
X118029373Y-61188361D02*
X118029373Y-61721695D01*
X118029373Y-61264552D02*
X117991278Y-61226457D01*
X117991278Y-61226457D02*
X117915088Y-61188361D01*
X117915088Y-61188361D02*
X117800802Y-61188361D01*
X117800802Y-61188361D02*
X117724611Y-61226457D01*
X117724611Y-61226457D02*
X117686516Y-61302647D01*
X117686516Y-61302647D02*
X117686516Y-61721695D01*
X117343659Y-61683600D02*
X117267468Y-61721695D01*
X117267468Y-61721695D02*
X117115087Y-61721695D01*
X117115087Y-61721695D02*
X117038897Y-61683600D01*
X117038897Y-61683600D02*
X117000801Y-61607409D01*
X117000801Y-61607409D02*
X117000801Y-61569314D01*
X117000801Y-61569314D02*
X117038897Y-61493123D01*
X117038897Y-61493123D02*
X117115087Y-61455028D01*
X117115087Y-61455028D02*
X117229373Y-61455028D01*
X117229373Y-61455028D02*
X117305563Y-61416933D01*
X117305563Y-61416933D02*
X117343659Y-61340742D01*
X117343659Y-61340742D02*
X117343659Y-61302647D01*
X117343659Y-61302647D02*
X117305563Y-61226457D01*
X117305563Y-61226457D02*
X117229373Y-61188361D01*
X117229373Y-61188361D02*
X117115087Y-61188361D01*
X117115087Y-61188361D02*
X117038897Y-61226457D01*
X116353182Y-61683600D02*
X116429373Y-61721695D01*
X116429373Y-61721695D02*
X116581754Y-61721695D01*
X116581754Y-61721695D02*
X116657944Y-61683600D01*
X116657944Y-61683600D02*
X116696040Y-61607409D01*
X116696040Y-61607409D02*
X116696040Y-61302647D01*
X116696040Y-61302647D02*
X116657944Y-61226457D01*
X116657944Y-61226457D02*
X116581754Y-61188361D01*
X116581754Y-61188361D02*
X116429373Y-61188361D01*
X116429373Y-61188361D02*
X116353182Y-61226457D01*
X116353182Y-61226457D02*
X116315087Y-61302647D01*
X116315087Y-61302647D02*
X116315087Y-61378838D01*
X116315087Y-61378838D02*
X116696040Y-61455028D01*
X115972230Y-61188361D02*
X115972230Y-61721695D01*
X115972230Y-61264552D02*
X115934135Y-61226457D01*
X115934135Y-61226457D02*
X115857945Y-61188361D01*
X115857945Y-61188361D02*
X115743659Y-61188361D01*
X115743659Y-61188361D02*
X115667468Y-61226457D01*
X115667468Y-61226457D02*
X115629373Y-61302647D01*
X115629373Y-61302647D02*
X115629373Y-61721695D01*
X114905563Y-61188361D02*
X114905563Y-61835980D01*
X114905563Y-61835980D02*
X114943658Y-61912171D01*
X114943658Y-61912171D02*
X114981754Y-61950266D01*
X114981754Y-61950266D02*
X115057944Y-61988361D01*
X115057944Y-61988361D02*
X115172230Y-61988361D01*
X115172230Y-61988361D02*
X115248420Y-61950266D01*
X114905563Y-61683600D02*
X114981754Y-61721695D01*
X114981754Y-61721695D02*
X115134135Y-61721695D01*
X115134135Y-61721695D02*
X115210325Y-61683600D01*
X115210325Y-61683600D02*
X115248420Y-61645504D01*
X115248420Y-61645504D02*
X115286516Y-61569314D01*
X115286516Y-61569314D02*
X115286516Y-61340742D01*
X115286516Y-61340742D02*
X115248420Y-61264552D01*
X115248420Y-61264552D02*
X115210325Y-61226457D01*
X115210325Y-61226457D02*
X115134135Y-61188361D01*
X115134135Y-61188361D02*
X114981754Y-61188361D01*
X114981754Y-61188361D02*
X114905563Y-61226457D01*
X114181753Y-61721695D02*
X114181753Y-61302647D01*
X114181753Y-61302647D02*
X114219848Y-61226457D01*
X114219848Y-61226457D02*
X114296039Y-61188361D01*
X114296039Y-61188361D02*
X114448420Y-61188361D01*
X114448420Y-61188361D02*
X114524610Y-61226457D01*
X114181753Y-61683600D02*
X114257944Y-61721695D01*
X114257944Y-61721695D02*
X114448420Y-61721695D01*
X114448420Y-61721695D02*
X114524610Y-61683600D01*
X114524610Y-61683600D02*
X114562706Y-61607409D01*
X114562706Y-61607409D02*
X114562706Y-61531219D01*
X114562706Y-61531219D02*
X114524610Y-61455028D01*
X114524610Y-61455028D02*
X114448420Y-61416933D01*
X114448420Y-61416933D02*
X114257944Y-61416933D01*
X114257944Y-61416933D02*
X114181753Y-61378838D01*
X131157945Y-68478647D02*
X130891279Y-68478647D01*
X130776993Y-68897695D02*
X131157945Y-68897695D01*
X131157945Y-68897695D02*
X131157945Y-68097695D01*
X131157945Y-68097695D02*
X130776993Y-68097695D01*
X130548421Y-68097695D02*
X130281754Y-68897695D01*
X130281754Y-68897695D02*
X130015088Y-68097695D01*
X129862707Y-68097695D02*
X129405564Y-68097695D01*
X129634136Y-68897695D02*
X129634136Y-68097695D01*
X128719850Y-68897695D02*
X129176993Y-68897695D01*
X128948421Y-68897695D02*
X128948421Y-68097695D01*
X128948421Y-68097695D02*
X129024612Y-68211980D01*
X129024612Y-68211980D02*
X129100802Y-68288171D01*
X129100802Y-68288171D02*
X129176993Y-68326266D01*
X127767468Y-68478647D02*
X127157945Y-68478647D01*
X127157945Y-68707219D02*
X127767468Y-68707219D01*
X126167468Y-68897695D02*
X126167468Y-68097695D01*
X125634135Y-68097695D02*
X125481754Y-68097695D01*
X125481754Y-68097695D02*
X125405564Y-68135790D01*
X125405564Y-68135790D02*
X125329373Y-68211980D01*
X125329373Y-68211980D02*
X125291278Y-68364361D01*
X125291278Y-68364361D02*
X125291278Y-68631028D01*
X125291278Y-68631028D02*
X125329373Y-68783409D01*
X125329373Y-68783409D02*
X125405564Y-68859600D01*
X125405564Y-68859600D02*
X125481754Y-68897695D01*
X125481754Y-68897695D02*
X125634135Y-68897695D01*
X125634135Y-68897695D02*
X125710326Y-68859600D01*
X125710326Y-68859600D02*
X125786516Y-68783409D01*
X125786516Y-68783409D02*
X125824612Y-68631028D01*
X125824612Y-68631028D02*
X125824612Y-68364361D01*
X125824612Y-68364361D02*
X125786516Y-68211980D01*
X125786516Y-68211980D02*
X125710326Y-68135790D01*
X125710326Y-68135790D02*
X125634135Y-68097695D01*
X125024612Y-68097695D02*
X124529374Y-68097695D01*
X124529374Y-68097695D02*
X124796040Y-68402457D01*
X124796040Y-68402457D02*
X124681755Y-68402457D01*
X124681755Y-68402457D02*
X124605564Y-68440552D01*
X124605564Y-68440552D02*
X124567469Y-68478647D01*
X124567469Y-68478647D02*
X124529374Y-68554838D01*
X124529374Y-68554838D02*
X124529374Y-68745314D01*
X124529374Y-68745314D02*
X124567469Y-68821504D01*
X124567469Y-68821504D02*
X124605564Y-68859600D01*
X124605564Y-68859600D02*
X124681755Y-68897695D01*
X124681755Y-68897695D02*
X124910326Y-68897695D01*
X124910326Y-68897695D02*
X124986517Y-68859600D01*
X124986517Y-68859600D02*
X125024612Y-68821504D01*
X124148421Y-68897695D02*
X123996040Y-68897695D01*
X123996040Y-68897695D02*
X123919850Y-68859600D01*
X123919850Y-68859600D02*
X123881754Y-68821504D01*
X123881754Y-68821504D02*
X123805564Y-68707219D01*
X123805564Y-68707219D02*
X123767469Y-68554838D01*
X123767469Y-68554838D02*
X123767469Y-68250076D01*
X123767469Y-68250076D02*
X123805564Y-68173885D01*
X123805564Y-68173885D02*
X123843659Y-68135790D01*
X123843659Y-68135790D02*
X123919850Y-68097695D01*
X123919850Y-68097695D02*
X124072231Y-68097695D01*
X124072231Y-68097695D02*
X124148421Y-68135790D01*
X124148421Y-68135790D02*
X124186516Y-68173885D01*
X124186516Y-68173885D02*
X124224612Y-68250076D01*
X124224612Y-68250076D02*
X124224612Y-68440552D01*
X124224612Y-68440552D02*
X124186516Y-68516742D01*
X124186516Y-68516742D02*
X124148421Y-68554838D01*
X124148421Y-68554838D02*
X124072231Y-68592933D01*
X124072231Y-68592933D02*
X123919850Y-68592933D01*
X123919850Y-68592933D02*
X123843659Y-68554838D01*
X123843659Y-68554838D02*
X123805564Y-68516742D01*
X123805564Y-68516742D02*
X123767469Y-68440552D01*
X131157945Y-69766647D02*
X130891279Y-69766647D01*
X130776993Y-70185695D02*
X131157945Y-70185695D01*
X131157945Y-70185695D02*
X131157945Y-69385695D01*
X131157945Y-69385695D02*
X130776993Y-69385695D01*
X130548421Y-69385695D02*
X130281754Y-70185695D01*
X130281754Y-70185695D02*
X130015088Y-69385695D01*
X129862707Y-69385695D02*
X129405564Y-69385695D01*
X129634136Y-70185695D02*
X129634136Y-69385695D01*
X129176993Y-69461885D02*
X129138897Y-69423790D01*
X129138897Y-69423790D02*
X129062707Y-69385695D01*
X129062707Y-69385695D02*
X128872231Y-69385695D01*
X128872231Y-69385695D02*
X128796040Y-69423790D01*
X128796040Y-69423790D02*
X128757945Y-69461885D01*
X128757945Y-69461885D02*
X128719850Y-69538076D01*
X128719850Y-69538076D02*
X128719850Y-69614266D01*
X128719850Y-69614266D02*
X128757945Y-69728552D01*
X128757945Y-69728552D02*
X129215088Y-70185695D01*
X129215088Y-70185695D02*
X128719850Y-70185695D01*
X127767468Y-69766647D02*
X127157945Y-69766647D01*
X127157945Y-69995219D02*
X127767468Y-69995219D01*
X126167468Y-70185695D02*
X126167468Y-69385695D01*
X125634135Y-69385695D02*
X125481754Y-69385695D01*
X125481754Y-69385695D02*
X125405564Y-69423790D01*
X125405564Y-69423790D02*
X125329373Y-69499980D01*
X125329373Y-69499980D02*
X125291278Y-69652361D01*
X125291278Y-69652361D02*
X125291278Y-69919028D01*
X125291278Y-69919028D02*
X125329373Y-70071409D01*
X125329373Y-70071409D02*
X125405564Y-70147600D01*
X125405564Y-70147600D02*
X125481754Y-70185695D01*
X125481754Y-70185695D02*
X125634135Y-70185695D01*
X125634135Y-70185695D02*
X125710326Y-70147600D01*
X125710326Y-70147600D02*
X125786516Y-70071409D01*
X125786516Y-70071409D02*
X125824612Y-69919028D01*
X125824612Y-69919028D02*
X125824612Y-69652361D01*
X125824612Y-69652361D02*
X125786516Y-69499980D01*
X125786516Y-69499980D02*
X125710326Y-69423790D01*
X125710326Y-69423790D02*
X125634135Y-69385695D01*
X124605564Y-69652361D02*
X124605564Y-70185695D01*
X124796040Y-69347600D02*
X124986517Y-69919028D01*
X124986517Y-69919028D02*
X124491278Y-69919028D01*
X124034135Y-69385695D02*
X123957945Y-69385695D01*
X123957945Y-69385695D02*
X123881754Y-69423790D01*
X123881754Y-69423790D02*
X123843659Y-69461885D01*
X123843659Y-69461885D02*
X123805564Y-69538076D01*
X123805564Y-69538076D02*
X123767469Y-69690457D01*
X123767469Y-69690457D02*
X123767469Y-69880933D01*
X123767469Y-69880933D02*
X123805564Y-70033314D01*
X123805564Y-70033314D02*
X123843659Y-70109504D01*
X123843659Y-70109504D02*
X123881754Y-70147600D01*
X123881754Y-70147600D02*
X123957945Y-70185695D01*
X123957945Y-70185695D02*
X124034135Y-70185695D01*
X124034135Y-70185695D02*
X124110326Y-70147600D01*
X124110326Y-70147600D02*
X124148421Y-70109504D01*
X124148421Y-70109504D02*
X124186516Y-70033314D01*
X124186516Y-70033314D02*
X124224612Y-69880933D01*
X124224612Y-69880933D02*
X124224612Y-69690457D01*
X124224612Y-69690457D02*
X124186516Y-69538076D01*
X124186516Y-69538076D02*
X124148421Y-69461885D01*
X124148421Y-69461885D02*
X124110326Y-69423790D01*
X124110326Y-69423790D02*
X124034135Y-69385695D01*
X131157945Y-71054647D02*
X130891279Y-71054647D01*
X130776993Y-71473695D02*
X131157945Y-71473695D01*
X131157945Y-71473695D02*
X131157945Y-70673695D01*
X131157945Y-70673695D02*
X130776993Y-70673695D01*
X130548421Y-70673695D02*
X130281754Y-71473695D01*
X130281754Y-71473695D02*
X130015088Y-70673695D01*
X129862707Y-70673695D02*
X129405564Y-70673695D01*
X129634136Y-71473695D02*
X129634136Y-70673695D01*
X129215088Y-70673695D02*
X128719850Y-70673695D01*
X128719850Y-70673695D02*
X128986516Y-70978457D01*
X128986516Y-70978457D02*
X128872231Y-70978457D01*
X128872231Y-70978457D02*
X128796040Y-71016552D01*
X128796040Y-71016552D02*
X128757945Y-71054647D01*
X128757945Y-71054647D02*
X128719850Y-71130838D01*
X128719850Y-71130838D02*
X128719850Y-71321314D01*
X128719850Y-71321314D02*
X128757945Y-71397504D01*
X128757945Y-71397504D02*
X128796040Y-71435600D01*
X128796040Y-71435600D02*
X128872231Y-71473695D01*
X128872231Y-71473695D02*
X129100802Y-71473695D01*
X129100802Y-71473695D02*
X129176993Y-71435600D01*
X129176993Y-71435600D02*
X129215088Y-71397504D01*
X127767468Y-71054647D02*
X127157945Y-71054647D01*
X127157945Y-71283219D02*
X127767468Y-71283219D01*
X126167468Y-71473695D02*
X126167468Y-70673695D01*
X125634135Y-70673695D02*
X125481754Y-70673695D01*
X125481754Y-70673695D02*
X125405564Y-70711790D01*
X125405564Y-70711790D02*
X125329373Y-70787980D01*
X125329373Y-70787980D02*
X125291278Y-70940361D01*
X125291278Y-70940361D02*
X125291278Y-71207028D01*
X125291278Y-71207028D02*
X125329373Y-71359409D01*
X125329373Y-71359409D02*
X125405564Y-71435600D01*
X125405564Y-71435600D02*
X125481754Y-71473695D01*
X125481754Y-71473695D02*
X125634135Y-71473695D01*
X125634135Y-71473695D02*
X125710326Y-71435600D01*
X125710326Y-71435600D02*
X125786516Y-71359409D01*
X125786516Y-71359409D02*
X125824612Y-71207028D01*
X125824612Y-71207028D02*
X125824612Y-70940361D01*
X125824612Y-70940361D02*
X125786516Y-70787980D01*
X125786516Y-70787980D02*
X125710326Y-70711790D01*
X125710326Y-70711790D02*
X125634135Y-70673695D01*
X124605564Y-70940361D02*
X124605564Y-71473695D01*
X124796040Y-70635600D02*
X124986517Y-71207028D01*
X124986517Y-71207028D02*
X124491278Y-71207028D01*
X123767469Y-71473695D02*
X124224612Y-71473695D01*
X123996040Y-71473695D02*
X123996040Y-70673695D01*
X123996040Y-70673695D02*
X124072231Y-70787980D01*
X124072231Y-70787980D02*
X124148421Y-70864171D01*
X124148421Y-70864171D02*
X124224612Y-70902266D01*
X131157945Y-72342647D02*
X130891279Y-72342647D01*
X130776993Y-72761695D02*
X131157945Y-72761695D01*
X131157945Y-72761695D02*
X131157945Y-71961695D01*
X131157945Y-71961695D02*
X130776993Y-71961695D01*
X130548421Y-71961695D02*
X130281754Y-72761695D01*
X130281754Y-72761695D02*
X130015088Y-71961695D01*
X129862707Y-71961695D02*
X129405564Y-71961695D01*
X129634136Y-72761695D02*
X129634136Y-71961695D01*
X128796040Y-72228361D02*
X128796040Y-72761695D01*
X128986516Y-71923600D02*
X129176993Y-72495028D01*
X129176993Y-72495028D02*
X128681754Y-72495028D01*
X127767468Y-72342647D02*
X127157945Y-72342647D01*
X127157945Y-72571219D02*
X127767468Y-72571219D01*
X126167468Y-72761695D02*
X126167468Y-71961695D01*
X125634135Y-71961695D02*
X125481754Y-71961695D01*
X125481754Y-71961695D02*
X125405564Y-71999790D01*
X125405564Y-71999790D02*
X125329373Y-72075980D01*
X125329373Y-72075980D02*
X125291278Y-72228361D01*
X125291278Y-72228361D02*
X125291278Y-72495028D01*
X125291278Y-72495028D02*
X125329373Y-72647409D01*
X125329373Y-72647409D02*
X125405564Y-72723600D01*
X125405564Y-72723600D02*
X125481754Y-72761695D01*
X125481754Y-72761695D02*
X125634135Y-72761695D01*
X125634135Y-72761695D02*
X125710326Y-72723600D01*
X125710326Y-72723600D02*
X125786516Y-72647409D01*
X125786516Y-72647409D02*
X125824612Y-72495028D01*
X125824612Y-72495028D02*
X125824612Y-72228361D01*
X125824612Y-72228361D02*
X125786516Y-72075980D01*
X125786516Y-72075980D02*
X125710326Y-71999790D01*
X125710326Y-71999790D02*
X125634135Y-71961695D01*
X124605564Y-72228361D02*
X124605564Y-72761695D01*
X124796040Y-71923600D02*
X124986517Y-72495028D01*
X124986517Y-72495028D02*
X124491278Y-72495028D01*
X124224612Y-72037885D02*
X124186516Y-71999790D01*
X124186516Y-71999790D02*
X124110326Y-71961695D01*
X124110326Y-71961695D02*
X123919850Y-71961695D01*
X123919850Y-71961695D02*
X123843659Y-71999790D01*
X123843659Y-71999790D02*
X123805564Y-72037885D01*
X123805564Y-72037885D02*
X123767469Y-72114076D01*
X123767469Y-72114076D02*
X123767469Y-72190266D01*
X123767469Y-72190266D02*
X123805564Y-72304552D01*
X123805564Y-72304552D02*
X124262707Y-72761695D01*
X124262707Y-72761695D02*
X123767469Y-72761695D01*
D11*
X152908247Y-60102676D02*
X152717771Y-60636010D01*
X152527294Y-60102676D02*
X152717771Y-60636010D01*
X152717771Y-60636010D02*
X152793961Y-60826486D01*
X152793961Y-60826486D02*
X152832056Y-60864581D01*
X152832056Y-60864581D02*
X152908247Y-60902676D01*
X151392056Y-59832676D02*
X151392056Y-60366010D01*
X151392056Y-59908867D02*
X151353961Y-59870772D01*
X151353961Y-59870772D02*
X151277771Y-59832676D01*
X151277771Y-59832676D02*
X151163485Y-59832676D01*
X151163485Y-59832676D02*
X151087294Y-59870772D01*
X151087294Y-59870772D02*
X151049199Y-59946962D01*
X151049199Y-59946962D02*
X151049199Y-60366010D01*
X153570839Y-59464295D02*
X153570839Y-58930961D01*
X153570839Y-59007152D02*
X153532744Y-58969057D01*
X153532744Y-58969057D02*
X153456554Y-58930961D01*
X153456554Y-58930961D02*
X153342268Y-58930961D01*
X153342268Y-58930961D02*
X153266077Y-58969057D01*
X153266077Y-58969057D02*
X153227982Y-59045247D01*
X153227982Y-59045247D02*
X153227982Y-59464295D01*
X153227982Y-59045247D02*
X153189887Y-58969057D01*
X153189887Y-58969057D02*
X153113696Y-58930961D01*
X153113696Y-58930961D02*
X152999411Y-58930961D01*
X152999411Y-58930961D02*
X152923220Y-58969057D01*
X152923220Y-58969057D02*
X152885125Y-59045247D01*
X152885125Y-59045247D02*
X152885125Y-59464295D01*
%LPC*%
D13*
%TO.C,H2*%
X103230000Y-69270000D03*
%TD*%
%TO.C,H1*%
X103230000Y-51490000D03*
%TD*%
D14*
%TO.C,J1*%
X105315000Y-57560000D03*
X105315000Y-63340000D03*
D15*
X105815000Y-56130000D03*
D16*
X101635000Y-56130000D03*
D15*
X105815000Y-64770000D03*
D16*
X101635000Y-64770000D03*
%TD*%
D17*
%TO.C,BOARDLAYOUT1*%
X134580000Y-49060000D03*
X137120000Y-49060000D03*
X139660000Y-49060000D03*
X142200000Y-49060000D03*
X144740000Y-49060000D03*
X147280000Y-49060000D03*
X152360000Y-71920000D03*
X149820000Y-71920000D03*
X147280000Y-71920000D03*
X144740000Y-71920000D03*
X142200000Y-71920000D03*
X139660000Y-71920000D03*
X137120000Y-71920000D03*
X134580000Y-71920000D03*
X114260000Y-71920000D03*
X111720000Y-71920000D03*
X109180000Y-71920000D03*
X106640000Y-71920000D03*
%TD*%
%LPD*%
M02*
