%TF.GenerationSoftware,KiCad,Pcbnew,7.0.6*%
%TF.CreationDate,2023-10-17T01:06:07-04:00*%
%TF.ProjectId,tstick-5gw-pro-USB-V2-pcb,74737469-636b-42d3-9567-772d70726f2d,v0.0.2*%
%TF.SameCoordinates,Original*%
%TF.FileFunction,Copper,L4,Bot*%
%TF.FilePolarity,Positive*%
%FSLAX46Y46*%
G04 Gerber Fmt 4.6, Leading zero omitted, Abs format (unit mm)*
G04 Created by KiCad (PCBNEW 7.0.6) date 2023-10-17 01:06:07*
%MOMM*%
%LPD*%
G01*
G04 APERTURE LIST*
%TA.AperFunction,ComponentPad*%
%ADD10O,2.100000X1.000000*%
%TD*%
%TA.AperFunction,ComponentPad*%
%ADD11O,1.800000X1.000000*%
%TD*%
%TA.AperFunction,ComponentPad*%
%ADD12O,1.700000X1.700000*%
%TD*%
%TA.AperFunction,ViaPad*%
%ADD13C,0.558800*%
%TD*%
%TA.AperFunction,ViaPad*%
%ADD14C,0.508000*%
%TD*%
%TA.AperFunction,Conductor*%
%ADD15C,0.152400*%
%TD*%
%TA.AperFunction,Conductor*%
%ADD16C,0.254000*%
%TD*%
G04 APERTURE END LIST*
D10*
%TO.P,J1,S1,SHIELD*%
%TO.N,GND*%
X105815000Y-56130000D03*
D11*
X101635000Y-56130000D03*
D10*
X105815000Y-64770000D03*
D11*
X101635000Y-64770000D03*
%TD*%
D12*
%TO.P,BOARDLAYOUT1,1,3v3*%
%TO.N,+3V3*%
X134580000Y-49060000D03*
%TO.P,BOARDLAYOUT1,2,GND*%
%TO.N,GND*%
X137120000Y-49060000D03*
%TO.P,BOARDLAYOUT1,3,IO08*%
%TO.N,/IO8*%
X139660000Y-49060000D03*
%TO.P,BOARDLAYOUT1,4,IO07*%
%TO.N,/IO7*%
X142200000Y-49060000D03*
%TO.P,BOARDLAYOUT1,5,IO06*%
%TO.N,/IO6*%
X144740000Y-49060000D03*
%TO.P,BOARDLAYOUT1,6,EN*%
%TO.N,/EN*%
X147280000Y-49060000D03*
%TO.P,BOARDLAYOUT1,7,GND*%
%TO.N,GND*%
X152360000Y-71920000D03*
%TO.P,BOARDLAYOUT1,8,IO01*%
%TO.N,/IO1*%
X149820000Y-71920000D03*
%TO.P,BOARDLAYOUT1,9,IO02*%
%TO.N,/IO2*%
X147280000Y-71920000D03*
%TO.P,BOARDLAYOUT1,10,IO04*%
%TO.N,/IO4*%
X144740000Y-71920000D03*
%TO.P,BOARDLAYOUT1,11,IO05*%
%TO.N,/IO5*%
X142200000Y-71920000D03*
%TO.P,BOARDLAYOUT1,12,COPI*%
%TO.N,/COPI*%
X139660000Y-71920000D03*
%TO.P,BOARDLAYOUT1,13,SCK*%
%TO.N,/SCK*%
X137120000Y-71920000D03*
%TO.P,BOARDLAYOUT1,14,CIPO*%
%TO.N,/CIPO*%
X134580000Y-71920000D03*
%TO.P,BOARDLAYOUT1,15,GND*%
%TO.N,GND*%
X114260000Y-71920000D03*
%TO.P,BOARDLAYOUT1,16,3v3*%
%TO.N,+3V3*%
X111720000Y-71920000D03*
%TO.P,BOARDLAYOUT1,17,SDA*%
%TO.N,/SDA*%
X109180000Y-71920000D03*
%TO.P,BOARDLAYOUT1,18,SCL*%
%TO.N,/SCL*%
X106640000Y-71920000D03*
%TD*%
D13*
%TO.N,+BATT*%
X117200000Y-49875000D03*
X110200000Y-53600000D03*
X113800000Y-55975000D03*
X115375000Y-57331700D03*
D14*
X109079300Y-67650700D03*
D13*
%TO.N,+1V8*%
X126075000Y-62975000D03*
X121825000Y-64525000D03*
X119225000Y-62750000D03*
X117675000Y-61625000D03*
X119329300Y-64190700D03*
X123875000Y-62575000D03*
X120978401Y-63750000D03*
X118728859Y-57250000D03*
%TO.N,+3V3*%
X134150000Y-61010000D03*
X152160000Y-50400000D03*
X119319300Y-67170700D03*
X150480000Y-48930000D03*
X119300000Y-65700000D03*
X126050000Y-57151250D03*
X120983646Y-68383646D03*
X132725000Y-54925000D03*
X123800000Y-67350000D03*
X113283630Y-69533269D03*
X134150000Y-57250000D03*
X131885000Y-51525000D03*
D14*
%TO.N,GND*%
X107310000Y-63710000D03*
X134750000Y-51000000D03*
X123749999Y-60524999D03*
X149540000Y-56790000D03*
X109133300Y-64274497D03*
X126820000Y-49050000D03*
X109133300Y-65350000D03*
X123790000Y-72095000D03*
X128140000Y-51880000D03*
X150375000Y-57575000D03*
X153450000Y-70325000D03*
X110750000Y-62675000D03*
X109100000Y-68750000D03*
X148078573Y-61430720D03*
X114615000Y-63210000D03*
X146580000Y-61375000D03*
X153430000Y-50530000D03*
X145850000Y-60590000D03*
X145800000Y-57600000D03*
X128140000Y-48610000D03*
X122670000Y-52320000D03*
X150350000Y-59075000D03*
X110199497Y-62675000D03*
X109133300Y-65900000D03*
X122050000Y-68470000D03*
X149580000Y-61375000D03*
X115805700Y-62730700D03*
X109975000Y-60150000D03*
X112369999Y-69365699D03*
X116740000Y-50930000D03*
X107670000Y-50920000D03*
X132162500Y-62762500D03*
X122175000Y-59300000D03*
X133300000Y-56528700D03*
X111819540Y-62656755D03*
X131490000Y-72060000D03*
X145800000Y-59090000D03*
X109200000Y-62850000D03*
X118750000Y-56528700D03*
X126800000Y-57198750D03*
X107362105Y-57250000D03*
X122178399Y-63746601D03*
X109133300Y-66435221D03*
X116549300Y-68020700D03*
X148080000Y-56800000D03*
X109133300Y-64825000D03*
X111269094Y-62648836D03*
X122910000Y-48650000D03*
X150375000Y-60550000D03*
X127250000Y-57875000D03*
X116125000Y-72125000D03*
X114027256Y-69500475D03*
X146575000Y-56825000D03*
X149750000Y-48925000D03*
X110050000Y-67100000D03*
%TO.N,/EN*%
X132450000Y-60750000D03*
X150450000Y-52925000D03*
D13*
%TO.N,VUSB*%
X111309999Y-69495699D03*
X107250000Y-58075000D03*
X107375000Y-62850000D03*
D14*
%TO.N,/SCL*%
X125640000Y-57890000D03*
X132625000Y-58550000D03*
X109550000Y-57975000D03*
X127325000Y-60375000D03*
X117607931Y-70065500D03*
%TO.N,/SDA*%
X118925000Y-70575000D03*
X125425000Y-58750000D03*
X109550000Y-58925000D03*
X132745650Y-59805650D03*
%TO.N,/THRM*%
X114423699Y-56498699D03*
X107950000Y-56100000D03*
%TO.N,/IO4*%
X149570000Y-54260000D03*
%TO.N,/IO5*%
X148330000Y-54370000D03*
%TO.N,/IO9*%
X126650000Y-51675000D03*
X134575000Y-55611300D03*
%TO.N,/IO17*%
X141700000Y-52950000D03*
X115570000Y-56070000D03*
%TO.N,/IO3*%
X134635000Y-53465000D03*
X133600000Y-51450000D03*
%TO.N,/SCK*%
X136790000Y-66160000D03*
%TO.N,/CIPO*%
X134568159Y-66765050D03*
%TO.N,/IO39*%
X139700000Y-65700000D03*
X129250000Y-68425000D03*
%TO.N,/IO40*%
X128275000Y-68400000D03*
X139700000Y-65036503D03*
%TO.N,/IO41*%
X127340000Y-68300000D03*
X139700000Y-64400000D03*
%TO.N,/IO42*%
X139690000Y-63725000D03*
X126270000Y-68380000D03*
%TO.N,SYS*%
X115550000Y-65025000D03*
X114500000Y-67775000D03*
X112451373Y-62579797D03*
X111349999Y-68555699D03*
%TD*%
D15*
%TO.N,/EN*%
X134040000Y-59160000D02*
X132450000Y-60750000D01*
X142820000Y-59160000D02*
X134040000Y-59160000D01*
X150450000Y-52925000D02*
X149055000Y-52925000D01*
X149055000Y-52925000D02*
X142820000Y-59160000D01*
D16*
%TO.N,/SCL*%
X108057931Y-70092069D02*
X106600000Y-71550000D01*
X127325000Y-60375000D02*
X117607931Y-70092069D01*
X125640000Y-57890000D02*
X126300000Y-58550000D01*
X125640000Y-57890000D02*
X109635000Y-57890000D01*
X117607931Y-70092069D02*
X108057931Y-70092069D01*
X109635000Y-57890000D02*
X109550000Y-57975000D01*
X126300000Y-58550000D02*
X132625000Y-58550000D01*
%TO.N,/SDA*%
X121365263Y-70575000D02*
X118925000Y-70575000D01*
X126450000Y-59775000D02*
X132715000Y-59775000D01*
X125075000Y-58400000D02*
X110075000Y-58400000D01*
X125425000Y-58750000D02*
X126450000Y-59775000D01*
X110075000Y-58400000D02*
X109550000Y-58925000D01*
X109100000Y-71550000D02*
X110075000Y-70575000D01*
X132134613Y-59805650D02*
X121365263Y-70575000D01*
X125425000Y-58750000D02*
X125075000Y-58400000D01*
X110075000Y-70575000D02*
X118925000Y-70575000D01*
X132745650Y-59805650D02*
X132134613Y-59805650D01*
X132715000Y-59775000D02*
X132745650Y-59805650D01*
D15*
%TO.N,/THRM*%
X108340000Y-56490000D02*
X114415000Y-56490000D01*
X114415000Y-56490000D02*
X114423699Y-56498699D01*
X107950000Y-56100000D02*
X108340000Y-56490000D01*
%TO.N,/IO4*%
X149570000Y-54260000D02*
X148710000Y-55120000D01*
X144740000Y-67660000D02*
X144740000Y-71550000D01*
X148710000Y-55120000D02*
X148710000Y-63690000D01*
X148710000Y-63690000D02*
X144740000Y-67660000D01*
%TO.N,/IO5*%
X148290593Y-54370000D02*
X148330000Y-54370000D01*
X142200000Y-71550000D02*
X142200000Y-60460593D01*
X142200000Y-60460593D02*
X148290593Y-54370000D01*
%TO.N,/IO9*%
X134575000Y-55611300D02*
X130586300Y-55611300D01*
X130586300Y-55611300D02*
X126650000Y-51675000D01*
%TO.N,/IO17*%
X115570000Y-56070000D02*
X138580000Y-56070000D01*
X138580000Y-56070000D02*
X141700000Y-52950000D01*
%TO.N,/IO3*%
X134635000Y-53465000D02*
X133600000Y-52430000D01*
X133600000Y-52430000D02*
X133600000Y-51450000D01*
%TO.N,/SCK*%
X137120000Y-66490000D02*
X137120000Y-71550000D01*
X136790000Y-66160000D02*
X137120000Y-66490000D01*
%TO.N,/CIPO*%
X134580000Y-66776891D02*
X134580000Y-71550000D01*
X134568159Y-66765050D02*
X134580000Y-66776891D01*
%TO.N,/IO39*%
X139700000Y-65700000D02*
X139699200Y-65700800D01*
X139699200Y-65700800D02*
X131974200Y-65700800D01*
X131974200Y-65700800D02*
X129250000Y-68425000D01*
%TO.N,/IO40*%
X131613497Y-65036503D02*
X128275000Y-68375000D01*
X139700000Y-65036503D02*
X131613497Y-65036503D01*
X128275000Y-68375000D02*
X128275000Y-68400000D01*
%TO.N,/IO41*%
X131200000Y-64400000D02*
X127340000Y-68260000D01*
X127340000Y-68260000D02*
X127340000Y-68300000D01*
X139700000Y-64400000D02*
X131200000Y-64400000D01*
%TO.N,/IO42*%
X130189200Y-64435800D02*
X130189200Y-64460800D01*
X139665000Y-63700000D02*
X130925000Y-63700000D01*
X139690000Y-63725000D02*
X139665000Y-63700000D01*
X130925000Y-63700000D02*
X130189200Y-64435800D01*
X130189200Y-64460800D02*
X126270000Y-68380000D01*
%TD*%
M02*
