%TF.GenerationSoftware,KiCad,Pcbnew,7.0.6*%
%TF.CreationDate,2023-10-17T01:06:07-04:00*%
%TF.ProjectId,tstick-5gw-pro-USB-V2-pcb,74737469-636b-42d3-9567-772d70726f2d,v0.0.2*%
%TF.SameCoordinates,Original*%
%TF.FileFunction,Copper,L1,Top*%
%TF.FilePolarity,Positive*%
%FSLAX46Y46*%
G04 Gerber Fmt 4.6, Leading zero omitted, Abs format (unit mm)*
G04 Created by KiCad (PCBNEW 7.0.6) date 2023-10-17 01:06:07*
%MOMM*%
%LPD*%
G01*
G04 APERTURE LIST*
G04 Aperture macros list*
%AMRoundRect*
0 Rectangle with rounded corners*
0 $1 Rounding radius*
0 $2 $3 $4 $5 $6 $7 $8 $9 X,Y pos of 4 corners*
0 Add a 4 corners polygon primitive as box body*
4,1,4,$2,$3,$4,$5,$6,$7,$8,$9,$2,$3,0*
0 Add four circle primitives for the rounded corners*
1,1,$1+$1,$2,$3*
1,1,$1+$1,$4,$5*
1,1,$1+$1,$6,$7*
1,1,$1+$1,$8,$9*
0 Add four rect primitives between the rounded corners*
20,1,$1+$1,$2,$3,$4,$5,0*
20,1,$1+$1,$4,$5,$6,$7,0*
20,1,$1+$1,$6,$7,$8,$9,0*
20,1,$1+$1,$8,$9,$2,$3,0*%
G04 Aperture macros list end*
%TA.AperFunction,SMDPad,CuDef*%
%ADD10RoundRect,0.250000X-0.250000X-2.500000X0.250000X-2.500000X0.250000X2.500000X-0.250000X2.500000X0*%
%TD*%
%TA.AperFunction,SMDPad,CuDef*%
%ADD11RoundRect,0.250000X-0.550000X-1.250000X0.550000X-1.250000X0.550000X1.250000X-0.550000X1.250000X0*%
%TD*%
%TA.AperFunction,SMDPad,CuDef*%
%ADD12RoundRect,0.100000X0.130000X0.100000X-0.130000X0.100000X-0.130000X-0.100000X0.130000X-0.100000X0*%
%TD*%
%TA.AperFunction,SMDPad,CuDef*%
%ADD13RoundRect,0.100000X-0.130000X-0.100000X0.130000X-0.100000X0.130000X0.100000X-0.130000X0.100000X0*%
%TD*%
%TA.AperFunction,SMDPad,CuDef*%
%ADD14RoundRect,0.100000X-0.100000X0.130000X-0.100000X-0.130000X0.100000X-0.130000X0.100000X0.130000X0*%
%TD*%
%TA.AperFunction,SMDPad,CuDef*%
%ADD15RoundRect,0.100000X0.100000X-0.130000X0.100000X0.130000X-0.100000X0.130000X-0.100000X-0.130000X0*%
%TD*%
%TA.AperFunction,SMDPad,CuDef*%
%ADD16O,2.000000X3.000000*%
%TD*%
%TA.AperFunction,SMDPad,CuDef*%
%ADD17R,1.050000X0.650000*%
%TD*%
%TA.AperFunction,SMDPad,CuDef*%
%ADD18R,0.706399X0.204000*%
%TD*%
%TA.AperFunction,SMDPad,CuDef*%
%ADD19R,1.295400X1.397000*%
%TD*%
%TA.AperFunction,SMDPad,CuDef*%
%ADD20R,0.655599X0.204000*%
%TD*%
%TA.AperFunction,SMDPad,CuDef*%
%ADD21R,0.204000X0.655599*%
%TD*%
%TA.AperFunction,SMDPad,CuDef*%
%ADD22R,0.900000X1.500000*%
%TD*%
%TA.AperFunction,SMDPad,CuDef*%
%ADD23R,1.500000X0.900000*%
%TD*%
%TA.AperFunction,SMDPad,CuDef*%
%ADD24R,1.000000X1.000000*%
%TD*%
%TA.AperFunction,SMDPad,CuDef*%
%ADD25RoundRect,0.150000X0.150000X0.625000X-0.150000X0.625000X-0.150000X-0.625000X0.150000X-0.625000X0*%
%TD*%
%TA.AperFunction,SMDPad,CuDef*%
%ADD26RoundRect,0.250000X0.350000X0.650000X-0.350000X0.650000X-0.350000X-0.650000X0.350000X-0.650000X0*%
%TD*%
%TA.AperFunction,SMDPad,CuDef*%
%ADD27RoundRect,0.218750X-0.218750X-0.256250X0.218750X-0.256250X0.218750X0.256250X-0.218750X0.256250X0*%
%TD*%
%TA.AperFunction,SMDPad,CuDef*%
%ADD28RoundRect,0.225000X0.225000X0.250000X-0.225000X0.250000X-0.225000X-0.250000X0.225000X-0.250000X0*%
%TD*%
%TA.AperFunction,SMDPad,CuDef*%
%ADD29RoundRect,0.150000X0.625000X-0.150000X0.625000X0.150000X-0.625000X0.150000X-0.625000X-0.150000X0*%
%TD*%
%TA.AperFunction,SMDPad,CuDef*%
%ADD30RoundRect,0.250000X0.650000X-0.350000X0.650000X0.350000X-0.650000X0.350000X-0.650000X-0.350000X0*%
%TD*%
%TA.AperFunction,SMDPad,CuDef*%
%ADD31R,1.000000X0.850000*%
%TD*%
%TA.AperFunction,SMDPad,CuDef*%
%ADD32R,0.807999X0.204000*%
%TD*%
%TA.AperFunction,SMDPad,CuDef*%
%ADD33R,0.204000X0.807999*%
%TD*%
%TA.AperFunction,SMDPad,CuDef*%
%ADD34R,2.692400X2.692400*%
%TD*%
%TA.AperFunction,SMDPad,CuDef*%
%ADD35R,1.100000X0.400000*%
%TD*%
%TA.AperFunction,SMDPad,CuDef*%
%ADD36R,1.343800X0.712000*%
%TD*%
%TA.AperFunction,SMDPad,CuDef*%
%ADD37R,1.150000X0.600000*%
%TD*%
%TA.AperFunction,SMDPad,CuDef*%
%ADD38R,1.150000X0.300000*%
%TD*%
%TA.AperFunction,ComponentPad*%
%ADD39O,2.100000X1.000000*%
%TD*%
%TA.AperFunction,ComponentPad*%
%ADD40O,1.800000X1.000000*%
%TD*%
%TA.AperFunction,SMDPad,CuDef*%
%ADD41RoundRect,0.150000X-0.150000X0.587500X-0.150000X-0.587500X0.150000X-0.587500X0.150000X0.587500X0*%
%TD*%
%TA.AperFunction,ComponentPad*%
%ADD42O,1.700000X1.700000*%
%TD*%
%TA.AperFunction,ViaPad*%
%ADD43C,0.558800*%
%TD*%
%TA.AperFunction,ViaPad*%
%ADD44C,0.508000*%
%TD*%
%TA.AperFunction,Conductor*%
%ADD45C,0.152400*%
%TD*%
%TA.AperFunction,Conductor*%
%ADD46C,0.304800*%
%TD*%
%TA.AperFunction,Conductor*%
%ADD47C,0.254000*%
%TD*%
%TA.AperFunction,Conductor*%
%ADD48C,0.508000*%
%TD*%
%TA.AperFunction,Conductor*%
%ADD49C,0.200000*%
%TD*%
G04 APERTURE END LIST*
D10*
%TO.P,BT1,1,Pin_1*%
%TO.N,+BATT*%
X111220000Y-52830000D03*
%TO.P,BT1,2,Pin_2*%
%TO.N,-BATT*%
X113220000Y-52830000D03*
D11*
%TO.P,BT1,MP,MountPin*%
%TO.N,GND*%
X108820000Y-50580000D03*
X115620000Y-50580000D03*
%TD*%
D12*
%TO.P,R23,1*%
%TO.N,/IO21*%
X125125000Y-67350000D03*
%TO.P,R23,2*%
%TO.N,+3V3*%
X124485000Y-67350000D03*
%TD*%
D13*
%TO.P,R11,1*%
%TO.N,/FB3*%
X113975000Y-61975000D03*
%TO.P,R11,2*%
%TO.N,+1V8*%
X114615000Y-61975000D03*
%TD*%
D14*
%TO.P,R18,1*%
%TO.N,/LS_EN*%
X126050000Y-56008750D03*
%TO.P,R18,2*%
%TO.N,+3V3*%
X126050000Y-56648750D03*
%TD*%
D15*
%TO.P,R3,1*%
%TO.N,Net-(CHARGLED1-K)*%
X115609300Y-69045000D03*
%TO.P,R3,2*%
%TO.N,/STAT*%
X115609300Y-68405000D03*
%TD*%
D16*
%TO.P,BT2,1,+*%
%TO.N,+BATT*%
X118710000Y-49800000D03*
%TO.P,BT2,2,-*%
%TO.N,-BATT*%
X121250000Y-49800000D03*
%TD*%
D15*
%TO.P,R19,1*%
%TO.N,/SCL*%
X134160000Y-58540000D03*
%TO.P,R19,2*%
%TO.N,+3V3*%
X134160000Y-57900000D03*
%TD*%
%TO.P,CHARGLED1,1,K*%
%TO.N,Net-(CHARGLED1-K)*%
X114899999Y-69030699D03*
%TO.P,CHARGLED1,2,A*%
%TO.N,SYS*%
X114899999Y-68390699D03*
%TD*%
D17*
%TO.P,SW2,1,1*%
%TO.N,/IO0*%
X131800000Y-67200000D03*
X127650000Y-67200000D03*
%TO.P,SW2,2,2*%
%TO.N,GND*%
X131800000Y-65050000D03*
X127650000Y-65050000D03*
%TD*%
D18*
%TO.P,FG1,1,N.C.*%
%TO.N,unconnected-(FG1-N.C.-Pad1)*%
X111077200Y-56550000D03*
%TO.P,FG1,2,AIN*%
%TO.N,/AIN*%
X111077200Y-56950002D03*
%TO.P,FG1,3,SCL*%
%TO.N,/SCL*%
X111077200Y-57350001D03*
%TO.P,FG1,4,SDA*%
%TO.N,/SDA*%
X111077200Y-57750000D03*
%TO.P,FG1,5,CSN*%
%TO.N,/FG_CSN*%
X111077200Y-58150002D03*
%TO.P,FG1,6,CSP*%
%TO.N,CSP*%
X113460000Y-58150002D03*
%TO.P,FG1,7,REG*%
%TO.N,/REG*%
X113460000Y-57750000D03*
%TO.P,FG1,8,ALRT*%
%TO.N,/IO17*%
X113460000Y-57350001D03*
%TO.P,FG1,9,THRM*%
%TO.N,/THRM*%
X113460000Y-56950002D03*
%TO.P,FG1,10,BATT*%
%TO.N,+BATT*%
X113460000Y-56550000D03*
D19*
%TO.P,FG1,11,EPAD*%
%TO.N,CSP*%
X112268600Y-57350001D03*
%TD*%
D20*
%TO.P,IMU1,1,NC*%
%TO.N,unconnected-(IMU1-NC-Pad1)*%
X120056800Y-60524999D03*
%TO.P,IMU1,2,NC*%
%TO.N,unconnected-(IMU1-NC-Pad2)*%
X120056800Y-60925001D03*
%TO.P,IMU1,3,NC*%
%TO.N,unconnected-(IMU1-NC-Pad3)*%
X120056800Y-61325000D03*
%TO.P,IMU1,4,NC*%
%TO.N,unconnected-(IMU1-NC-Pad4)*%
X120056800Y-61725000D03*
%TO.P,IMU1,5,NC*%
%TO.N,unconnected-(IMU1-NC-Pad5)*%
X120056800Y-62124999D03*
%TO.P,IMU1,6,NC*%
%TO.N,unconnected-(IMU1-NC-Pad6)*%
X120056800Y-62525001D03*
D21*
%TO.P,IMU1,7,AUX_CL*%
%TO.N,unconnected-(IMU1-AUX_CL-Pad7)*%
X120578399Y-63046600D03*
%TO.P,IMU1,8,VDDIO*%
%TO.N,+1V8*%
X120978401Y-63046600D03*
%TO.P,IMU1,9,SDO/AD0*%
%TO.N,unconnected-(IMU1-SDO{slash}AD0-Pad9)*%
X121378400Y-63046600D03*
%TO.P,IMU1,10,REGOUT*%
%TO.N,unconnected-(IMU1-REGOUT-Pad10)*%
X121778400Y-63046600D03*
%TO.P,IMU1,11,FSYNC*%
%TO.N,GND*%
X122178399Y-63046600D03*
%TO.P,IMU1,12,INT1*%
%TO.N,/IMU_INT*%
X122578401Y-63046600D03*
D20*
%TO.P,IMU1,13,VDD*%
%TO.N,+1V8*%
X123100000Y-62525001D03*
%TO.P,IMU1,14,NC*%
%TO.N,unconnected-(IMU1-NC-Pad14)*%
X123100000Y-62124999D03*
%TO.P,IMU1,15,NC*%
%TO.N,unconnected-(IMU1-NC-Pad15)*%
X123100000Y-61725000D03*
%TO.P,IMU1,16,NC*%
%TO.N,unconnected-(IMU1-NC-Pad16)*%
X123100000Y-61325000D03*
%TO.P,IMU1,17,NC*%
%TO.N,unconnected-(IMU1-NC-Pad17)*%
X123100000Y-60925001D03*
%TO.P,IMU1,18,GND*%
%TO.N,GND*%
X123100000Y-60524999D03*
D21*
%TO.P,IMU1,19,RESV*%
%TO.N,unconnected-(IMU1-RESV-Pad19)*%
X122578401Y-60003400D03*
%TO.P,IMU1,20,GND*%
%TO.N,GND*%
X122178399Y-60003400D03*
%TO.P,IMU1,21,AUX_DA*%
%TO.N,unconnected-(IMU1-AUX_DA-Pad21)*%
X121778400Y-60003400D03*
%TO.P,IMU1,22,~{CS}*%
%TO.N,unconnected-(IMU1-~{CS}-Pad22)*%
X121378400Y-60003400D03*
%TO.P,IMU1,23,SCL/SCLK*%
%TO.N,/LV_SCL*%
X120978401Y-60003400D03*
%TO.P,IMU1,24,SDA/SDI*%
%TO.N,/LV_SDA*%
X120578399Y-60003400D03*
%TD*%
D22*
%TO.P,MCU1,1,GND*%
%TO.N,GND*%
X153430000Y-51700000D03*
%TO.P,MCU1,2,3V3*%
%TO.N,+3V3*%
X152160000Y-51700000D03*
%TO.P,MCU1,3,EN*%
%TO.N,/EN*%
X150890000Y-51700000D03*
%TO.P,MCU1,4,GPIO4/TOUCH4/ADC1_CH3*%
%TO.N,/IO4*%
X149620000Y-51700000D03*
%TO.P,MCU1,5,GPIO5/TOUCH5/ADC1_CH4*%
%TO.N,/IO5*%
X148350000Y-51700000D03*
%TO.P,MCU1,6,GPIO6/TOUCH6/ADC1_CH5*%
%TO.N,/IO6*%
X147080000Y-51700000D03*
%TO.P,MCU1,7,GPIO7/TOUCH7/ADC1_CH6*%
%TO.N,/IO7*%
X145810000Y-51700000D03*
%TO.P,MCU1,8,GPIO15/U0RTS/ADC2_CH4/XTAL_32K_P*%
%TO.N,/IO15*%
X144540000Y-51700000D03*
%TO.P,MCU1,9,GPIO16/U0CTS/ADC2_CH5/XTAL_32K_N*%
%TO.N,/IO16*%
X143270000Y-51700000D03*
%TO.P,MCU1,10,GPIO17/U1TXD/ADC2_CH6*%
%TO.N,/IO17*%
X142000000Y-51700000D03*
%TO.P,MCU1,11,GPIO18/U1RXD/ADC2_CH7/CLK_OUT3*%
%TO.N,/IO18*%
X140730000Y-51700000D03*
%TO.P,MCU1,12,GPIO8/TOUCH8/ADC1_CH7/SUBSPICS1*%
%TO.N,/IO8*%
X139460000Y-51700000D03*
%TO.P,MCU1,13,GPIO19/U1RTS/ADC2_CH8/CLK_OUT2/USB_D-*%
%TO.N,/USBD-*%
X138190000Y-51700000D03*
%TO.P,MCU1,14,GPIO20/U1CTS/ADC2_CH9/CLK_OUT1/USB_D+*%
%TO.N,/USBD+*%
X136920000Y-51700000D03*
D23*
%TO.P,MCU1,15,GPIO3/TOUCH3/ADC1_CH2*%
%TO.N,/IO3*%
X135670000Y-53465000D03*
%TO.P,MCU1,16,GPIO46*%
%TO.N,/IO46*%
X135670000Y-54735000D03*
%TO.P,MCU1,17,GPIO9/TOUCH9/ADC1_CH8/FSPIHD/SUBSPIHD*%
%TO.N,/IO9*%
X135670000Y-56005000D03*
%TO.P,MCU1,18,GPIO10/TOUCH10/ADC1_CH9/FSPICS0/FSPIIO4/SUBSPICS0*%
%TO.N,/IO10*%
X135670000Y-57275000D03*
%TO.P,MCU1,19,GPIO11/TOUCH11/ADC2_CH0/FSPID/FSPIIO5/SUBSPID*%
%TO.N,/SCL*%
X135670000Y-58545000D03*
%TO.P,MCU1,20,GPIO12/TOUCH12/ADC2_CH1/FSPICLK/FSPIIO6/SUBSPICLK*%
%TO.N,/SDA*%
X135670000Y-59815000D03*
%TO.P,MCU1,21,GPIO13/TOUCH13/ADC2_CH2/FSPIQ/FSPIIO7/SUBSPIQ*%
%TO.N,/IO13*%
X135670000Y-61085000D03*
%TO.P,MCU1,22,GPIO14/TOUCH14/ADC2_CH3/FSPIWP/FSPIDQS/SUBSPIWP*%
%TO.N,/IO14*%
X135670000Y-62355000D03*
%TO.P,MCU1,23,GPIO21*%
%TO.N,/IO21*%
X135670000Y-63625000D03*
%TO.P,MCU1,24,GPIO47/SPICLK_P/SUBSPICLK_P_DIFF*%
%TO.N,/CIPO*%
X135670000Y-64895000D03*
%TO.P,MCU1,25,GPIO48/SPICLK_N/SUBSPICLK_N_DIFF*%
%TO.N,/SCK*%
X135670000Y-66165000D03*
%TO.P,MCU1,26,GPIO45*%
%TO.N,/IO45*%
X135670000Y-67435000D03*
D22*
%TO.P,MCU1,27,GPIO0/BOOT*%
%TO.N,/IO0*%
X136920000Y-69200000D03*
%TO.P,MCU1,28,NC*%
%TO.N,unconnected-(MCU1-NC-Pad28)*%
X138190000Y-69200000D03*
%TO.P,MCU1,29,NC*%
%TO.N,unconnected-(MCU1-NC-Pad29)*%
X139460000Y-69200000D03*
%TO.P,MCU1,30,NC*%
%TO.N,unconnected-(MCU1-NC-Pad30)*%
X140730000Y-69200000D03*
%TO.P,MCU1,31,GPIO38/FSPIWP/SUBSPIWP*%
%TO.N,/COPI*%
X142000000Y-69200000D03*
%TO.P,MCU1,32,MTCK/GPIO39/CLK_OUT3/SUBSPICS1*%
%TO.N,/IO39*%
X143270000Y-69200000D03*
%TO.P,MCU1,33,MTDO/GPIO40/CLK_OUT2*%
%TO.N,/IO40*%
X144540000Y-69200000D03*
%TO.P,MCU1,34,MTDI/GPIO41/CLK_OUT1*%
%TO.N,/IO41*%
X145810000Y-69200000D03*
%TO.P,MCU1,35,MTMS/GPIO42*%
%TO.N,/IO42*%
X147080000Y-69200000D03*
%TO.P,MCU1,36,U0RXD/GPIO44/CLK_OUT2*%
%TO.N,/RXD*%
X148350000Y-69200000D03*
%TO.P,MCU1,37,U0TXD/GPIO43/CLK_OUT1*%
%TO.N,/TXD*%
X149620000Y-69200000D03*
%TO.P,MCU1,38,GPIO2/TOUCH2/ADC1_CH1*%
%TO.N,/IO2*%
X150890000Y-69200000D03*
%TO.P,MCU1,39,GPIO1/TOUCH1/ADC1_CH0*%
%TO.N,/IO1*%
X152160000Y-69200000D03*
%TO.P,MCU1,40,GND*%
%TO.N,GND*%
X153430000Y-69200000D03*
D24*
%TO.P,MCU1,41,GND*%
X149580000Y-57590000D03*
X148080000Y-57590000D03*
X148080000Y-57590000D03*
X146580000Y-57590000D03*
X149580000Y-59090000D03*
X149580000Y-59090000D03*
X148080000Y-59090000D03*
X146580000Y-59090000D03*
X149580000Y-60590000D03*
X148080000Y-60590000D03*
X146580000Y-60590000D03*
%TD*%
D12*
%TO.P,R21,1*%
%TO.N,/IMU_INT*%
X123020000Y-64525000D03*
%TO.P,R21,2*%
%TO.N,+1V8*%
X122380000Y-64525000D03*
%TD*%
D15*
%TO.P,R6,1*%
%TO.N,GND*%
X108590000Y-62840000D03*
%TO.P,R6,2*%
%TO.N,Net-(J1-CC2)*%
X108590000Y-62200000D03*
%TD*%
%TO.P,R8,1*%
%TO.N,GND*%
X112799999Y-69035699D03*
%TO.P,R8,2*%
%TO.N,/FB1*%
X112799999Y-68395699D03*
%TD*%
D25*
%TO.P,QWIIC1,1,Pin_1*%
%TO.N,GND*%
X121390000Y-69570000D03*
%TO.P,QWIIC1,2,Pin_2*%
%TO.N,+3V3*%
X120390000Y-69570000D03*
%TO.P,QWIIC1,3,Pin_3*%
%TO.N,/SDA*%
X119390000Y-69570000D03*
%TO.P,QWIIC1,4,Pin_4*%
%TO.N,/SCL*%
X118390000Y-69570000D03*
D26*
%TO.P,QWIIC1,MP,MountPin*%
%TO.N,GND*%
X122690000Y-72095000D03*
X117090000Y-72095000D03*
%TD*%
D27*
%TO.P,L2,1,1*%
%TO.N,/LX3*%
X116709300Y-64190700D03*
%TO.P,L2,2,2*%
%TO.N,+1V8*%
X118284300Y-64190700D03*
%TD*%
D25*
%TO.P,TrillExtensionInput1,1,Pin_1*%
%TO.N,/IO39*%
X129210000Y-69570000D03*
%TO.P,TrillExtensionInput1,2,Pin_2*%
%TO.N,/IO40*%
X128210000Y-69570000D03*
%TO.P,TrillExtensionInput1,3,Pin_3*%
%TO.N,/IO41*%
X127210000Y-69570000D03*
%TO.P,TrillExtensionInput1,4,Pin_4*%
%TO.N,/IO42*%
X126210000Y-69570000D03*
D26*
%TO.P,TrillExtensionInput1,MP,MountPin*%
%TO.N,GND*%
X130510000Y-72095000D03*
X124910000Y-72095000D03*
%TD*%
D28*
%TO.P,C4,1*%
%TO.N,+3V3*%
X118284300Y-67150700D03*
%TO.P,C4,2*%
%TO.N,GND*%
X116734300Y-67150700D03*
%TD*%
D15*
%TO.P,R4,1*%
%TO.N,GND*%
X114199999Y-69035699D03*
%TO.P,R4,2*%
%TO.N,/ISET*%
X114199999Y-68395699D03*
%TD*%
D14*
%TO.P,C1,1*%
%TO.N,+BATT*%
X115360000Y-57800000D03*
%TO.P,C1,2*%
%TO.N,CSP*%
X115360000Y-58440000D03*
%TD*%
D29*
%TO.P,FSR1,1,Pin_1*%
%TO.N,+3V3*%
X131885000Y-50890000D03*
%TO.P,FSR1,2,Pin_2*%
%TO.N,/IO3*%
X131885000Y-49890000D03*
D30*
%TO.P,FSR1,MP,MountPin*%
%TO.N,GND*%
X129360000Y-52190000D03*
X129360000Y-48590000D03*
%TD*%
D31*
%TO.P,PWLED1,1,DOUT*%
%TO.N,unconnected-(PWLED1-DOUT-Pad1)*%
X128100000Y-55475000D03*
%TO.P,PWLED1,2,VSS*%
%TO.N,GND*%
X128100000Y-57225000D03*
%TO.P,PWLED1,3,DIN*%
%TO.N,Net-(PWLED1-DIN)*%
X131600000Y-57225000D03*
%TO.P,PWLED1,4,VDD*%
%TO.N,+3V3*%
X131600000Y-55475000D03*
%TD*%
D15*
%TO.P,C9,1*%
%TO.N,/EN*%
X149750000Y-50200000D03*
%TO.P,C9,2*%
%TO.N,GND*%
X149750000Y-49560000D03*
%TD*%
D29*
%TO.P,SW1,1,Pin_1*%
%TO.N,/IO9*%
X126650000Y-50900000D03*
%TO.P,SW1,2,Pin_2*%
%TO.N,GND*%
X126650000Y-49900000D03*
D30*
%TO.P,SW1,MP,MountPin*%
X124125000Y-52200000D03*
X124125000Y-48600000D03*
%TD*%
D14*
%TO.P,C13,1*%
%TO.N,+3V3*%
X132725000Y-55480000D03*
%TO.P,C13,2*%
%TO.N,GND*%
X132725000Y-56120000D03*
%TD*%
%TO.P,R9,1*%
%TO.N,/FB1*%
X113499999Y-68395699D03*
%TO.P,R9,2*%
%TO.N,+3V3*%
X113499999Y-69035699D03*
%TD*%
D15*
%TO.P,R5,1*%
%TO.N,/EN*%
X150480000Y-50210000D03*
%TO.P,R5,2*%
%TO.N,+3V3*%
X150480000Y-49570000D03*
%TD*%
D12*
%TO.P,C3,1*%
%TO.N,SYS*%
X110324999Y-69145699D03*
%TO.P,C3,2*%
%TO.N,GND*%
X109684999Y-69145699D03*
%TD*%
D15*
%TO.P,TH1,1*%
%TO.N,/AIN*%
X109460000Y-57100000D03*
%TO.P,TH1,2*%
%TO.N,-BATT*%
X109460000Y-56460000D03*
%TD*%
D14*
%TO.P,C14,1*%
%TO.N,/LS_EN*%
X126770000Y-56008750D03*
%TO.P,C14,2*%
%TO.N,GND*%
X126770000Y-56648750D03*
%TD*%
D32*
%TO.P,U1,1,COMP4*%
%TO.N,unconnected-(U1-COMP4-Pad1)*%
X110059299Y-64174999D03*
%TO.P,U1,2,FB4*%
%TO.N,GND*%
X110059299Y-64574998D03*
%TO.P,U1,3,OVP4*%
X110059299Y-64975000D03*
%TO.P,U1,4,PG4*%
X110059299Y-65374999D03*
%TO.P,U1,5,LX4*%
X110059299Y-65774998D03*
%TO.P,U1,6,GND*%
X110059299Y-66175000D03*
%TO.P,U1,7,EN4*%
X110059299Y-66574999D03*
D33*
%TO.P,U1,8,\u002ARST1*%
%TO.N,unconnected-(U1-\u002ARST1-Pad8)*%
X110799999Y-67315699D03*
%TO.P,U1,9,BAT*%
%TO.N,+BATT*%
X111199998Y-67315699D03*
%TO.P,U1,10,SYS*%
%TO.N,SYS*%
X111600000Y-67315699D03*
%TO.P,U1,11,DC*%
%TO.N,VUSB*%
X111999999Y-67315699D03*
%TO.P,U1,12,CEN*%
X112399998Y-67315699D03*
%TO.P,U1,13,FB1*%
%TO.N,/FB1*%
X112800000Y-67315699D03*
%TO.P,U1,14,CISET*%
%TO.N,/ISET*%
X113199999Y-67315699D03*
D32*
%TO.P,U1,15,\u002ACHG*%
%TO.N,/STAT*%
X113940699Y-66574999D03*
%TO.P,U1,16,PG1*%
%TO.N,GND*%
X113940699Y-66175000D03*
%TO.P,U1,17,LX1*%
%TO.N,/LX1*%
X113940699Y-65774998D03*
%TO.P,U1,18,PV13*%
%TO.N,SYS*%
X113940699Y-65374999D03*
%TO.P,U1,19,LX3*%
%TO.N,/LX3*%
X113940699Y-64975000D03*
%TO.P,U1,20,PG3*%
%TO.N,GND*%
X113940699Y-64574998D03*
%TO.P,U1,21,DLIM1*%
X113940699Y-64174999D03*
D33*
%TO.P,U1,22,FB2*%
X113199999Y-63434299D03*
%TO.P,U1,23,FB3*%
%TO.N,/FB3*%
X112800000Y-63434299D03*
%TO.P,U1,24,EN123*%
%TO.N,SYS*%
X112399998Y-63434299D03*
%TO.P,U1,25,PV2*%
%TO.N,GND*%
X111999999Y-63434299D03*
%TO.P,U1,26,LX2*%
X111600000Y-63434299D03*
%TO.P,U1,27,PG2*%
X111199998Y-63434299D03*
%TO.P,U1,28,DLIM2*%
X110799999Y-63434299D03*
D34*
%TO.P,U1,29,EP*%
X111999999Y-65374999D03*
%TD*%
D14*
%TO.P,C2,1*%
%TO.N,/REG*%
X114640000Y-57815000D03*
%TO.P,C2,2*%
%TO.N,CSP*%
X114640000Y-58455000D03*
%TD*%
D35*
%TO.P,U4,1,GND*%
%TO.N,GND*%
X119825000Y-56600000D03*
%TO.P,U4,2,VREF1*%
%TO.N,+1V8*%
X119825000Y-57250000D03*
%TO.P,U4,3,SCL1*%
%TO.N,/LV_SCL*%
X119825000Y-57900000D03*
%TO.P,U4,4,SDA1*%
%TO.N,/LV_SDA*%
X119825000Y-58550000D03*
%TO.P,U4,5,SDA2*%
%TO.N,/SDA*%
X124125000Y-58550000D03*
%TO.P,U4,6,SCL2*%
%TO.N,/SCL*%
X124125000Y-57900000D03*
%TO.P,U4,7,VREF2*%
%TO.N,+3V3*%
X124125000Y-57250000D03*
%TO.P,U4,8,EN*%
%TO.N,/LS_EN*%
X124125000Y-56600000D03*
%TD*%
D17*
%TO.P,SW3,1,1*%
%TO.N,/EN*%
X127650000Y-61300000D03*
X131800000Y-61300000D03*
%TO.P,SW3,2,2*%
%TO.N,GND*%
X127650000Y-63450000D03*
X131800000Y-63450000D03*
%TD*%
D28*
%TO.P,C5,1*%
%TO.N,+1V8*%
X118259300Y-62730700D03*
%TO.P,C5,2*%
%TO.N,GND*%
X116709300Y-62730700D03*
%TD*%
D36*
%TO.P,R2,1,1*%
%TO.N,-BATT*%
X113419900Y-60195000D03*
%TO.P,R2,2,2*%
%TO.N,CSP*%
X113419900Y-59145000D03*
%TO.P,R2,3,3*%
%TO.N,/FG_CSN*%
X111060100Y-59145000D03*
%TO.P,R2,4,4*%
%TO.N,GND*%
X111060100Y-60195000D03*
%TD*%
D15*
%TO.P,R12,1*%
%TO.N,/AIN*%
X108750000Y-57120000D03*
%TO.P,R12,2*%
%TO.N,/THRM*%
X108750000Y-56480000D03*
%TD*%
D37*
%TO.P,J1,A1,GND*%
%TO.N,GND*%
X106390000Y-57250000D03*
%TO.P,J1,A4,VBUS*%
%TO.N,VUSB*%
X106390000Y-58050000D03*
D38*
%TO.P,J1,A5,CC1*%
%TO.N,Net-(J1-CC1)*%
X106390000Y-59200000D03*
%TO.P,J1,A6,D+*%
%TO.N,/USBD+*%
X106390000Y-60200000D03*
%TO.P,J1,A7,D-*%
%TO.N,/USBD-*%
X106390000Y-60700000D03*
%TO.P,J1,A8,SBU1*%
%TO.N,unconnected-(J1-SBU1-PadA8)*%
X106390000Y-61700000D03*
D37*
%TO.P,J1,A9,VBUS*%
%TO.N,VUSB*%
X106390000Y-62850000D03*
%TO.P,J1,A12,GND*%
%TO.N,GND*%
X106390000Y-63650000D03*
%TO.P,J1,B1,GND*%
X106390000Y-63650000D03*
%TO.P,J1,B4,VBUS*%
%TO.N,VUSB*%
X106390000Y-62850000D03*
D38*
%TO.P,J1,B5,CC2*%
%TO.N,Net-(J1-CC2)*%
X106390000Y-62200000D03*
%TO.P,J1,B6,D+*%
%TO.N,/USBD+*%
X106390000Y-61200000D03*
%TO.P,J1,B7,D-*%
%TO.N,/USBD-*%
X106390000Y-59700000D03*
%TO.P,J1,B8,SBU2*%
%TO.N,unconnected-(J1-SBU2-PadB8)*%
X106390000Y-58700000D03*
D37*
%TO.P,J1,B9,VBUS*%
%TO.N,VUSB*%
X106390000Y-58050000D03*
%TO.P,J1,B12,GND*%
%TO.N,GND*%
X106390000Y-57250000D03*
D39*
%TO.P,J1,S1,SHIELD*%
X105815000Y-56130000D03*
D40*
X101635000Y-56130000D03*
D39*
X105815000Y-64770000D03*
D40*
X101635000Y-64770000D03*
%TD*%
D41*
%TO.P,Q3,1,G*%
%TO.N,+1V8*%
X126075000Y-64112500D03*
%TO.P,Q3,2,S*%
%TO.N,/IMU_INT*%
X124175000Y-64112500D03*
%TO.P,Q3,3,D*%
%TO.N,/IO21*%
X125125000Y-65987500D03*
%TD*%
D42*
%TO.P,BOARDLAYOUT1,1,3v3*%
%TO.N,+3V3*%
X134580000Y-49060000D03*
%TO.P,BOARDLAYOUT1,2,GND*%
%TO.N,GND*%
X137120000Y-49060000D03*
%TO.P,BOARDLAYOUT1,3,IO08*%
%TO.N,/IO8*%
X139660000Y-49060000D03*
%TO.P,BOARDLAYOUT1,4,IO07*%
%TO.N,/IO7*%
X142200000Y-49060000D03*
%TO.P,BOARDLAYOUT1,5,IO06*%
%TO.N,/IO6*%
X144740000Y-49060000D03*
%TO.P,BOARDLAYOUT1,6,EN*%
%TO.N,/EN*%
X147280000Y-49060000D03*
%TO.P,BOARDLAYOUT1,7,GND*%
%TO.N,GND*%
X152360000Y-71920000D03*
%TO.P,BOARDLAYOUT1,8,IO01*%
%TO.N,/IO1*%
X149820000Y-71920000D03*
%TO.P,BOARDLAYOUT1,9,IO02*%
%TO.N,/IO2*%
X147280000Y-71920000D03*
%TO.P,BOARDLAYOUT1,10,IO04*%
%TO.N,/IO4*%
X144740000Y-71920000D03*
%TO.P,BOARDLAYOUT1,11,IO05*%
%TO.N,/IO5*%
X142200000Y-71920000D03*
%TO.P,BOARDLAYOUT1,12,COPI*%
%TO.N,/COPI*%
X139660000Y-71920000D03*
%TO.P,BOARDLAYOUT1,13,SCK*%
%TO.N,/SCK*%
X137120000Y-71920000D03*
%TO.P,BOARDLAYOUT1,14,CIPO*%
%TO.N,/CIPO*%
X134580000Y-71920000D03*
%TO.P,BOARDLAYOUT1,15,GND*%
%TO.N,GND*%
X114260000Y-71920000D03*
%TO.P,BOARDLAYOUT1,16,3v3*%
%TO.N,+3V3*%
X111720000Y-71920000D03*
%TO.P,BOARDLAYOUT1,17,SDA*%
%TO.N,/SDA*%
X109180000Y-71920000D03*
%TO.P,BOARDLAYOUT1,18,SCL*%
%TO.N,/SCL*%
X106640000Y-71920000D03*
%TD*%
D14*
%TO.P,R20,1*%
%TO.N,/SDA*%
X134160000Y-59810000D03*
%TO.P,R20,2*%
%TO.N,+3V3*%
X134160000Y-60450000D03*
%TD*%
D12*
%TO.P,R10,1*%
%TO.N,GND*%
X114615000Y-62675000D03*
%TO.P,R10,2*%
%TO.N,/FB3*%
X113975000Y-62675000D03*
%TD*%
D14*
%TO.P,R7,1*%
%TO.N,GND*%
X108590000Y-58570000D03*
%TO.P,R7,2*%
%TO.N,Net-(J1-CC1)*%
X108590000Y-59210000D03*
%TD*%
D12*
%TO.P,C8,1*%
%TO.N,+BATT*%
X110329999Y-68435699D03*
%TO.P,C8,2*%
%TO.N,GND*%
X109689999Y-68435699D03*
%TD*%
D13*
%TO.P,R1,1*%
%TO.N,/IO3*%
X133590000Y-51010000D03*
%TO.P,R1,2*%
%TO.N,GND*%
X134230000Y-51010000D03*
%TD*%
D12*
%TO.P,R13,1*%
%TO.N,/IO46*%
X133395000Y-57225000D03*
%TO.P,R13,2*%
%TO.N,Net-(PWLED1-DIN)*%
X132755000Y-57225000D03*
%TD*%
D27*
%TO.P,L1,1,1*%
%TO.N,/LX1*%
X116721800Y-65680700D03*
%TO.P,L1,2,2*%
%TO.N,+3V3*%
X118296800Y-65680700D03*
%TD*%
D43*
%TO.N,+BATT*%
X117200000Y-49875000D03*
X110200000Y-53600000D03*
X113800000Y-55975000D03*
X115375000Y-57331700D03*
D44*
X109079300Y-67650700D03*
D43*
%TO.N,+1V8*%
X126075000Y-62975000D03*
X121825000Y-64525000D03*
X119225000Y-62750000D03*
X117675000Y-61625000D03*
X119329300Y-64190700D03*
X123875000Y-62575000D03*
X120978401Y-63750000D03*
X118728859Y-57250000D03*
%TO.N,+3V3*%
X134150000Y-61010000D03*
X152160000Y-50400000D03*
X119319300Y-67170700D03*
X150480000Y-48930000D03*
X119300000Y-65700000D03*
X126050000Y-57151250D03*
X120983646Y-68383646D03*
X132725000Y-54925000D03*
X123800000Y-67350000D03*
X113283630Y-69533269D03*
X134150000Y-57250000D03*
X131885000Y-51525000D03*
D44*
%TO.N,GND*%
X107310000Y-63710000D03*
X134750000Y-51000000D03*
X123749999Y-60524999D03*
X149540000Y-56790000D03*
X109133300Y-64274497D03*
X126820000Y-49050000D03*
X109133300Y-65350000D03*
X123790000Y-72095000D03*
X128140000Y-51880000D03*
X150375000Y-57575000D03*
X153450000Y-70325000D03*
X110750000Y-62675000D03*
X109100000Y-68750000D03*
X148078573Y-61430720D03*
X114615000Y-63210000D03*
X146580000Y-61375000D03*
X153430000Y-50530000D03*
X145850000Y-60590000D03*
X145800000Y-57600000D03*
X128140000Y-48610000D03*
X122670000Y-52320000D03*
X150350000Y-59075000D03*
X110199497Y-62675000D03*
X109133300Y-65900000D03*
X122050000Y-68470000D03*
X149580000Y-61375000D03*
X115805700Y-62730700D03*
X109975000Y-60150000D03*
X112369999Y-69365699D03*
X116740000Y-50930000D03*
X107670000Y-50920000D03*
X132162500Y-62762500D03*
X122175000Y-59300000D03*
X133300000Y-56528700D03*
X111819540Y-62656755D03*
X131490000Y-72060000D03*
X145800000Y-59090000D03*
X109200000Y-62850000D03*
X118750000Y-56528700D03*
X126800000Y-57198750D03*
X107362105Y-57250000D03*
X122178399Y-63746601D03*
X109133300Y-66435221D03*
X116549300Y-68020700D03*
X148080000Y-56800000D03*
X109133300Y-64825000D03*
X111269094Y-62648836D03*
X122910000Y-48650000D03*
X150375000Y-60550000D03*
X127250000Y-57875000D03*
X116125000Y-72125000D03*
X114027256Y-69500475D03*
X146575000Y-56825000D03*
X149750000Y-48925000D03*
X110050000Y-67100000D03*
%TO.N,/EN*%
X132450000Y-60750000D03*
X150450000Y-52925000D03*
D43*
%TO.N,VUSB*%
X111309999Y-69495699D03*
X107250000Y-58075000D03*
X107375000Y-62850000D03*
D44*
%TO.N,/SCL*%
X125640000Y-57890000D03*
X132625000Y-58550000D03*
X109550000Y-57975000D03*
X127325000Y-60375000D03*
X117607931Y-70065500D03*
%TO.N,/SDA*%
X118925000Y-70575000D03*
X125425000Y-58750000D03*
X109550000Y-58925000D03*
X132745650Y-59805650D03*
%TO.N,/THRM*%
X114423699Y-56498699D03*
X107950000Y-56100000D03*
%TO.N,/IO4*%
X149570000Y-54260000D03*
%TO.N,/IO5*%
X148330000Y-54370000D03*
%TO.N,/IO9*%
X126650000Y-51675000D03*
X134575000Y-55611300D03*
%TO.N,/IO17*%
X141700000Y-52950000D03*
X115570000Y-56070000D03*
%TO.N,/IO3*%
X134635000Y-53465000D03*
X133600000Y-51450000D03*
%TO.N,/SCK*%
X136790000Y-66160000D03*
%TO.N,/CIPO*%
X134568159Y-66765050D03*
%TO.N,/IO39*%
X139700000Y-65700000D03*
X129250000Y-68425000D03*
%TO.N,/IO40*%
X128275000Y-68400000D03*
X139700000Y-65036503D03*
%TO.N,/IO41*%
X127340000Y-68300000D03*
X139700000Y-64400000D03*
%TO.N,/IO42*%
X139690000Y-63725000D03*
X126270000Y-68380000D03*
%TO.N,SYS*%
X115550000Y-65025000D03*
X114500000Y-67775000D03*
X112451373Y-62579797D03*
X111349999Y-68555699D03*
%TD*%
D45*
%TO.N,+BATT*%
X110329999Y-68380988D02*
X110329999Y-68435699D01*
D46*
X115360000Y-57346700D02*
X115360000Y-57800000D01*
D45*
X113800000Y-56210000D02*
X113460000Y-56550000D01*
X111199998Y-67315699D02*
X111199998Y-67878899D01*
X113800000Y-55975000D02*
X113800000Y-56210000D01*
X109079300Y-67650700D02*
X109599711Y-67650700D01*
X110643198Y-68435699D02*
X110329999Y-68435699D01*
X109599711Y-67650700D02*
X110329999Y-68380988D01*
D46*
X111220000Y-52830000D02*
X110970000Y-52830000D01*
D45*
X111199998Y-67878899D02*
X110643198Y-68435699D01*
D46*
X117275000Y-49800000D02*
X117200000Y-49875000D01*
X115375000Y-57331700D02*
X115360000Y-57346700D01*
X110970000Y-52830000D02*
X110200000Y-53600000D01*
X118710000Y-49800000D02*
X117275000Y-49800000D01*
D47*
%TO.N,-BATT*%
X111850000Y-55950000D02*
X113220000Y-54580000D01*
X109460000Y-56460000D02*
X110193947Y-56460000D01*
X119675000Y-52225000D02*
X119070000Y-52830000D01*
X114705000Y-60195000D02*
X116450000Y-58450000D01*
X116450000Y-55450000D02*
X119675000Y-52225000D01*
X116450000Y-58450000D02*
X116450000Y-55450000D01*
X119675000Y-52225000D02*
X121250000Y-50650000D01*
X110193947Y-56460000D02*
X110703947Y-55950000D01*
D48*
X121250000Y-50650000D02*
X121250000Y-49800000D01*
D47*
X113220000Y-54580000D02*
X113220000Y-52830000D01*
X113419900Y-60195000D02*
X114705000Y-60195000D01*
X110703947Y-55950000D02*
X111850000Y-55950000D01*
X119070000Y-52830000D02*
X113220000Y-52830000D01*
D45*
%TO.N,CSP*%
X113460000Y-58150002D02*
X113460000Y-59104900D01*
X114365000Y-58455000D02*
X114640000Y-58455000D01*
X113460000Y-59104900D02*
X113419900Y-59145000D01*
X115345000Y-58455000D02*
X115360000Y-58440000D01*
X113460000Y-58150002D02*
X114060002Y-58150002D01*
X113460000Y-58150002D02*
X113068601Y-58150002D01*
X113068601Y-58150002D02*
X112268600Y-57350001D01*
X114060002Y-58150002D02*
X114365000Y-58455000D01*
X114640000Y-58455000D02*
X115345000Y-58455000D01*
D46*
%TO.N,+1V8*%
X114639100Y-61950900D02*
X117349100Y-61950900D01*
X119329300Y-64190700D02*
X118284300Y-64190700D01*
D45*
X123100000Y-62525001D02*
X123825001Y-62525001D01*
X120978401Y-63750000D02*
X120978401Y-63046600D01*
D46*
X117349100Y-61950900D02*
X117675000Y-61625000D01*
D45*
X121825000Y-64525000D02*
X122380000Y-64525000D01*
D46*
X118728859Y-57250000D02*
X119825000Y-57250000D01*
D45*
X123825001Y-62525001D02*
X123875000Y-62575000D01*
D46*
X126075000Y-62975000D02*
X126075000Y-64112500D01*
X114615000Y-61975000D02*
X114639100Y-61950900D01*
X118259300Y-62730700D02*
X119205700Y-62730700D01*
X119205700Y-62730700D02*
X119225000Y-62750000D01*
%TO.N,+3V3*%
X125100000Y-57275000D02*
X125726250Y-56648750D01*
X123800000Y-67350000D02*
X124485000Y-67350000D01*
X134150000Y-60460000D02*
X134160000Y-60450000D01*
D45*
X119319300Y-67170700D02*
X119299300Y-67150700D01*
D46*
X113499999Y-69316900D02*
X113499999Y-69035699D01*
X113283630Y-69533269D02*
X113499999Y-69316900D01*
D45*
X119300000Y-65700000D02*
X119280700Y-65680700D01*
D46*
X134150000Y-57250000D02*
X134150000Y-57890000D01*
X152160000Y-50400000D02*
X152160000Y-51700000D01*
X124525000Y-57275000D02*
X125100000Y-57275000D01*
X131605000Y-55480000D02*
X131600000Y-55475000D01*
X134150000Y-57890000D02*
X134160000Y-57900000D01*
X126050000Y-57151250D02*
X126050000Y-56648750D01*
X120390000Y-68977292D02*
X120983646Y-68383646D01*
X132725000Y-55480000D02*
X131605000Y-55480000D01*
D45*
X119299300Y-67150700D02*
X118284300Y-67150700D01*
D46*
X134150000Y-61010000D02*
X134150000Y-60460000D01*
D45*
X119280700Y-65680700D02*
X118296800Y-65680700D01*
D46*
X131885000Y-51525000D02*
X131885000Y-50890000D01*
X120390000Y-69570000D02*
X120390000Y-68977292D01*
X150480000Y-48930000D02*
X150480000Y-49570000D01*
X132725000Y-54925000D02*
X132725000Y-55480000D01*
X125726250Y-56648750D02*
X126050000Y-56648750D01*
D47*
%TO.N,GND*%
X150335000Y-60590000D02*
X150375000Y-60550000D01*
X146580000Y-57590000D02*
X145810000Y-57590000D01*
D45*
X110799999Y-63275502D02*
X110799999Y-63434299D01*
D47*
X116390000Y-50580000D02*
X116740000Y-50930000D01*
D45*
X109694999Y-68440699D02*
X109689999Y-68435699D01*
D47*
X128140000Y-48610000D02*
X128160000Y-48590000D01*
X129360000Y-52190000D02*
X128450000Y-52190000D01*
D45*
X111992173Y-62829388D02*
X111992173Y-63426473D01*
X110050000Y-66584298D02*
X110059299Y-66574999D01*
X108590000Y-58570000D02*
X108590000Y-58477895D01*
X111600000Y-63434299D02*
X111600000Y-64975000D01*
X111819540Y-62656755D02*
X111992173Y-62829388D01*
X111199998Y-66175000D02*
X110059299Y-66175000D01*
X109158299Y-65374999D02*
X110059299Y-65374999D01*
X107362105Y-57250000D02*
X106390000Y-57250000D01*
D47*
X127650000Y-65050000D02*
X127650000Y-63450000D01*
X149580000Y-61375000D02*
X149580000Y-60590000D01*
X122790000Y-52200000D02*
X122670000Y-52320000D01*
D45*
X111600000Y-64975000D02*
X111999999Y-65374999D01*
X113940699Y-66175000D02*
X112800000Y-66175000D01*
D47*
X146575000Y-56825000D02*
X146575000Y-57585000D01*
X150375000Y-57575000D02*
X150360000Y-57590000D01*
X149580000Y-57590000D02*
X149580000Y-56830000D01*
X150350000Y-59075000D02*
X150335000Y-59090000D01*
X131775000Y-65025000D02*
X131800000Y-65050000D01*
X110020000Y-60195000D02*
X111060100Y-60195000D01*
D45*
X111199998Y-63124998D02*
X111199998Y-63434299D01*
D47*
X114615000Y-63210000D02*
X114615000Y-62675000D01*
X108820000Y-50580000D02*
X108010000Y-50580000D01*
X146580000Y-57590000D02*
X146580000Y-60590000D01*
D45*
X110059299Y-65374999D02*
X111999999Y-65374999D01*
D47*
X153450000Y-70325000D02*
X153430000Y-70305000D01*
X150335000Y-59090000D02*
X149580000Y-59090000D01*
X146580000Y-59090000D02*
X149580000Y-59090000D01*
D45*
X109133300Y-65350000D02*
X109158299Y-65374999D01*
X110799999Y-63434299D02*
X110799999Y-64174999D01*
X109258302Y-65774998D02*
X110059299Y-65774998D01*
X116734300Y-67835700D02*
X116549300Y-68020700D01*
X110050000Y-67100000D02*
X110050000Y-66584298D01*
D47*
X108590000Y-62840000D02*
X109190000Y-62840000D01*
X121390000Y-69130000D02*
X122050000Y-68470000D01*
X127650000Y-63450000D02*
X131800000Y-63450000D01*
D45*
X112800000Y-64574998D02*
X111999999Y-65374999D01*
D47*
X122910000Y-48650000D02*
X122960000Y-48600000D01*
X131455000Y-72095000D02*
X131490000Y-72060000D01*
X114199999Y-69327732D02*
X114199999Y-69035699D01*
D45*
X111600000Y-65774998D02*
X111999999Y-65374999D01*
D47*
X118750000Y-56528700D02*
X118750000Y-56601025D01*
D45*
X110799999Y-64174999D02*
X111999999Y-65374999D01*
D47*
X124910000Y-72095000D02*
X123790000Y-72095000D01*
X145810000Y-57590000D02*
X145800000Y-57600000D01*
D45*
X110799999Y-66574999D02*
X111999999Y-65374999D01*
X110059299Y-66574999D02*
X110799999Y-66574999D01*
D47*
X149580000Y-59090000D02*
X149580000Y-60590000D01*
X146580000Y-57590000D02*
X149580000Y-57590000D01*
D45*
X108590000Y-58477895D02*
X107362105Y-57250000D01*
X111199998Y-64574998D02*
X111999999Y-65374999D01*
D47*
X130510000Y-72095000D02*
X131455000Y-72095000D01*
X134750000Y-51000000D02*
X134240000Y-51000000D01*
D45*
X110199497Y-62675000D02*
X110799999Y-63275502D01*
D47*
X114027256Y-69500475D02*
X114199999Y-69327732D01*
X122690000Y-72095000D02*
X123790000Y-72095000D01*
X148078573Y-61430720D02*
X148080000Y-61429293D01*
X109190000Y-62840000D02*
X109200000Y-62850000D01*
X145850000Y-60590000D02*
X146580000Y-60590000D01*
X149580000Y-60590000D02*
X150335000Y-60590000D01*
X146575000Y-57585000D02*
X146580000Y-57590000D01*
X133300000Y-56528700D02*
X133133700Y-56528700D01*
D45*
X111199998Y-63434299D02*
X111199998Y-64574998D01*
D47*
X122960000Y-48600000D02*
X124125000Y-48600000D01*
D45*
X123100000Y-60524999D02*
X123749999Y-60524999D01*
X113199999Y-64174999D02*
X111999999Y-65374999D01*
D47*
X127675000Y-65025000D02*
X131775000Y-65025000D01*
X106390000Y-63650000D02*
X107250000Y-63650000D01*
D45*
X110059299Y-64975000D02*
X111600000Y-64975000D01*
X109433801Y-64574998D02*
X110059299Y-64574998D01*
X110750000Y-62675000D02*
X111199998Y-63124998D01*
X112699999Y-69035699D02*
X112369999Y-69365699D01*
X122178399Y-59303399D02*
X122175000Y-59300000D01*
D47*
X128160000Y-48590000D02*
X129360000Y-48590000D01*
X146580000Y-60590000D02*
X149580000Y-60590000D01*
X148080000Y-56800000D02*
X148080000Y-57590000D01*
X108010000Y-50580000D02*
X107670000Y-50920000D01*
D45*
X110059299Y-65774998D02*
X111600000Y-65774998D01*
X111600000Y-62979742D02*
X111600000Y-63434299D01*
X109479300Y-68370700D02*
X109694300Y-68370700D01*
D47*
X127450000Y-57875000D02*
X128100000Y-57225000D01*
X109975000Y-60150000D02*
X110020000Y-60195000D01*
X134240000Y-51000000D02*
X134230000Y-51010000D01*
X116155000Y-72095000D02*
X117090000Y-72095000D01*
X150360000Y-57590000D02*
X149580000Y-57590000D01*
X118821300Y-56600000D02*
X119825000Y-56600000D01*
D45*
X116734300Y-67150700D02*
X116734300Y-67835700D01*
D47*
X126650000Y-49220000D02*
X126820000Y-49050000D01*
X115620000Y-50580000D02*
X116390000Y-50580000D01*
X133133700Y-56528700D02*
X132725000Y-56120000D01*
X149580000Y-56830000D02*
X149540000Y-56790000D01*
D45*
X122178399Y-60003400D02*
X122178399Y-59303399D01*
D47*
X153430000Y-70305000D02*
X153430000Y-69200000D01*
X148080000Y-61429293D02*
X148080000Y-60590000D01*
D45*
X113940699Y-64574998D02*
X112800000Y-64574998D01*
X109694999Y-69145699D02*
X109694999Y-68440699D01*
X122178399Y-63746601D02*
X122178399Y-63046600D01*
X109393521Y-66175000D02*
X110059299Y-66175000D01*
X111999999Y-63434299D02*
X111999999Y-65374999D01*
D47*
X131800000Y-63125000D02*
X131800000Y-63450000D01*
X121390000Y-69570000D02*
X121390000Y-69130000D01*
D45*
X109133300Y-64825000D02*
X109283300Y-64975000D01*
X109133300Y-66435221D02*
X109393521Y-66175000D01*
D47*
X149750000Y-48925000D02*
X149750000Y-49560000D01*
X107250000Y-63650000D02*
X107310000Y-63710000D01*
X149580000Y-59090000D02*
X149580000Y-57590000D01*
X131800000Y-63450000D02*
X131800000Y-65050000D01*
D45*
X110059299Y-64574998D02*
X111199998Y-64574998D01*
X111999999Y-65374999D02*
X111199998Y-66175000D01*
X111992173Y-63426473D02*
X111999999Y-63434299D01*
D47*
X118750000Y-56528700D02*
X118821300Y-56600000D01*
D45*
X113940699Y-64174999D02*
X113199999Y-64174999D01*
D47*
X127650000Y-65050000D02*
X127675000Y-65025000D01*
X124125000Y-52200000D02*
X122790000Y-52200000D01*
X126650000Y-49900000D02*
X126650000Y-49220000D01*
D45*
X113199999Y-63434299D02*
X113199999Y-64174999D01*
X111269094Y-62648836D02*
X111600000Y-62979742D01*
D47*
X132162500Y-62762500D02*
X131800000Y-63125000D01*
X128450000Y-52190000D02*
X128140000Y-51880000D01*
D45*
X109133300Y-65900000D02*
X109258302Y-65774998D01*
D47*
X148080000Y-57590000D02*
X148080000Y-60590000D01*
D45*
X109679999Y-68425699D02*
X109689999Y-68435699D01*
X109133300Y-64274497D02*
X109433801Y-64574998D01*
D47*
X153430000Y-50530000D02*
X153430000Y-51700000D01*
X116125000Y-72125000D02*
X116155000Y-72095000D01*
D45*
X112800000Y-66175000D02*
X111999999Y-65374999D01*
X112799999Y-69035699D02*
X112699999Y-69035699D01*
D47*
X146580000Y-61375000D02*
X146580000Y-60590000D01*
D45*
X126800000Y-57198750D02*
X126800000Y-56758750D01*
D47*
X127250000Y-57875000D02*
X127450000Y-57875000D01*
X145800000Y-59090000D02*
X146580000Y-59090000D01*
D45*
X115805700Y-62730700D02*
X116709300Y-62730700D01*
X109100000Y-68750000D02*
X109479300Y-68370700D01*
X109283300Y-64975000D02*
X110059299Y-64975000D01*
%TO.N,/EN*%
X149750000Y-50200000D02*
X148960000Y-50200000D01*
X131800000Y-61300000D02*
X127650000Y-61300000D01*
X148960000Y-50200000D02*
X148090000Y-49330000D01*
X150890000Y-52485000D02*
X150890000Y-51700000D01*
X150480000Y-50210000D02*
X149760000Y-50210000D01*
X150890000Y-51700000D02*
X150890000Y-50620000D01*
X149760000Y-50210000D02*
X149750000Y-50200000D01*
X131900000Y-61300000D02*
X131800000Y-61300000D01*
X150450000Y-52925000D02*
X150890000Y-52485000D01*
X150890000Y-50620000D02*
X150480000Y-50210000D01*
X132450000Y-60750000D02*
X131900000Y-61300000D01*
%TO.N,VUSB*%
X112399998Y-67315699D02*
X111999999Y-67315699D01*
X111309999Y-69495699D02*
X111999999Y-68805699D01*
X111999999Y-68805699D02*
X111999999Y-67315699D01*
D46*
X106390000Y-58050000D02*
X107300000Y-58050000D01*
X106390000Y-62850000D02*
X107375000Y-62850000D01*
D45*
%TO.N,/IO2*%
X148674800Y-70155200D02*
X147280000Y-71550000D01*
X150890000Y-69540400D02*
X150275200Y-70155200D01*
X150890000Y-69200000D02*
X150890000Y-69540400D01*
X150275200Y-70155200D02*
X148674800Y-70155200D01*
D47*
%TO.N,/SCL*%
X127325000Y-60375000D02*
X129150000Y-58550000D01*
X118103431Y-69570000D02*
X117607931Y-70065500D01*
D45*
X110133600Y-57391400D02*
X111035801Y-57391400D01*
D47*
X125640000Y-57890000D02*
X125605000Y-57925000D01*
X135670000Y-58545000D02*
X134165000Y-58545000D01*
X134165000Y-58545000D02*
X134160000Y-58540000D01*
X118390000Y-69570000D02*
X118103431Y-69570000D01*
X125605000Y-57925000D02*
X124525000Y-57925000D01*
D45*
X109550000Y-57975000D02*
X110133600Y-57391400D01*
X111035801Y-57391400D02*
X111077200Y-57350001D01*
D47*
X129150000Y-58550000D02*
X132625000Y-58550000D01*
X132625000Y-58550000D02*
X132635000Y-58540000D01*
X132635000Y-58540000D02*
X134160000Y-58540000D01*
%TO.N,/SDA*%
X134165000Y-59815000D02*
X134160000Y-59810000D01*
D45*
X110611603Y-57750000D02*
X111077200Y-57750000D01*
X109550000Y-58811603D02*
X110611603Y-57750000D01*
D47*
X132745650Y-59805650D02*
X132750000Y-59810000D01*
D45*
X109550000Y-58925000D02*
X109550000Y-58811603D01*
D47*
X119390000Y-70110000D02*
X118925000Y-70575000D01*
X125250000Y-58575000D02*
X124525000Y-58575000D01*
X132750000Y-59810000D02*
X134160000Y-59810000D01*
X119390000Y-69570000D02*
X119390000Y-70110000D01*
X135670000Y-59815000D02*
X134165000Y-59815000D01*
X125425000Y-58750000D02*
X125250000Y-58575000D01*
D45*
%TO.N,/FG_CSN*%
X111060100Y-58167102D02*
X111077200Y-58150002D01*
X111060100Y-59145000D02*
X111060100Y-58167102D01*
%TO.N,/THRM*%
X113972397Y-56950002D02*
X113460000Y-56950002D01*
X114423699Y-56498699D02*
X113972397Y-56950002D01*
X107950000Y-56100000D02*
X108330000Y-56480000D01*
X108330000Y-56480000D02*
X108750000Y-56480000D01*
%TO.N,/IO4*%
X149620000Y-54210000D02*
X149570000Y-54260000D01*
X149620000Y-51700000D02*
X149620000Y-54210000D01*
%TO.N,/IMU_INT*%
X123020000Y-63920000D02*
X123020000Y-64525000D01*
X124175000Y-64112500D02*
X123109100Y-63046600D01*
X122578401Y-63478401D02*
X123020000Y-63920000D01*
X122578401Y-63046600D02*
X122578401Y-63478401D01*
X123109100Y-63046600D02*
X122578401Y-63046600D01*
%TO.N,Net-(J1-CC1)*%
X108580000Y-59200000D02*
X108590000Y-59210000D01*
X106390000Y-59200000D02*
X108580000Y-59200000D01*
%TO.N,Net-(J1-CC2)*%
X106390000Y-62200000D02*
X108590000Y-62200000D01*
%TO.N,/IO21*%
X125125000Y-65987500D02*
X125125000Y-67350000D01*
X135670000Y-63625000D02*
X135370000Y-63625000D01*
X135370000Y-63625000D02*
X133007500Y-65987500D01*
X133007500Y-65987500D02*
X125125000Y-65987500D01*
%TO.N,/IO0*%
X133175000Y-69200000D02*
X131800000Y-67825000D01*
X127650000Y-67200000D02*
X131800000Y-67200000D01*
X131800000Y-67825000D02*
X131800000Y-67200000D01*
X136920000Y-69200000D02*
X133175000Y-69200000D01*
%TO.N,/ISET*%
X114199999Y-68315699D02*
X113199999Y-67315699D01*
X114199999Y-68395699D02*
X114199999Y-68315699D01*
%TO.N,/LS_EN*%
X126050000Y-56008750D02*
X126770000Y-56008750D01*
X124525000Y-56625000D02*
X125141250Y-56008750D01*
X125141250Y-56008750D02*
X126050000Y-56008750D01*
%TO.N,/IO5*%
X148350000Y-54350000D02*
X148350000Y-51700000D01*
X148330000Y-54370000D02*
X148350000Y-54350000D01*
%TO.N,/IO6*%
X147080000Y-51700000D02*
X147080000Y-51400000D01*
X147080000Y-51400000D02*
X144740000Y-49060000D01*
%TO.N,/IO7*%
X143240000Y-50100000D02*
X142200000Y-49060000D01*
X145810000Y-51700000D02*
X145810000Y-51359600D01*
X144550400Y-50100000D02*
X143240000Y-50100000D01*
X145810000Y-51359600D02*
X144550400Y-50100000D01*
%TO.N,/IO8*%
X139460000Y-49260000D02*
X139660000Y-49060000D01*
X139460000Y-51700000D02*
X139460000Y-49260000D01*
%TO.N,/IO9*%
X126650000Y-51675000D02*
X126650000Y-50900000D01*
X135670000Y-56005000D02*
X134968700Y-56005000D01*
X134968700Y-56005000D02*
X134575000Y-55611300D01*
%TO.N,/IO17*%
X141700000Y-52950000D02*
X142000000Y-52650000D01*
X113460000Y-57350001D02*
X114289999Y-57350001D01*
X114289999Y-57350001D02*
X115570000Y-56070000D01*
X142000000Y-52650000D02*
X142000000Y-51700000D01*
%TO.N,/IO1*%
X150150400Y-71550000D02*
X152160000Y-69540400D01*
X149820000Y-71550000D02*
X150150400Y-71550000D01*
X152160000Y-69540400D02*
X152160000Y-69200000D01*
%TO.N,/FB1*%
X113499999Y-68395699D02*
X112799999Y-68395699D01*
X112800000Y-67315699D02*
X112799999Y-68395699D01*
D49*
%TO.N,/USBD-*%
X138190000Y-51015000D02*
X138190000Y-51700000D01*
X117500000Y-59906800D02*
X117500000Y-56131800D01*
X135935800Y-50721000D02*
X137896000Y-50721000D01*
X105450000Y-59957000D02*
X105707000Y-59700000D01*
X117500000Y-56131800D02*
X120006800Y-53625000D01*
X108975000Y-60950000D02*
X116456800Y-60950000D01*
X106390000Y-59700000D02*
X107725000Y-59700000D01*
X137896000Y-50721000D02*
X138190000Y-51015000D01*
X105450000Y-60535000D02*
X105450000Y-59957000D01*
X105707000Y-59700000D02*
X106390000Y-59700000D01*
X107725000Y-59700000D02*
X108975000Y-60950000D01*
X106390000Y-60700000D02*
X105615000Y-60700000D01*
X116456800Y-60950000D02*
X117500000Y-59906800D01*
X105615000Y-60700000D02*
X105450000Y-60535000D01*
X133031800Y-53625000D02*
X135935800Y-50721000D01*
X120006800Y-53625000D02*
X133031800Y-53625000D01*
%TO.N,/USBD+*%
X117950000Y-56318200D02*
X120193200Y-54075000D01*
X106390000Y-61200000D02*
X108300000Y-61200000D01*
X135593200Y-51700000D02*
X136920000Y-51700000D01*
X120193200Y-54075000D02*
X133218200Y-54075000D01*
X133218200Y-54075000D02*
X135593200Y-51700000D01*
X117950000Y-60093200D02*
X117950000Y-56318200D01*
X107300000Y-60200000D02*
X108500000Y-61400000D01*
X108300000Y-61200000D02*
X108500000Y-61400000D01*
X108500000Y-61400000D02*
X116643200Y-61400000D01*
X106390000Y-60200000D02*
X107300000Y-60200000D01*
X116643200Y-61400000D02*
X117950000Y-60093200D01*
D45*
%TO.N,/IO3*%
X131885000Y-49890000D02*
X132470000Y-49890000D01*
X133600000Y-51450000D02*
X133600000Y-51020000D01*
X132470000Y-49890000D02*
X133590000Y-51010000D01*
X133600000Y-51020000D02*
X133590000Y-51010000D01*
X134635000Y-53465000D02*
X135670000Y-53465000D01*
%TO.N,/IO46*%
X134790000Y-54735000D02*
X135670000Y-54735000D01*
X134000000Y-55525000D02*
X134790000Y-54735000D01*
X133395000Y-57225000D02*
X134000000Y-56620000D01*
X134000000Y-56620000D02*
X134000000Y-55525000D01*
%TO.N,Net-(CHARGLED1-K)*%
X115594999Y-69030699D02*
X115609300Y-69045000D01*
X114899999Y-69030699D02*
X115594999Y-69030699D01*
%TO.N,/STAT*%
X115599999Y-68395699D02*
X115609300Y-68405000D01*
X113940699Y-66574999D02*
X114274999Y-66574999D01*
X115599999Y-67899999D02*
X115599999Y-68395699D01*
X114274999Y-66574999D02*
X115599999Y-67899999D01*
%TO.N,/FB3*%
X113975000Y-62675000D02*
X113002900Y-62675000D01*
X112800000Y-62877900D02*
X112800000Y-63434299D01*
X113002900Y-62675000D02*
X112901450Y-62776450D01*
X112901450Y-62776450D02*
X112800000Y-62877900D01*
X113702900Y-61975000D02*
X113975000Y-61975000D01*
X112901450Y-62776450D02*
X113702900Y-61975000D01*
%TO.N,/REG*%
X113460000Y-57750000D02*
X114575000Y-57750000D01*
X114575000Y-57750000D02*
X114640000Y-57815000D01*
%TO.N,/SCK*%
X135675000Y-66160000D02*
X135670000Y-66165000D01*
X136790000Y-66160000D02*
X135675000Y-66160000D01*
%TO.N,/CIPO*%
X134568159Y-65656441D02*
X135329600Y-64895000D01*
X134568159Y-66765050D02*
X134568159Y-65656441D01*
X135329600Y-64895000D02*
X135670000Y-64895000D01*
%TO.N,/COPI*%
X139660000Y-71550000D02*
X139990400Y-71550000D01*
X142000000Y-69540400D02*
X142000000Y-69200000D01*
X139990400Y-71550000D02*
X142000000Y-69540400D01*
%TO.N,/IO39*%
X129210000Y-68465000D02*
X129250000Y-68425000D01*
X129210000Y-69570000D02*
X129210000Y-68465000D01*
X143270000Y-68660200D02*
X143270000Y-69200000D01*
X140309800Y-65700000D02*
X143270000Y-68660200D01*
X139700000Y-65700000D02*
X140309800Y-65700000D01*
%TO.N,/IO40*%
X144540000Y-68900000D02*
X144540000Y-69200000D01*
X128210000Y-68465000D02*
X128275000Y-68400000D01*
X140676503Y-65036503D02*
X144540000Y-68900000D01*
X139700000Y-65036503D02*
X140676503Y-65036503D01*
X128210000Y-69570000D02*
X128210000Y-68465000D01*
%TO.N,/IO41*%
X127210000Y-68430000D02*
X127340000Y-68300000D01*
X127210000Y-69570000D02*
X127210000Y-68430000D01*
X139700000Y-64400000D02*
X141310000Y-64400000D01*
X141310000Y-64400000D02*
X145810000Y-68900000D01*
X145810000Y-68900000D02*
X145810000Y-69200000D01*
%TO.N,/IO42*%
X126270000Y-69510000D02*
X126210000Y-69570000D01*
X147080000Y-68900000D02*
X147080000Y-69200000D01*
X139690000Y-63725000D02*
X141905000Y-63725000D01*
X126270000Y-68380000D02*
X126270000Y-69510000D01*
X141905000Y-63725000D02*
X147080000Y-68900000D01*
%TO.N,/LX1*%
X113940699Y-65774998D02*
X116250002Y-65774998D01*
X116250002Y-65774998D02*
X116344300Y-65680700D01*
X116344300Y-65680700D02*
X116721800Y-65680700D01*
%TO.N,/LX3*%
X114650000Y-64975000D02*
X115434300Y-64190700D01*
X113940699Y-64975000D02*
X114650000Y-64975000D01*
X115434300Y-64190700D02*
X116709300Y-64190700D01*
%TO.N,SYS*%
X110759999Y-69145699D02*
X110334999Y-69145699D01*
X115550000Y-65025000D02*
X115200001Y-65374999D01*
X111349999Y-68555699D02*
X110759999Y-69145699D01*
X112451373Y-62579797D02*
X112451373Y-62623627D01*
X111349999Y-68555699D02*
X111600000Y-68305698D01*
X112451373Y-62623627D02*
X112399998Y-62675002D01*
X111600000Y-68305698D02*
X111600000Y-67315699D01*
X112399998Y-62675002D02*
X112399998Y-63434299D01*
X114899999Y-68174999D02*
X114899999Y-68430699D01*
X115200001Y-65374999D02*
X113940699Y-65374999D01*
X114500000Y-67775000D02*
X114899999Y-68174999D01*
%TO.N,/AIN*%
X110632038Y-56950002D02*
X111077200Y-56950002D01*
X109470000Y-57110000D02*
X110472040Y-57110000D01*
X109460000Y-57100000D02*
X108770000Y-57100000D01*
X109460000Y-57100000D02*
X109470000Y-57110000D01*
X110472040Y-57110000D02*
X110632038Y-56950002D01*
X108770000Y-57100000D02*
X108750000Y-57120000D01*
%TO.N,Net-(PWLED1-DIN)*%
X132755000Y-57225000D02*
X131600000Y-57225000D01*
%TO.N,/LV_SDA*%
X120578399Y-59053399D02*
X120578399Y-60003400D01*
X120075000Y-58550000D02*
X120578399Y-59053399D01*
X119825000Y-58550000D02*
X120075000Y-58550000D01*
%TO.N,/LV_SCL*%
X120978401Y-60003400D02*
X120978401Y-58553401D01*
X120350000Y-57925000D02*
X120225000Y-57925000D01*
X120978401Y-58553401D02*
X120350000Y-57925000D01*
%TD*%
M02*
