%TF.GenerationSoftware,KiCad,Pcbnew,7.0.6*%
%TF.CreationDate,2023-10-17T01:06:07-04:00*%
%TF.ProjectId,tstick-5gw-pro-USB-V2-pcb,74737469-636b-42d3-9567-772d70726f2d,v0.0.2*%
%TF.SameCoordinates,Original*%
%TF.FileFunction,Legend,Top*%
%TF.FilePolarity,Positive*%
%FSLAX46Y46*%
G04 Gerber Fmt 4.6, Leading zero omitted, Abs format (unit mm)*
G04 Created by KiCad (PCBNEW 7.0.6) date 2023-10-17 01:06:07*
%MOMM*%
%LPD*%
G01*
G04 APERTURE LIST*
G04 Aperture macros list*
%AMRoundRect*
0 Rectangle with rounded corners*
0 $1 Rounding radius*
0 $2 $3 $4 $5 $6 $7 $8 $9 X,Y pos of 4 corners*
0 Add a 4 corners polygon primitive as box body*
4,1,4,$2,$3,$4,$5,$6,$7,$8,$9,$2,$3,0*
0 Add four circle primitives for the rounded corners*
1,1,$1+$1,$2,$3*
1,1,$1+$1,$4,$5*
1,1,$1+$1,$6,$7*
1,1,$1+$1,$8,$9*
0 Add four rect primitives between the rounded corners*
20,1,$1+$1,$2,$3,$4,$5,0*
20,1,$1+$1,$4,$5,$6,$7,0*
20,1,$1+$1,$6,$7,$8,$9,0*
20,1,$1+$1,$8,$9,$2,$3,0*%
G04 Aperture macros list end*
%ADD10C,0.200000*%
%ADD11C,0.250000*%
%ADD12C,0.150000*%
%ADD13C,0.120000*%
%ADD14C,0.100000*%
%ADD15C,0.152400*%
%ADD16C,0.127000*%
%ADD17RoundRect,0.300800X-0.250000X-2.500000X0.250000X-2.500000X0.250000X2.500000X-0.250000X2.500000X0*%
%ADD18RoundRect,0.300800X-0.550000X-1.250000X0.550000X-1.250000X0.550000X1.250000X-0.550000X1.250000X0*%
%ADD19RoundRect,0.150800X0.130000X0.100000X-0.130000X0.100000X-0.130000X-0.100000X0.130000X-0.100000X0*%
%ADD20RoundRect,0.150800X-0.130000X-0.100000X0.130000X-0.100000X0.130000X0.100000X-0.130000X0.100000X0*%
%ADD21RoundRect,0.150800X-0.100000X0.130000X-0.100000X-0.130000X0.100000X-0.130000X0.100000X0.130000X0*%
%ADD22RoundRect,0.150800X0.100000X-0.130000X0.100000X0.130000X-0.100000X0.130000X-0.100000X-0.130000X0*%
%ADD23O,2.101600X3.101600*%
%ADD24RoundRect,0.050800X0.525000X0.325000X-0.525000X0.325000X-0.525000X-0.325000X0.525000X-0.325000X0*%
%ADD25RoundRect,0.050800X-0.353199X-0.102000X0.353199X-0.102000X0.353199X0.102000X-0.353199X0.102000X0*%
%ADD26RoundRect,0.050800X-0.647700X-0.698500X0.647700X-0.698500X0.647700X0.698500X-0.647700X0.698500X0*%
%ADD27RoundRect,0.050800X0.327799X-0.102000X0.327799X0.102000X-0.327799X0.102000X-0.327799X-0.102000X0*%
%ADD28RoundRect,0.050800X-0.102000X-0.327799X0.102000X-0.327799X0.102000X0.327799X-0.102000X0.327799X0*%
%ADD29RoundRect,0.050800X-0.450000X0.750000X-0.450000X-0.750000X0.450000X-0.750000X0.450000X0.750000X0*%
%ADD30RoundRect,0.050800X-0.750000X-0.450000X0.750000X-0.450000X0.750000X0.450000X-0.750000X0.450000X0*%
%ADD31RoundRect,0.050800X0.450000X-0.750000X0.450000X0.750000X-0.450000X0.750000X-0.450000X-0.750000X0*%
%ADD32RoundRect,0.050800X0.500000X-0.500000X0.500000X0.500000X-0.500000X0.500000X-0.500000X-0.500000X0*%
%ADD33RoundRect,0.200800X0.150000X0.625000X-0.150000X0.625000X-0.150000X-0.625000X0.150000X-0.625000X0*%
%ADD34RoundRect,0.300800X0.350000X0.650000X-0.350000X0.650000X-0.350000X-0.650000X0.350000X-0.650000X0*%
%ADD35RoundRect,0.269550X-0.218750X-0.256250X0.218750X-0.256250X0.218750X0.256250X-0.218750X0.256250X0*%
%ADD36RoundRect,0.275800X0.225000X0.250000X-0.225000X0.250000X-0.225000X-0.250000X0.225000X-0.250000X0*%
%ADD37RoundRect,0.200800X0.625000X-0.150000X0.625000X0.150000X-0.625000X0.150000X-0.625000X-0.150000X0*%
%ADD38RoundRect,0.300800X0.650000X-0.350000X0.650000X0.350000X-0.650000X0.350000X-0.650000X-0.350000X0*%
%ADD39RoundRect,0.102000X0.500000X-0.425000X0.500000X0.425000X-0.500000X0.425000X-0.500000X-0.425000X0*%
%ADD40C,3.301600*%
%ADD41RoundRect,0.050800X0.403999X-0.102000X0.403999X0.102000X-0.403999X0.102000X-0.403999X-0.102000X0*%
%ADD42RoundRect,0.050800X-0.102000X-0.403999X0.102000X-0.403999X0.102000X0.403999X-0.102000X0.403999X0*%
%ADD43RoundRect,0.050800X-1.346200X-1.346200X1.346200X-1.346200X1.346200X1.346200X-1.346200X1.346200X0*%
%ADD44RoundRect,0.050800X-0.550000X-0.200000X0.550000X-0.200000X0.550000X0.200000X-0.550000X0.200000X0*%
%ADD45RoundRect,0.050800X-0.525000X-0.325000X0.525000X-0.325000X0.525000X0.325000X-0.525000X0.325000X0*%
%ADD46RoundRect,0.050800X0.671900X0.356000X-0.671900X0.356000X-0.671900X-0.356000X0.671900X-0.356000X0*%
%ADD47C,0.751600*%
%ADD48RoundRect,0.050800X-0.575000X0.300000X-0.575000X-0.300000X0.575000X-0.300000X0.575000X0.300000X0*%
%ADD49RoundRect,0.050800X-0.575000X0.150000X-0.575000X-0.150000X0.575000X-0.150000X0.575000X0.150000X0*%
%ADD50O,2.201600X1.101600*%
%ADD51O,1.901600X1.101600*%
%ADD52RoundRect,0.200800X-0.150000X0.587500X-0.150000X-0.587500X0.150000X-0.587500X0.150000X0.587500X0*%
%ADD53O,1.801600X1.801600*%
G04 APERTURE END LIST*
D10*
X130600000Y-68854790D02*
X130523810Y-68816695D01*
X130523810Y-68816695D02*
X130409524Y-68816695D01*
X130409524Y-68816695D02*
X130295238Y-68854790D01*
X130295238Y-68854790D02*
X130219048Y-68930980D01*
X130219048Y-68930980D02*
X130180953Y-69007171D01*
X130180953Y-69007171D02*
X130142857Y-69159552D01*
X130142857Y-69159552D02*
X130142857Y-69273838D01*
X130142857Y-69273838D02*
X130180953Y-69426219D01*
X130180953Y-69426219D02*
X130219048Y-69502409D01*
X130219048Y-69502409D02*
X130295238Y-69578600D01*
X130295238Y-69578600D02*
X130409524Y-69616695D01*
X130409524Y-69616695D02*
X130485715Y-69616695D01*
X130485715Y-69616695D02*
X130600000Y-69578600D01*
X130600000Y-69578600D02*
X130638096Y-69540504D01*
X130638096Y-69540504D02*
X130638096Y-69273838D01*
X130638096Y-69273838D02*
X130485715Y-69273838D01*
X130980953Y-69616695D02*
X130980953Y-68816695D01*
X130980953Y-68816695D02*
X131285715Y-68816695D01*
X131285715Y-68816695D02*
X131361905Y-68854790D01*
X131361905Y-68854790D02*
X131400000Y-68892885D01*
X131400000Y-68892885D02*
X131438096Y-68969076D01*
X131438096Y-68969076D02*
X131438096Y-69083361D01*
X131438096Y-69083361D02*
X131400000Y-69159552D01*
X131400000Y-69159552D02*
X131361905Y-69197647D01*
X131361905Y-69197647D02*
X131285715Y-69235742D01*
X131285715Y-69235742D02*
X130980953Y-69235742D01*
X131780953Y-69616695D02*
X131780953Y-68816695D01*
X132314286Y-68816695D02*
X132466667Y-68816695D01*
X132466667Y-68816695D02*
X132542857Y-68854790D01*
X132542857Y-68854790D02*
X132619048Y-68930980D01*
X132619048Y-68930980D02*
X132657143Y-69083361D01*
X132657143Y-69083361D02*
X132657143Y-69350028D01*
X132657143Y-69350028D02*
X132619048Y-69502409D01*
X132619048Y-69502409D02*
X132542857Y-69578600D01*
X132542857Y-69578600D02*
X132466667Y-69616695D01*
X132466667Y-69616695D02*
X132314286Y-69616695D01*
X132314286Y-69616695D02*
X132238095Y-69578600D01*
X132238095Y-69578600D02*
X132161905Y-69502409D01*
X132161905Y-69502409D02*
X132123809Y-69350028D01*
X132123809Y-69350028D02*
X132123809Y-69083361D01*
X132123809Y-69083361D02*
X132161905Y-68930980D01*
X132161905Y-68930980D02*
X132238095Y-68854790D01*
X132238095Y-68854790D02*
X132314286Y-68816695D01*
X132783304Y-61213095D02*
X133164257Y-60946428D01*
X132783304Y-60755952D02*
X133583304Y-60755952D01*
X133583304Y-60755952D02*
X133583304Y-61060714D01*
X133583304Y-61060714D02*
X133545209Y-61136904D01*
X133545209Y-61136904D02*
X133507114Y-61174999D01*
X133507114Y-61174999D02*
X133430923Y-61213095D01*
X133430923Y-61213095D02*
X133316638Y-61213095D01*
X133316638Y-61213095D02*
X133240447Y-61174999D01*
X133240447Y-61174999D02*
X133202352Y-61136904D01*
X133202352Y-61136904D02*
X133164257Y-61060714D01*
X133164257Y-61060714D02*
X133164257Y-60755952D01*
X133202352Y-61555952D02*
X133202352Y-61822618D01*
X132783304Y-61936904D02*
X132783304Y-61555952D01*
X132783304Y-61555952D02*
X133583304Y-61555952D01*
X133583304Y-61555952D02*
X133583304Y-61936904D01*
X132821400Y-62241666D02*
X132783304Y-62355952D01*
X132783304Y-62355952D02*
X132783304Y-62546428D01*
X132783304Y-62546428D02*
X132821400Y-62622619D01*
X132821400Y-62622619D02*
X132859495Y-62660714D01*
X132859495Y-62660714D02*
X132935685Y-62698809D01*
X132935685Y-62698809D02*
X133011876Y-62698809D01*
X133011876Y-62698809D02*
X133088066Y-62660714D01*
X133088066Y-62660714D02*
X133126161Y-62622619D01*
X133126161Y-62622619D02*
X133164257Y-62546428D01*
X133164257Y-62546428D02*
X133202352Y-62394047D01*
X133202352Y-62394047D02*
X133240447Y-62317857D01*
X133240447Y-62317857D02*
X133278542Y-62279762D01*
X133278542Y-62279762D02*
X133354733Y-62241666D01*
X133354733Y-62241666D02*
X133430923Y-62241666D01*
X133430923Y-62241666D02*
X133507114Y-62279762D01*
X133507114Y-62279762D02*
X133545209Y-62317857D01*
X133545209Y-62317857D02*
X133583304Y-62394047D01*
X133583304Y-62394047D02*
X133583304Y-62584524D01*
X133583304Y-62584524D02*
X133545209Y-62698809D01*
X133202352Y-63041667D02*
X133202352Y-63308333D01*
X132783304Y-63422619D02*
X132783304Y-63041667D01*
X132783304Y-63041667D02*
X133583304Y-63041667D01*
X133583304Y-63041667D02*
X133583304Y-63422619D01*
X133583304Y-63651191D02*
X133583304Y-64108334D01*
X132783304Y-63879762D02*
X133583304Y-63879762D01*
X116178006Y-54278695D02*
X115797054Y-54278695D01*
X115797054Y-54278695D02*
X115797054Y-53478695D01*
X116444673Y-54278695D02*
X116444673Y-53745361D01*
X116444673Y-53478695D02*
X116406577Y-53516790D01*
X116406577Y-53516790D02*
X116444673Y-53554885D01*
X116444673Y-53554885D02*
X116482768Y-53516790D01*
X116482768Y-53516790D02*
X116444673Y-53478695D01*
X116444673Y-53478695D02*
X116444673Y-53554885D01*
X116825625Y-53973933D02*
X117435149Y-53973933D01*
X117816101Y-54278695D02*
X117816101Y-53745361D01*
X117816101Y-53478695D02*
X117778005Y-53516790D01*
X117778005Y-53516790D02*
X117816101Y-53554885D01*
X117816101Y-53554885D02*
X117854196Y-53516790D01*
X117854196Y-53516790D02*
X117816101Y-53478695D01*
X117816101Y-53478695D02*
X117816101Y-53554885D01*
X118311338Y-54278695D02*
X118235148Y-54240600D01*
X118235148Y-54240600D02*
X118197053Y-54202504D01*
X118197053Y-54202504D02*
X118158957Y-54126314D01*
X118158957Y-54126314D02*
X118158957Y-53897742D01*
X118158957Y-53897742D02*
X118197053Y-53821552D01*
X118197053Y-53821552D02*
X118235148Y-53783457D01*
X118235148Y-53783457D02*
X118311338Y-53745361D01*
X118311338Y-53745361D02*
X118425624Y-53745361D01*
X118425624Y-53745361D02*
X118501815Y-53783457D01*
X118501815Y-53783457D02*
X118539910Y-53821552D01*
X118539910Y-53821552D02*
X118578005Y-53897742D01*
X118578005Y-53897742D02*
X118578005Y-54126314D01*
X118578005Y-54126314D02*
X118539910Y-54202504D01*
X118539910Y-54202504D02*
X118501815Y-54240600D01*
X118501815Y-54240600D02*
X118425624Y-54278695D01*
X118425624Y-54278695D02*
X118311338Y-54278695D01*
X118920863Y-53745361D02*
X118920863Y-54278695D01*
X118920863Y-53821552D02*
X118958958Y-53783457D01*
X118958958Y-53783457D02*
X119035148Y-53745361D01*
X119035148Y-53745361D02*
X119149434Y-53745361D01*
X119149434Y-53745361D02*
X119225625Y-53783457D01*
X119225625Y-53783457D02*
X119263720Y-53859647D01*
X119263720Y-53859647D02*
X119263720Y-54278695D01*
X120216101Y-53440600D02*
X119530387Y-54469171D01*
X120863720Y-54278695D02*
X120482768Y-54278695D01*
X120482768Y-54278695D02*
X120482768Y-53478695D01*
X121130387Y-54278695D02*
X121130387Y-53745361D01*
X121130387Y-53478695D02*
X121092291Y-53516790D01*
X121092291Y-53516790D02*
X121130387Y-53554885D01*
X121130387Y-53554885D02*
X121168482Y-53516790D01*
X121168482Y-53516790D02*
X121130387Y-53478695D01*
X121130387Y-53478695D02*
X121130387Y-53554885D01*
X121511339Y-54278695D02*
X121511339Y-53478695D01*
X121511339Y-53478695D02*
X121816101Y-53478695D01*
X121816101Y-53478695D02*
X121892291Y-53516790D01*
X121892291Y-53516790D02*
X121930386Y-53554885D01*
X121930386Y-53554885D02*
X121968482Y-53631076D01*
X121968482Y-53631076D02*
X121968482Y-53745361D01*
X121968482Y-53745361D02*
X121930386Y-53821552D01*
X121930386Y-53821552D02*
X121892291Y-53859647D01*
X121892291Y-53859647D02*
X121816101Y-53897742D01*
X121816101Y-53897742D02*
X121511339Y-53897742D01*
X122425624Y-54278695D02*
X122349434Y-54240600D01*
X122349434Y-54240600D02*
X122311339Y-54202504D01*
X122311339Y-54202504D02*
X122273243Y-54126314D01*
X122273243Y-54126314D02*
X122273243Y-53897742D01*
X122273243Y-53897742D02*
X122311339Y-53821552D01*
X122311339Y-53821552D02*
X122349434Y-53783457D01*
X122349434Y-53783457D02*
X122425624Y-53745361D01*
X122425624Y-53745361D02*
X122539910Y-53745361D01*
X122539910Y-53745361D02*
X122616101Y-53783457D01*
X122616101Y-53783457D02*
X122654196Y-53821552D01*
X122654196Y-53821552D02*
X122692291Y-53897742D01*
X122692291Y-53897742D02*
X122692291Y-54126314D01*
X122692291Y-54126314D02*
X122654196Y-54202504D01*
X122654196Y-54202504D02*
X122616101Y-54240600D01*
X122616101Y-54240600D02*
X122539910Y-54278695D01*
X122539910Y-54278695D02*
X122425624Y-54278695D01*
X116063720Y-55147647D02*
X116178006Y-55185742D01*
X116178006Y-55185742D02*
X116216101Y-55223838D01*
X116216101Y-55223838D02*
X116254197Y-55300028D01*
X116254197Y-55300028D02*
X116254197Y-55414314D01*
X116254197Y-55414314D02*
X116216101Y-55490504D01*
X116216101Y-55490504D02*
X116178006Y-55528600D01*
X116178006Y-55528600D02*
X116101816Y-55566695D01*
X116101816Y-55566695D02*
X115797054Y-55566695D01*
X115797054Y-55566695D02*
X115797054Y-54766695D01*
X115797054Y-54766695D02*
X116063720Y-54766695D01*
X116063720Y-54766695D02*
X116139911Y-54804790D01*
X116139911Y-54804790D02*
X116178006Y-54842885D01*
X116178006Y-54842885D02*
X116216101Y-54919076D01*
X116216101Y-54919076D02*
X116216101Y-54995266D01*
X116216101Y-54995266D02*
X116178006Y-55071457D01*
X116178006Y-55071457D02*
X116139911Y-55109552D01*
X116139911Y-55109552D02*
X116063720Y-55147647D01*
X116063720Y-55147647D02*
X115797054Y-55147647D01*
X116558958Y-55338123D02*
X116939911Y-55338123D01*
X116482768Y-55566695D02*
X116749435Y-54766695D01*
X116749435Y-54766695D02*
X117016101Y-55566695D01*
X117168482Y-54766695D02*
X117625625Y-54766695D01*
X117397053Y-55566695D02*
X117397053Y-54766695D01*
X124853333Y-53462647D02*
X124967619Y-53500742D01*
X124967619Y-53500742D02*
X125005714Y-53538838D01*
X125005714Y-53538838D02*
X125043810Y-53615028D01*
X125043810Y-53615028D02*
X125043810Y-53729314D01*
X125043810Y-53729314D02*
X125005714Y-53805504D01*
X125005714Y-53805504D02*
X124967619Y-53843600D01*
X124967619Y-53843600D02*
X124891429Y-53881695D01*
X124891429Y-53881695D02*
X124586667Y-53881695D01*
X124586667Y-53881695D02*
X124586667Y-53081695D01*
X124586667Y-53081695D02*
X124853333Y-53081695D01*
X124853333Y-53081695D02*
X124929524Y-53119790D01*
X124929524Y-53119790D02*
X124967619Y-53157885D01*
X124967619Y-53157885D02*
X125005714Y-53234076D01*
X125005714Y-53234076D02*
X125005714Y-53310266D01*
X125005714Y-53310266D02*
X124967619Y-53386457D01*
X124967619Y-53386457D02*
X124929524Y-53424552D01*
X124929524Y-53424552D02*
X124853333Y-53462647D01*
X124853333Y-53462647D02*
X124586667Y-53462647D01*
X125272381Y-53081695D02*
X125729524Y-53081695D01*
X125500952Y-53881695D02*
X125500952Y-53081695D01*
X125996191Y-53881695D02*
X125996191Y-53081695D01*
X125996191Y-53081695D02*
X126453334Y-53881695D01*
X126453334Y-53881695D02*
X126453334Y-53081695D01*
X133277352Y-65039285D02*
X133239257Y-65153571D01*
X133239257Y-65153571D02*
X133201161Y-65191666D01*
X133201161Y-65191666D02*
X133124971Y-65229762D01*
X133124971Y-65229762D02*
X133010685Y-65229762D01*
X133010685Y-65229762D02*
X132934495Y-65191666D01*
X132934495Y-65191666D02*
X132896400Y-65153571D01*
X132896400Y-65153571D02*
X132858304Y-65077381D01*
X132858304Y-65077381D02*
X132858304Y-64772619D01*
X132858304Y-64772619D02*
X133658304Y-64772619D01*
X133658304Y-64772619D02*
X133658304Y-65039285D01*
X133658304Y-65039285D02*
X133620209Y-65115476D01*
X133620209Y-65115476D02*
X133582114Y-65153571D01*
X133582114Y-65153571D02*
X133505923Y-65191666D01*
X133505923Y-65191666D02*
X133429733Y-65191666D01*
X133429733Y-65191666D02*
X133353542Y-65153571D01*
X133353542Y-65153571D02*
X133315447Y-65115476D01*
X133315447Y-65115476D02*
X133277352Y-65039285D01*
X133277352Y-65039285D02*
X133277352Y-64772619D01*
X133658304Y-65725000D02*
X133658304Y-65877381D01*
X133658304Y-65877381D02*
X133620209Y-65953571D01*
X133620209Y-65953571D02*
X133544019Y-66029762D01*
X133544019Y-66029762D02*
X133391638Y-66067857D01*
X133391638Y-66067857D02*
X133124971Y-66067857D01*
X133124971Y-66067857D02*
X132972590Y-66029762D01*
X132972590Y-66029762D02*
X132896400Y-65953571D01*
X132896400Y-65953571D02*
X132858304Y-65877381D01*
X132858304Y-65877381D02*
X132858304Y-65725000D01*
X132858304Y-65725000D02*
X132896400Y-65648809D01*
X132896400Y-65648809D02*
X132972590Y-65572619D01*
X132972590Y-65572619D02*
X133124971Y-65534523D01*
X133124971Y-65534523D02*
X133391638Y-65534523D01*
X133391638Y-65534523D02*
X133544019Y-65572619D01*
X133544019Y-65572619D02*
X133620209Y-65648809D01*
X133620209Y-65648809D02*
X133658304Y-65725000D01*
X133658304Y-66563095D02*
X133658304Y-66715476D01*
X133658304Y-66715476D02*
X133620209Y-66791666D01*
X133620209Y-66791666D02*
X133544019Y-66867857D01*
X133544019Y-66867857D02*
X133391638Y-66905952D01*
X133391638Y-66905952D02*
X133124971Y-66905952D01*
X133124971Y-66905952D02*
X132972590Y-66867857D01*
X132972590Y-66867857D02*
X132896400Y-66791666D01*
X132896400Y-66791666D02*
X132858304Y-66715476D01*
X132858304Y-66715476D02*
X132858304Y-66563095D01*
X132858304Y-66563095D02*
X132896400Y-66486904D01*
X132896400Y-66486904D02*
X132972590Y-66410714D01*
X132972590Y-66410714D02*
X133124971Y-66372618D01*
X133124971Y-66372618D02*
X133391638Y-66372618D01*
X133391638Y-66372618D02*
X133544019Y-66410714D01*
X133544019Y-66410714D02*
X133620209Y-66486904D01*
X133620209Y-66486904D02*
X133658304Y-66563095D01*
X133658304Y-67134523D02*
X133658304Y-67591666D01*
X132858304Y-67363094D02*
X133658304Y-67363094D01*
D11*
X118332568Y-52193666D02*
X119094473Y-52193666D01*
X118713520Y-52574619D02*
X118713520Y-51812714D01*
D10*
X132208720Y-52942647D02*
X131942054Y-52942647D01*
X131942054Y-53361695D02*
X131942054Y-52561695D01*
X131942054Y-52561695D02*
X132323006Y-52561695D01*
X132589672Y-53323600D02*
X132703958Y-53361695D01*
X132703958Y-53361695D02*
X132894434Y-53361695D01*
X132894434Y-53361695D02*
X132970625Y-53323600D01*
X132970625Y-53323600D02*
X133008720Y-53285504D01*
X133008720Y-53285504D02*
X133046815Y-53209314D01*
X133046815Y-53209314D02*
X133046815Y-53133123D01*
X133046815Y-53133123D02*
X133008720Y-53056933D01*
X133008720Y-53056933D02*
X132970625Y-53018838D01*
X132970625Y-53018838D02*
X132894434Y-52980742D01*
X132894434Y-52980742D02*
X132742053Y-52942647D01*
X132742053Y-52942647D02*
X132665863Y-52904552D01*
X132665863Y-52904552D02*
X132627768Y-52866457D01*
X132627768Y-52866457D02*
X132589672Y-52790266D01*
X132589672Y-52790266D02*
X132589672Y-52714076D01*
X132589672Y-52714076D02*
X132627768Y-52637885D01*
X132627768Y-52637885D02*
X132665863Y-52599790D01*
X132665863Y-52599790D02*
X132742053Y-52561695D01*
X132742053Y-52561695D02*
X132932530Y-52561695D01*
X132932530Y-52561695D02*
X133046815Y-52599790D01*
X133846816Y-53361695D02*
X133580149Y-52980742D01*
X133389673Y-53361695D02*
X133389673Y-52561695D01*
X133389673Y-52561695D02*
X133694435Y-52561695D01*
X133694435Y-52561695D02*
X133770625Y-52599790D01*
X133770625Y-52599790D02*
X133808720Y-52637885D01*
X133808720Y-52637885D02*
X133846816Y-52714076D01*
X133846816Y-52714076D02*
X133846816Y-52828361D01*
X133846816Y-52828361D02*
X133808720Y-52904552D01*
X133808720Y-52904552D02*
X133770625Y-52942647D01*
X133770625Y-52942647D02*
X133694435Y-52980742D01*
X133694435Y-52980742D02*
X133389673Y-52980742D01*
D11*
X114272568Y-54023666D02*
X115034473Y-54023666D01*
X109292568Y-54053666D02*
X110054473Y-54053666D01*
X109673520Y-54434619D02*
X109673520Y-53672714D01*
D10*
X110658304Y-70809523D02*
X110658304Y-71304761D01*
X110658304Y-71304761D02*
X110353542Y-71038095D01*
X110353542Y-71038095D02*
X110353542Y-71152380D01*
X110353542Y-71152380D02*
X110315447Y-71228571D01*
X110315447Y-71228571D02*
X110277352Y-71266666D01*
X110277352Y-71266666D02*
X110201161Y-71304761D01*
X110201161Y-71304761D02*
X110010685Y-71304761D01*
X110010685Y-71304761D02*
X109934495Y-71266666D01*
X109934495Y-71266666D02*
X109896400Y-71228571D01*
X109896400Y-71228571D02*
X109858304Y-71152380D01*
X109858304Y-71152380D02*
X109858304Y-70923809D01*
X109858304Y-70923809D02*
X109896400Y-70847618D01*
X109896400Y-70847618D02*
X109934495Y-70809523D01*
X110658304Y-71533333D02*
X109858304Y-71800000D01*
X109858304Y-71800000D02*
X110658304Y-72066666D01*
X110658304Y-72257142D02*
X110658304Y-72752380D01*
X110658304Y-72752380D02*
X110353542Y-72485714D01*
X110353542Y-72485714D02*
X110353542Y-72599999D01*
X110353542Y-72599999D02*
X110315447Y-72676190D01*
X110315447Y-72676190D02*
X110277352Y-72714285D01*
X110277352Y-72714285D02*
X110201161Y-72752380D01*
X110201161Y-72752380D02*
X110010685Y-72752380D01*
X110010685Y-72752380D02*
X109934495Y-72714285D01*
X109934495Y-72714285D02*
X109896400Y-72676190D01*
X109896400Y-72676190D02*
X109858304Y-72599999D01*
X109858304Y-72599999D02*
X109858304Y-72371428D01*
X109858304Y-72371428D02*
X109896400Y-72295237D01*
X109896400Y-72295237D02*
X109934495Y-72257142D01*
D11*
X120832568Y-52193666D02*
X121594473Y-52193666D01*
D10*
X113270209Y-71190476D02*
X113308304Y-71114286D01*
X113308304Y-71114286D02*
X113308304Y-71000000D01*
X113308304Y-71000000D02*
X113270209Y-70885714D01*
X113270209Y-70885714D02*
X113194019Y-70809524D01*
X113194019Y-70809524D02*
X113117828Y-70771429D01*
X113117828Y-70771429D02*
X112965447Y-70733333D01*
X112965447Y-70733333D02*
X112851161Y-70733333D01*
X112851161Y-70733333D02*
X112698780Y-70771429D01*
X112698780Y-70771429D02*
X112622590Y-70809524D01*
X112622590Y-70809524D02*
X112546400Y-70885714D01*
X112546400Y-70885714D02*
X112508304Y-71000000D01*
X112508304Y-71000000D02*
X112508304Y-71076191D01*
X112508304Y-71076191D02*
X112546400Y-71190476D01*
X112546400Y-71190476D02*
X112584495Y-71228572D01*
X112584495Y-71228572D02*
X112851161Y-71228572D01*
X112851161Y-71228572D02*
X112851161Y-71076191D01*
X112508304Y-71571429D02*
X113308304Y-71571429D01*
X113308304Y-71571429D02*
X112508304Y-72028572D01*
X112508304Y-72028572D02*
X113308304Y-72028572D01*
X112508304Y-72409524D02*
X113308304Y-72409524D01*
X113308304Y-72409524D02*
X113308304Y-72600000D01*
X113308304Y-72600000D02*
X113270209Y-72714286D01*
X113270209Y-72714286D02*
X113194019Y-72790476D01*
X113194019Y-72790476D02*
X113117828Y-72828571D01*
X113117828Y-72828571D02*
X112965447Y-72866667D01*
X112965447Y-72866667D02*
X112851161Y-72866667D01*
X112851161Y-72866667D02*
X112698780Y-72828571D01*
X112698780Y-72828571D02*
X112622590Y-72790476D01*
X112622590Y-72790476D02*
X112546400Y-72714286D01*
X112546400Y-72714286D02*
X112508304Y-72600000D01*
X112508304Y-72600000D02*
X112508304Y-72409524D01*
X122529048Y-69501695D02*
X122529048Y-68701695D01*
X122871904Y-68777885D02*
X122910000Y-68739790D01*
X122910000Y-68739790D02*
X122986190Y-68701695D01*
X122986190Y-68701695D02*
X123176666Y-68701695D01*
X123176666Y-68701695D02*
X123252857Y-68739790D01*
X123252857Y-68739790D02*
X123290952Y-68777885D01*
X123290952Y-68777885D02*
X123329047Y-68854076D01*
X123329047Y-68854076D02*
X123329047Y-68930266D01*
X123329047Y-68930266D02*
X123290952Y-69044552D01*
X123290952Y-69044552D02*
X122833809Y-69501695D01*
X122833809Y-69501695D02*
X123329047Y-69501695D01*
X124129048Y-69425504D02*
X124090952Y-69463600D01*
X124090952Y-69463600D02*
X123976667Y-69501695D01*
X123976667Y-69501695D02*
X123900476Y-69501695D01*
X123900476Y-69501695D02*
X123786190Y-69463600D01*
X123786190Y-69463600D02*
X123710000Y-69387409D01*
X123710000Y-69387409D02*
X123671905Y-69311219D01*
X123671905Y-69311219D02*
X123633809Y-69158838D01*
X123633809Y-69158838D02*
X123633809Y-69044552D01*
X123633809Y-69044552D02*
X123671905Y-68892171D01*
X123671905Y-68892171D02*
X123710000Y-68815980D01*
X123710000Y-68815980D02*
X123786190Y-68739790D01*
X123786190Y-68739790D02*
X123900476Y-68701695D01*
X123900476Y-68701695D02*
X123976667Y-68701695D01*
X123976667Y-68701695D02*
X124090952Y-68739790D01*
X124090952Y-68739790D02*
X124129048Y-68777885D01*
D12*
X119094001Y-59779819D02*
X119094001Y-60017914D01*
X118855906Y-59922676D02*
X119094001Y-60017914D01*
X119094001Y-60017914D02*
X119332096Y-59922676D01*
X118951144Y-60208390D02*
X119094001Y-60017914D01*
X119094001Y-60017914D02*
X119236858Y-60208390D01*
X119094001Y-59779819D02*
X119094001Y-60017914D01*
X118855906Y-59922676D02*
X119094001Y-60017914D01*
X119094001Y-60017914D02*
X119332096Y-59922676D01*
X118951144Y-60208390D02*
X119094001Y-60017914D01*
X119094001Y-60017914D02*
X119236858Y-60208390D01*
X158089104Y-65211905D02*
X158089104Y-64735715D01*
X158374819Y-65307143D02*
X157374819Y-64973810D01*
X157374819Y-64973810D02*
X158374819Y-64640477D01*
X157708152Y-64307143D02*
X158374819Y-64307143D01*
X157803390Y-64307143D02*
X157755771Y-64259524D01*
X157755771Y-64259524D02*
X157708152Y-64164286D01*
X157708152Y-64164286D02*
X157708152Y-64021429D01*
X157708152Y-64021429D02*
X157755771Y-63926191D01*
X157755771Y-63926191D02*
X157851009Y-63878572D01*
X157851009Y-63878572D02*
X158374819Y-63878572D01*
X157708152Y-63545238D02*
X157708152Y-63164286D01*
X157374819Y-63402381D02*
X158231961Y-63402381D01*
X158231961Y-63402381D02*
X158327200Y-63354762D01*
X158327200Y-63354762D02*
X158374819Y-63259524D01*
X158374819Y-63259524D02*
X158374819Y-63164286D01*
X158327200Y-62450000D02*
X158374819Y-62545238D01*
X158374819Y-62545238D02*
X158374819Y-62735714D01*
X158374819Y-62735714D02*
X158327200Y-62830952D01*
X158327200Y-62830952D02*
X158231961Y-62878571D01*
X158231961Y-62878571D02*
X157851009Y-62878571D01*
X157851009Y-62878571D02*
X157755771Y-62830952D01*
X157755771Y-62830952D02*
X157708152Y-62735714D01*
X157708152Y-62735714D02*
X157708152Y-62545238D01*
X157708152Y-62545238D02*
X157755771Y-62450000D01*
X157755771Y-62450000D02*
X157851009Y-62402381D01*
X157851009Y-62402381D02*
X157946247Y-62402381D01*
X157946247Y-62402381D02*
X158041485Y-62878571D01*
X157708152Y-61973809D02*
X158374819Y-61973809D01*
X157803390Y-61973809D02*
X157755771Y-61926190D01*
X157755771Y-61926190D02*
X157708152Y-61830952D01*
X157708152Y-61830952D02*
X157708152Y-61688095D01*
X157708152Y-61688095D02*
X157755771Y-61592857D01*
X157755771Y-61592857D02*
X157851009Y-61545238D01*
X157851009Y-61545238D02*
X158374819Y-61545238D01*
X157708152Y-61069047D02*
X158374819Y-61069047D01*
X157803390Y-61069047D02*
X157755771Y-61021428D01*
X157755771Y-61021428D02*
X157708152Y-60926190D01*
X157708152Y-60926190D02*
X157708152Y-60783333D01*
X157708152Y-60783333D02*
X157755771Y-60688095D01*
X157755771Y-60688095D02*
X157851009Y-60640476D01*
X157851009Y-60640476D02*
X158374819Y-60640476D01*
X158374819Y-59735714D02*
X157851009Y-59735714D01*
X157851009Y-59735714D02*
X157755771Y-59783333D01*
X157755771Y-59783333D02*
X157708152Y-59878571D01*
X157708152Y-59878571D02*
X157708152Y-60069047D01*
X157708152Y-60069047D02*
X157755771Y-60164285D01*
X158327200Y-59735714D02*
X158374819Y-59830952D01*
X158374819Y-59830952D02*
X158374819Y-60069047D01*
X158374819Y-60069047D02*
X158327200Y-60164285D01*
X158327200Y-60164285D02*
X158231961Y-60211904D01*
X158231961Y-60211904D02*
X158136723Y-60211904D01*
X158136723Y-60211904D02*
X158041485Y-60164285D01*
X158041485Y-60164285D02*
X157993866Y-60069047D01*
X157993866Y-60069047D02*
X157993866Y-59830952D01*
X157993866Y-59830952D02*
X157946247Y-59735714D01*
X158089104Y-58545237D02*
X158089104Y-58069047D01*
X158374819Y-58640475D02*
X157374819Y-58307142D01*
X157374819Y-58307142D02*
X158374819Y-57973809D01*
X158374819Y-57640475D02*
X157708152Y-57640475D01*
X157898628Y-57640475D02*
X157803390Y-57592856D01*
X157803390Y-57592856D02*
X157755771Y-57545237D01*
X157755771Y-57545237D02*
X157708152Y-57449999D01*
X157708152Y-57449999D02*
X157708152Y-57354761D01*
X158327200Y-56640475D02*
X158374819Y-56735713D01*
X158374819Y-56735713D02*
X158374819Y-56926189D01*
X158374819Y-56926189D02*
X158327200Y-57021427D01*
X158327200Y-57021427D02*
X158231961Y-57069046D01*
X158231961Y-57069046D02*
X157851009Y-57069046D01*
X157851009Y-57069046D02*
X157755771Y-57021427D01*
X157755771Y-57021427D02*
X157708152Y-56926189D01*
X157708152Y-56926189D02*
X157708152Y-56735713D01*
X157708152Y-56735713D02*
X157755771Y-56640475D01*
X157755771Y-56640475D02*
X157851009Y-56592856D01*
X157851009Y-56592856D02*
X157946247Y-56592856D01*
X157946247Y-56592856D02*
X158041485Y-57069046D01*
X158374819Y-55735713D02*
X157851009Y-55735713D01*
X157851009Y-55735713D02*
X157755771Y-55783332D01*
X157755771Y-55783332D02*
X157708152Y-55878570D01*
X157708152Y-55878570D02*
X157708152Y-56069046D01*
X157708152Y-56069046D02*
X157755771Y-56164284D01*
X158327200Y-55735713D02*
X158374819Y-55830951D01*
X158374819Y-55830951D02*
X158374819Y-56069046D01*
X158374819Y-56069046D02*
X158327200Y-56164284D01*
X158327200Y-56164284D02*
X158231961Y-56211903D01*
X158231961Y-56211903D02*
X158136723Y-56211903D01*
X158136723Y-56211903D02*
X158041485Y-56164284D01*
X158041485Y-56164284D02*
X157993866Y-56069046D01*
X157993866Y-56069046D02*
X157993866Y-55830951D01*
X157993866Y-55830951D02*
X157946247Y-55735713D01*
X111238094Y-64829818D02*
X111238094Y-65639341D01*
X111238094Y-65639341D02*
X111285713Y-65734579D01*
X111285713Y-65734579D02*
X111333332Y-65782199D01*
X111333332Y-65782199D02*
X111428570Y-65829818D01*
X111428570Y-65829818D02*
X111619046Y-65829818D01*
X111619046Y-65829818D02*
X111714284Y-65782199D01*
X111714284Y-65782199D02*
X111761903Y-65734579D01*
X111761903Y-65734579D02*
X111809522Y-65639341D01*
X111809522Y-65639341D02*
X111809522Y-64829818D01*
X112809522Y-65829818D02*
X112238094Y-65829818D01*
X112523808Y-65829818D02*
X112523808Y-64829818D01*
X112523808Y-64829818D02*
X112428570Y-64972675D01*
X112428570Y-64972675D02*
X112333332Y-65067913D01*
X112333332Y-65067913D02*
X112238094Y-65115532D01*
X109010400Y-63418426D02*
X109010400Y-63656521D01*
X108772305Y-63561283D02*
X109010400Y-63656521D01*
X109010400Y-63656521D02*
X109248495Y-63561283D01*
X108867543Y-63846997D02*
X109010400Y-63656521D01*
X109010400Y-63656521D02*
X109153257Y-63846997D01*
X109010400Y-63418426D02*
X109010400Y-63656521D01*
X108772305Y-63561283D02*
X109010400Y-63656521D01*
X109010400Y-63656521D02*
X109248495Y-63561283D01*
X108867543Y-63846997D02*
X109010400Y-63656521D01*
X109010400Y-63656521D02*
X109153257Y-63846997D01*
D10*
X143050304Y-48235000D02*
X143850304Y-48235000D01*
X143850304Y-48768333D02*
X143850304Y-48920714D01*
X143850304Y-48920714D02*
X143812209Y-48996904D01*
X143812209Y-48996904D02*
X143736019Y-49073095D01*
X143736019Y-49073095D02*
X143583638Y-49111190D01*
X143583638Y-49111190D02*
X143316971Y-49111190D01*
X143316971Y-49111190D02*
X143164590Y-49073095D01*
X143164590Y-49073095D02*
X143088400Y-48996904D01*
X143088400Y-48996904D02*
X143050304Y-48920714D01*
X143050304Y-48920714D02*
X143050304Y-48768333D01*
X143050304Y-48768333D02*
X143088400Y-48692142D01*
X143088400Y-48692142D02*
X143164590Y-48615952D01*
X143164590Y-48615952D02*
X143316971Y-48577856D01*
X143316971Y-48577856D02*
X143583638Y-48577856D01*
X143583638Y-48577856D02*
X143736019Y-48615952D01*
X143736019Y-48615952D02*
X143812209Y-48692142D01*
X143812209Y-48692142D02*
X143850304Y-48768333D01*
X143850304Y-49796904D02*
X143850304Y-49644523D01*
X143850304Y-49644523D02*
X143812209Y-49568332D01*
X143812209Y-49568332D02*
X143774114Y-49530237D01*
X143774114Y-49530237D02*
X143659828Y-49454047D01*
X143659828Y-49454047D02*
X143507447Y-49415951D01*
X143507447Y-49415951D02*
X143202685Y-49415951D01*
X143202685Y-49415951D02*
X143126495Y-49454047D01*
X143126495Y-49454047D02*
X143088400Y-49492142D01*
X143088400Y-49492142D02*
X143050304Y-49568332D01*
X143050304Y-49568332D02*
X143050304Y-49720713D01*
X143050304Y-49720713D02*
X143088400Y-49796904D01*
X143088400Y-49796904D02*
X143126495Y-49834999D01*
X143126495Y-49834999D02*
X143202685Y-49873094D01*
X143202685Y-49873094D02*
X143393161Y-49873094D01*
X143393161Y-49873094D02*
X143469352Y-49834999D01*
X143469352Y-49834999D02*
X143507447Y-49796904D01*
X143507447Y-49796904D02*
X143545542Y-49720713D01*
X143545542Y-49720713D02*
X143545542Y-49568332D01*
X143545542Y-49568332D02*
X143507447Y-49492142D01*
X143507447Y-49492142D02*
X143469352Y-49454047D01*
X143469352Y-49454047D02*
X143393161Y-49415951D01*
X148150304Y-71120000D02*
X148950304Y-71120000D01*
X148950304Y-71653333D02*
X148950304Y-71805714D01*
X148950304Y-71805714D02*
X148912209Y-71881904D01*
X148912209Y-71881904D02*
X148836019Y-71958095D01*
X148836019Y-71958095D02*
X148683638Y-71996190D01*
X148683638Y-71996190D02*
X148416971Y-71996190D01*
X148416971Y-71996190D02*
X148264590Y-71958095D01*
X148264590Y-71958095D02*
X148188400Y-71881904D01*
X148188400Y-71881904D02*
X148150304Y-71805714D01*
X148150304Y-71805714D02*
X148150304Y-71653333D01*
X148150304Y-71653333D02*
X148188400Y-71577142D01*
X148188400Y-71577142D02*
X148264590Y-71500952D01*
X148264590Y-71500952D02*
X148416971Y-71462856D01*
X148416971Y-71462856D02*
X148683638Y-71462856D01*
X148683638Y-71462856D02*
X148836019Y-71500952D01*
X148836019Y-71500952D02*
X148912209Y-71577142D01*
X148912209Y-71577142D02*
X148950304Y-71653333D01*
X148150304Y-72758094D02*
X148150304Y-72300951D01*
X148150304Y-72529523D02*
X148950304Y-72529523D01*
X148950304Y-72529523D02*
X148836019Y-72453332D01*
X148836019Y-72453332D02*
X148759828Y-72377142D01*
X148759828Y-72377142D02*
X148721733Y-72300951D01*
X138051495Y-70913096D02*
X138013400Y-70875000D01*
X138013400Y-70875000D02*
X137975304Y-70760715D01*
X137975304Y-70760715D02*
X137975304Y-70684524D01*
X137975304Y-70684524D02*
X138013400Y-70570238D01*
X138013400Y-70570238D02*
X138089590Y-70494048D01*
X138089590Y-70494048D02*
X138165780Y-70455953D01*
X138165780Y-70455953D02*
X138318161Y-70417857D01*
X138318161Y-70417857D02*
X138432447Y-70417857D01*
X138432447Y-70417857D02*
X138584828Y-70455953D01*
X138584828Y-70455953D02*
X138661019Y-70494048D01*
X138661019Y-70494048D02*
X138737209Y-70570238D01*
X138737209Y-70570238D02*
X138775304Y-70684524D01*
X138775304Y-70684524D02*
X138775304Y-70760715D01*
X138775304Y-70760715D02*
X138737209Y-70875000D01*
X138737209Y-70875000D02*
X138699114Y-70913096D01*
X138775304Y-71408334D02*
X138775304Y-71560715D01*
X138775304Y-71560715D02*
X138737209Y-71636905D01*
X138737209Y-71636905D02*
X138661019Y-71713096D01*
X138661019Y-71713096D02*
X138508638Y-71751191D01*
X138508638Y-71751191D02*
X138241971Y-71751191D01*
X138241971Y-71751191D02*
X138089590Y-71713096D01*
X138089590Y-71713096D02*
X138013400Y-71636905D01*
X138013400Y-71636905D02*
X137975304Y-71560715D01*
X137975304Y-71560715D02*
X137975304Y-71408334D01*
X137975304Y-71408334D02*
X138013400Y-71332143D01*
X138013400Y-71332143D02*
X138089590Y-71255953D01*
X138089590Y-71255953D02*
X138241971Y-71217857D01*
X138241971Y-71217857D02*
X138508638Y-71217857D01*
X138508638Y-71217857D02*
X138661019Y-71255953D01*
X138661019Y-71255953D02*
X138737209Y-71332143D01*
X138737209Y-71332143D02*
X138775304Y-71408334D01*
X137975304Y-72094048D02*
X138775304Y-72094048D01*
X138775304Y-72094048D02*
X138775304Y-72398810D01*
X138775304Y-72398810D02*
X138737209Y-72475000D01*
X138737209Y-72475000D02*
X138699114Y-72513095D01*
X138699114Y-72513095D02*
X138622923Y-72551191D01*
X138622923Y-72551191D02*
X138508638Y-72551191D01*
X138508638Y-72551191D02*
X138432447Y-72513095D01*
X138432447Y-72513095D02*
X138394352Y-72475000D01*
X138394352Y-72475000D02*
X138356257Y-72398810D01*
X138356257Y-72398810D02*
X138356257Y-72094048D01*
X137975304Y-72894048D02*
X138775304Y-72894048D01*
X132901495Y-70888096D02*
X132863400Y-70850000D01*
X132863400Y-70850000D02*
X132825304Y-70735715D01*
X132825304Y-70735715D02*
X132825304Y-70659524D01*
X132825304Y-70659524D02*
X132863400Y-70545238D01*
X132863400Y-70545238D02*
X132939590Y-70469048D01*
X132939590Y-70469048D02*
X133015780Y-70430953D01*
X133015780Y-70430953D02*
X133168161Y-70392857D01*
X133168161Y-70392857D02*
X133282447Y-70392857D01*
X133282447Y-70392857D02*
X133434828Y-70430953D01*
X133434828Y-70430953D02*
X133511019Y-70469048D01*
X133511019Y-70469048D02*
X133587209Y-70545238D01*
X133587209Y-70545238D02*
X133625304Y-70659524D01*
X133625304Y-70659524D02*
X133625304Y-70735715D01*
X133625304Y-70735715D02*
X133587209Y-70850000D01*
X133587209Y-70850000D02*
X133549114Y-70888096D01*
X132825304Y-71230953D02*
X133625304Y-71230953D01*
X132825304Y-71611905D02*
X133625304Y-71611905D01*
X133625304Y-71611905D02*
X133625304Y-71916667D01*
X133625304Y-71916667D02*
X133587209Y-71992857D01*
X133587209Y-71992857D02*
X133549114Y-72030952D01*
X133549114Y-72030952D02*
X133472923Y-72069048D01*
X133472923Y-72069048D02*
X133358638Y-72069048D01*
X133358638Y-72069048D02*
X133282447Y-72030952D01*
X133282447Y-72030952D02*
X133244352Y-71992857D01*
X133244352Y-71992857D02*
X133206257Y-71916667D01*
X133206257Y-71916667D02*
X133206257Y-71611905D01*
X133625304Y-72564286D02*
X133625304Y-72716667D01*
X133625304Y-72716667D02*
X133587209Y-72792857D01*
X133587209Y-72792857D02*
X133511019Y-72869048D01*
X133511019Y-72869048D02*
X133358638Y-72907143D01*
X133358638Y-72907143D02*
X133091971Y-72907143D01*
X133091971Y-72907143D02*
X132939590Y-72869048D01*
X132939590Y-72869048D02*
X132863400Y-72792857D01*
X132863400Y-72792857D02*
X132825304Y-72716667D01*
X132825304Y-72716667D02*
X132825304Y-72564286D01*
X132825304Y-72564286D02*
X132863400Y-72488095D01*
X132863400Y-72488095D02*
X132939590Y-72411905D01*
X132939590Y-72411905D02*
X133091971Y-72373809D01*
X133091971Y-72373809D02*
X133358638Y-72373809D01*
X133358638Y-72373809D02*
X133511019Y-72411905D01*
X133511019Y-72411905D02*
X133587209Y-72488095D01*
X133587209Y-72488095D02*
X133625304Y-72564286D01*
X107556400Y-70888571D02*
X107518304Y-71002857D01*
X107518304Y-71002857D02*
X107518304Y-71193333D01*
X107518304Y-71193333D02*
X107556400Y-71269524D01*
X107556400Y-71269524D02*
X107594495Y-71307619D01*
X107594495Y-71307619D02*
X107670685Y-71345714D01*
X107670685Y-71345714D02*
X107746876Y-71345714D01*
X107746876Y-71345714D02*
X107823066Y-71307619D01*
X107823066Y-71307619D02*
X107861161Y-71269524D01*
X107861161Y-71269524D02*
X107899257Y-71193333D01*
X107899257Y-71193333D02*
X107937352Y-71040952D01*
X107937352Y-71040952D02*
X107975447Y-70964762D01*
X107975447Y-70964762D02*
X108013542Y-70926667D01*
X108013542Y-70926667D02*
X108089733Y-70888571D01*
X108089733Y-70888571D02*
X108165923Y-70888571D01*
X108165923Y-70888571D02*
X108242114Y-70926667D01*
X108242114Y-70926667D02*
X108280209Y-70964762D01*
X108280209Y-70964762D02*
X108318304Y-71040952D01*
X108318304Y-71040952D02*
X108318304Y-71231429D01*
X108318304Y-71231429D02*
X108280209Y-71345714D01*
X107518304Y-71688572D02*
X108318304Y-71688572D01*
X108318304Y-71688572D02*
X108318304Y-71879048D01*
X108318304Y-71879048D02*
X108280209Y-71993334D01*
X108280209Y-71993334D02*
X108204019Y-72069524D01*
X108204019Y-72069524D02*
X108127828Y-72107619D01*
X108127828Y-72107619D02*
X107975447Y-72145715D01*
X107975447Y-72145715D02*
X107861161Y-72145715D01*
X107861161Y-72145715D02*
X107708780Y-72107619D01*
X107708780Y-72107619D02*
X107632590Y-72069524D01*
X107632590Y-72069524D02*
X107556400Y-71993334D01*
X107556400Y-71993334D02*
X107518304Y-71879048D01*
X107518304Y-71879048D02*
X107518304Y-71688572D01*
X107746876Y-72450476D02*
X107746876Y-72831429D01*
X107518304Y-72374286D02*
X108318304Y-72640953D01*
X108318304Y-72640953D02*
X107518304Y-72907619D01*
X135438400Y-70891428D02*
X135400304Y-71005714D01*
X135400304Y-71005714D02*
X135400304Y-71196190D01*
X135400304Y-71196190D02*
X135438400Y-71272381D01*
X135438400Y-71272381D02*
X135476495Y-71310476D01*
X135476495Y-71310476D02*
X135552685Y-71348571D01*
X135552685Y-71348571D02*
X135628876Y-71348571D01*
X135628876Y-71348571D02*
X135705066Y-71310476D01*
X135705066Y-71310476D02*
X135743161Y-71272381D01*
X135743161Y-71272381D02*
X135781257Y-71196190D01*
X135781257Y-71196190D02*
X135819352Y-71043809D01*
X135819352Y-71043809D02*
X135857447Y-70967619D01*
X135857447Y-70967619D02*
X135895542Y-70929524D01*
X135895542Y-70929524D02*
X135971733Y-70891428D01*
X135971733Y-70891428D02*
X136047923Y-70891428D01*
X136047923Y-70891428D02*
X136124114Y-70929524D01*
X136124114Y-70929524D02*
X136162209Y-70967619D01*
X136162209Y-70967619D02*
X136200304Y-71043809D01*
X136200304Y-71043809D02*
X136200304Y-71234286D01*
X136200304Y-71234286D02*
X136162209Y-71348571D01*
X135476495Y-72148572D02*
X135438400Y-72110476D01*
X135438400Y-72110476D02*
X135400304Y-71996191D01*
X135400304Y-71996191D02*
X135400304Y-71920000D01*
X135400304Y-71920000D02*
X135438400Y-71805714D01*
X135438400Y-71805714D02*
X135514590Y-71729524D01*
X135514590Y-71729524D02*
X135590780Y-71691429D01*
X135590780Y-71691429D02*
X135743161Y-71653333D01*
X135743161Y-71653333D02*
X135857447Y-71653333D01*
X135857447Y-71653333D02*
X136009828Y-71691429D01*
X136009828Y-71691429D02*
X136086019Y-71729524D01*
X136086019Y-71729524D02*
X136162209Y-71805714D01*
X136162209Y-71805714D02*
X136200304Y-71920000D01*
X136200304Y-71920000D02*
X136200304Y-71996191D01*
X136200304Y-71996191D02*
X136162209Y-72110476D01*
X136162209Y-72110476D02*
X136124114Y-72148572D01*
X135400304Y-72491429D02*
X136200304Y-72491429D01*
X135400304Y-72948572D02*
X135857447Y-72605714D01*
X136200304Y-72948572D02*
X135743161Y-72491429D01*
X151462209Y-71310476D02*
X151500304Y-71234286D01*
X151500304Y-71234286D02*
X151500304Y-71120000D01*
X151500304Y-71120000D02*
X151462209Y-71005714D01*
X151462209Y-71005714D02*
X151386019Y-70929524D01*
X151386019Y-70929524D02*
X151309828Y-70891429D01*
X151309828Y-70891429D02*
X151157447Y-70853333D01*
X151157447Y-70853333D02*
X151043161Y-70853333D01*
X151043161Y-70853333D02*
X150890780Y-70891429D01*
X150890780Y-70891429D02*
X150814590Y-70929524D01*
X150814590Y-70929524D02*
X150738400Y-71005714D01*
X150738400Y-71005714D02*
X150700304Y-71120000D01*
X150700304Y-71120000D02*
X150700304Y-71196191D01*
X150700304Y-71196191D02*
X150738400Y-71310476D01*
X150738400Y-71310476D02*
X150776495Y-71348572D01*
X150776495Y-71348572D02*
X151043161Y-71348572D01*
X151043161Y-71348572D02*
X151043161Y-71196191D01*
X150700304Y-71691429D02*
X151500304Y-71691429D01*
X151500304Y-71691429D02*
X150700304Y-72148572D01*
X150700304Y-72148572D02*
X151500304Y-72148572D01*
X150700304Y-72529524D02*
X151500304Y-72529524D01*
X151500304Y-72529524D02*
X151500304Y-72720000D01*
X151500304Y-72720000D02*
X151462209Y-72834286D01*
X151462209Y-72834286D02*
X151386019Y-72910476D01*
X151386019Y-72910476D02*
X151309828Y-72948571D01*
X151309828Y-72948571D02*
X151157447Y-72986667D01*
X151157447Y-72986667D02*
X151043161Y-72986667D01*
X151043161Y-72986667D02*
X150890780Y-72948571D01*
X150890780Y-72948571D02*
X150814590Y-72910476D01*
X150814590Y-72910476D02*
X150738400Y-72834286D01*
X150738400Y-72834286D02*
X150700304Y-72720000D01*
X150700304Y-72720000D02*
X150700304Y-72529524D01*
X133625304Y-48044523D02*
X133625304Y-48539761D01*
X133625304Y-48539761D02*
X133320542Y-48273095D01*
X133320542Y-48273095D02*
X133320542Y-48387380D01*
X133320542Y-48387380D02*
X133282447Y-48463571D01*
X133282447Y-48463571D02*
X133244352Y-48501666D01*
X133244352Y-48501666D02*
X133168161Y-48539761D01*
X133168161Y-48539761D02*
X132977685Y-48539761D01*
X132977685Y-48539761D02*
X132901495Y-48501666D01*
X132901495Y-48501666D02*
X132863400Y-48463571D01*
X132863400Y-48463571D02*
X132825304Y-48387380D01*
X132825304Y-48387380D02*
X132825304Y-48158809D01*
X132825304Y-48158809D02*
X132863400Y-48082618D01*
X132863400Y-48082618D02*
X132901495Y-48044523D01*
X133625304Y-48768333D02*
X132825304Y-49035000D01*
X132825304Y-49035000D02*
X133625304Y-49301666D01*
X133625304Y-49492142D02*
X133625304Y-49987380D01*
X133625304Y-49987380D02*
X133320542Y-49720714D01*
X133320542Y-49720714D02*
X133320542Y-49834999D01*
X133320542Y-49834999D02*
X133282447Y-49911190D01*
X133282447Y-49911190D02*
X133244352Y-49949285D01*
X133244352Y-49949285D02*
X133168161Y-49987380D01*
X133168161Y-49987380D02*
X132977685Y-49987380D01*
X132977685Y-49987380D02*
X132901495Y-49949285D01*
X132901495Y-49949285D02*
X132863400Y-49911190D01*
X132863400Y-49911190D02*
X132825304Y-49834999D01*
X132825304Y-49834999D02*
X132825304Y-49606428D01*
X132825304Y-49606428D02*
X132863400Y-49530237D01*
X132863400Y-49530237D02*
X132901495Y-49492142D01*
X140525304Y-48235000D02*
X141325304Y-48235000D01*
X141325304Y-48768333D02*
X141325304Y-48920714D01*
X141325304Y-48920714D02*
X141287209Y-48996904D01*
X141287209Y-48996904D02*
X141211019Y-49073095D01*
X141211019Y-49073095D02*
X141058638Y-49111190D01*
X141058638Y-49111190D02*
X140791971Y-49111190D01*
X140791971Y-49111190D02*
X140639590Y-49073095D01*
X140639590Y-49073095D02*
X140563400Y-48996904D01*
X140563400Y-48996904D02*
X140525304Y-48920714D01*
X140525304Y-48920714D02*
X140525304Y-48768333D01*
X140525304Y-48768333D02*
X140563400Y-48692142D01*
X140563400Y-48692142D02*
X140639590Y-48615952D01*
X140639590Y-48615952D02*
X140791971Y-48577856D01*
X140791971Y-48577856D02*
X141058638Y-48577856D01*
X141058638Y-48577856D02*
X141211019Y-48615952D01*
X141211019Y-48615952D02*
X141287209Y-48692142D01*
X141287209Y-48692142D02*
X141325304Y-48768333D01*
X141325304Y-49377856D02*
X141325304Y-49911190D01*
X141325304Y-49911190D02*
X140525304Y-49568332D01*
X104981400Y-70907618D02*
X104943304Y-71021904D01*
X104943304Y-71021904D02*
X104943304Y-71212380D01*
X104943304Y-71212380D02*
X104981400Y-71288571D01*
X104981400Y-71288571D02*
X105019495Y-71326666D01*
X105019495Y-71326666D02*
X105095685Y-71364761D01*
X105095685Y-71364761D02*
X105171876Y-71364761D01*
X105171876Y-71364761D02*
X105248066Y-71326666D01*
X105248066Y-71326666D02*
X105286161Y-71288571D01*
X105286161Y-71288571D02*
X105324257Y-71212380D01*
X105324257Y-71212380D02*
X105362352Y-71059999D01*
X105362352Y-71059999D02*
X105400447Y-70983809D01*
X105400447Y-70983809D02*
X105438542Y-70945714D01*
X105438542Y-70945714D02*
X105514733Y-70907618D01*
X105514733Y-70907618D02*
X105590923Y-70907618D01*
X105590923Y-70907618D02*
X105667114Y-70945714D01*
X105667114Y-70945714D02*
X105705209Y-70983809D01*
X105705209Y-70983809D02*
X105743304Y-71059999D01*
X105743304Y-71059999D02*
X105743304Y-71250476D01*
X105743304Y-71250476D02*
X105705209Y-71364761D01*
X105019495Y-72164762D02*
X104981400Y-72126666D01*
X104981400Y-72126666D02*
X104943304Y-72012381D01*
X104943304Y-72012381D02*
X104943304Y-71936190D01*
X104943304Y-71936190D02*
X104981400Y-71821904D01*
X104981400Y-71821904D02*
X105057590Y-71745714D01*
X105057590Y-71745714D02*
X105133780Y-71707619D01*
X105133780Y-71707619D02*
X105286161Y-71669523D01*
X105286161Y-71669523D02*
X105400447Y-71669523D01*
X105400447Y-71669523D02*
X105552828Y-71707619D01*
X105552828Y-71707619D02*
X105629019Y-71745714D01*
X105629019Y-71745714D02*
X105705209Y-71821904D01*
X105705209Y-71821904D02*
X105743304Y-71936190D01*
X105743304Y-71936190D02*
X105743304Y-72012381D01*
X105743304Y-72012381D02*
X105705209Y-72126666D01*
X105705209Y-72126666D02*
X105667114Y-72164762D01*
X104943304Y-72888571D02*
X104943304Y-72507619D01*
X104943304Y-72507619D02*
X105743304Y-72507619D01*
X143050304Y-71120000D02*
X143850304Y-71120000D01*
X143850304Y-71653333D02*
X143850304Y-71805714D01*
X143850304Y-71805714D02*
X143812209Y-71881904D01*
X143812209Y-71881904D02*
X143736019Y-71958095D01*
X143736019Y-71958095D02*
X143583638Y-71996190D01*
X143583638Y-71996190D02*
X143316971Y-71996190D01*
X143316971Y-71996190D02*
X143164590Y-71958095D01*
X143164590Y-71958095D02*
X143088400Y-71881904D01*
X143088400Y-71881904D02*
X143050304Y-71805714D01*
X143050304Y-71805714D02*
X143050304Y-71653333D01*
X143050304Y-71653333D02*
X143088400Y-71577142D01*
X143088400Y-71577142D02*
X143164590Y-71500952D01*
X143164590Y-71500952D02*
X143316971Y-71462856D01*
X143316971Y-71462856D02*
X143583638Y-71462856D01*
X143583638Y-71462856D02*
X143736019Y-71500952D01*
X143736019Y-71500952D02*
X143812209Y-71577142D01*
X143812209Y-71577142D02*
X143850304Y-71653333D01*
X143583638Y-72681904D02*
X143050304Y-72681904D01*
X143888400Y-72491428D02*
X143316971Y-72300951D01*
X143316971Y-72300951D02*
X143316971Y-72796190D01*
X137975304Y-48235000D02*
X138775304Y-48235000D01*
X138775304Y-48768333D02*
X138775304Y-48920714D01*
X138775304Y-48920714D02*
X138737209Y-48996904D01*
X138737209Y-48996904D02*
X138661019Y-49073095D01*
X138661019Y-49073095D02*
X138508638Y-49111190D01*
X138508638Y-49111190D02*
X138241971Y-49111190D01*
X138241971Y-49111190D02*
X138089590Y-49073095D01*
X138089590Y-49073095D02*
X138013400Y-48996904D01*
X138013400Y-48996904D02*
X137975304Y-48920714D01*
X137975304Y-48920714D02*
X137975304Y-48768333D01*
X137975304Y-48768333D02*
X138013400Y-48692142D01*
X138013400Y-48692142D02*
X138089590Y-48615952D01*
X138089590Y-48615952D02*
X138241971Y-48577856D01*
X138241971Y-48577856D02*
X138508638Y-48577856D01*
X138508638Y-48577856D02*
X138661019Y-48615952D01*
X138661019Y-48615952D02*
X138737209Y-48692142D01*
X138737209Y-48692142D02*
X138775304Y-48768333D01*
X138432447Y-49568332D02*
X138470542Y-49492142D01*
X138470542Y-49492142D02*
X138508638Y-49454047D01*
X138508638Y-49454047D02*
X138584828Y-49415951D01*
X138584828Y-49415951D02*
X138622923Y-49415951D01*
X138622923Y-49415951D02*
X138699114Y-49454047D01*
X138699114Y-49454047D02*
X138737209Y-49492142D01*
X138737209Y-49492142D02*
X138775304Y-49568332D01*
X138775304Y-49568332D02*
X138775304Y-49720713D01*
X138775304Y-49720713D02*
X138737209Y-49796904D01*
X138737209Y-49796904D02*
X138699114Y-49834999D01*
X138699114Y-49834999D02*
X138622923Y-49873094D01*
X138622923Y-49873094D02*
X138584828Y-49873094D01*
X138584828Y-49873094D02*
X138508638Y-49834999D01*
X138508638Y-49834999D02*
X138470542Y-49796904D01*
X138470542Y-49796904D02*
X138432447Y-49720713D01*
X138432447Y-49720713D02*
X138432447Y-49568332D01*
X138432447Y-49568332D02*
X138394352Y-49492142D01*
X138394352Y-49492142D02*
X138356257Y-49454047D01*
X138356257Y-49454047D02*
X138280066Y-49415951D01*
X138280066Y-49415951D02*
X138127685Y-49415951D01*
X138127685Y-49415951D02*
X138051495Y-49454047D01*
X138051495Y-49454047D02*
X138013400Y-49492142D01*
X138013400Y-49492142D02*
X137975304Y-49568332D01*
X137975304Y-49568332D02*
X137975304Y-49720713D01*
X137975304Y-49720713D02*
X138013400Y-49796904D01*
X138013400Y-49796904D02*
X138051495Y-49834999D01*
X138051495Y-49834999D02*
X138127685Y-49873094D01*
X138127685Y-49873094D02*
X138280066Y-49873094D01*
X138280066Y-49873094D02*
X138356257Y-49834999D01*
X138356257Y-49834999D02*
X138394352Y-49796904D01*
X138394352Y-49796904D02*
X138432447Y-49720713D01*
X136162209Y-48425476D02*
X136200304Y-48349286D01*
X136200304Y-48349286D02*
X136200304Y-48235000D01*
X136200304Y-48235000D02*
X136162209Y-48120714D01*
X136162209Y-48120714D02*
X136086019Y-48044524D01*
X136086019Y-48044524D02*
X136009828Y-48006429D01*
X136009828Y-48006429D02*
X135857447Y-47968333D01*
X135857447Y-47968333D02*
X135743161Y-47968333D01*
X135743161Y-47968333D02*
X135590780Y-48006429D01*
X135590780Y-48006429D02*
X135514590Y-48044524D01*
X135514590Y-48044524D02*
X135438400Y-48120714D01*
X135438400Y-48120714D02*
X135400304Y-48235000D01*
X135400304Y-48235000D02*
X135400304Y-48311191D01*
X135400304Y-48311191D02*
X135438400Y-48425476D01*
X135438400Y-48425476D02*
X135476495Y-48463572D01*
X135476495Y-48463572D02*
X135743161Y-48463572D01*
X135743161Y-48463572D02*
X135743161Y-48311191D01*
X135400304Y-48806429D02*
X136200304Y-48806429D01*
X136200304Y-48806429D02*
X135400304Y-49263572D01*
X135400304Y-49263572D02*
X136200304Y-49263572D01*
X135400304Y-49644524D02*
X136200304Y-49644524D01*
X136200304Y-49644524D02*
X136200304Y-49835000D01*
X136200304Y-49835000D02*
X136162209Y-49949286D01*
X136162209Y-49949286D02*
X136086019Y-50025476D01*
X136086019Y-50025476D02*
X136009828Y-50063571D01*
X136009828Y-50063571D02*
X135857447Y-50101667D01*
X135857447Y-50101667D02*
X135743161Y-50101667D01*
X135743161Y-50101667D02*
X135590780Y-50063571D01*
X135590780Y-50063571D02*
X135514590Y-50025476D01*
X135514590Y-50025476D02*
X135438400Y-49949286D01*
X135438400Y-49949286D02*
X135400304Y-49835000D01*
X135400304Y-49835000D02*
X135400304Y-49644524D01*
X140525304Y-71120000D02*
X141325304Y-71120000D01*
X141325304Y-71653333D02*
X141325304Y-71805714D01*
X141325304Y-71805714D02*
X141287209Y-71881904D01*
X141287209Y-71881904D02*
X141211019Y-71958095D01*
X141211019Y-71958095D02*
X141058638Y-71996190D01*
X141058638Y-71996190D02*
X140791971Y-71996190D01*
X140791971Y-71996190D02*
X140639590Y-71958095D01*
X140639590Y-71958095D02*
X140563400Y-71881904D01*
X140563400Y-71881904D02*
X140525304Y-71805714D01*
X140525304Y-71805714D02*
X140525304Y-71653333D01*
X140525304Y-71653333D02*
X140563400Y-71577142D01*
X140563400Y-71577142D02*
X140639590Y-71500952D01*
X140639590Y-71500952D02*
X140791971Y-71462856D01*
X140791971Y-71462856D02*
X141058638Y-71462856D01*
X141058638Y-71462856D02*
X141211019Y-71500952D01*
X141211019Y-71500952D02*
X141287209Y-71577142D01*
X141287209Y-71577142D02*
X141325304Y-71653333D01*
X141325304Y-72719999D02*
X141325304Y-72339047D01*
X141325304Y-72339047D02*
X140944352Y-72300951D01*
X140944352Y-72300951D02*
X140982447Y-72339047D01*
X140982447Y-72339047D02*
X141020542Y-72415237D01*
X141020542Y-72415237D02*
X141020542Y-72605713D01*
X141020542Y-72605713D02*
X140982447Y-72681904D01*
X140982447Y-72681904D02*
X140944352Y-72719999D01*
X140944352Y-72719999D02*
X140868161Y-72758094D01*
X140868161Y-72758094D02*
X140677685Y-72758094D01*
X140677685Y-72758094D02*
X140601495Y-72719999D01*
X140601495Y-72719999D02*
X140563400Y-72681904D01*
X140563400Y-72681904D02*
X140525304Y-72605713D01*
X140525304Y-72605713D02*
X140525304Y-72415237D01*
X140525304Y-72415237D02*
X140563400Y-72339047D01*
X140563400Y-72339047D02*
X140601495Y-72300951D01*
X146044352Y-48444524D02*
X146044352Y-48711190D01*
X145625304Y-48825476D02*
X145625304Y-48444524D01*
X145625304Y-48444524D02*
X146425304Y-48444524D01*
X146425304Y-48444524D02*
X146425304Y-48825476D01*
X145625304Y-49168334D02*
X146425304Y-49168334D01*
X146425304Y-49168334D02*
X145625304Y-49625477D01*
X145625304Y-49625477D02*
X146425304Y-49625477D01*
X145625304Y-71120000D02*
X146425304Y-71120000D01*
X146425304Y-71653333D02*
X146425304Y-71805714D01*
X146425304Y-71805714D02*
X146387209Y-71881904D01*
X146387209Y-71881904D02*
X146311019Y-71958095D01*
X146311019Y-71958095D02*
X146158638Y-71996190D01*
X146158638Y-71996190D02*
X145891971Y-71996190D01*
X145891971Y-71996190D02*
X145739590Y-71958095D01*
X145739590Y-71958095D02*
X145663400Y-71881904D01*
X145663400Y-71881904D02*
X145625304Y-71805714D01*
X145625304Y-71805714D02*
X145625304Y-71653333D01*
X145625304Y-71653333D02*
X145663400Y-71577142D01*
X145663400Y-71577142D02*
X145739590Y-71500952D01*
X145739590Y-71500952D02*
X145891971Y-71462856D01*
X145891971Y-71462856D02*
X146158638Y-71462856D01*
X146158638Y-71462856D02*
X146311019Y-71500952D01*
X146311019Y-71500952D02*
X146387209Y-71577142D01*
X146387209Y-71577142D02*
X146425304Y-71653333D01*
X146349114Y-72300951D02*
X146387209Y-72339047D01*
X146387209Y-72339047D02*
X146425304Y-72415237D01*
X146425304Y-72415237D02*
X146425304Y-72605713D01*
X146425304Y-72605713D02*
X146387209Y-72681904D01*
X146387209Y-72681904D02*
X146349114Y-72719999D01*
X146349114Y-72719999D02*
X146272923Y-72758094D01*
X146272923Y-72758094D02*
X146196733Y-72758094D01*
X146196733Y-72758094D02*
X146082447Y-72719999D01*
X146082447Y-72719999D02*
X145625304Y-72262856D01*
X145625304Y-72262856D02*
X145625304Y-72758094D01*
D13*
%TO.C,BT1*%
X108135000Y-47970000D02*
X116305000Y-47970000D01*
X108135000Y-48820000D02*
X108135000Y-47970000D01*
X108135000Y-52340000D02*
X108135000Y-53190000D01*
X108135000Y-53190000D02*
X110460000Y-53190000D01*
X110460000Y-53190000D02*
X110460000Y-55580000D01*
X116305000Y-47970000D02*
X116305000Y-48820000D01*
X116305000Y-52340000D02*
X116305000Y-53190000D01*
X116305000Y-53190000D02*
X113980000Y-53190000D01*
D14*
%TO.C,BT2*%
X121250000Y-51578000D02*
X118710000Y-51578000D01*
X121250000Y-48022000D02*
X118710000Y-48022000D01*
X121250000Y-51578000D02*
G75*
G03*
X121250000Y-48022000I0J1778000D01*
G01*
X118710000Y-48022000D02*
G75*
G03*
X118710000Y-51578000I0J-1778000D01*
G01*
%TO.C,CHARGLED1*%
X114949999Y-69570699D02*
G75*
G03*
X114949999Y-69570699I-50000J0D01*
G01*
D13*
%TO.C,SW2*%
X131925000Y-67825000D02*
X131925000Y-67705000D01*
X131925000Y-66695000D02*
X131925000Y-65555000D01*
X131925000Y-64545000D02*
X131925000Y-64425000D01*
X131925000Y-64425000D02*
X127525000Y-64425000D01*
X127525000Y-67825000D02*
X131925000Y-67825000D01*
X127525000Y-67705000D02*
X127525000Y-67825000D01*
X127525000Y-65555000D02*
X127525000Y-66695000D01*
X127525000Y-64425000D02*
X127525000Y-64545000D01*
D15*
%TO.C,FG1*%
X111672465Y-58480301D02*
X112864735Y-58480301D01*
X112864735Y-56219701D02*
X111672465Y-56219701D01*
X110374801Y-56550001D02*
G75*
G03*
X110374801Y-56550001I-101600J0D01*
G01*
%TO.C,IMU1*%
G36*
X121968900Y-63882399D02*
G01*
X121587900Y-63882399D01*
X121587900Y-63628399D01*
X121968900Y-63628399D01*
X121968900Y-63882399D01*
G37*
G36*
X122368899Y-59421601D02*
G01*
X121987899Y-59421601D01*
X121987899Y-59167601D01*
X122368899Y-59167601D01*
X122368899Y-59421601D01*
G37*
D13*
%TO.C,MCU1*%
X160920000Y-51450000D02*
X154170000Y-51450000D01*
X160920000Y-51450000D02*
X160920000Y-69450000D01*
X136170000Y-51450000D02*
X135420000Y-51450000D01*
X135420000Y-51450000D02*
X135420000Y-52450000D01*
X160920000Y-69450000D02*
X154170000Y-69450000D01*
X154920000Y-69450000D02*
X154920000Y-51450000D01*
X136170000Y-69450000D02*
X135420000Y-69450000D01*
X135420000Y-69450000D02*
X135420000Y-68450000D01*
%TO.C,QWIIC1*%
X123000000Y-70935000D02*
X123000000Y-69785000D01*
X123000000Y-69785000D02*
X121950000Y-69785000D01*
X121950000Y-69785000D02*
X121950000Y-68795000D01*
X121830000Y-72905000D02*
X117950000Y-72905000D01*
X116780000Y-70935000D02*
X116780000Y-69785000D01*
X116780000Y-69785000D02*
X117830000Y-69785000D01*
%TO.C,L2*%
X117334021Y-63680700D02*
X117659579Y-63680700D01*
X117334021Y-64700700D02*
X117659579Y-64700700D01*
%TO.C,TrillExtensionInput1*%
X130820000Y-70935000D02*
X130820000Y-69785000D01*
X130820000Y-69785000D02*
X129770000Y-69785000D01*
X129770000Y-69785000D02*
X129770000Y-68795000D01*
X129650000Y-72905000D02*
X125770000Y-72905000D01*
X124600000Y-70935000D02*
X124600000Y-69785000D01*
X124600000Y-69785000D02*
X125650000Y-69785000D01*
%TO.C,C4*%
X117649880Y-67660700D02*
X117368720Y-67660700D01*
X117649880Y-66640700D02*
X117368720Y-66640700D01*
%TO.C,FSR1*%
X130520000Y-52500000D02*
X131670000Y-52500000D01*
X131670000Y-52500000D02*
X131670000Y-51450000D01*
X131670000Y-51450000D02*
X132660000Y-51450000D01*
X128550000Y-51330000D02*
X128550000Y-49450000D01*
X130520000Y-48280000D02*
X131670000Y-48280000D01*
X131670000Y-48280000D02*
X131670000Y-49330000D01*
D16*
%TO.C,PWLED1*%
X127950000Y-54450000D02*
X131750000Y-54450000D01*
X127950000Y-54750000D02*
X127950000Y-54450000D01*
X127950000Y-57950000D02*
X127950000Y-58250000D01*
X127950000Y-58250000D02*
X131750000Y-58250000D01*
X131750000Y-54450000D02*
X131750000Y-54750000D01*
X131750000Y-58250000D02*
X131750000Y-57950000D01*
D10*
X127100000Y-55300000D02*
G75*
G03*
X127100000Y-55300000I-100000J0D01*
G01*
D13*
%TO.C,SW1*%
X125285000Y-52510000D02*
X126435000Y-52510000D01*
X126435000Y-52510000D02*
X126435000Y-51460000D01*
X126435000Y-51460000D02*
X127425000Y-51460000D01*
X123315000Y-51340000D02*
X123315000Y-49460000D01*
X125285000Y-48290000D02*
X126435000Y-48290000D01*
X126435000Y-48290000D02*
X126435000Y-49340000D01*
D15*
%TO.C,U1*%
X109828299Y-63203299D02*
X109828299Y-63740259D01*
X109828299Y-67009739D02*
X109828299Y-67546699D01*
X109828299Y-67546699D02*
X110365259Y-67546699D01*
X110365259Y-63203299D02*
X109828299Y-63203299D01*
X113634739Y-67546699D02*
X114171699Y-67546699D01*
X114171699Y-63203299D02*
X113634739Y-63203299D01*
X114171699Y-63740259D02*
X114171699Y-63203299D01*
X114171699Y-67546699D02*
X114171699Y-67009739D01*
G36*
X111790500Y-68227698D02*
G01*
X111409500Y-68227698D01*
X111409500Y-67973698D01*
X111790500Y-67973698D01*
X111790500Y-68227698D01*
G37*
G36*
X114852698Y-64765498D02*
G01*
X114598698Y-64765498D01*
X114598698Y-64384498D01*
X114852698Y-64384498D01*
X114852698Y-64765498D01*
G37*
D12*
%TO.C,U4*%
X120350000Y-55950000D02*
X120350000Y-56075000D01*
X120350000Y-55950000D02*
X123600000Y-55950000D01*
X120350000Y-56075000D02*
X119275000Y-56075000D01*
X120350000Y-59200000D02*
X120350000Y-58975000D01*
X120350000Y-59200000D02*
X123600000Y-59200000D01*
X123600000Y-55950000D02*
X123600000Y-56175000D01*
X123600000Y-59200000D02*
X123600000Y-58975000D01*
D13*
%TO.C,SW3*%
X127525000Y-60675000D02*
X127525000Y-60795000D01*
X127525000Y-61805000D02*
X127525000Y-62945000D01*
X127525000Y-63955000D02*
X127525000Y-64075000D01*
X127525000Y-64075000D02*
X131925000Y-64075000D01*
X131925000Y-60675000D02*
X127525000Y-60675000D01*
X131925000Y-60795000D02*
X131925000Y-60675000D01*
X131925000Y-62945000D02*
X131925000Y-61805000D01*
X131925000Y-64075000D02*
X131925000Y-63955000D01*
%TO.C,C5*%
X117624880Y-63240700D02*
X117343720Y-63240700D01*
X117624880Y-62220700D02*
X117343720Y-62220700D01*
D15*
%TO.C,R2*%
X112449838Y-58641300D02*
X112030162Y-58641300D01*
X112030162Y-60698700D02*
X112449838Y-60698700D01*
D13*
%TO.C,J1*%
X102710000Y-55780000D02*
X104510000Y-55780000D01*
X100610000Y-55780000D02*
X99460000Y-55780000D01*
X102710000Y-65120000D02*
X104510000Y-65120000D01*
X100610000Y-65120000D02*
X99460000Y-65120000D01*
%TO.C,Q3*%
X126685000Y-65050000D02*
X126685000Y-63375000D01*
X126685000Y-65050000D02*
X126685000Y-65700000D01*
X123565000Y-65050000D02*
X123565000Y-64400000D01*
X123565000Y-65050000D02*
X123565000Y-65700000D01*
%TO.C,L1*%
X117346521Y-65170700D02*
X117672079Y-65170700D01*
X117346521Y-66190700D02*
X117672079Y-66190700D01*
%TD*%
%LPC*%
D17*
%TO.C,BT1*%
X111220000Y-52830000D03*
X113220000Y-52830000D03*
D18*
X108820000Y-50580000D03*
X115620000Y-50580000D03*
%TD*%
D19*
%TO.C,R23*%
X125125000Y-67350000D03*
X124485000Y-67350000D03*
%TD*%
D20*
%TO.C,R11*%
X113975000Y-61975000D03*
X114615000Y-61975000D03*
%TD*%
D21*
%TO.C,R18*%
X126050000Y-56008750D03*
X126050000Y-56648750D03*
%TD*%
D22*
%TO.C,R3*%
X115609300Y-69045000D03*
X115609300Y-68405000D03*
%TD*%
D23*
%TO.C,BT2*%
X118710000Y-49800000D03*
X121250000Y-49800000D03*
%TD*%
D22*
%TO.C,R19*%
X134160000Y-58540000D03*
X134160000Y-57900000D03*
%TD*%
%TO.C,CHARGLED1*%
X114899999Y-69030699D03*
X114899999Y-68390699D03*
%TD*%
D24*
%TO.C,SW2*%
X131800000Y-67200000D03*
X127650000Y-67200000D03*
X131800000Y-65050000D03*
X127650000Y-65050000D03*
%TD*%
D25*
%TO.C,FG1*%
X111077200Y-56550000D03*
X111077200Y-56950002D03*
X111077200Y-57350001D03*
X111077200Y-57750000D03*
X111077200Y-58150002D03*
X113460000Y-58150002D03*
X113460000Y-57750000D03*
X113460000Y-57350001D03*
X113460000Y-56950002D03*
X113460000Y-56550000D03*
D26*
X112268600Y-57350001D03*
%TD*%
D27*
%TO.C,IMU1*%
X120056800Y-60524999D03*
X120056800Y-60925001D03*
X120056800Y-61325000D03*
X120056800Y-61725000D03*
X120056800Y-62124999D03*
X120056800Y-62525001D03*
D28*
X120578399Y-63046600D03*
X120978401Y-63046600D03*
X121378400Y-63046600D03*
X121778400Y-63046600D03*
X122178399Y-63046600D03*
X122578401Y-63046600D03*
D27*
X123100000Y-62525001D03*
X123100000Y-62124999D03*
X123100000Y-61725000D03*
X123100000Y-61325000D03*
X123100000Y-60925001D03*
X123100000Y-60524999D03*
D28*
X122578401Y-60003400D03*
X122178399Y-60003400D03*
X121778400Y-60003400D03*
X121378400Y-60003400D03*
X120978401Y-60003400D03*
X120578399Y-60003400D03*
%TD*%
D29*
%TO.C,MCU1*%
X153430000Y-51700000D03*
X152160000Y-51700000D03*
X150890000Y-51700000D03*
X149620000Y-51700000D03*
X148350000Y-51700000D03*
X147080000Y-51700000D03*
X145810000Y-51700000D03*
X144540000Y-51700000D03*
X143270000Y-51700000D03*
X142000000Y-51700000D03*
X140730000Y-51700000D03*
X139460000Y-51700000D03*
X138190000Y-51700000D03*
X136920000Y-51700000D03*
D30*
X135670000Y-53465000D03*
X135670000Y-54735000D03*
X135670000Y-56005000D03*
X135670000Y-57275000D03*
X135670000Y-58545000D03*
X135670000Y-59815000D03*
X135670000Y-61085000D03*
X135670000Y-62355000D03*
X135670000Y-63625000D03*
X135670000Y-64895000D03*
X135670000Y-66165000D03*
X135670000Y-67435000D03*
D31*
X136920000Y-69200000D03*
X138190000Y-69200000D03*
X139460000Y-69200000D03*
X140730000Y-69200000D03*
X142000000Y-69200000D03*
X143270000Y-69200000D03*
X144540000Y-69200000D03*
X145810000Y-69200000D03*
X147080000Y-69200000D03*
X148350000Y-69200000D03*
X149620000Y-69200000D03*
X150890000Y-69200000D03*
X152160000Y-69200000D03*
X153430000Y-69200000D03*
D32*
X149580000Y-57590000D03*
X148080000Y-57590000D03*
X148080000Y-57590000D03*
X146580000Y-57590000D03*
X149580000Y-59090000D03*
X149580000Y-59090000D03*
X148080000Y-59090000D03*
X146580000Y-59090000D03*
X149580000Y-60590000D03*
X148080000Y-60590000D03*
X146580000Y-60590000D03*
%TD*%
D19*
%TO.C,R21*%
X123020000Y-64525000D03*
X122380000Y-64525000D03*
%TD*%
D22*
%TO.C,R6*%
X108590000Y-62840000D03*
X108590000Y-62200000D03*
%TD*%
%TO.C,R8*%
X112799999Y-69035699D03*
X112799999Y-68395699D03*
%TD*%
D33*
%TO.C,QWIIC1*%
X121390000Y-69570000D03*
X120390000Y-69570000D03*
X119390000Y-69570000D03*
X118390000Y-69570000D03*
D34*
X122690000Y-72095000D03*
X117090000Y-72095000D03*
%TD*%
D35*
%TO.C,L2*%
X116709300Y-64190700D03*
X118284300Y-64190700D03*
%TD*%
D33*
%TO.C,TrillExtensionInput1*%
X129210000Y-69570000D03*
X128210000Y-69570000D03*
X127210000Y-69570000D03*
X126210000Y-69570000D03*
D34*
X130510000Y-72095000D03*
X124910000Y-72095000D03*
%TD*%
D36*
%TO.C,C4*%
X118284300Y-67150700D03*
X116734300Y-67150700D03*
%TD*%
D22*
%TO.C,R4*%
X114199999Y-69035699D03*
X114199999Y-68395699D03*
%TD*%
D21*
%TO.C,C1*%
X115360000Y-57800000D03*
X115360000Y-58440000D03*
%TD*%
D37*
%TO.C,FSR1*%
X131885000Y-50890000D03*
X131885000Y-49890000D03*
D38*
X129360000Y-52190000D03*
X129360000Y-48590000D03*
%TD*%
D39*
%TO.C,PWLED1*%
X128100000Y-55475000D03*
X128100000Y-57225000D03*
X131600000Y-57225000D03*
X131600000Y-55475000D03*
%TD*%
D22*
%TO.C,C9*%
X149750000Y-50200000D03*
X149750000Y-49560000D03*
%TD*%
D37*
%TO.C,SW1*%
X126650000Y-50900000D03*
X126650000Y-49900000D03*
D38*
X124125000Y-52200000D03*
X124125000Y-48600000D03*
%TD*%
D21*
%TO.C,C13*%
X132725000Y-55480000D03*
X132725000Y-56120000D03*
%TD*%
D40*
%TO.C,H2*%
X103230000Y-69270000D03*
%TD*%
D21*
%TO.C,R9*%
X113499999Y-68395699D03*
X113499999Y-69035699D03*
%TD*%
D22*
%TO.C,R5*%
X150480000Y-50210000D03*
X150480000Y-49570000D03*
%TD*%
D40*
%TO.C,H1*%
X103230000Y-51490000D03*
%TD*%
D19*
%TO.C,C3*%
X110324999Y-69145699D03*
X109684999Y-69145699D03*
%TD*%
D22*
%TO.C,TH1*%
X109460000Y-57100000D03*
X109460000Y-56460000D03*
%TD*%
D21*
%TO.C,C14*%
X126770000Y-56008750D03*
X126770000Y-56648750D03*
%TD*%
D41*
%TO.C,U1*%
X110059299Y-64174999D03*
X110059299Y-64574998D03*
X110059299Y-64975000D03*
X110059299Y-65374999D03*
X110059299Y-65774998D03*
X110059299Y-66175000D03*
X110059299Y-66574999D03*
D42*
X110799999Y-67315699D03*
X111199998Y-67315699D03*
X111600000Y-67315699D03*
X111999999Y-67315699D03*
X112399998Y-67315699D03*
X112800000Y-67315699D03*
X113199999Y-67315699D03*
D41*
X113940699Y-66574999D03*
X113940699Y-66175000D03*
X113940699Y-65774998D03*
X113940699Y-65374999D03*
X113940699Y-64975000D03*
X113940699Y-64574998D03*
X113940699Y-64174999D03*
D42*
X113199999Y-63434299D03*
X112800000Y-63434299D03*
X112399998Y-63434299D03*
X111999999Y-63434299D03*
X111600000Y-63434299D03*
X111199998Y-63434299D03*
X110799999Y-63434299D03*
D43*
X111999999Y-65374999D03*
%TD*%
D21*
%TO.C,C2*%
X114640000Y-57815000D03*
X114640000Y-58455000D03*
%TD*%
D44*
%TO.C,U4*%
X119825000Y-56600000D03*
X119825000Y-57250000D03*
X119825000Y-57900000D03*
X119825000Y-58550000D03*
X124125000Y-58550000D03*
X124125000Y-57900000D03*
X124125000Y-57250000D03*
X124125000Y-56600000D03*
%TD*%
D45*
%TO.C,SW3*%
X127650000Y-61300000D03*
X131800000Y-61300000D03*
X127650000Y-63450000D03*
X131800000Y-63450000D03*
%TD*%
D36*
%TO.C,C5*%
X118259300Y-62730700D03*
X116709300Y-62730700D03*
%TD*%
D46*
%TO.C,R2*%
X113419900Y-60195000D03*
X113419900Y-59145000D03*
X111060100Y-59145000D03*
X111060100Y-60195000D03*
%TD*%
D22*
%TO.C,R12*%
X108750000Y-57120000D03*
X108750000Y-56480000D03*
%TD*%
D47*
%TO.C,J1*%
X105315000Y-57560000D03*
X105315000Y-63340000D03*
D48*
X106390000Y-57250000D03*
X106390000Y-58050000D03*
D49*
X106390000Y-59200000D03*
X106390000Y-60200000D03*
X106390000Y-60700000D03*
X106390000Y-61700000D03*
D48*
X106390000Y-62850000D03*
X106390000Y-63650000D03*
X106390000Y-63650000D03*
X106390000Y-62850000D03*
D49*
X106390000Y-62200000D03*
X106390000Y-61200000D03*
X106390000Y-59700000D03*
X106390000Y-58700000D03*
D48*
X106390000Y-58050000D03*
X106390000Y-57250000D03*
D50*
X105815000Y-56130000D03*
D51*
X101635000Y-56130000D03*
D50*
X105815000Y-64770000D03*
D51*
X101635000Y-64770000D03*
%TD*%
D52*
%TO.C,Q3*%
X126075000Y-64112500D03*
X124175000Y-64112500D03*
X125125000Y-65987500D03*
%TD*%
D53*
%TO.C,BOARDLAYOUT1*%
X134580000Y-49060000D03*
X137120000Y-49060000D03*
X139660000Y-49060000D03*
X142200000Y-49060000D03*
X144740000Y-49060000D03*
X147280000Y-49060000D03*
X152360000Y-71920000D03*
X149820000Y-71920000D03*
X147280000Y-71920000D03*
X144740000Y-71920000D03*
X142200000Y-71920000D03*
X139660000Y-71920000D03*
X137120000Y-71920000D03*
X134580000Y-71920000D03*
X114260000Y-71920000D03*
X111720000Y-71920000D03*
X109180000Y-71920000D03*
X106640000Y-71920000D03*
%TD*%
D21*
%TO.C,R20*%
X134160000Y-59810000D03*
X134160000Y-60450000D03*
%TD*%
D19*
%TO.C,R10*%
X114615000Y-62675000D03*
X113975000Y-62675000D03*
%TD*%
D21*
%TO.C,R7*%
X108590000Y-58570000D03*
X108590000Y-59210000D03*
%TD*%
D19*
%TO.C,C8*%
X110329999Y-68435699D03*
X109689999Y-68435699D03*
%TD*%
D20*
%TO.C,R1*%
X133590000Y-51010000D03*
X134230000Y-51010000D03*
%TD*%
D19*
%TO.C,R13*%
X133395000Y-57225000D03*
X132755000Y-57225000D03*
%TD*%
D35*
%TO.C,L1*%
X116721800Y-65680700D03*
X118296800Y-65680700D03*
%TD*%
%LPD*%
M02*
