%TF.GenerationSoftware,KiCad,Pcbnew,7.0.6*%
%TF.CreationDate,2023-10-17T01:06:07-04:00*%
%TF.ProjectId,tstick-5gw-pro-USB-V2-pcb,74737469-636b-42d3-9567-772d70726f2d,v0.0.2*%
%TF.SameCoordinates,Original*%
%TF.FileFunction,Copper,L3,Inr*%
%TF.FilePolarity,Positive*%
%FSLAX46Y46*%
G04 Gerber Fmt 4.6, Leading zero omitted, Abs format (unit mm)*
G04 Created by KiCad (PCBNEW 7.0.6) date 2023-10-17 01:06:07*
%MOMM*%
%LPD*%
G01*
G04 APERTURE LIST*
%TA.AperFunction,ComponentPad*%
%ADD10O,2.100000X1.000000*%
%TD*%
%TA.AperFunction,ComponentPad*%
%ADD11O,1.800000X1.000000*%
%TD*%
%TA.AperFunction,ComponentPad*%
%ADD12O,1.700000X1.700000*%
%TD*%
%TA.AperFunction,ViaPad*%
%ADD13C,0.558800*%
%TD*%
%TA.AperFunction,ViaPad*%
%ADD14C,0.508000*%
%TD*%
%TA.AperFunction,Conductor*%
%ADD15C,0.304800*%
%TD*%
G04 APERTURE END LIST*
D10*
%TO.N,GND*%
%TO.C,J1*%
X105815000Y-56130000D03*
D11*
X101635000Y-56130000D03*
D10*
X105815000Y-64770000D03*
D11*
X101635000Y-64770000D03*
%TD*%
D12*
%TO.N,+3V3*%
%TO.C,BOARDLAYOUT1*%
X134580000Y-49060000D03*
%TO.N,GND*%
X137120000Y-49060000D03*
%TO.N,/IO8*%
X139660000Y-49060000D03*
%TO.N,/IO7*%
X142200000Y-49060000D03*
%TO.N,/IO6*%
X144740000Y-49060000D03*
%TO.N,/EN*%
X147280000Y-49060000D03*
%TO.N,GND*%
X152360000Y-71920000D03*
%TO.N,/IO1*%
X149820000Y-71920000D03*
%TO.N,/IO2*%
X147280000Y-71920000D03*
%TO.N,/IO4*%
X144740000Y-71920000D03*
%TO.N,/IO5*%
X142200000Y-71920000D03*
%TO.N,/COPI*%
X139660000Y-71920000D03*
%TO.N,/SCK*%
X137120000Y-71920000D03*
%TO.N,/CIPO*%
X134580000Y-71920000D03*
%TO.N,GND*%
X114260000Y-71920000D03*
%TO.N,+3V3*%
X111720000Y-71920000D03*
%TO.N,/SDA*%
X109180000Y-71920000D03*
%TO.N,/SCL*%
X106640000Y-71920000D03*
%TD*%
D13*
%TO.N,+BATT*%
X117200000Y-49875000D03*
X110200000Y-53600000D03*
X113800000Y-55975000D03*
X115375000Y-57331700D03*
D14*
X109079300Y-67650700D03*
D13*
%TO.N,+1V8*%
X126075000Y-62975000D03*
X121825000Y-64525000D03*
X119225000Y-62750000D03*
X117675000Y-61625000D03*
X119329300Y-64190700D03*
X123875000Y-62575000D03*
X120978401Y-63750000D03*
X118728859Y-57250000D03*
%TO.N,+3V3*%
X134150000Y-61010000D03*
X152160000Y-50400000D03*
X119319300Y-67170700D03*
X150480000Y-48930000D03*
X119300000Y-65700000D03*
X126050000Y-57151250D03*
X120983646Y-68383646D03*
X132725000Y-54925000D03*
X123800000Y-67350000D03*
X113283630Y-69533269D03*
X134150000Y-57250000D03*
X131885000Y-51525000D03*
D14*
%TO.N,GND*%
X107310000Y-63710000D03*
X134750000Y-51000000D03*
X123749999Y-60524999D03*
X149540000Y-56790000D03*
X109133300Y-64274497D03*
X126820000Y-49050000D03*
X109133300Y-65350000D03*
X123790000Y-72095000D03*
X128140000Y-51880000D03*
X150375000Y-57575000D03*
X153450000Y-70325000D03*
X110750000Y-62675000D03*
X109100000Y-68750000D03*
X148078573Y-61430720D03*
X114615000Y-63210000D03*
X146580000Y-61375000D03*
X153430000Y-50530000D03*
X145850000Y-60590000D03*
X145800000Y-57600000D03*
X128140000Y-48610000D03*
X122670000Y-52320000D03*
X150350000Y-59075000D03*
X110199497Y-62675000D03*
X109133300Y-65900000D03*
X122050000Y-68470000D03*
X149580000Y-61375000D03*
X115805700Y-62730700D03*
X109975000Y-60150000D03*
X112369999Y-69365699D03*
X116740000Y-50930000D03*
X107670000Y-50920000D03*
X132162500Y-62762500D03*
X122175000Y-59300000D03*
X133300000Y-56528700D03*
X111819540Y-62656755D03*
X131490000Y-72060000D03*
X145800000Y-59090000D03*
X109200000Y-62850000D03*
X118750000Y-56528700D03*
X126800000Y-57198750D03*
X107362105Y-57250000D03*
X122178399Y-63746601D03*
X109133300Y-66435221D03*
X116549300Y-68020700D03*
X148080000Y-56800000D03*
X109133300Y-64825000D03*
X111269094Y-62648836D03*
X122910000Y-48650000D03*
X150375000Y-60550000D03*
X127250000Y-57875000D03*
X116125000Y-72125000D03*
X114027256Y-69500475D03*
X146575000Y-56825000D03*
X149750000Y-48925000D03*
X110050000Y-67100000D03*
%TO.N,/EN*%
X132450000Y-60750000D03*
X150450000Y-52925000D03*
D13*
%TO.N,VUSB*%
X111309999Y-69495699D03*
X107250000Y-58075000D03*
X107375000Y-62850000D03*
D14*
%TO.N,/SCL*%
X125640000Y-57890000D03*
X132625000Y-58550000D03*
X109550000Y-57975000D03*
X127325000Y-60375000D03*
X117607931Y-70065500D03*
%TO.N,/SDA*%
X118925000Y-70575000D03*
X125425000Y-58750000D03*
X109550000Y-58925000D03*
X132745650Y-59805650D03*
%TO.N,/THRM*%
X114423699Y-56498699D03*
X107950000Y-56100000D03*
%TO.N,/IO4*%
X149570000Y-54260000D03*
%TO.N,/IO5*%
X148330000Y-54370000D03*
%TO.N,/IO9*%
X126650000Y-51675000D03*
X134575000Y-55611300D03*
%TO.N,/IO17*%
X141700000Y-52950000D03*
X115570000Y-56070000D03*
%TO.N,/IO3*%
X134635000Y-53465000D03*
X133600000Y-51450000D03*
%TO.N,/SCK*%
X136790000Y-66160000D03*
%TO.N,/CIPO*%
X134568159Y-66765050D03*
%TO.N,/IO39*%
X139700000Y-65700000D03*
X129250000Y-68425000D03*
%TO.N,/IO40*%
X128275000Y-68400000D03*
X139700000Y-65036503D03*
%TO.N,/IO41*%
X127340000Y-68300000D03*
X139700000Y-64400000D03*
%TO.N,/IO42*%
X139690000Y-63725000D03*
X126270000Y-68380000D03*
%TO.N,SYS*%
X115550000Y-65025000D03*
X114500000Y-67775000D03*
X112451373Y-62579797D03*
X111349999Y-68555699D03*
%TD*%
D15*
%TO.N,+BATT*%
X108575000Y-67146400D02*
X109079300Y-67650700D01*
X110200000Y-53600000D02*
X108575000Y-55225000D01*
X108575000Y-55225000D02*
X108575000Y-67146400D01*
%TO.N,VUSB*%
X107375000Y-62850000D02*
X107868800Y-63343800D01*
X107868800Y-68993800D02*
X108800000Y-69925000D01*
X108800000Y-69925000D02*
X110880698Y-69925000D01*
X110880698Y-69925000D02*
X111309999Y-69495699D01*
X107868800Y-63343800D02*
X107868800Y-68993800D01*
%TD*%
%TA.AperFunction,Conductor*%
%TO.N,+BATT*%
G36*
X119609134Y-49350866D02*
G01*
X119620000Y-49377100D01*
X119620000Y-53202900D01*
X119609134Y-53229134D01*
X119582900Y-53240000D01*
X117220000Y-53240000D01*
X117220000Y-53240001D01*
X117220000Y-60402900D01*
X117209134Y-60429134D01*
X117182900Y-60440000D01*
X110344454Y-60440000D01*
X110318220Y-60429134D01*
X110307354Y-60402900D01*
X110311398Y-60386057D01*
X110366808Y-60277308D01*
X110366808Y-60277307D01*
X110366809Y-60277306D01*
X110386972Y-60150000D01*
X110366809Y-60022694D01*
X110366808Y-60022692D01*
X110366808Y-60022691D01*
X110308294Y-59907852D01*
X110308293Y-59907851D01*
X110308292Y-59907849D01*
X110217151Y-59816708D01*
X110217148Y-59816706D01*
X110217147Y-59816705D01*
X110102308Y-59758191D01*
X110102309Y-59758191D01*
X109975001Y-59738028D01*
X109975000Y-59738028D01*
X109970483Y-59738743D01*
X109962901Y-59739944D01*
X109935291Y-59733313D01*
X109920455Y-59709102D01*
X109920000Y-59703312D01*
X109920000Y-59104009D01*
X109924040Y-59087177D01*
X109941809Y-59052306D01*
X109961972Y-58925000D01*
X109941809Y-58797694D01*
X109941808Y-58797692D01*
X109941807Y-58797689D01*
X109924044Y-58762827D01*
X109920000Y-58745984D01*
X109920000Y-58154014D01*
X109924043Y-58137172D01*
X109941809Y-58102306D01*
X109961972Y-57975000D01*
X109941809Y-57847694D01*
X109941808Y-57847692D01*
X109941807Y-57847689D01*
X109924044Y-57812827D01*
X109920000Y-57795984D01*
X109920000Y-56498700D01*
X114011727Y-56498700D01*
X114031890Y-56626007D01*
X114090404Y-56740846D01*
X114090405Y-56740847D01*
X114090407Y-56740850D01*
X114181548Y-56831991D01*
X114181550Y-56831992D01*
X114181551Y-56831993D01*
X114296390Y-56890507D01*
X114296391Y-56890507D01*
X114296393Y-56890508D01*
X114385280Y-56904586D01*
X114423698Y-56910671D01*
X114423699Y-56910671D01*
X114423700Y-56910671D01*
X114447657Y-56906876D01*
X114551005Y-56890508D01*
X114665850Y-56831991D01*
X114756991Y-56740850D01*
X114815508Y-56626005D01*
X114835671Y-56498699D01*
X114815508Y-56371393D01*
X114815507Y-56371391D01*
X114815507Y-56371390D01*
X114756993Y-56256551D01*
X114756992Y-56256550D01*
X114756991Y-56256548D01*
X114665850Y-56165407D01*
X114665847Y-56165405D01*
X114665846Y-56165404D01*
X114551007Y-56106890D01*
X114551008Y-56106890D01*
X114423700Y-56086727D01*
X114423698Y-56086727D01*
X114296390Y-56106890D01*
X114181551Y-56165404D01*
X114090404Y-56256551D01*
X114031890Y-56371390D01*
X114011727Y-56498697D01*
X114011727Y-56498700D01*
X109920000Y-56498700D01*
X109920000Y-56070001D01*
X115158028Y-56070001D01*
X115178191Y-56197308D01*
X115236705Y-56312147D01*
X115236706Y-56312148D01*
X115236708Y-56312151D01*
X115327849Y-56403292D01*
X115327851Y-56403293D01*
X115327852Y-56403294D01*
X115442691Y-56461808D01*
X115442692Y-56461808D01*
X115442694Y-56461809D01*
X115531581Y-56475887D01*
X115569999Y-56481972D01*
X115570000Y-56481972D01*
X115570001Y-56481972D01*
X115593958Y-56478177D01*
X115697306Y-56461809D01*
X115812151Y-56403292D01*
X115903292Y-56312151D01*
X115961809Y-56197306D01*
X115981972Y-56070000D01*
X115961809Y-55942694D01*
X115961808Y-55942692D01*
X115961808Y-55942691D01*
X115903294Y-55827852D01*
X115903293Y-55827851D01*
X115903292Y-55827849D01*
X115812151Y-55736708D01*
X115812148Y-55736706D01*
X115812147Y-55736705D01*
X115697308Y-55678191D01*
X115697309Y-55678191D01*
X115570001Y-55658028D01*
X115569999Y-55658028D01*
X115442691Y-55678191D01*
X115327852Y-55736705D01*
X115236705Y-55827852D01*
X115178191Y-55942691D01*
X115158028Y-56069998D01*
X115158028Y-56070001D01*
X109920000Y-56070001D01*
X109920000Y-50930001D01*
X116328028Y-50930001D01*
X116348191Y-51057308D01*
X116406705Y-51172147D01*
X116406706Y-51172148D01*
X116406708Y-51172151D01*
X116497849Y-51263292D01*
X116497851Y-51263293D01*
X116497852Y-51263294D01*
X116612691Y-51321808D01*
X116612692Y-51321808D01*
X116612694Y-51321809D01*
X116701581Y-51335887D01*
X116739999Y-51341972D01*
X116740000Y-51341972D01*
X116740001Y-51341972D01*
X116763958Y-51338177D01*
X116867306Y-51321809D01*
X116982151Y-51263292D01*
X117073292Y-51172151D01*
X117131809Y-51057306D01*
X117151972Y-50930000D01*
X117131809Y-50802694D01*
X117131808Y-50802692D01*
X117131808Y-50802691D01*
X117073294Y-50687852D01*
X117073293Y-50687851D01*
X117073292Y-50687849D01*
X116982151Y-50596708D01*
X116982148Y-50596706D01*
X116982147Y-50596705D01*
X116867308Y-50538191D01*
X116867309Y-50538191D01*
X116740001Y-50518028D01*
X116739999Y-50518028D01*
X116612691Y-50538191D01*
X116497852Y-50596705D01*
X116406705Y-50687852D01*
X116348191Y-50802691D01*
X116328028Y-50929998D01*
X116328028Y-50930001D01*
X109920000Y-50930001D01*
X109920000Y-49377100D01*
X109930866Y-49350866D01*
X109957100Y-49340000D01*
X119582900Y-49340000D01*
X119609134Y-49350866D01*
G37*
%TD.AperFunction*%
%TD*%
%TA.AperFunction,Conductor*%
%TO.N,SYS*%
G36*
X110189630Y-60523582D02*
G01*
X110190052Y-60523034D01*
X110192950Y-60525257D01*
X110192951Y-60525259D01*
X110257797Y-60575016D01*
X110284031Y-60585882D01*
X110298927Y-60588844D01*
X110344446Y-60597899D01*
X110344451Y-60597899D01*
X110344454Y-60597900D01*
X110344456Y-60597900D01*
X117182900Y-60597900D01*
X117209134Y-60608766D01*
X117220000Y-60635000D01*
X117220000Y-69537900D01*
X117209134Y-69564134D01*
X117182900Y-69575000D01*
X114470863Y-69575000D01*
X114444629Y-69564134D01*
X114433763Y-69537900D01*
X114434220Y-69532096D01*
X114439228Y-69500476D01*
X114439228Y-69500473D01*
X114424934Y-69410224D01*
X114419065Y-69373169D01*
X114419064Y-69373167D01*
X114419064Y-69373166D01*
X114360550Y-69258327D01*
X114360549Y-69258326D01*
X114360548Y-69258324D01*
X114269407Y-69167183D01*
X114269404Y-69167181D01*
X114269403Y-69167180D01*
X114154564Y-69108666D01*
X114154565Y-69108666D01*
X114027257Y-69088503D01*
X114027255Y-69088503D01*
X113899947Y-69108666D01*
X113785108Y-69167180D01*
X113693961Y-69258327D01*
X113690626Y-69264873D01*
X113669033Y-69283312D01*
X113640725Y-69281082D01*
X113629533Y-69272322D01*
X113569640Y-69203202D01*
X113569639Y-69203201D01*
X113569637Y-69203199D01*
X113465060Y-69135992D01*
X113465057Y-69135990D01*
X113345789Y-69100969D01*
X113345785Y-69100969D01*
X113221475Y-69100969D01*
X113221470Y-69100969D01*
X113102203Y-69135990D01*
X113102202Y-69135990D01*
X113056079Y-69165632D01*
X112997623Y-69203199D01*
X112997622Y-69203199D01*
X112997619Y-69203202D01*
X112916219Y-69297143D01*
X112916215Y-69297150D01*
X112864575Y-69410224D01*
X112846885Y-69533266D01*
X112846885Y-69535922D01*
X112845950Y-69535922D01*
X112839765Y-69560139D01*
X112815342Y-69574623D01*
X112810069Y-69575000D01*
X112780571Y-69575000D01*
X112754337Y-69564134D01*
X112743471Y-69537900D01*
X112747515Y-69521057D01*
X112761807Y-69493007D01*
X112761807Y-69493006D01*
X112761808Y-69493005D01*
X112780788Y-69373166D01*
X112781971Y-69365700D01*
X112781971Y-69365697D01*
X112771114Y-69297150D01*
X112761808Y-69238393D01*
X112761807Y-69238391D01*
X112761807Y-69238390D01*
X112703293Y-69123551D01*
X112703292Y-69123550D01*
X112703291Y-69123548D01*
X112612150Y-69032407D01*
X112612147Y-69032405D01*
X112612146Y-69032404D01*
X112497307Y-68973890D01*
X112497308Y-68973890D01*
X112370000Y-68953727D01*
X112369998Y-68953727D01*
X112242690Y-68973890D01*
X112127851Y-69032404D01*
X112036704Y-69123551D01*
X111978190Y-69238390D01*
X111958027Y-69365697D01*
X111958027Y-69365700D01*
X111978190Y-69493007D01*
X111992483Y-69521057D01*
X111994711Y-69549364D01*
X111976270Y-69570956D01*
X111959427Y-69575000D01*
X111778158Y-69575000D01*
X111751924Y-69564134D01*
X111741058Y-69537900D01*
X111741436Y-69532620D01*
X111746744Y-69495702D01*
X111746744Y-69495696D01*
X111729053Y-69372654D01*
X111725876Y-69365697D01*
X111677412Y-69259577D01*
X111676326Y-69258324D01*
X111596009Y-69165632D01*
X111596008Y-69165631D01*
X111596006Y-69165629D01*
X111491429Y-69098422D01*
X111491426Y-69098420D01*
X111372158Y-69063399D01*
X111372154Y-69063399D01*
X111247844Y-69063399D01*
X111247839Y-69063399D01*
X111128572Y-69098420D01*
X111128571Y-69098420D01*
X111070108Y-69135992D01*
X111023992Y-69165629D01*
X111023991Y-69165629D01*
X111023988Y-69165632D01*
X110942588Y-69259573D01*
X110942584Y-69259580D01*
X110890944Y-69372654D01*
X110874173Y-69489299D01*
X110863685Y-69510252D01*
X110809806Y-69564133D01*
X110783573Y-69575000D01*
X109962080Y-69575000D01*
X109935846Y-69564134D01*
X109924980Y-69537920D01*
X109924745Y-69108666D01*
X109924149Y-68020701D01*
X116137328Y-68020701D01*
X116157491Y-68148008D01*
X116216005Y-68262847D01*
X116216006Y-68262848D01*
X116216008Y-68262851D01*
X116307149Y-68353992D01*
X116307151Y-68353993D01*
X116307152Y-68353994D01*
X116421991Y-68412508D01*
X116421992Y-68412508D01*
X116421994Y-68412509D01*
X116510881Y-68426587D01*
X116549299Y-68432672D01*
X116549300Y-68432672D01*
X116549301Y-68432672D01*
X116573258Y-68428877D01*
X116676606Y-68412509D01*
X116791451Y-68353992D01*
X116882592Y-68262851D01*
X116941109Y-68148006D01*
X116961272Y-68020700D01*
X116941109Y-67893394D01*
X116941108Y-67893392D01*
X116941108Y-67893391D01*
X116882594Y-67778552D01*
X116882593Y-67778551D01*
X116882592Y-67778549D01*
X116791451Y-67687408D01*
X116791448Y-67687406D01*
X116791447Y-67687405D01*
X116676608Y-67628891D01*
X116676609Y-67628891D01*
X116549301Y-67608728D01*
X116549299Y-67608728D01*
X116421991Y-67628891D01*
X116307152Y-67687405D01*
X116216005Y-67778552D01*
X116157491Y-67893391D01*
X116137328Y-68020698D01*
X116137328Y-68020701D01*
X109924149Y-68020701D01*
X109923883Y-67535450D01*
X109934734Y-67509216D01*
X109960962Y-67498335D01*
X109966781Y-67498791D01*
X110025809Y-67508140D01*
X110049999Y-67511972D01*
X110050000Y-67511972D01*
X110050001Y-67511972D01*
X110073958Y-67508177D01*
X110177306Y-67491809D01*
X110292151Y-67433292D01*
X110383292Y-67342151D01*
X110441809Y-67227306D01*
X110461972Y-67100000D01*
X110441809Y-66972694D01*
X110441808Y-66972692D01*
X110441808Y-66972691D01*
X110383294Y-66857852D01*
X110383293Y-66857851D01*
X110383292Y-66857849D01*
X110292151Y-66766708D01*
X110292148Y-66766706D01*
X110292147Y-66766705D01*
X110177308Y-66708191D01*
X110177309Y-66708191D01*
X110050001Y-66688028D01*
X110049997Y-66688028D01*
X109966309Y-66701282D01*
X109938699Y-66694653D01*
X109923863Y-66670442D01*
X109923407Y-66664672D01*
X109921515Y-63210001D01*
X114203028Y-63210001D01*
X114223191Y-63337308D01*
X114281705Y-63452147D01*
X114281706Y-63452148D01*
X114281708Y-63452151D01*
X114372849Y-63543292D01*
X114372851Y-63543293D01*
X114372852Y-63543294D01*
X114487691Y-63601808D01*
X114487692Y-63601808D01*
X114487694Y-63601809D01*
X114576581Y-63615887D01*
X114614999Y-63621972D01*
X114615000Y-63621972D01*
X114615001Y-63621972D01*
X114638958Y-63618177D01*
X114742306Y-63601809D01*
X114857151Y-63543292D01*
X114948292Y-63452151D01*
X115006809Y-63337306D01*
X115026972Y-63210000D01*
X115006809Y-63082694D01*
X115006808Y-63082692D01*
X115006808Y-63082691D01*
X114948294Y-62967852D01*
X114948293Y-62967851D01*
X114948292Y-62967849D01*
X114857151Y-62876708D01*
X114857148Y-62876706D01*
X114857147Y-62876705D01*
X114742308Y-62818191D01*
X114742309Y-62818191D01*
X114615001Y-62798028D01*
X114614999Y-62798028D01*
X114487691Y-62818191D01*
X114372852Y-62876705D01*
X114281705Y-62967852D01*
X114223191Y-63082691D01*
X114203028Y-63209998D01*
X114203028Y-63210001D01*
X109921515Y-63210001D01*
X109921428Y-63050550D01*
X109932280Y-63024314D01*
X109958508Y-63013433D01*
X109975371Y-63017477D01*
X110072188Y-63066808D01*
X110072189Y-63066808D01*
X110072191Y-63066809D01*
X110161078Y-63080887D01*
X110199496Y-63086972D01*
X110199497Y-63086972D01*
X110199498Y-63086972D01*
X110223455Y-63083177D01*
X110326803Y-63066809D01*
X110441648Y-63008292D01*
X110448514Y-63001425D01*
X110474746Y-62990558D01*
X110500979Y-63001422D01*
X110507849Y-63008292D01*
X110507851Y-63008293D01*
X110507852Y-63008294D01*
X110622691Y-63066808D01*
X110622692Y-63066808D01*
X110622694Y-63066809D01*
X110711581Y-63080887D01*
X110749999Y-63086972D01*
X110750000Y-63086972D01*
X110750001Y-63086972D01*
X110773958Y-63083177D01*
X110877306Y-63066809D01*
X110992151Y-63008292D01*
X111002168Y-62998274D01*
X111028398Y-62987409D01*
X111045243Y-62991453D01*
X111141785Y-63040644D01*
X111141786Y-63040644D01*
X111141788Y-63040645D01*
X111204327Y-63050550D01*
X111269093Y-63060808D01*
X111269094Y-63060808D01*
X111269095Y-63060808D01*
X111293052Y-63057013D01*
X111396400Y-63040645D01*
X111428451Y-63024314D01*
X111511242Y-62982130D01*
X111511242Y-62982129D01*
X111511245Y-62982128D01*
X111514122Y-62979250D01*
X111540353Y-62968382D01*
X111566588Y-62979246D01*
X111577389Y-62990047D01*
X111577391Y-62990048D01*
X111577392Y-62990049D01*
X111692231Y-63048563D01*
X111692232Y-63048563D01*
X111692234Y-63048564D01*
X111769541Y-63060808D01*
X111819539Y-63068727D01*
X111819540Y-63068727D01*
X111819541Y-63068727D01*
X111849436Y-63063992D01*
X111946846Y-63048564D01*
X112061691Y-62990047D01*
X112152832Y-62898906D01*
X112211349Y-62784061D01*
X112219800Y-62730701D01*
X115393728Y-62730701D01*
X115413891Y-62858008D01*
X115472405Y-62972847D01*
X115472406Y-62972848D01*
X115472408Y-62972851D01*
X115563549Y-63063992D01*
X115563551Y-63063993D01*
X115563552Y-63063994D01*
X115678391Y-63122508D01*
X115678392Y-63122508D01*
X115678394Y-63122509D01*
X115767281Y-63136587D01*
X115805699Y-63142672D01*
X115805700Y-63142672D01*
X115805701Y-63142672D01*
X115829658Y-63138877D01*
X115933006Y-63122509D01*
X116047851Y-63063992D01*
X116138992Y-62972851D01*
X116197509Y-62858006D01*
X116217672Y-62730700D01*
X116197509Y-62603394D01*
X116197508Y-62603392D01*
X116197508Y-62603391D01*
X116138994Y-62488552D01*
X116138993Y-62488551D01*
X116138992Y-62488549D01*
X116047851Y-62397408D01*
X116047848Y-62397406D01*
X116047847Y-62397405D01*
X115933008Y-62338891D01*
X115933009Y-62338891D01*
X115805701Y-62318728D01*
X115805699Y-62318728D01*
X115678391Y-62338891D01*
X115563552Y-62397405D01*
X115472405Y-62488552D01*
X115413891Y-62603391D01*
X115393728Y-62730698D01*
X115393728Y-62730701D01*
X112219800Y-62730701D01*
X112231512Y-62656755D01*
X112211349Y-62529449D01*
X112211348Y-62529447D01*
X112211348Y-62529446D01*
X112152834Y-62414607D01*
X112152833Y-62414606D01*
X112152832Y-62414604D01*
X112061691Y-62323463D01*
X112061688Y-62323461D01*
X112061687Y-62323460D01*
X111946848Y-62264946D01*
X111946849Y-62264946D01*
X111819541Y-62244783D01*
X111819539Y-62244783D01*
X111692231Y-62264946D01*
X111577389Y-62323462D01*
X111577386Y-62323464D01*
X111574507Y-62326343D01*
X111548272Y-62337207D01*
X111522043Y-62326342D01*
X111519161Y-62323460D01*
X111511245Y-62315544D01*
X111511242Y-62315542D01*
X111511241Y-62315541D01*
X111396402Y-62257027D01*
X111396403Y-62257027D01*
X111269095Y-62236864D01*
X111269093Y-62236864D01*
X111141785Y-62257027D01*
X111026944Y-62315542D01*
X111016925Y-62325561D01*
X110990690Y-62336426D01*
X110973849Y-62332382D01*
X110877308Y-62283191D01*
X110877309Y-62283191D01*
X110750001Y-62263028D01*
X110749999Y-62263028D01*
X110622691Y-62283191D01*
X110507849Y-62341707D01*
X110507847Y-62341708D01*
X110500980Y-62348575D01*
X110474746Y-62359440D01*
X110448516Y-62348575D01*
X110441647Y-62341707D01*
X110441645Y-62341706D01*
X110326805Y-62283191D01*
X110326806Y-62283191D01*
X110199498Y-62263028D01*
X110199496Y-62263028D01*
X110072188Y-62283191D01*
X109974960Y-62332732D01*
X109946652Y-62334960D01*
X109925061Y-62316519D01*
X109921017Y-62299699D01*
X109920085Y-60596727D01*
X109930936Y-60570493D01*
X109957164Y-60559612D01*
X109962980Y-60560068D01*
X109975000Y-60561972D01*
X109975001Y-60561972D01*
X109992407Y-60559215D01*
X110102306Y-60541809D01*
X110149278Y-60517874D01*
X110177582Y-60515646D01*
X110189630Y-60523582D01*
G37*
%TD.AperFunction*%
%TD*%
%TA.AperFunction,Conductor*%
%TO.N,+3V3*%
G36*
X151918666Y-47791424D02*
G01*
X152051813Y-47798402D01*
X152218779Y-47807779D01*
X152237407Y-47808826D01*
X152239255Y-47809023D01*
X152393847Y-47833508D01*
X152558389Y-47861465D01*
X152560065Y-47861832D01*
X152621132Y-47878194D01*
X152714893Y-47903318D01*
X152871722Y-47948499D01*
X152873211Y-47948998D01*
X153024383Y-48007027D01*
X153173788Y-48068913D01*
X153175097Y-48069516D01*
X153320132Y-48143415D01*
X153455427Y-48218191D01*
X153461014Y-48221279D01*
X153462144Y-48221957D01*
X153599070Y-48310878D01*
X153679367Y-48367852D01*
X153730082Y-48403836D01*
X153731021Y-48404549D01*
X153857771Y-48507189D01*
X153858452Y-48507768D01*
X153977824Y-48614445D01*
X153978565Y-48615145D01*
X154093953Y-48730533D01*
X154094656Y-48731277D01*
X154201325Y-48850640D01*
X154201909Y-48851327D01*
X154304549Y-48978076D01*
X154305262Y-48979016D01*
X154398220Y-49110027D01*
X154487141Y-49246954D01*
X154487819Y-49248084D01*
X154565688Y-49388976D01*
X154639575Y-49533987D01*
X154640185Y-49535310D01*
X154702077Y-49684729D01*
X154760093Y-49835868D01*
X154760600Y-49837381D01*
X154805779Y-49994197D01*
X154847266Y-50149033D01*
X154847637Y-50150727D01*
X154875594Y-50315269D01*
X154900073Y-50469828D01*
X154900272Y-50471690D01*
X154910698Y-50657306D01*
X154911191Y-50666705D01*
X154917675Y-50790433D01*
X154917700Y-50791383D01*
X154917700Y-70190416D01*
X154917675Y-70191367D01*
X154915375Y-70235257D01*
X154910709Y-70324282D01*
X154900272Y-70510108D01*
X154900073Y-70511970D01*
X154875594Y-70666530D01*
X154847637Y-70831071D01*
X154847266Y-70832765D01*
X154805779Y-70987602D01*
X154760600Y-71144418D01*
X154760093Y-71145930D01*
X154702077Y-71297070D01*
X154640185Y-71446488D01*
X154639575Y-71447811D01*
X154565688Y-71592823D01*
X154487819Y-71733714D01*
X154487141Y-71734844D01*
X154398220Y-71871772D01*
X154305262Y-72002782D01*
X154304549Y-72003722D01*
X154201909Y-72130471D01*
X154201325Y-72131158D01*
X154094668Y-72250508D01*
X154093953Y-72251265D01*
X153978565Y-72366653D01*
X153977808Y-72367368D01*
X153858458Y-72474025D01*
X153857771Y-72474609D01*
X153731022Y-72577249D01*
X153730082Y-72577962D01*
X153599072Y-72670920D01*
X153462144Y-72759841D01*
X153461014Y-72760519D01*
X153320123Y-72838388D01*
X153175111Y-72912275D01*
X153173788Y-72912885D01*
X153024370Y-72974777D01*
X152873230Y-73032793D01*
X152871718Y-73033300D01*
X152714902Y-73078479D01*
X152560065Y-73119966D01*
X152558371Y-73120337D01*
X152393830Y-73148294D01*
X152239270Y-73172773D01*
X152237408Y-73172972D01*
X152051582Y-73183409D01*
X151985938Y-73186849D01*
X151918666Y-73190375D01*
X151917717Y-73190400D01*
X102038683Y-73190400D01*
X102037733Y-73190375D01*
X101967213Y-73186679D01*
X101904817Y-73183409D01*
X101718990Y-73172972D01*
X101717128Y-73172773D01*
X101562569Y-73148294D01*
X101398027Y-73120337D01*
X101396333Y-73119966D01*
X101241497Y-73078479D01*
X101084681Y-73033300D01*
X101083168Y-73032793D01*
X100932029Y-72974777D01*
X100782610Y-72912885D01*
X100781287Y-72912275D01*
X100636276Y-72838388D01*
X100495384Y-72760519D01*
X100494254Y-72759841D01*
X100357327Y-72670920D01*
X100226316Y-72577962D01*
X100225376Y-72577249D01*
X100098627Y-72474609D01*
X100097940Y-72474025D01*
X100046767Y-72428294D01*
X99978577Y-72367356D01*
X99977833Y-72366653D01*
X99862445Y-72251265D01*
X99861745Y-72250524D01*
X99755068Y-72131152D01*
X99754489Y-72130471D01*
X99651849Y-72003721D01*
X99651136Y-72002782D01*
X99626237Y-71967691D01*
X99592402Y-71920004D01*
X105632247Y-71920004D01*
X105651610Y-72116602D01*
X105651610Y-72116603D01*
X105708955Y-72305641D01*
X105708958Y-72305650D01*
X105802084Y-72479878D01*
X105927411Y-72632589D01*
X106080122Y-72757916D01*
X106254350Y-72851042D01*
X106405843Y-72896997D01*
X106443397Y-72908389D01*
X106639996Y-72927753D01*
X106640000Y-72927753D01*
X106640004Y-72927753D01*
X106797282Y-72912261D01*
X106836603Y-72908389D01*
X107025650Y-72851042D01*
X107199878Y-72757916D01*
X107352589Y-72632589D01*
X107477916Y-72479878D01*
X107571042Y-72305650D01*
X107628389Y-72116603D01*
X107640101Y-71997691D01*
X107647753Y-71920004D01*
X108172247Y-71920004D01*
X108191610Y-72116602D01*
X108191610Y-72116603D01*
X108248955Y-72305641D01*
X108248958Y-72305650D01*
X108342084Y-72479878D01*
X108467411Y-72632589D01*
X108620122Y-72757916D01*
X108794350Y-72851042D01*
X108945843Y-72896997D01*
X108983397Y-72908389D01*
X109179996Y-72927753D01*
X109180000Y-72927753D01*
X109180004Y-72927753D01*
X109337282Y-72912261D01*
X109376603Y-72908389D01*
X109565650Y-72851042D01*
X109739878Y-72757916D01*
X109892589Y-72632589D01*
X110017916Y-72479878D01*
X110111042Y-72305650D01*
X110168389Y-72116603D01*
X110180101Y-71997691D01*
X110187753Y-71920004D01*
X110187753Y-71919995D01*
X110177786Y-71818799D01*
X110672474Y-71818799D01*
X110672475Y-71818800D01*
X111228606Y-71818800D01*
X111220000Y-71848111D01*
X111220000Y-71991889D01*
X111228606Y-72021200D01*
X110672475Y-72021200D01*
X110682826Y-72126305D01*
X110682826Y-72126306D01*
X110743002Y-72324676D01*
X110743007Y-72324688D01*
X110840726Y-72507507D01*
X110840729Y-72507512D01*
X110972239Y-72667758D01*
X110972241Y-72667760D01*
X111132487Y-72799270D01*
X111132492Y-72799273D01*
X111315311Y-72896992D01*
X111315323Y-72896997D01*
X111513693Y-72957173D01*
X111618799Y-72967524D01*
X111618799Y-72967523D01*
X111618799Y-72410591D01*
X111684237Y-72420000D01*
X111755763Y-72420000D01*
X111821200Y-72410591D01*
X111821200Y-72967524D01*
X111926305Y-72957173D01*
X111926306Y-72957173D01*
X112124676Y-72896997D01*
X112124688Y-72896992D01*
X112307507Y-72799273D01*
X112307512Y-72799270D01*
X112467758Y-72667760D01*
X112467760Y-72667758D01*
X112599270Y-72507512D01*
X112599273Y-72507507D01*
X112696992Y-72324688D01*
X112696997Y-72324676D01*
X112757173Y-72126306D01*
X112757173Y-72126305D01*
X112767525Y-72021200D01*
X112211394Y-72021200D01*
X112220000Y-71991889D01*
X112220000Y-71920004D01*
X113252247Y-71920004D01*
X113271610Y-72116602D01*
X113271610Y-72116603D01*
X113328955Y-72305641D01*
X113328958Y-72305650D01*
X113422084Y-72479878D01*
X113547411Y-72632589D01*
X113700122Y-72757916D01*
X113874350Y-72851042D01*
X114025843Y-72896997D01*
X114063397Y-72908389D01*
X114259996Y-72927753D01*
X114260000Y-72927753D01*
X114260004Y-72927753D01*
X114417282Y-72912261D01*
X114456603Y-72908389D01*
X114645650Y-72851042D01*
X114819878Y-72757916D01*
X114972589Y-72632589D01*
X115097916Y-72479878D01*
X115191042Y-72305650D01*
X115245841Y-72125001D01*
X115713028Y-72125001D01*
X115733191Y-72252308D01*
X115791705Y-72367147D01*
X115791706Y-72367148D01*
X115791708Y-72367151D01*
X115882849Y-72458292D01*
X115882851Y-72458293D01*
X115882852Y-72458294D01*
X115997691Y-72516808D01*
X115997692Y-72516808D01*
X115997694Y-72516809D01*
X116055264Y-72525927D01*
X116124999Y-72536972D01*
X116125000Y-72536972D01*
X116125001Y-72536972D01*
X116148958Y-72533177D01*
X116252306Y-72516809D01*
X116367151Y-72458292D01*
X116458292Y-72367151D01*
X116516809Y-72252306D01*
X116535998Y-72131152D01*
X116536972Y-72125001D01*
X116536972Y-72124998D01*
X116532221Y-72095001D01*
X123378028Y-72095001D01*
X123398191Y-72222308D01*
X123456705Y-72337147D01*
X123456706Y-72337148D01*
X123456708Y-72337151D01*
X123547849Y-72428292D01*
X123547851Y-72428293D01*
X123547852Y-72428294D01*
X123662691Y-72486808D01*
X123662692Y-72486808D01*
X123662694Y-72486809D01*
X123751581Y-72500887D01*
X123789999Y-72506972D01*
X123790000Y-72506972D01*
X123790001Y-72506972D01*
X123813958Y-72503177D01*
X123917306Y-72486809D01*
X124032151Y-72428292D01*
X124123292Y-72337151D01*
X124181809Y-72222306D01*
X124201972Y-72095000D01*
X124196429Y-72060001D01*
X131078028Y-72060001D01*
X131098191Y-72187308D01*
X131156705Y-72302147D01*
X131156706Y-72302148D01*
X131156708Y-72302151D01*
X131247849Y-72393292D01*
X131247851Y-72393293D01*
X131247852Y-72393294D01*
X131362691Y-72451808D01*
X131362692Y-72451808D01*
X131362694Y-72451809D01*
X131451581Y-72465887D01*
X131489999Y-72471972D01*
X131490000Y-72471972D01*
X131490001Y-72471972D01*
X131513958Y-72468177D01*
X131617306Y-72451809D01*
X131732151Y-72393292D01*
X131823292Y-72302151D01*
X131881809Y-72187306D01*
X131898177Y-72083958D01*
X131901972Y-72060001D01*
X131901972Y-72059998D01*
X131885177Y-71953962D01*
X131881809Y-71932694D01*
X131881808Y-71932692D01*
X131881808Y-71932691D01*
X131875344Y-71920004D01*
X133572247Y-71920004D01*
X133591610Y-72116602D01*
X133591610Y-72116603D01*
X133648955Y-72305641D01*
X133648958Y-72305650D01*
X133742084Y-72479878D01*
X133867411Y-72632589D01*
X134020122Y-72757916D01*
X134194350Y-72851042D01*
X134345843Y-72896997D01*
X134383397Y-72908389D01*
X134579996Y-72927753D01*
X134580000Y-72927753D01*
X134580004Y-72927753D01*
X134737282Y-72912261D01*
X134776603Y-72908389D01*
X134965650Y-72851042D01*
X135139878Y-72757916D01*
X135292589Y-72632589D01*
X135417916Y-72479878D01*
X135511042Y-72305650D01*
X135568389Y-72116603D01*
X135580101Y-71997691D01*
X135587753Y-71920004D01*
X136112247Y-71920004D01*
X136131610Y-72116602D01*
X136131610Y-72116603D01*
X136188955Y-72305641D01*
X136188958Y-72305650D01*
X136282084Y-72479878D01*
X136407411Y-72632589D01*
X136560122Y-72757916D01*
X136734350Y-72851042D01*
X136885843Y-72896997D01*
X136923397Y-72908389D01*
X137119996Y-72927753D01*
X137120000Y-72927753D01*
X137120004Y-72927753D01*
X137277282Y-72912261D01*
X137316603Y-72908389D01*
X137505650Y-72851042D01*
X137679878Y-72757916D01*
X137832589Y-72632589D01*
X137957916Y-72479878D01*
X138051042Y-72305650D01*
X138108389Y-72116603D01*
X138120101Y-71997691D01*
X138127753Y-71920004D01*
X138652247Y-71920004D01*
X138671610Y-72116602D01*
X138671610Y-72116603D01*
X138728955Y-72305641D01*
X138728958Y-72305650D01*
X138822084Y-72479878D01*
X138947411Y-72632589D01*
X139100122Y-72757916D01*
X139274350Y-72851042D01*
X139425843Y-72896997D01*
X139463397Y-72908389D01*
X139659996Y-72927753D01*
X139660000Y-72927753D01*
X139660004Y-72927753D01*
X139817282Y-72912261D01*
X139856603Y-72908389D01*
X140045650Y-72851042D01*
X140219878Y-72757916D01*
X140372589Y-72632589D01*
X140497916Y-72479878D01*
X140591042Y-72305650D01*
X140648389Y-72116603D01*
X140660101Y-71997691D01*
X140667753Y-71920004D01*
X141192247Y-71920004D01*
X141211610Y-72116602D01*
X141211610Y-72116603D01*
X141268955Y-72305641D01*
X141268958Y-72305650D01*
X141362084Y-72479878D01*
X141487411Y-72632589D01*
X141640122Y-72757916D01*
X141814350Y-72851042D01*
X141965843Y-72896997D01*
X142003397Y-72908389D01*
X142199996Y-72927753D01*
X142200000Y-72927753D01*
X142200004Y-72927753D01*
X142357282Y-72912261D01*
X142396603Y-72908389D01*
X142585650Y-72851042D01*
X142759878Y-72757916D01*
X142912589Y-72632589D01*
X143037916Y-72479878D01*
X143131042Y-72305650D01*
X143188389Y-72116603D01*
X143200101Y-71997691D01*
X143207753Y-71920004D01*
X143732247Y-71920004D01*
X143751610Y-72116602D01*
X143751610Y-72116603D01*
X143808955Y-72305641D01*
X143808958Y-72305650D01*
X143902084Y-72479878D01*
X144027411Y-72632589D01*
X144180122Y-72757916D01*
X144354350Y-72851042D01*
X144505843Y-72896997D01*
X144543397Y-72908389D01*
X144739996Y-72927753D01*
X144740000Y-72927753D01*
X144740004Y-72927753D01*
X144897282Y-72912261D01*
X144936603Y-72908389D01*
X145125650Y-72851042D01*
X145299878Y-72757916D01*
X145452589Y-72632589D01*
X145577916Y-72479878D01*
X145671042Y-72305650D01*
X145728389Y-72116603D01*
X145740101Y-71997691D01*
X145747753Y-71920004D01*
X146272247Y-71920004D01*
X146291610Y-72116602D01*
X146291610Y-72116603D01*
X146348955Y-72305641D01*
X146348958Y-72305650D01*
X146442084Y-72479878D01*
X146567411Y-72632589D01*
X146720122Y-72757916D01*
X146894350Y-72851042D01*
X147045843Y-72896997D01*
X147083397Y-72908389D01*
X147279996Y-72927753D01*
X147280000Y-72927753D01*
X147280004Y-72927753D01*
X147437282Y-72912261D01*
X147476603Y-72908389D01*
X147665650Y-72851042D01*
X147839878Y-72757916D01*
X147992589Y-72632589D01*
X148117916Y-72479878D01*
X148211042Y-72305650D01*
X148268389Y-72116603D01*
X148280101Y-71997691D01*
X148287753Y-71920004D01*
X148812247Y-71920004D01*
X148831610Y-72116602D01*
X148831610Y-72116603D01*
X148888955Y-72305641D01*
X148888958Y-72305650D01*
X148982084Y-72479878D01*
X149107411Y-72632589D01*
X149260122Y-72757916D01*
X149434350Y-72851042D01*
X149585843Y-72896997D01*
X149623397Y-72908389D01*
X149819996Y-72927753D01*
X149820000Y-72927753D01*
X149820004Y-72927753D01*
X149977282Y-72912261D01*
X150016603Y-72908389D01*
X150205650Y-72851042D01*
X150379878Y-72757916D01*
X150532589Y-72632589D01*
X150657916Y-72479878D01*
X150751042Y-72305650D01*
X150808389Y-72116603D01*
X150820101Y-71997691D01*
X150827753Y-71920004D01*
X151352247Y-71920004D01*
X151371610Y-72116602D01*
X151371610Y-72116603D01*
X151428955Y-72305641D01*
X151428958Y-72305650D01*
X151522084Y-72479878D01*
X151647411Y-72632589D01*
X151800122Y-72757916D01*
X151974350Y-72851042D01*
X152125843Y-72896997D01*
X152163397Y-72908389D01*
X152359996Y-72927753D01*
X152360000Y-72927753D01*
X152360004Y-72927753D01*
X152517282Y-72912261D01*
X152556603Y-72908389D01*
X152745650Y-72851042D01*
X152919878Y-72757916D01*
X153072589Y-72632589D01*
X153197916Y-72479878D01*
X153291042Y-72305650D01*
X153348389Y-72116603D01*
X153360101Y-71997691D01*
X153367753Y-71920004D01*
X153367753Y-71919995D01*
X153348389Y-71723397D01*
X153348389Y-71723396D01*
X153324563Y-71644856D01*
X153291042Y-71534350D01*
X153197916Y-71360122D01*
X153072589Y-71207411D01*
X152919878Y-71082084D01*
X152745650Y-70988958D01*
X152745643Y-70988955D01*
X152745641Y-70988955D01*
X152556602Y-70931610D01*
X152360004Y-70912247D01*
X152359996Y-70912247D01*
X152163397Y-70931610D01*
X152163396Y-70931610D01*
X151974358Y-70988955D01*
X151974352Y-70988957D01*
X151974350Y-70988958D01*
X151974347Y-70988959D01*
X151974346Y-70988960D01*
X151800125Y-71082082D01*
X151800120Y-71082085D01*
X151647412Y-71207410D01*
X151647410Y-71207412D01*
X151522085Y-71360120D01*
X151522082Y-71360125D01*
X151428960Y-71534346D01*
X151428955Y-71534358D01*
X151371610Y-71723396D01*
X151371610Y-71723397D01*
X151352247Y-71919995D01*
X151352247Y-71920004D01*
X150827753Y-71920004D01*
X150827753Y-71919995D01*
X150808389Y-71723397D01*
X150808389Y-71723396D01*
X150784563Y-71644856D01*
X150751042Y-71534350D01*
X150657916Y-71360122D01*
X150532589Y-71207411D01*
X150379878Y-71082084D01*
X150205650Y-70988958D01*
X150205643Y-70988955D01*
X150205641Y-70988955D01*
X150016602Y-70931610D01*
X149820004Y-70912247D01*
X149819996Y-70912247D01*
X149623397Y-70931610D01*
X149623396Y-70931610D01*
X149434358Y-70988955D01*
X149434352Y-70988957D01*
X149434350Y-70988958D01*
X149434347Y-70988959D01*
X149434346Y-70988960D01*
X149260125Y-71082082D01*
X149260120Y-71082085D01*
X149107412Y-71207410D01*
X149107410Y-71207412D01*
X148982085Y-71360120D01*
X148982082Y-71360125D01*
X148888960Y-71534346D01*
X148888955Y-71534358D01*
X148831610Y-71723396D01*
X148831610Y-71723397D01*
X148812247Y-71919995D01*
X148812247Y-71920004D01*
X148287753Y-71920004D01*
X148287753Y-71919995D01*
X148268389Y-71723397D01*
X148268389Y-71723396D01*
X148244563Y-71644856D01*
X148211042Y-71534350D01*
X148117916Y-71360122D01*
X147992589Y-71207411D01*
X147839878Y-71082084D01*
X147665650Y-70988958D01*
X147665643Y-70988955D01*
X147665641Y-70988955D01*
X147476602Y-70931610D01*
X147280004Y-70912247D01*
X147279996Y-70912247D01*
X147083397Y-70931610D01*
X147083396Y-70931610D01*
X146894358Y-70988955D01*
X146894352Y-70988957D01*
X146894350Y-70988958D01*
X146894347Y-70988959D01*
X146894346Y-70988960D01*
X146720125Y-71082082D01*
X146720120Y-71082085D01*
X146567412Y-71207410D01*
X146567410Y-71207412D01*
X146442085Y-71360120D01*
X146442082Y-71360125D01*
X146348960Y-71534346D01*
X146348955Y-71534358D01*
X146291610Y-71723396D01*
X146291610Y-71723397D01*
X146272247Y-71919995D01*
X146272247Y-71920004D01*
X145747753Y-71920004D01*
X145747753Y-71919995D01*
X145728389Y-71723397D01*
X145728389Y-71723396D01*
X145704563Y-71644856D01*
X145671042Y-71534350D01*
X145577916Y-71360122D01*
X145452589Y-71207411D01*
X145299878Y-71082084D01*
X145125650Y-70988958D01*
X145125643Y-70988955D01*
X145125641Y-70988955D01*
X144936602Y-70931610D01*
X144740004Y-70912247D01*
X144739996Y-70912247D01*
X144543397Y-70931610D01*
X144543396Y-70931610D01*
X144354358Y-70988955D01*
X144354352Y-70988957D01*
X144354350Y-70988958D01*
X144354347Y-70988959D01*
X144354346Y-70988960D01*
X144180125Y-71082082D01*
X144180120Y-71082085D01*
X144027412Y-71207410D01*
X144027410Y-71207412D01*
X143902085Y-71360120D01*
X143902082Y-71360125D01*
X143808960Y-71534346D01*
X143808955Y-71534358D01*
X143751610Y-71723396D01*
X143751610Y-71723397D01*
X143732247Y-71919995D01*
X143732247Y-71920004D01*
X143207753Y-71920004D01*
X143207753Y-71919995D01*
X143188389Y-71723397D01*
X143188389Y-71723396D01*
X143164563Y-71644856D01*
X143131042Y-71534350D01*
X143037916Y-71360122D01*
X142912589Y-71207411D01*
X142759878Y-71082084D01*
X142585650Y-70988958D01*
X142585643Y-70988955D01*
X142585641Y-70988955D01*
X142396602Y-70931610D01*
X142200004Y-70912247D01*
X142199996Y-70912247D01*
X142003397Y-70931610D01*
X142003396Y-70931610D01*
X141814358Y-70988955D01*
X141814352Y-70988957D01*
X141814350Y-70988958D01*
X141814347Y-70988959D01*
X141814346Y-70988960D01*
X141640125Y-71082082D01*
X141640120Y-71082085D01*
X141487412Y-71207410D01*
X141487410Y-71207412D01*
X141362085Y-71360120D01*
X141362082Y-71360125D01*
X141268960Y-71534346D01*
X141268955Y-71534358D01*
X141211610Y-71723396D01*
X141211610Y-71723397D01*
X141192247Y-71919995D01*
X141192247Y-71920004D01*
X140667753Y-71920004D01*
X140667753Y-71919995D01*
X140648389Y-71723397D01*
X140648389Y-71723396D01*
X140624563Y-71644856D01*
X140591042Y-71534350D01*
X140497916Y-71360122D01*
X140372589Y-71207411D01*
X140219878Y-71082084D01*
X140045650Y-70988958D01*
X140045643Y-70988955D01*
X140045641Y-70988955D01*
X139856602Y-70931610D01*
X139660004Y-70912247D01*
X139659996Y-70912247D01*
X139463397Y-70931610D01*
X139463396Y-70931610D01*
X139274358Y-70988955D01*
X139274352Y-70988957D01*
X139274350Y-70988958D01*
X139274347Y-70988959D01*
X139274346Y-70988960D01*
X139100125Y-71082082D01*
X139100120Y-71082085D01*
X138947412Y-71207410D01*
X138947410Y-71207412D01*
X138822085Y-71360120D01*
X138822082Y-71360125D01*
X138728960Y-71534346D01*
X138728955Y-71534358D01*
X138671610Y-71723396D01*
X138671610Y-71723397D01*
X138652247Y-71919995D01*
X138652247Y-71920004D01*
X138127753Y-71920004D01*
X138127753Y-71919995D01*
X138108389Y-71723397D01*
X138108389Y-71723396D01*
X138084563Y-71644856D01*
X138051042Y-71534350D01*
X137957916Y-71360122D01*
X137832589Y-71207411D01*
X137679878Y-71082084D01*
X137505650Y-70988958D01*
X137505643Y-70988955D01*
X137505641Y-70988955D01*
X137316602Y-70931610D01*
X137120004Y-70912247D01*
X137119996Y-70912247D01*
X136923397Y-70931610D01*
X136923396Y-70931610D01*
X136734358Y-70988955D01*
X136734352Y-70988957D01*
X136734350Y-70988958D01*
X136734347Y-70988959D01*
X136734346Y-70988960D01*
X136560125Y-71082082D01*
X136560120Y-71082085D01*
X136407412Y-71207410D01*
X136407410Y-71207412D01*
X136282085Y-71360120D01*
X136282082Y-71360125D01*
X136188960Y-71534346D01*
X136188955Y-71534358D01*
X136131610Y-71723396D01*
X136131610Y-71723397D01*
X136112247Y-71919995D01*
X136112247Y-71920004D01*
X135587753Y-71920004D01*
X135587753Y-71919995D01*
X135568389Y-71723397D01*
X135568389Y-71723396D01*
X135544563Y-71644856D01*
X135511042Y-71534350D01*
X135417916Y-71360122D01*
X135292589Y-71207411D01*
X135139878Y-71082084D01*
X134965650Y-70988958D01*
X134965643Y-70988955D01*
X134965641Y-70988955D01*
X134776602Y-70931610D01*
X134580004Y-70912247D01*
X134579996Y-70912247D01*
X134383397Y-70931610D01*
X134383396Y-70931610D01*
X134194358Y-70988955D01*
X134194352Y-70988957D01*
X134194350Y-70988958D01*
X134194347Y-70988959D01*
X134194346Y-70988960D01*
X134020125Y-71082082D01*
X134020120Y-71082085D01*
X133867412Y-71207410D01*
X133867410Y-71207412D01*
X133742085Y-71360120D01*
X133742082Y-71360125D01*
X133648960Y-71534346D01*
X133648955Y-71534358D01*
X133591610Y-71723396D01*
X133591610Y-71723397D01*
X133572247Y-71919995D01*
X133572247Y-71920004D01*
X131875344Y-71920004D01*
X131823294Y-71817852D01*
X131823293Y-71817851D01*
X131823292Y-71817849D01*
X131732151Y-71726708D01*
X131732148Y-71726706D01*
X131732147Y-71726705D01*
X131617308Y-71668191D01*
X131617309Y-71668191D01*
X131490001Y-71648028D01*
X131489999Y-71648028D01*
X131362691Y-71668191D01*
X131247852Y-71726705D01*
X131156705Y-71817852D01*
X131098191Y-71932691D01*
X131078028Y-72059998D01*
X131078028Y-72060001D01*
X124196429Y-72060001D01*
X124181809Y-71967694D01*
X124181808Y-71967692D01*
X124181808Y-71967691D01*
X124123294Y-71852852D01*
X124123293Y-71852851D01*
X124123292Y-71852849D01*
X124032151Y-71761708D01*
X124032148Y-71761706D01*
X124032147Y-71761705D01*
X123917308Y-71703191D01*
X123917309Y-71703191D01*
X123790001Y-71683028D01*
X123789999Y-71683028D01*
X123662691Y-71703191D01*
X123547852Y-71761705D01*
X123456705Y-71852852D01*
X123398191Y-71967691D01*
X123378028Y-72094998D01*
X123378028Y-72095001D01*
X116532221Y-72095001D01*
X116520532Y-72021200D01*
X116516809Y-71997694D01*
X116516808Y-71997692D01*
X116516808Y-71997691D01*
X116458294Y-71882852D01*
X116458293Y-71882851D01*
X116458292Y-71882849D01*
X116367151Y-71791708D01*
X116367148Y-71791706D01*
X116367147Y-71791705D01*
X116252308Y-71733191D01*
X116252309Y-71733191D01*
X116125001Y-71713028D01*
X116124999Y-71713028D01*
X115997691Y-71733191D01*
X115882852Y-71791705D01*
X115791705Y-71882852D01*
X115733191Y-71997691D01*
X115713028Y-72124998D01*
X115713028Y-72125001D01*
X115245841Y-72125001D01*
X115248389Y-72116603D01*
X115260101Y-71997691D01*
X115267753Y-71920004D01*
X115267753Y-71919995D01*
X115248389Y-71723397D01*
X115248389Y-71723396D01*
X115224563Y-71644856D01*
X115191042Y-71534350D01*
X115097916Y-71360122D01*
X114972589Y-71207411D01*
X114819878Y-71082084D01*
X114645650Y-70988958D01*
X114645643Y-70988955D01*
X114645641Y-70988955D01*
X114456602Y-70931610D01*
X114260004Y-70912247D01*
X114259996Y-70912247D01*
X114063397Y-70931610D01*
X114063396Y-70931610D01*
X113874358Y-70988955D01*
X113874352Y-70988957D01*
X113874350Y-70988958D01*
X113874347Y-70988959D01*
X113874346Y-70988960D01*
X113700125Y-71082082D01*
X113700120Y-71082085D01*
X113547412Y-71207410D01*
X113547410Y-71207412D01*
X113422085Y-71360120D01*
X113422082Y-71360125D01*
X113328960Y-71534346D01*
X113328955Y-71534358D01*
X113271610Y-71723396D01*
X113271610Y-71723397D01*
X113252247Y-71919995D01*
X113252247Y-71920004D01*
X112220000Y-71920004D01*
X112220000Y-71848111D01*
X112211394Y-71818800D01*
X112767525Y-71818800D01*
X112767525Y-71818799D01*
X112757173Y-71713694D01*
X112757173Y-71713693D01*
X112696997Y-71515323D01*
X112696992Y-71515311D01*
X112599273Y-71332492D01*
X112599270Y-71332487D01*
X112467760Y-71172241D01*
X112467758Y-71172239D01*
X112307512Y-71040729D01*
X112307507Y-71040726D01*
X112124688Y-70943007D01*
X112124676Y-70943002D01*
X111926305Y-70882826D01*
X111821200Y-70872474D01*
X111821200Y-71429408D01*
X111755763Y-71420000D01*
X111684237Y-71420000D01*
X111618800Y-71429408D01*
X111618800Y-70872475D01*
X111618799Y-70872474D01*
X111513694Y-70882826D01*
X111513693Y-70882826D01*
X111315323Y-70943002D01*
X111315311Y-70943007D01*
X111132492Y-71040726D01*
X111132487Y-71040729D01*
X110972241Y-71172239D01*
X110972239Y-71172241D01*
X110840729Y-71332487D01*
X110840726Y-71332492D01*
X110743007Y-71515311D01*
X110743002Y-71515323D01*
X110682826Y-71713693D01*
X110682826Y-71713694D01*
X110672474Y-71818799D01*
X110177786Y-71818799D01*
X110168389Y-71723397D01*
X110168389Y-71723396D01*
X110144563Y-71644856D01*
X110111042Y-71534350D01*
X110017916Y-71360122D01*
X109892589Y-71207411D01*
X109739878Y-71082084D01*
X109565650Y-70988958D01*
X109565643Y-70988955D01*
X109565641Y-70988955D01*
X109376602Y-70931610D01*
X109180004Y-70912247D01*
X109179996Y-70912247D01*
X108983397Y-70931610D01*
X108983396Y-70931610D01*
X108794358Y-70988955D01*
X108794352Y-70988957D01*
X108794350Y-70988958D01*
X108794347Y-70988959D01*
X108794346Y-70988960D01*
X108620125Y-71082082D01*
X108620120Y-71082085D01*
X108467412Y-71207410D01*
X108467410Y-71207412D01*
X108342085Y-71360120D01*
X108342082Y-71360125D01*
X108248960Y-71534346D01*
X108248955Y-71534358D01*
X108191610Y-71723396D01*
X108191610Y-71723397D01*
X108172247Y-71919995D01*
X108172247Y-71920004D01*
X107647753Y-71920004D01*
X107647753Y-71919995D01*
X107628389Y-71723397D01*
X107628389Y-71723396D01*
X107604563Y-71644856D01*
X107571042Y-71534350D01*
X107477916Y-71360122D01*
X107352589Y-71207411D01*
X107199878Y-71082084D01*
X107025650Y-70988958D01*
X107025643Y-70988955D01*
X107025641Y-70988955D01*
X106836602Y-70931610D01*
X106640004Y-70912247D01*
X106639996Y-70912247D01*
X106443397Y-70931610D01*
X106443396Y-70931610D01*
X106254358Y-70988955D01*
X106254352Y-70988957D01*
X106254350Y-70988958D01*
X106254347Y-70988959D01*
X106254346Y-70988960D01*
X106080125Y-71082082D01*
X106080120Y-71082085D01*
X105927412Y-71207410D01*
X105927410Y-71207412D01*
X105802085Y-71360120D01*
X105802082Y-71360125D01*
X105708960Y-71534346D01*
X105708955Y-71534358D01*
X105651610Y-71723396D01*
X105651610Y-71723397D01*
X105632247Y-71919995D01*
X105632247Y-71920004D01*
X99592402Y-71920004D01*
X99558178Y-71871770D01*
X99469257Y-71734844D01*
X99468579Y-71733714D01*
X99462877Y-71723397D01*
X99390711Y-71592823D01*
X99316816Y-71447797D01*
X99316213Y-71446488D01*
X99254322Y-71297070D01*
X99196298Y-71145911D01*
X99195799Y-71144422D01*
X99150614Y-70987579D01*
X99150451Y-70986972D01*
X99119772Y-70872474D01*
X99109132Y-70832765D01*
X99108765Y-70831089D01*
X99080801Y-70666506D01*
X99056323Y-70511955D01*
X99056126Y-70510107D01*
X99048650Y-70376990D01*
X99045690Y-70324282D01*
X99038724Y-70191366D01*
X99038700Y-70190417D01*
X99038700Y-69402681D01*
X101459500Y-69402681D01*
X101499050Y-69665079D01*
X101577262Y-69918641D01*
X101577265Y-69918647D01*
X101577266Y-69918650D01*
X101647985Y-70065500D01*
X101692400Y-70157728D01*
X101692400Y-70157730D01*
X101841882Y-70376979D01*
X101841891Y-70376990D01*
X102022368Y-70571499D01*
X102022372Y-70571503D01*
X102022377Y-70571508D01*
X102229845Y-70736958D01*
X102294088Y-70774049D01*
X102459642Y-70869632D01*
X102459657Y-70869640D01*
X102706666Y-70966584D01*
X102706665Y-70966584D01*
X102706671Y-70966585D01*
X102706673Y-70966586D01*
X102965381Y-71025635D01*
X102965383Y-71025635D01*
X102965387Y-71025636D01*
X102965385Y-71025636D01*
X103144570Y-71039063D01*
X103163745Y-71040500D01*
X103163746Y-71040500D01*
X103296254Y-71040500D01*
X103296255Y-71040500D01*
X103320025Y-71038718D01*
X103494613Y-71025636D01*
X103494616Y-71025635D01*
X103494619Y-71025635D01*
X103753327Y-70966586D01*
X103753330Y-70966584D01*
X103753333Y-70966584D01*
X103993119Y-70872475D01*
X104000345Y-70869639D01*
X104230155Y-70736958D01*
X104433243Y-70575001D01*
X118513028Y-70575001D01*
X118533191Y-70702308D01*
X118591705Y-70817147D01*
X118591706Y-70817148D01*
X118591708Y-70817151D01*
X118682849Y-70908292D01*
X118682851Y-70908293D01*
X118682852Y-70908294D01*
X118797691Y-70966808D01*
X118797692Y-70966808D01*
X118797694Y-70966809D01*
X118886581Y-70980887D01*
X118924999Y-70986972D01*
X118925000Y-70986972D01*
X118925001Y-70986972D01*
X118948958Y-70983177D01*
X119052306Y-70966809D01*
X119167151Y-70908292D01*
X119258292Y-70817151D01*
X119316809Y-70702306D01*
X119336972Y-70575000D01*
X119316809Y-70447694D01*
X119316808Y-70447692D01*
X119316808Y-70447691D01*
X119258294Y-70332852D01*
X119258293Y-70332851D01*
X119258292Y-70332849D01*
X119250444Y-70325001D01*
X153038028Y-70325001D01*
X153058191Y-70452308D01*
X153116705Y-70567147D01*
X153116706Y-70567148D01*
X153116708Y-70567151D01*
X153207849Y-70658292D01*
X153207851Y-70658293D01*
X153207852Y-70658294D01*
X153322691Y-70716808D01*
X153322692Y-70716808D01*
X153322694Y-70716809D01*
X153411581Y-70730887D01*
X153449999Y-70736972D01*
X153450000Y-70736972D01*
X153450001Y-70736972D01*
X153473958Y-70733177D01*
X153577306Y-70716809D01*
X153692151Y-70658292D01*
X153783292Y-70567151D01*
X153841809Y-70452306D01*
X153861972Y-70325000D01*
X153861858Y-70324282D01*
X153848780Y-70241708D01*
X153841809Y-70197694D01*
X153841808Y-70197692D01*
X153841808Y-70197691D01*
X153783294Y-70082852D01*
X153783293Y-70082851D01*
X153783292Y-70082849D01*
X153692151Y-69991708D01*
X153692148Y-69991706D01*
X153692147Y-69991705D01*
X153577308Y-69933191D01*
X153577309Y-69933191D01*
X153450001Y-69913028D01*
X153449999Y-69913028D01*
X153322691Y-69933191D01*
X153207852Y-69991705D01*
X153116705Y-70082852D01*
X153058191Y-70197691D01*
X153038028Y-70324998D01*
X153038028Y-70325001D01*
X119250444Y-70325001D01*
X119167151Y-70241708D01*
X119167148Y-70241706D01*
X119167147Y-70241705D01*
X119052308Y-70183191D01*
X119052309Y-70183191D01*
X118925001Y-70163028D01*
X118924999Y-70163028D01*
X118797691Y-70183191D01*
X118682852Y-70241705D01*
X118591705Y-70332852D01*
X118533191Y-70447691D01*
X118513028Y-70574998D01*
X118513028Y-70575001D01*
X104433243Y-70575001D01*
X104437623Y-70571508D01*
X104618114Y-70376984D01*
X104767598Y-70157733D01*
X104882734Y-69918650D01*
X104884648Y-69912447D01*
X104932439Y-69757508D01*
X104960950Y-69665078D01*
X105000500Y-69402681D01*
X105000500Y-69137319D01*
X104960950Y-68874922D01*
X104904468Y-68691809D01*
X104882737Y-68621358D01*
X104882735Y-68621355D01*
X104882734Y-68621350D01*
X104767599Y-68382270D01*
X104767599Y-68382269D01*
X104618117Y-68163020D01*
X104618108Y-68163009D01*
X104437631Y-67968500D01*
X104437626Y-67968496D01*
X104437623Y-67968492D01*
X104230155Y-67803042D01*
X104222749Y-67798766D01*
X104000357Y-67670367D01*
X104000342Y-67670359D01*
X103753333Y-67573415D01*
X103753334Y-67573415D01*
X103494612Y-67514363D01*
X103494614Y-67514363D01*
X103304996Y-67500155D01*
X103296255Y-67499500D01*
X103163745Y-67499500D01*
X103155003Y-67500155D01*
X102965386Y-67514363D01*
X102706666Y-67573415D01*
X102459657Y-67670359D01*
X102459642Y-67670367D01*
X102229854Y-67803036D01*
X102229838Y-67803047D01*
X102022382Y-67968487D01*
X102022368Y-67968500D01*
X101841891Y-68163009D01*
X101841882Y-68163020D01*
X101692400Y-68382268D01*
X101692400Y-68382270D01*
X101577266Y-68621350D01*
X101577262Y-68621358D01*
X101499050Y-68874920D01*
X101459500Y-69137318D01*
X101459500Y-69402681D01*
X99038700Y-69402681D01*
X99038700Y-64728677D01*
X100578210Y-64728677D01*
X100588568Y-64893318D01*
X100639542Y-65050198D01*
X100639543Y-65050201D01*
X100727934Y-65189482D01*
X100848185Y-65302405D01*
X100992741Y-65381876D01*
X100992745Y-65381877D01*
X101152511Y-65422898D01*
X101152514Y-65422898D01*
X101152520Y-65422900D01*
X101152523Y-65422900D01*
X102076082Y-65422900D01*
X102076081Y-65422899D01*
X102116349Y-65417812D01*
X102198656Y-65407415D01*
X102198656Y-65407414D01*
X102198660Y-65407414D01*
X102352037Y-65346688D01*
X102485493Y-65249726D01*
X102590643Y-65122622D01*
X102660880Y-64973361D01*
X102691790Y-64811322D01*
X102686590Y-64728677D01*
X104608210Y-64728677D01*
X104618568Y-64893318D01*
X104669542Y-65050198D01*
X104669543Y-65050201D01*
X104757934Y-65189482D01*
X104878185Y-65302405D01*
X105022741Y-65381876D01*
X105022745Y-65381877D01*
X105182511Y-65422898D01*
X105182514Y-65422898D01*
X105182520Y-65422900D01*
X105615000Y-65422900D01*
X105641234Y-65433766D01*
X105652100Y-65460000D01*
X105652099Y-67592897D01*
X105652100Y-67592907D01*
X105664116Y-67653316D01*
X105664118Y-67653323D01*
X105674987Y-67679564D01*
X105695595Y-67715257D01*
X105695596Y-67715258D01*
X105695597Y-67715259D01*
X105760443Y-67765016D01*
X105786677Y-67775882D01*
X105797356Y-67778006D01*
X105847092Y-67787899D01*
X105847097Y-67787899D01*
X105847100Y-67787900D01*
X107526400Y-67787900D01*
X107552634Y-67798766D01*
X107563500Y-67825000D01*
X107563500Y-68937945D01*
X107561577Y-68949734D01*
X107561190Y-68950887D01*
X107561189Y-68950891D01*
X107563480Y-69000411D01*
X107563500Y-69001268D01*
X107563500Y-69022090D01*
X107564567Y-69027808D01*
X107564863Y-69030358D01*
X107566461Y-69064905D01*
X107566461Y-69064907D01*
X107566462Y-69064909D01*
X107570415Y-69073862D01*
X107573468Y-69080778D01*
X107575996Y-69088941D01*
X107579185Y-69105998D01*
X107588198Y-69120553D01*
X107597399Y-69135413D01*
X107598595Y-69137683D01*
X107612566Y-69169325D01*
X107624832Y-69181591D01*
X107630141Y-69188294D01*
X107639273Y-69203042D01*
X107666875Y-69223887D01*
X107668815Y-69225575D01*
X108544626Y-70101385D01*
X108551599Y-70111075D01*
X108552143Y-70112168D01*
X108552144Y-70112169D01*
X108552145Y-70112171D01*
X108552147Y-70112172D01*
X108552148Y-70112174D01*
X108588781Y-70145569D01*
X108589401Y-70146161D01*
X108596763Y-70153522D01*
X108604124Y-70160883D01*
X108608917Y-70164167D01*
X108610925Y-70165756D01*
X108636496Y-70189067D01*
X108652674Y-70195334D01*
X108660237Y-70199321D01*
X108674546Y-70209124D01*
X108708218Y-70217043D01*
X108710670Y-70217802D01*
X108717203Y-70220333D01*
X108742925Y-70230299D01*
X108742930Y-70230300D01*
X108760275Y-70230300D01*
X108768768Y-70231284D01*
X108785657Y-70235257D01*
X108819918Y-70230477D01*
X108822481Y-70230300D01*
X110824844Y-70230300D01*
X110836633Y-70232223D01*
X110837788Y-70232610D01*
X110887318Y-70230319D01*
X110888167Y-70230300D01*
X110908985Y-70230300D01*
X110908987Y-70230300D01*
X110914712Y-70229229D01*
X110917250Y-70228935D01*
X110951807Y-70227338D01*
X110967678Y-70220329D01*
X110975835Y-70217803D01*
X110992895Y-70214615D01*
X111022323Y-70196392D01*
X111024569Y-70195209D01*
X111056223Y-70181234D01*
X111068492Y-70168963D01*
X111075190Y-70163658D01*
X111089940Y-70154527D01*
X111110786Y-70126920D01*
X111112470Y-70124986D01*
X111171956Y-70065501D01*
X117195959Y-70065501D01*
X117216122Y-70192808D01*
X117274636Y-70307647D01*
X117274637Y-70307648D01*
X117274639Y-70307651D01*
X117365780Y-70398792D01*
X117365782Y-70398793D01*
X117365783Y-70398794D01*
X117480622Y-70457308D01*
X117480623Y-70457308D01*
X117480625Y-70457309D01*
X117569512Y-70471387D01*
X117607930Y-70477472D01*
X117607931Y-70477472D01*
X117607932Y-70477472D01*
X117631889Y-70473677D01*
X117735237Y-70457309D01*
X117850082Y-70398792D01*
X117941223Y-70307651D01*
X117999740Y-70192806D01*
X118019903Y-70065500D01*
X117999740Y-69938194D01*
X117999739Y-69938192D01*
X117999739Y-69938191D01*
X117941225Y-69823352D01*
X117941224Y-69823351D01*
X117941223Y-69823349D01*
X117850082Y-69732208D01*
X117850079Y-69732206D01*
X117850078Y-69732205D01*
X117735239Y-69673691D01*
X117735240Y-69673691D01*
X117607932Y-69653528D01*
X117607930Y-69653528D01*
X117480622Y-69673691D01*
X117365782Y-69732206D01*
X117365778Y-69732208D01*
X117364744Y-69733243D01*
X117363840Y-69733616D01*
X117363421Y-69733922D01*
X117363347Y-69733821D01*
X117356814Y-69736526D01*
X117350468Y-69747519D01*
X117274637Y-69823350D01*
X117274637Y-69823351D01*
X117216122Y-69938191D01*
X117195959Y-70065498D01*
X117195959Y-70065501D01*
X111171956Y-70065501D01*
X111298594Y-69938865D01*
X111324827Y-69927999D01*
X111372152Y-69927999D01*
X111372154Y-69927999D01*
X111372156Y-69927998D01*
X111372158Y-69927998D01*
X111431791Y-69910487D01*
X111491429Y-69892976D01*
X111596006Y-69825769D01*
X111677412Y-69731821D01*
X111677412Y-69731818D01*
X111677542Y-69731670D01*
X111702934Y-69718960D01*
X111716349Y-69720462D01*
X111717737Y-69720883D01*
X111778150Y-69732899D01*
X111778155Y-69732899D01*
X111778158Y-69732900D01*
X111778160Y-69732900D01*
X111959423Y-69732900D01*
X111959427Y-69732900D01*
X111996291Y-69728536D01*
X112013134Y-69724492D01*
X112028979Y-69719799D01*
X112074479Y-69688526D01*
X112102252Y-69682623D01*
X112121723Y-69692866D01*
X112127848Y-69698991D01*
X112127850Y-69698992D01*
X112127851Y-69698993D01*
X112242690Y-69757507D01*
X112242691Y-69757507D01*
X112242693Y-69757508D01*
X112331580Y-69771586D01*
X112369998Y-69777671D01*
X112369999Y-69777671D01*
X112370000Y-69777671D01*
X112393957Y-69773876D01*
X112497305Y-69757508D01*
X112612150Y-69698991D01*
X112618404Y-69692736D01*
X112644636Y-69681869D01*
X112667223Y-69689536D01*
X112693911Y-69710015D01*
X112693915Y-69710017D01*
X112717352Y-69719724D01*
X112720148Y-69720882D01*
X112735044Y-69723844D01*
X112780563Y-69732899D01*
X112780568Y-69732899D01*
X112780571Y-69732900D01*
X112780573Y-69732900D01*
X112812888Y-69732900D01*
X112818519Y-69732699D01*
X112826603Y-69732121D01*
X112895886Y-69710436D01*
X112920309Y-69695952D01*
X112952721Y-69670472D01*
X112992754Y-69599212D01*
X112998939Y-69574995D01*
X112998938Y-69574994D01*
X113000780Y-69567786D01*
X113001628Y-69566517D01*
X113003178Y-69555737D01*
X113016878Y-69460440D01*
X113019850Y-69450318D01*
X113048199Y-69388244D01*
X113053902Y-69379368D01*
X113098591Y-69327792D01*
X113106571Y-69320879D01*
X113163986Y-69283980D01*
X113173588Y-69279594D01*
X113239055Y-69260371D01*
X113249507Y-69258869D01*
X113317750Y-69258869D01*
X113328201Y-69260371D01*
X113393669Y-69279594D01*
X113403272Y-69283979D01*
X113460686Y-69320876D01*
X113468662Y-69327787D01*
X113510201Y-69375725D01*
X113532211Y-69396663D01*
X113543403Y-69405423D01*
X113551280Y-69411205D01*
X113551281Y-69411205D01*
X113551282Y-69411206D01*
X113596187Y-69427111D01*
X113617288Y-69446112D01*
X113620444Y-69467884D01*
X113615284Y-69500471D01*
X113615284Y-69500476D01*
X113635447Y-69627783D01*
X113693961Y-69742622D01*
X113693962Y-69742623D01*
X113693964Y-69742626D01*
X113785105Y-69833767D01*
X113785107Y-69833768D01*
X113785108Y-69833769D01*
X113899947Y-69892283D01*
X113899948Y-69892283D01*
X113899950Y-69892284D01*
X113988837Y-69906362D01*
X114027255Y-69912447D01*
X114027256Y-69912447D01*
X114027257Y-69912447D01*
X114051214Y-69908652D01*
X114154562Y-69892284D01*
X114269407Y-69833767D01*
X114360548Y-69742626D01*
X114362819Y-69738167D01*
X114384407Y-69719724D01*
X114408599Y-69720672D01*
X114408696Y-69720353D01*
X114409918Y-69720723D01*
X114410073Y-69720730D01*
X114410440Y-69720882D01*
X114425336Y-69723844D01*
X114470855Y-69732899D01*
X114470860Y-69732899D01*
X114470863Y-69732900D01*
X114470865Y-69732900D01*
X117182898Y-69732900D01*
X117182900Y-69732900D01*
X117182902Y-69732899D01*
X117182907Y-69732899D01*
X117213111Y-69726890D01*
X117243323Y-69720882D01*
X117269557Y-69710016D01*
X117305259Y-69689403D01*
X117305260Y-69689400D01*
X117305683Y-69689157D01*
X117307557Y-69688910D01*
X117309081Y-69684421D01*
X117352541Y-69627783D01*
X117355015Y-69624559D01*
X117355017Y-69624555D01*
X117363862Y-69603200D01*
X117365882Y-69598323D01*
X117377900Y-69537900D01*
X117377900Y-68470001D01*
X121638028Y-68470001D01*
X121658191Y-68597308D01*
X121716705Y-68712147D01*
X121716706Y-68712148D01*
X121716708Y-68712151D01*
X121807849Y-68803292D01*
X121807851Y-68803293D01*
X121807852Y-68803294D01*
X121922691Y-68861808D01*
X121922692Y-68861808D01*
X121922694Y-68861809D01*
X122011581Y-68875887D01*
X122049999Y-68881972D01*
X122050000Y-68881972D01*
X122050001Y-68881972D01*
X122079460Y-68877306D01*
X122177306Y-68861809D01*
X122292151Y-68803292D01*
X122383292Y-68712151D01*
X122441809Y-68597306D01*
X122461972Y-68470000D01*
X122454844Y-68424998D01*
X122448077Y-68382268D01*
X122447718Y-68380001D01*
X125858028Y-68380001D01*
X125878191Y-68507308D01*
X125936705Y-68622147D01*
X125936706Y-68622148D01*
X125936708Y-68622151D01*
X126027849Y-68713292D01*
X126027851Y-68713293D01*
X126027852Y-68713294D01*
X126142691Y-68771808D01*
X126142692Y-68771808D01*
X126142694Y-68771809D01*
X126231581Y-68785887D01*
X126269999Y-68791972D01*
X126270000Y-68791972D01*
X126270001Y-68791972D01*
X126293958Y-68788177D01*
X126397306Y-68771809D01*
X126512151Y-68713292D01*
X126603292Y-68622151D01*
X126661809Y-68507306D01*
X126681612Y-68382271D01*
X126681972Y-68380001D01*
X126681972Y-68379998D01*
X126674382Y-68332082D01*
X126669301Y-68300001D01*
X126928028Y-68300001D01*
X126948191Y-68427308D01*
X127006705Y-68542147D01*
X127006706Y-68542148D01*
X127006708Y-68542151D01*
X127097849Y-68633292D01*
X127097851Y-68633293D01*
X127097852Y-68633294D01*
X127212691Y-68691808D01*
X127212692Y-68691808D01*
X127212694Y-68691809D01*
X127301581Y-68705887D01*
X127339999Y-68711972D01*
X127340000Y-68711972D01*
X127340001Y-68711972D01*
X127363958Y-68708177D01*
X127467306Y-68691809D01*
X127582151Y-68633292D01*
X127673292Y-68542151D01*
X127731809Y-68427306D01*
X127736134Y-68400001D01*
X127863028Y-68400001D01*
X127883191Y-68527308D01*
X127941705Y-68642147D01*
X127941706Y-68642148D01*
X127941708Y-68642151D01*
X128032849Y-68733292D01*
X128032851Y-68733293D01*
X128032852Y-68733294D01*
X128147691Y-68791808D01*
X128147692Y-68791808D01*
X128147694Y-68791809D01*
X128236581Y-68805887D01*
X128274999Y-68811972D01*
X128275000Y-68811972D01*
X128275001Y-68811972D01*
X128298958Y-68808177D01*
X128402306Y-68791809D01*
X128517151Y-68733292D01*
X128608292Y-68642151D01*
X128666809Y-68527306D01*
X128683012Y-68425001D01*
X128838028Y-68425001D01*
X128858191Y-68552308D01*
X128916705Y-68667147D01*
X128916706Y-68667148D01*
X128916708Y-68667151D01*
X129007849Y-68758292D01*
X129007851Y-68758293D01*
X129007852Y-68758294D01*
X129122691Y-68816808D01*
X129122692Y-68816808D01*
X129122694Y-68816809D01*
X129211581Y-68830887D01*
X129249999Y-68836972D01*
X129250000Y-68836972D01*
X129250001Y-68836972D01*
X129273958Y-68833177D01*
X129377306Y-68816809D01*
X129492151Y-68758292D01*
X129583292Y-68667151D01*
X129641809Y-68552306D01*
X129658177Y-68448958D01*
X129661972Y-68425001D01*
X129661972Y-68424998D01*
X129648936Y-68342694D01*
X129641809Y-68297694D01*
X129641808Y-68297692D01*
X129641808Y-68297691D01*
X129583294Y-68182852D01*
X129583293Y-68182851D01*
X129583292Y-68182849D01*
X129492151Y-68091708D01*
X129492148Y-68091706D01*
X129492147Y-68091705D01*
X129377308Y-68033191D01*
X129377309Y-68033191D01*
X129250001Y-68013028D01*
X129249999Y-68013028D01*
X129122691Y-68033191D01*
X129007852Y-68091705D01*
X128916705Y-68182852D01*
X128858191Y-68297691D01*
X128838028Y-68424998D01*
X128838028Y-68425001D01*
X128683012Y-68425001D01*
X128686972Y-68400000D01*
X128684163Y-68382267D01*
X128671134Y-68300001D01*
X128666809Y-68272694D01*
X128666808Y-68272692D01*
X128666808Y-68272691D01*
X128608294Y-68157852D01*
X128608293Y-68157851D01*
X128608292Y-68157849D01*
X128517151Y-68066708D01*
X128517148Y-68066706D01*
X128517147Y-68066705D01*
X128402308Y-68008191D01*
X128402309Y-68008191D01*
X128275001Y-67988028D01*
X128274999Y-67988028D01*
X128147691Y-68008191D01*
X128032852Y-68066705D01*
X127941705Y-68157852D01*
X127883191Y-68272691D01*
X127863028Y-68399998D01*
X127863028Y-68400001D01*
X127736134Y-68400001D01*
X127751972Y-68300000D01*
X127751606Y-68297691D01*
X127740545Y-68227852D01*
X127731809Y-68172694D01*
X127731808Y-68172692D01*
X127731808Y-68172691D01*
X127673294Y-68057852D01*
X127673293Y-68057851D01*
X127673292Y-68057849D01*
X127582151Y-67966708D01*
X127582148Y-67966706D01*
X127582147Y-67966705D01*
X127467308Y-67908191D01*
X127467309Y-67908191D01*
X127340001Y-67888028D01*
X127339999Y-67888028D01*
X127212691Y-67908191D01*
X127097852Y-67966705D01*
X127006705Y-68057852D01*
X126948191Y-68172691D01*
X126928028Y-68299998D01*
X126928028Y-68300001D01*
X126669301Y-68300001D01*
X126661809Y-68252694D01*
X126661808Y-68252692D01*
X126661808Y-68252691D01*
X126603294Y-68137852D01*
X126603293Y-68137851D01*
X126603292Y-68137849D01*
X126512151Y-68046708D01*
X126512148Y-68046706D01*
X126512147Y-68046705D01*
X126397308Y-67988191D01*
X126397309Y-67988191D01*
X126270001Y-67968028D01*
X126269999Y-67968028D01*
X126142691Y-67988191D01*
X126027852Y-68046705D01*
X125936705Y-68137852D01*
X125878191Y-68252691D01*
X125858028Y-68379998D01*
X125858028Y-68380001D01*
X122447718Y-68380001D01*
X122441809Y-68342694D01*
X122441808Y-68342692D01*
X122441808Y-68342691D01*
X122383294Y-68227852D01*
X122383293Y-68227851D01*
X122383292Y-68227849D01*
X122292151Y-68136708D01*
X122292148Y-68136706D01*
X122292147Y-68136705D01*
X122177308Y-68078191D01*
X122177309Y-68078191D01*
X122050001Y-68058028D01*
X122049999Y-68058028D01*
X121922691Y-68078191D01*
X121807852Y-68136705D01*
X121716705Y-68227852D01*
X121658191Y-68342691D01*
X121638028Y-68469998D01*
X121638028Y-68470001D01*
X117377900Y-68470001D01*
X117377899Y-66765051D01*
X134156187Y-66765051D01*
X134176350Y-66892358D01*
X134234864Y-67007197D01*
X134234865Y-67007198D01*
X134234867Y-67007201D01*
X134326008Y-67098342D01*
X134326010Y-67098343D01*
X134326011Y-67098344D01*
X134440850Y-67156858D01*
X134440851Y-67156858D01*
X134440853Y-67156859D01*
X134529740Y-67170937D01*
X134568158Y-67177022D01*
X134568159Y-67177022D01*
X134568160Y-67177022D01*
X134592117Y-67173227D01*
X134695465Y-67156859D01*
X134810310Y-67098342D01*
X134901451Y-67007201D01*
X134959968Y-66892356D01*
X134980131Y-66765050D01*
X134959968Y-66637744D01*
X134959967Y-66637742D01*
X134959967Y-66637741D01*
X134901453Y-66522902D01*
X134901452Y-66522901D01*
X134901451Y-66522899D01*
X134810310Y-66431758D01*
X134810307Y-66431756D01*
X134810306Y-66431755D01*
X134695467Y-66373241D01*
X134695468Y-66373241D01*
X134568160Y-66353078D01*
X134568158Y-66353078D01*
X134440850Y-66373241D01*
X134326011Y-66431755D01*
X134234864Y-66522902D01*
X134176350Y-66637741D01*
X134156187Y-66765048D01*
X134156187Y-66765051D01*
X117377899Y-66765051D01*
X117377899Y-66160001D01*
X136378028Y-66160001D01*
X136398191Y-66287308D01*
X136456705Y-66402147D01*
X136456706Y-66402148D01*
X136456708Y-66402151D01*
X136547849Y-66493292D01*
X136547851Y-66493293D01*
X136547852Y-66493294D01*
X136662691Y-66551808D01*
X136662692Y-66551808D01*
X136662694Y-66551809D01*
X136751581Y-66565887D01*
X136789999Y-66571972D01*
X136790000Y-66571972D01*
X136790001Y-66571972D01*
X136813958Y-66568177D01*
X136917306Y-66551809D01*
X137032151Y-66493292D01*
X137123292Y-66402151D01*
X137181809Y-66287306D01*
X137201972Y-66160000D01*
X137181809Y-66032694D01*
X137181808Y-66032692D01*
X137181808Y-66032691D01*
X137123294Y-65917852D01*
X137123293Y-65917851D01*
X137123292Y-65917849D01*
X137032151Y-65826708D01*
X137032148Y-65826706D01*
X137032147Y-65826705D01*
X136917308Y-65768191D01*
X136917309Y-65768191D01*
X136790001Y-65748028D01*
X136789999Y-65748028D01*
X136662691Y-65768191D01*
X136547852Y-65826705D01*
X136456705Y-65917852D01*
X136398191Y-66032691D01*
X136378028Y-66159998D01*
X136378028Y-66160001D01*
X117377899Y-66160001D01*
X117377899Y-65095493D01*
X117388766Y-65069259D01*
X117414999Y-65058393D01*
X126812449Y-65082802D01*
X126812451Y-65082801D01*
X126812452Y-65082802D01*
X126813061Y-65082801D01*
X126813266Y-65082801D01*
X126874625Y-65070235D01*
X126874626Y-65070234D01*
X126874628Y-65070234D01*
X126900752Y-65059138D01*
X126900753Y-65059137D01*
X126900761Y-65059134D01*
X126936268Y-65038209D01*
X126985116Y-64973361D01*
X126985444Y-64972926D01*
X126996077Y-64946594D01*
X127003170Y-64909197D01*
X127007558Y-64886061D01*
X126997192Y-63725001D01*
X139278028Y-63725001D01*
X139298191Y-63852308D01*
X139356705Y-63967147D01*
X139356706Y-63967148D01*
X139356708Y-63967151D01*
X139430823Y-64041266D01*
X139441689Y-64067499D01*
X139430823Y-64093732D01*
X139366706Y-64157849D01*
X139366706Y-64157851D01*
X139308191Y-64272691D01*
X139288028Y-64399998D01*
X139288028Y-64400001D01*
X139308191Y-64527308D01*
X139366706Y-64642148D01*
X139366706Y-64642149D01*
X139416574Y-64692018D01*
X139427440Y-64718251D01*
X139416574Y-64744484D01*
X139366707Y-64794352D01*
X139366706Y-64794354D01*
X139308191Y-64909194D01*
X139288028Y-65036501D01*
X139288028Y-65036504D01*
X139308191Y-65163811D01*
X139366706Y-65278651D01*
X139366706Y-65278652D01*
X139430071Y-65342018D01*
X139440937Y-65368251D01*
X139430071Y-65394484D01*
X139366706Y-65457849D01*
X139366706Y-65457851D01*
X139308191Y-65572691D01*
X139288028Y-65699998D01*
X139288028Y-65700001D01*
X139308191Y-65827308D01*
X139366705Y-65942147D01*
X139366706Y-65942148D01*
X139366708Y-65942151D01*
X139457849Y-66033292D01*
X139457851Y-66033293D01*
X139457852Y-66033294D01*
X139572691Y-66091808D01*
X139572692Y-66091808D01*
X139572694Y-66091809D01*
X139661581Y-66105887D01*
X139699999Y-66111972D01*
X139700000Y-66111972D01*
X139700001Y-66111972D01*
X139723958Y-66108177D01*
X139827306Y-66091809D01*
X139942151Y-66033292D01*
X140033292Y-65942151D01*
X140091809Y-65827306D01*
X140111972Y-65700000D01*
X140091809Y-65572694D01*
X140091808Y-65572692D01*
X140091808Y-65572691D01*
X140033294Y-65457852D01*
X140033293Y-65457851D01*
X140033292Y-65457849D01*
X139969926Y-65394483D01*
X139959061Y-65368251D01*
X139969927Y-65342018D01*
X140033292Y-65278654D01*
X140091809Y-65163809D01*
X140109674Y-65051014D01*
X140111972Y-65036504D01*
X140111972Y-65036501D01*
X140101971Y-64973358D01*
X140091809Y-64909197D01*
X140091808Y-64909195D01*
X140091808Y-64909194D01*
X140033293Y-64794354D01*
X140033293Y-64794353D01*
X139983424Y-64744483D01*
X139972558Y-64718250D01*
X139983424Y-64692018D01*
X140033292Y-64642151D01*
X140091809Y-64527306D01*
X140111972Y-64400000D01*
X140091809Y-64272694D01*
X140091808Y-64272692D01*
X140091808Y-64272691D01*
X140033294Y-64157852D01*
X140033293Y-64157851D01*
X140033292Y-64157849D01*
X139959175Y-64083732D01*
X139948310Y-64057500D01*
X139959175Y-64031267D01*
X140023292Y-63967151D01*
X140081809Y-63852306D01*
X140101972Y-63725000D01*
X140081809Y-63597694D01*
X140081808Y-63597692D01*
X140081808Y-63597691D01*
X140023294Y-63482852D01*
X140023293Y-63482851D01*
X140023292Y-63482849D01*
X139932151Y-63391708D01*
X139932148Y-63391706D01*
X139932147Y-63391705D01*
X139817308Y-63333191D01*
X139817309Y-63333191D01*
X139690001Y-63313028D01*
X139689999Y-63313028D01*
X139562691Y-63333191D01*
X139447852Y-63391705D01*
X139356705Y-63482852D01*
X139298191Y-63597691D01*
X139278028Y-63724998D01*
X139278028Y-63725001D01*
X126997192Y-63725001D01*
X126988598Y-62762501D01*
X131750528Y-62762501D01*
X131770691Y-62889808D01*
X131829205Y-63004647D01*
X131829206Y-63004648D01*
X131829208Y-63004651D01*
X131920349Y-63095792D01*
X131920351Y-63095793D01*
X131920352Y-63095794D01*
X132035191Y-63154308D01*
X132035192Y-63154308D01*
X132035194Y-63154309D01*
X132124081Y-63168387D01*
X132162499Y-63174472D01*
X132162500Y-63174472D01*
X132162501Y-63174472D01*
X132186458Y-63170677D01*
X132289806Y-63154309D01*
X132404651Y-63095792D01*
X132495792Y-63004651D01*
X132554309Y-62889806D01*
X132574472Y-62762500D01*
X132554309Y-62635194D01*
X132554308Y-62635192D01*
X132554308Y-62635191D01*
X132495794Y-62520352D01*
X132495793Y-62520351D01*
X132495792Y-62520349D01*
X132404651Y-62429208D01*
X132404648Y-62429206D01*
X132404647Y-62429205D01*
X132289808Y-62370691D01*
X132289809Y-62370691D01*
X132162501Y-62350528D01*
X132162499Y-62350528D01*
X132035191Y-62370691D01*
X131920352Y-62429205D01*
X131829205Y-62520352D01*
X131770691Y-62635191D01*
X131750528Y-62762498D01*
X131750528Y-62762501D01*
X126988598Y-62762501D01*
X126983033Y-62139268D01*
X126982840Y-62134417D01*
X126982350Y-62127459D01*
X126961533Y-62059526D01*
X126947319Y-62034945D01*
X126906664Y-61988650D01*
X126105800Y-61375001D01*
X146168028Y-61375001D01*
X146188191Y-61502308D01*
X146246705Y-61617147D01*
X146246706Y-61617148D01*
X146246708Y-61617151D01*
X146337849Y-61708292D01*
X146337851Y-61708293D01*
X146337852Y-61708294D01*
X146452691Y-61766808D01*
X146452692Y-61766808D01*
X146452694Y-61766809D01*
X146541581Y-61780887D01*
X146579999Y-61786972D01*
X146580000Y-61786972D01*
X146580001Y-61786972D01*
X146603958Y-61783177D01*
X146707306Y-61766809D01*
X146822151Y-61708292D01*
X146913292Y-61617151D01*
X146971809Y-61502306D01*
X146983147Y-61430721D01*
X147666601Y-61430721D01*
X147686764Y-61558028D01*
X147745278Y-61672867D01*
X147745279Y-61672868D01*
X147745281Y-61672871D01*
X147836422Y-61764012D01*
X147836424Y-61764013D01*
X147836425Y-61764014D01*
X147951264Y-61822528D01*
X147951265Y-61822528D01*
X147951267Y-61822529D01*
X148040154Y-61836607D01*
X148078572Y-61842692D01*
X148078573Y-61842692D01*
X148078574Y-61842692D01*
X148102531Y-61838897D01*
X148205879Y-61822529D01*
X148320724Y-61764012D01*
X148411865Y-61672871D01*
X148470382Y-61558026D01*
X148490545Y-61430720D01*
X148481720Y-61375001D01*
X149168028Y-61375001D01*
X149188191Y-61502308D01*
X149246705Y-61617147D01*
X149246706Y-61617148D01*
X149246708Y-61617151D01*
X149337849Y-61708292D01*
X149337851Y-61708293D01*
X149337852Y-61708294D01*
X149452691Y-61766808D01*
X149452692Y-61766808D01*
X149452694Y-61766809D01*
X149541581Y-61780887D01*
X149579999Y-61786972D01*
X149580000Y-61786972D01*
X149580001Y-61786972D01*
X149603958Y-61783177D01*
X149707306Y-61766809D01*
X149822151Y-61708292D01*
X149913292Y-61617151D01*
X149971809Y-61502306D01*
X149991972Y-61375000D01*
X149971809Y-61247694D01*
X149971808Y-61247692D01*
X149971808Y-61247691D01*
X149913294Y-61132852D01*
X149913293Y-61132851D01*
X149913292Y-61132849D01*
X149822151Y-61041708D01*
X149822148Y-61041706D01*
X149822147Y-61041705D01*
X149707308Y-60983191D01*
X149707309Y-60983191D01*
X149580001Y-60963028D01*
X149579999Y-60963028D01*
X149452691Y-60983191D01*
X149337852Y-61041705D01*
X149246705Y-61132852D01*
X149188191Y-61247691D01*
X149168028Y-61374998D01*
X149168028Y-61375001D01*
X148481720Y-61375001D01*
X148470382Y-61303414D01*
X148470381Y-61303412D01*
X148470381Y-61303411D01*
X148411867Y-61188572D01*
X148411866Y-61188571D01*
X148411865Y-61188569D01*
X148320724Y-61097428D01*
X148320721Y-61097426D01*
X148320720Y-61097425D01*
X148205881Y-61038911D01*
X148205882Y-61038911D01*
X148078574Y-61018748D01*
X148078572Y-61018748D01*
X147951264Y-61038911D01*
X147836425Y-61097425D01*
X147745278Y-61188572D01*
X147686764Y-61303411D01*
X147666601Y-61430718D01*
X147666601Y-61430721D01*
X146983147Y-61430721D01*
X146991972Y-61375000D01*
X146971809Y-61247694D01*
X146971808Y-61247692D01*
X146971808Y-61247691D01*
X146913294Y-61132852D01*
X146913293Y-61132851D01*
X146913292Y-61132849D01*
X146822151Y-61041708D01*
X146822148Y-61041706D01*
X146822147Y-61041705D01*
X146707308Y-60983191D01*
X146707309Y-60983191D01*
X146580001Y-60963028D01*
X146579999Y-60963028D01*
X146452691Y-60983191D01*
X146337852Y-61041705D01*
X146246705Y-61132852D01*
X146188191Y-61247691D01*
X146168028Y-61374998D01*
X146168028Y-61375001D01*
X126105800Y-61375001D01*
X124800715Y-60375001D01*
X126913028Y-60375001D01*
X126933191Y-60502308D01*
X126991705Y-60617147D01*
X126991706Y-60617148D01*
X126991708Y-60617151D01*
X127082849Y-60708292D01*
X127082851Y-60708293D01*
X127082852Y-60708294D01*
X127197691Y-60766808D01*
X127197692Y-60766808D01*
X127197694Y-60766809D01*
X127286581Y-60780887D01*
X127324999Y-60786972D01*
X127325000Y-60786972D01*
X127325001Y-60786972D01*
X127348958Y-60783177D01*
X127452306Y-60766809D01*
X127485293Y-60750001D01*
X132038028Y-60750001D01*
X132058191Y-60877308D01*
X132116705Y-60992147D01*
X132116706Y-60992148D01*
X132116708Y-60992151D01*
X132207849Y-61083292D01*
X132207851Y-61083293D01*
X132207852Y-61083294D01*
X132322691Y-61141808D01*
X132322692Y-61141808D01*
X132322694Y-61141809D01*
X132411581Y-61155887D01*
X132449999Y-61161972D01*
X132450000Y-61161972D01*
X132450001Y-61161972D01*
X132473958Y-61158177D01*
X132577306Y-61141809D01*
X132692151Y-61083292D01*
X132783292Y-60992151D01*
X132841809Y-60877306D01*
X132861972Y-60750000D01*
X132841809Y-60622694D01*
X132841808Y-60622692D01*
X132841808Y-60622691D01*
X132825151Y-60590001D01*
X145438028Y-60590001D01*
X145458191Y-60717308D01*
X145516705Y-60832147D01*
X145516706Y-60832148D01*
X145516708Y-60832151D01*
X145607849Y-60923292D01*
X145607851Y-60923293D01*
X145607852Y-60923294D01*
X145722691Y-60981808D01*
X145722692Y-60981808D01*
X145722694Y-60981809D01*
X145787967Y-60992147D01*
X145849999Y-61001972D01*
X145850000Y-61001972D01*
X145850001Y-61001972D01*
X145873958Y-60998177D01*
X145977306Y-60981809D01*
X146092151Y-60923292D01*
X146183292Y-60832151D01*
X146241809Y-60717306D01*
X146261972Y-60590000D01*
X146255637Y-60550001D01*
X149963028Y-60550001D01*
X149983191Y-60677308D01*
X150041705Y-60792147D01*
X150041706Y-60792148D01*
X150041708Y-60792151D01*
X150132849Y-60883292D01*
X150132851Y-60883293D01*
X150132852Y-60883294D01*
X150247691Y-60941808D01*
X150247692Y-60941808D01*
X150247694Y-60941809D01*
X150336581Y-60955887D01*
X150374999Y-60961972D01*
X150375000Y-60961972D01*
X150375001Y-60961972D01*
X150398958Y-60958177D01*
X150502306Y-60941809D01*
X150617151Y-60883292D01*
X150708292Y-60792151D01*
X150766809Y-60677306D01*
X150786972Y-60550000D01*
X150766809Y-60422694D01*
X150766808Y-60422692D01*
X150766808Y-60422691D01*
X150708294Y-60307852D01*
X150708293Y-60307851D01*
X150708292Y-60307849D01*
X150617151Y-60216708D01*
X150617148Y-60216706D01*
X150617147Y-60216705D01*
X150502308Y-60158191D01*
X150502309Y-60158191D01*
X150375001Y-60138028D01*
X150374999Y-60138028D01*
X150247691Y-60158191D01*
X150132852Y-60216705D01*
X150041705Y-60307852D01*
X149983191Y-60422691D01*
X149963028Y-60549998D01*
X149963028Y-60550001D01*
X146255637Y-60550001D01*
X146241809Y-60462694D01*
X146241808Y-60462692D01*
X146241808Y-60462691D01*
X146183294Y-60347852D01*
X146183293Y-60347851D01*
X146183292Y-60347849D01*
X146092151Y-60256708D01*
X146092148Y-60256706D01*
X146092147Y-60256705D01*
X145977308Y-60198191D01*
X145977309Y-60198191D01*
X145850001Y-60178028D01*
X145849999Y-60178028D01*
X145722691Y-60198191D01*
X145607852Y-60256705D01*
X145516705Y-60347852D01*
X145458191Y-60462691D01*
X145438028Y-60589998D01*
X145438028Y-60590001D01*
X132825151Y-60590001D01*
X132783294Y-60507852D01*
X132783293Y-60507851D01*
X132783292Y-60507849D01*
X132692151Y-60416708D01*
X132692148Y-60416706D01*
X132692147Y-60416705D01*
X132577308Y-60358191D01*
X132577309Y-60358191D01*
X132450001Y-60338028D01*
X132449999Y-60338028D01*
X132322691Y-60358191D01*
X132207852Y-60416705D01*
X132116705Y-60507852D01*
X132058191Y-60622691D01*
X132038028Y-60749998D01*
X132038028Y-60750001D01*
X127485293Y-60750001D01*
X127567151Y-60708292D01*
X127658292Y-60617151D01*
X127716809Y-60502306D01*
X127736972Y-60375000D01*
X127716809Y-60247694D01*
X127716808Y-60247692D01*
X127716808Y-60247691D01*
X127658294Y-60132852D01*
X127658293Y-60132851D01*
X127658292Y-60132849D01*
X127567151Y-60041708D01*
X127567148Y-60041706D01*
X127567147Y-60041705D01*
X127452308Y-59983191D01*
X127452309Y-59983191D01*
X127325001Y-59963028D01*
X127324999Y-59963028D01*
X127197691Y-59983191D01*
X127082852Y-60041705D01*
X126991705Y-60132852D01*
X126933191Y-60247691D01*
X126913028Y-60374998D01*
X126913028Y-60375001D01*
X124800715Y-60375001D01*
X124057665Y-59805651D01*
X132333678Y-59805651D01*
X132353841Y-59932958D01*
X132412355Y-60047797D01*
X132412356Y-60047798D01*
X132412358Y-60047801D01*
X132503499Y-60138942D01*
X132503501Y-60138943D01*
X132503502Y-60138944D01*
X132618341Y-60197458D01*
X132618342Y-60197458D01*
X132618344Y-60197459D01*
X132707231Y-60211537D01*
X132745649Y-60217622D01*
X132745650Y-60217622D01*
X132745651Y-60217622D01*
X132769608Y-60213827D01*
X132872956Y-60197459D01*
X132987801Y-60138942D01*
X133078942Y-60047801D01*
X133137459Y-59932956D01*
X133157622Y-59805650D01*
X133137459Y-59678344D01*
X133137458Y-59678342D01*
X133137458Y-59678341D01*
X133078944Y-59563502D01*
X133078943Y-59563501D01*
X133078942Y-59563499D01*
X132987801Y-59472358D01*
X132987798Y-59472356D01*
X132987797Y-59472355D01*
X132872958Y-59413841D01*
X132872959Y-59413841D01*
X132745651Y-59393678D01*
X132745649Y-59393678D01*
X132618341Y-59413841D01*
X132503502Y-59472355D01*
X132412355Y-59563502D01*
X132353841Y-59678341D01*
X132333678Y-59805648D01*
X132333678Y-59805651D01*
X124057665Y-59805651D01*
X122679952Y-58750001D01*
X125013028Y-58750001D01*
X125033191Y-58877308D01*
X125091705Y-58992147D01*
X125091706Y-58992148D01*
X125091708Y-58992151D01*
X125182849Y-59083292D01*
X125182851Y-59083293D01*
X125182852Y-59083294D01*
X125297691Y-59141808D01*
X125297692Y-59141808D01*
X125297694Y-59141809D01*
X125386581Y-59155887D01*
X125424999Y-59161972D01*
X125425000Y-59161972D01*
X125425001Y-59161972D01*
X125448958Y-59158177D01*
X125552306Y-59141809D01*
X125653984Y-59090001D01*
X145388028Y-59090001D01*
X145408191Y-59217308D01*
X145466705Y-59332147D01*
X145466706Y-59332148D01*
X145466708Y-59332151D01*
X145557849Y-59423292D01*
X145557851Y-59423293D01*
X145557852Y-59423294D01*
X145672691Y-59481808D01*
X145672692Y-59481808D01*
X145672694Y-59481809D01*
X145761581Y-59495887D01*
X145799999Y-59501972D01*
X145800000Y-59501972D01*
X145800001Y-59501972D01*
X145823958Y-59498177D01*
X145927306Y-59481809D01*
X146042151Y-59423292D01*
X146133292Y-59332151D01*
X146191809Y-59217306D01*
X146211972Y-59090000D01*
X146209596Y-59075001D01*
X149938028Y-59075001D01*
X149958191Y-59202308D01*
X150016705Y-59317147D01*
X150016706Y-59317148D01*
X150016708Y-59317151D01*
X150107849Y-59408292D01*
X150107851Y-59408293D01*
X150107852Y-59408294D01*
X150222691Y-59466808D01*
X150222692Y-59466808D01*
X150222694Y-59466809D01*
X150311581Y-59480887D01*
X150349999Y-59486972D01*
X150350000Y-59486972D01*
X150350001Y-59486972D01*
X150382598Y-59481809D01*
X150477306Y-59466809D01*
X150592151Y-59408292D01*
X150683292Y-59317151D01*
X150741809Y-59202306D01*
X150761972Y-59075000D01*
X150741809Y-58947694D01*
X150741808Y-58947692D01*
X150741808Y-58947691D01*
X150683294Y-58832852D01*
X150683293Y-58832851D01*
X150683292Y-58832849D01*
X150592151Y-58741708D01*
X150592148Y-58741706D01*
X150592147Y-58741705D01*
X150477308Y-58683191D01*
X150477309Y-58683191D01*
X150350001Y-58663028D01*
X150349999Y-58663028D01*
X150222691Y-58683191D01*
X150107852Y-58741705D01*
X150016705Y-58832852D01*
X149958191Y-58947691D01*
X149938028Y-59074998D01*
X149938028Y-59075001D01*
X146209596Y-59075001D01*
X146196474Y-58992151D01*
X146191809Y-58962694D01*
X146191808Y-58962692D01*
X146191808Y-58962691D01*
X146133294Y-58847852D01*
X146133293Y-58847851D01*
X146133292Y-58847849D01*
X146042151Y-58756708D01*
X146042148Y-58756706D01*
X146042147Y-58756705D01*
X145927308Y-58698191D01*
X145927309Y-58698191D01*
X145800001Y-58678028D01*
X145799999Y-58678028D01*
X145672691Y-58698191D01*
X145557852Y-58756705D01*
X145466705Y-58847852D01*
X145408191Y-58962691D01*
X145388028Y-59089998D01*
X145388028Y-59090001D01*
X125653984Y-59090001D01*
X125667151Y-59083292D01*
X125758292Y-58992151D01*
X125816809Y-58877306D01*
X125836972Y-58750000D01*
X125816809Y-58622694D01*
X125816808Y-58622692D01*
X125816808Y-58622691D01*
X125779770Y-58550001D01*
X132213028Y-58550001D01*
X132233191Y-58677308D01*
X132291705Y-58792147D01*
X132291706Y-58792148D01*
X132291708Y-58792151D01*
X132382849Y-58883292D01*
X132382851Y-58883293D01*
X132382852Y-58883294D01*
X132497691Y-58941808D01*
X132497692Y-58941808D01*
X132497694Y-58941809D01*
X132586581Y-58955887D01*
X132624999Y-58961972D01*
X132625000Y-58961972D01*
X132625001Y-58961972D01*
X132648958Y-58958177D01*
X132752306Y-58941809D01*
X132867151Y-58883292D01*
X132958292Y-58792151D01*
X133016809Y-58677306D01*
X133036972Y-58550000D01*
X133016809Y-58422694D01*
X133016808Y-58422692D01*
X133016808Y-58422691D01*
X132958294Y-58307852D01*
X132958293Y-58307851D01*
X132958292Y-58307849D01*
X132867151Y-58216708D01*
X132867148Y-58216706D01*
X132867147Y-58216705D01*
X132752308Y-58158191D01*
X132752309Y-58158191D01*
X132625001Y-58138028D01*
X132624999Y-58138028D01*
X132497691Y-58158191D01*
X132382852Y-58216705D01*
X132291705Y-58307852D01*
X132233191Y-58422691D01*
X132213028Y-58549998D01*
X132213028Y-58550001D01*
X125779770Y-58550001D01*
X125758294Y-58507852D01*
X125758293Y-58507851D01*
X125758292Y-58507849D01*
X125667151Y-58416708D01*
X125667148Y-58416706D01*
X125667147Y-58416705D01*
X125561357Y-58362802D01*
X125542916Y-58341210D01*
X125545144Y-58312903D01*
X125566736Y-58294462D01*
X125584003Y-58293103D01*
X125617295Y-58298375D01*
X125639999Y-58301972D01*
X125640000Y-58301972D01*
X125640001Y-58301972D01*
X125663958Y-58298177D01*
X125767306Y-58281809D01*
X125776358Y-58277197D01*
X125882147Y-58223294D01*
X125882146Y-58223294D01*
X125882151Y-58223292D01*
X125973292Y-58132151D01*
X126031809Y-58017306D01*
X126051972Y-57890000D01*
X126049596Y-57875001D01*
X126040433Y-57817147D01*
X126031809Y-57762694D01*
X126031808Y-57762692D01*
X126031808Y-57762691D01*
X125973294Y-57647852D01*
X125973293Y-57647851D01*
X125973292Y-57647849D01*
X125882151Y-57556708D01*
X125882148Y-57556706D01*
X125882147Y-57556705D01*
X125767308Y-57498191D01*
X125767309Y-57498191D01*
X125640001Y-57478028D01*
X125639999Y-57478028D01*
X125512691Y-57498191D01*
X125397852Y-57556705D01*
X125306705Y-57647852D01*
X125248191Y-57762691D01*
X125228028Y-57889998D01*
X125228028Y-57890001D01*
X125248191Y-58017308D01*
X125306705Y-58132147D01*
X125306706Y-58132148D01*
X125306708Y-58132151D01*
X125397849Y-58223292D01*
X125397851Y-58223293D01*
X125397852Y-58223294D01*
X125503642Y-58277197D01*
X125522083Y-58298788D01*
X125519855Y-58327096D01*
X125498264Y-58345537D01*
X125480996Y-58346896D01*
X125425003Y-58338028D01*
X125424999Y-58338028D01*
X125297691Y-58358191D01*
X125182852Y-58416705D01*
X125091705Y-58507852D01*
X125033191Y-58622691D01*
X125013028Y-58749998D01*
X125013028Y-58750001D01*
X122679952Y-58750001D01*
X120655439Y-57198751D01*
X126388028Y-57198751D01*
X126408191Y-57326058D01*
X126466705Y-57440897D01*
X126466706Y-57440898D01*
X126466708Y-57440901D01*
X126557849Y-57532042D01*
X126557851Y-57532043D01*
X126557852Y-57532044D01*
X126672691Y-57590558D01*
X126672692Y-57590558D01*
X126672694Y-57590559D01*
X126761581Y-57604637D01*
X126799999Y-57610722D01*
X126800000Y-57610722D01*
X126800001Y-57610722D01*
X126810263Y-57609096D01*
X126867302Y-57600062D01*
X126894910Y-57606690D01*
X126909747Y-57630901D01*
X126906160Y-57653548D01*
X126858191Y-57747691D01*
X126838028Y-57874998D01*
X126838028Y-57875001D01*
X126858191Y-58002308D01*
X126916705Y-58117147D01*
X126916706Y-58117148D01*
X126916708Y-58117151D01*
X127007849Y-58208292D01*
X127007851Y-58208293D01*
X127007852Y-58208294D01*
X127122691Y-58266808D01*
X127122692Y-58266808D01*
X127122694Y-58266809D01*
X127211581Y-58280887D01*
X127249999Y-58286972D01*
X127250000Y-58286972D01*
X127250001Y-58286972D01*
X127282598Y-58281809D01*
X127377306Y-58266809D01*
X127492151Y-58208292D01*
X127583292Y-58117151D01*
X127641809Y-58002306D01*
X127661972Y-57875000D01*
X127641809Y-57747694D01*
X127641808Y-57747692D01*
X127641808Y-57747691D01*
X127583294Y-57632852D01*
X127583293Y-57632851D01*
X127583292Y-57632849D01*
X127550444Y-57600001D01*
X145388028Y-57600001D01*
X145408191Y-57727308D01*
X145466705Y-57842147D01*
X145466706Y-57842148D01*
X145466708Y-57842151D01*
X145557849Y-57933292D01*
X145557851Y-57933293D01*
X145557852Y-57933294D01*
X145672691Y-57991808D01*
X145672692Y-57991808D01*
X145672694Y-57991809D01*
X145754578Y-58004778D01*
X145799999Y-58011972D01*
X145800000Y-58011972D01*
X145800001Y-58011972D01*
X145823958Y-58008177D01*
X145927306Y-57991809D01*
X146042151Y-57933292D01*
X146133292Y-57842151D01*
X146191809Y-57727306D01*
X146210274Y-57610722D01*
X146211972Y-57600001D01*
X146211972Y-57599998D01*
X146208013Y-57575001D01*
X149963028Y-57575001D01*
X149983191Y-57702308D01*
X150041705Y-57817147D01*
X150041706Y-57817148D01*
X150041708Y-57817151D01*
X150132849Y-57908292D01*
X150132851Y-57908293D01*
X150132852Y-57908294D01*
X150247691Y-57966808D01*
X150247692Y-57966808D01*
X150247694Y-57966809D01*
X150334017Y-57980481D01*
X150374999Y-57986972D01*
X150375000Y-57986972D01*
X150375001Y-57986972D01*
X150411923Y-57981124D01*
X150502306Y-57966809D01*
X150617151Y-57908292D01*
X150708292Y-57817151D01*
X150766809Y-57702306D01*
X150786972Y-57575000D01*
X150784074Y-57556705D01*
X150779382Y-57527082D01*
X150766809Y-57447694D01*
X150766808Y-57447692D01*
X150766808Y-57447691D01*
X150708294Y-57332852D01*
X150708293Y-57332851D01*
X150708292Y-57332849D01*
X150617151Y-57241708D01*
X150617148Y-57241706D01*
X150617147Y-57241705D01*
X150502308Y-57183191D01*
X150502309Y-57183191D01*
X150375001Y-57163028D01*
X150374999Y-57163028D01*
X150247691Y-57183191D01*
X150132852Y-57241705D01*
X150041705Y-57332852D01*
X149983191Y-57447691D01*
X149963028Y-57574998D01*
X149963028Y-57575001D01*
X146208013Y-57575001D01*
X146194352Y-57488753D01*
X146191809Y-57472694D01*
X146191808Y-57472692D01*
X146191808Y-57472691D01*
X146133294Y-57357852D01*
X146133293Y-57357851D01*
X146133292Y-57357849D01*
X146042151Y-57266708D01*
X146042148Y-57266706D01*
X146042147Y-57266705D01*
X145927308Y-57208191D01*
X145927309Y-57208191D01*
X145800001Y-57188028D01*
X145799999Y-57188028D01*
X145672691Y-57208191D01*
X145557852Y-57266705D01*
X145466705Y-57357852D01*
X145408191Y-57472691D01*
X145388028Y-57599998D01*
X145388028Y-57600001D01*
X127550444Y-57600001D01*
X127492151Y-57541708D01*
X127492148Y-57541706D01*
X127492147Y-57541705D01*
X127377308Y-57483191D01*
X127377309Y-57483191D01*
X127250001Y-57463028D01*
X127249999Y-57463028D01*
X127182699Y-57473687D01*
X127155088Y-57467058D01*
X127140252Y-57442848D01*
X127143839Y-57420201D01*
X127175610Y-57357849D01*
X127191809Y-57326056D01*
X127211972Y-57198750D01*
X127205564Y-57158294D01*
X127202489Y-57138875D01*
X127191809Y-57071444D01*
X127191808Y-57071442D01*
X127191808Y-57071441D01*
X127133294Y-56956602D01*
X127133293Y-56956601D01*
X127133292Y-56956599D01*
X127042151Y-56865458D01*
X127042148Y-56865456D01*
X127042147Y-56865455D01*
X126927308Y-56806941D01*
X126927309Y-56806941D01*
X126800001Y-56786778D01*
X126799999Y-56786778D01*
X126672691Y-56806941D01*
X126557852Y-56865455D01*
X126466705Y-56956602D01*
X126408191Y-57071441D01*
X126388028Y-57198748D01*
X126388028Y-57198751D01*
X120655439Y-57198751D01*
X119780967Y-56528701D01*
X132888028Y-56528701D01*
X132908191Y-56656008D01*
X132966705Y-56770847D01*
X132966706Y-56770848D01*
X132966708Y-56770851D01*
X133057849Y-56861992D01*
X133057851Y-56861993D01*
X133057852Y-56861994D01*
X133172691Y-56920508D01*
X133172692Y-56920508D01*
X133172694Y-56920509D01*
X133261581Y-56934587D01*
X133299999Y-56940672D01*
X133300000Y-56940672D01*
X133300001Y-56940672D01*
X133323958Y-56936877D01*
X133427306Y-56920509D01*
X133542151Y-56861992D01*
X133579142Y-56825001D01*
X146163028Y-56825001D01*
X146183191Y-56952308D01*
X146241705Y-57067147D01*
X146241706Y-57067148D01*
X146241708Y-57067151D01*
X146332849Y-57158292D01*
X146332851Y-57158293D01*
X146332852Y-57158294D01*
X146447691Y-57216808D01*
X146447692Y-57216808D01*
X146447694Y-57216809D01*
X146536581Y-57230887D01*
X146574999Y-57236972D01*
X146575000Y-57236972D01*
X146575001Y-57236972D01*
X146605256Y-57232180D01*
X146702306Y-57216809D01*
X146817151Y-57158292D01*
X146908292Y-57067151D01*
X146966809Y-56952306D01*
X146986972Y-56825000D01*
X146983012Y-56800001D01*
X147668028Y-56800001D01*
X147688191Y-56927308D01*
X147746705Y-57042147D01*
X147746706Y-57042148D01*
X147746708Y-57042151D01*
X147837849Y-57133292D01*
X147837851Y-57133293D01*
X147837852Y-57133294D01*
X147952691Y-57191808D01*
X147952692Y-57191808D01*
X147952694Y-57191809D01*
X148016862Y-57201972D01*
X148079999Y-57211972D01*
X148080000Y-57211972D01*
X148080001Y-57211972D01*
X148103958Y-57208177D01*
X148207306Y-57191809D01*
X148322151Y-57133292D01*
X148413292Y-57042151D01*
X148471809Y-56927306D01*
X148491972Y-56800000D01*
X148490388Y-56790001D01*
X149128028Y-56790001D01*
X149148191Y-56917308D01*
X149206705Y-57032147D01*
X149206706Y-57032148D01*
X149206708Y-57032151D01*
X149297849Y-57123292D01*
X149297851Y-57123293D01*
X149297852Y-57123294D01*
X149412691Y-57181808D01*
X149412692Y-57181808D01*
X149412694Y-57181809D01*
X149501581Y-57195887D01*
X149539999Y-57201972D01*
X149540000Y-57201972D01*
X149540001Y-57201972D01*
X149574808Y-57196459D01*
X149667306Y-57181809D01*
X149782151Y-57123292D01*
X149873292Y-57032151D01*
X149930177Y-56920509D01*
X149931808Y-56917308D01*
X149931808Y-56917307D01*
X149931809Y-56917306D01*
X149950388Y-56800000D01*
X149951972Y-56790001D01*
X149951972Y-56789998D01*
X149938777Y-56706688D01*
X149931809Y-56662694D01*
X149931808Y-56662692D01*
X149931808Y-56662691D01*
X149873294Y-56547852D01*
X149873293Y-56547851D01*
X149873292Y-56547849D01*
X149782151Y-56456708D01*
X149782148Y-56456706D01*
X149782147Y-56456705D01*
X149667308Y-56398191D01*
X149667309Y-56398191D01*
X149540001Y-56378028D01*
X149539999Y-56378028D01*
X149412691Y-56398191D01*
X149297852Y-56456705D01*
X149206705Y-56547852D01*
X149148191Y-56662691D01*
X149128028Y-56789998D01*
X149128028Y-56790001D01*
X148490388Y-56790001D01*
X148477193Y-56706687D01*
X148471809Y-56672694D01*
X148471808Y-56672692D01*
X148471808Y-56672691D01*
X148413294Y-56557852D01*
X148413293Y-56557851D01*
X148413292Y-56557849D01*
X148322151Y-56466708D01*
X148322148Y-56466706D01*
X148322147Y-56466705D01*
X148207308Y-56408191D01*
X148207309Y-56408191D01*
X148080001Y-56388028D01*
X148079999Y-56388028D01*
X147952691Y-56408191D01*
X147837852Y-56466705D01*
X147746705Y-56557852D01*
X147688191Y-56672691D01*
X147668028Y-56799998D01*
X147668028Y-56800001D01*
X146983012Y-56800001D01*
X146983012Y-56800000D01*
X146978395Y-56770847D01*
X146966809Y-56697694D01*
X146966808Y-56697692D01*
X146966808Y-56697691D01*
X146908294Y-56582852D01*
X146908293Y-56582851D01*
X146908292Y-56582849D01*
X146817151Y-56491708D01*
X146817148Y-56491706D01*
X146817147Y-56491705D01*
X146702308Y-56433191D01*
X146702309Y-56433191D01*
X146575001Y-56413028D01*
X146574999Y-56413028D01*
X146447691Y-56433191D01*
X146332852Y-56491705D01*
X146241705Y-56582852D01*
X146183191Y-56697691D01*
X146163028Y-56824998D01*
X146163028Y-56825001D01*
X133579142Y-56825001D01*
X133633292Y-56770851D01*
X133691809Y-56656006D01*
X133711972Y-56528700D01*
X133691809Y-56401394D01*
X133691808Y-56401392D01*
X133691808Y-56401391D01*
X133633294Y-56286552D01*
X133633293Y-56286551D01*
X133633292Y-56286549D01*
X133542151Y-56195408D01*
X133542148Y-56195406D01*
X133542147Y-56195405D01*
X133427308Y-56136891D01*
X133427309Y-56136891D01*
X133300001Y-56116728D01*
X133299999Y-56116728D01*
X133172691Y-56136891D01*
X133057852Y-56195405D01*
X132966705Y-56286552D01*
X132908191Y-56401391D01*
X132888028Y-56528698D01*
X132888028Y-56528701D01*
X119780967Y-56528701D01*
X119226266Y-56103670D01*
X119180942Y-56079473D01*
X119180925Y-56079466D01*
X119158375Y-56071820D01*
X119158361Y-56071816D01*
X119130294Y-56065277D01*
X119107211Y-56048741D01*
X119102883Y-56038768D01*
X119102611Y-56037757D01*
X119102610Y-56037753D01*
X119088397Y-56013173D01*
X119047741Y-55966877D01*
X119047740Y-55966876D01*
X119047739Y-55966875D01*
X118583685Y-55611301D01*
X134163028Y-55611301D01*
X134183191Y-55738608D01*
X134241705Y-55853447D01*
X134241706Y-55853448D01*
X134241708Y-55853451D01*
X134332849Y-55944592D01*
X134332851Y-55944593D01*
X134332852Y-55944594D01*
X134447691Y-56003108D01*
X134447692Y-56003108D01*
X134447694Y-56003109D01*
X134511237Y-56013173D01*
X134574999Y-56023272D01*
X134575000Y-56023272D01*
X134575001Y-56023272D01*
X134598958Y-56019477D01*
X134702306Y-56003109D01*
X134817151Y-55944592D01*
X134908292Y-55853451D01*
X134966809Y-55738606D01*
X134986972Y-55611300D01*
X134984801Y-55597595D01*
X134977788Y-55553312D01*
X134966809Y-55483994D01*
X134966808Y-55483992D01*
X134966808Y-55483991D01*
X134908294Y-55369152D01*
X134908293Y-55369151D01*
X134908292Y-55369149D01*
X134817151Y-55278008D01*
X134817148Y-55278006D01*
X134817147Y-55278005D01*
X134702308Y-55219491D01*
X134702309Y-55219491D01*
X134575001Y-55199328D01*
X134574999Y-55199328D01*
X134447691Y-55219491D01*
X134332852Y-55278005D01*
X134241705Y-55369152D01*
X134183191Y-55483991D01*
X134163028Y-55611298D01*
X134163028Y-55611301D01*
X118583685Y-55611301D01*
X117533603Y-54806693D01*
X117533599Y-54806691D01*
X117533598Y-54806690D01*
X117488260Y-54782488D01*
X117488259Y-54782487D01*
X117488256Y-54782486D01*
X117465699Y-54774839D01*
X117465686Y-54774835D01*
X117435613Y-54767829D01*
X117419840Y-54769905D01*
X117392413Y-54762554D01*
X117378217Y-54737962D01*
X117377900Y-54733122D01*
X117377900Y-54370001D01*
X147918028Y-54370001D01*
X147938191Y-54497308D01*
X147996705Y-54612147D01*
X147996706Y-54612148D01*
X147996708Y-54612151D01*
X148087849Y-54703292D01*
X148087851Y-54703293D01*
X148087852Y-54703294D01*
X148202691Y-54761808D01*
X148202692Y-54761808D01*
X148202694Y-54761809D01*
X148288663Y-54775425D01*
X148329999Y-54781972D01*
X148330000Y-54781972D01*
X148330001Y-54781972D01*
X148353958Y-54778177D01*
X148457306Y-54761809D01*
X148572151Y-54703292D01*
X148663292Y-54612151D01*
X148721809Y-54497306D01*
X148741972Y-54370000D01*
X148724550Y-54260001D01*
X149158028Y-54260001D01*
X149178191Y-54387308D01*
X149236705Y-54502147D01*
X149236706Y-54502148D01*
X149236708Y-54502151D01*
X149327849Y-54593292D01*
X149327851Y-54593293D01*
X149327852Y-54593294D01*
X149442691Y-54651808D01*
X149442692Y-54651808D01*
X149442694Y-54651809D01*
X149531581Y-54665887D01*
X149569999Y-54671972D01*
X149570000Y-54671972D01*
X149570001Y-54671972D01*
X149593958Y-54668177D01*
X149697306Y-54651809D01*
X149812151Y-54593292D01*
X149903292Y-54502151D01*
X149961809Y-54387306D01*
X149981972Y-54260000D01*
X149961809Y-54132694D01*
X149961808Y-54132692D01*
X149961808Y-54132691D01*
X149903294Y-54017852D01*
X149903293Y-54017851D01*
X149903292Y-54017849D01*
X149812151Y-53926708D01*
X149812148Y-53926706D01*
X149812147Y-53926705D01*
X149697308Y-53868191D01*
X149697309Y-53868191D01*
X149570001Y-53848028D01*
X149569999Y-53848028D01*
X149442691Y-53868191D01*
X149327852Y-53926705D01*
X149236705Y-54017852D01*
X149178191Y-54132691D01*
X149158028Y-54259998D01*
X149158028Y-54260001D01*
X148724550Y-54260001D01*
X148721809Y-54242694D01*
X148721808Y-54242692D01*
X148721808Y-54242691D01*
X148663294Y-54127852D01*
X148663293Y-54127851D01*
X148663292Y-54127849D01*
X148572151Y-54036708D01*
X148572148Y-54036706D01*
X148572147Y-54036705D01*
X148457308Y-53978191D01*
X148457309Y-53978191D01*
X148330001Y-53958028D01*
X148329999Y-53958028D01*
X148202691Y-53978191D01*
X148087852Y-54036705D01*
X147996705Y-54127852D01*
X147938191Y-54242691D01*
X147918028Y-54369998D01*
X147918028Y-54370001D01*
X117377900Y-54370001D01*
X117377900Y-53465001D01*
X134223028Y-53465001D01*
X134243191Y-53592308D01*
X134301705Y-53707147D01*
X134301706Y-53707148D01*
X134301708Y-53707151D01*
X134392849Y-53798292D01*
X134392851Y-53798293D01*
X134392852Y-53798294D01*
X134507691Y-53856808D01*
X134507692Y-53856808D01*
X134507694Y-53856809D01*
X134596581Y-53870887D01*
X134634999Y-53876972D01*
X134635000Y-53876972D01*
X134635001Y-53876972D01*
X134658958Y-53873177D01*
X134762306Y-53856809D01*
X134877151Y-53798292D01*
X134968292Y-53707151D01*
X135026809Y-53592306D01*
X135046972Y-53465000D01*
X135026809Y-53337694D01*
X135026808Y-53337692D01*
X135026808Y-53337691D01*
X134968294Y-53222852D01*
X134968293Y-53222851D01*
X134968292Y-53222849D01*
X134877151Y-53131708D01*
X134877148Y-53131706D01*
X134877147Y-53131705D01*
X134762308Y-53073191D01*
X134762309Y-53073191D01*
X134635001Y-53053028D01*
X134634999Y-53053028D01*
X134507691Y-53073191D01*
X134392852Y-53131705D01*
X134301705Y-53222852D01*
X134243191Y-53337691D01*
X134223028Y-53464998D01*
X134223028Y-53465001D01*
X117377900Y-53465001D01*
X117377900Y-53435000D01*
X117388766Y-53408766D01*
X117415000Y-53397900D01*
X119582898Y-53397900D01*
X119582900Y-53397900D01*
X119582902Y-53397899D01*
X119582907Y-53397899D01*
X119613111Y-53391890D01*
X119643323Y-53385882D01*
X119669557Y-53375016D01*
X119705259Y-53354403D01*
X119755016Y-53289557D01*
X119765882Y-53263323D01*
X119777900Y-53202900D01*
X119777900Y-52950001D01*
X141288028Y-52950001D01*
X141308191Y-53077308D01*
X141366705Y-53192147D01*
X141366706Y-53192148D01*
X141366708Y-53192151D01*
X141457849Y-53283292D01*
X141457851Y-53283293D01*
X141457852Y-53283294D01*
X141572691Y-53341808D01*
X141572692Y-53341808D01*
X141572694Y-53341809D01*
X141652211Y-53354403D01*
X141699999Y-53361972D01*
X141700000Y-53361972D01*
X141700001Y-53361972D01*
X141723958Y-53358177D01*
X141827306Y-53341809D01*
X141942151Y-53283292D01*
X142033292Y-53192151D01*
X142091809Y-53077306D01*
X142111972Y-52950000D01*
X142108012Y-52925001D01*
X150038028Y-52925001D01*
X150058191Y-53052308D01*
X150116705Y-53167147D01*
X150116706Y-53167148D01*
X150116708Y-53167151D01*
X150207849Y-53258292D01*
X150207851Y-53258293D01*
X150207852Y-53258294D01*
X150322691Y-53316808D01*
X150322692Y-53316808D01*
X150322694Y-53316809D01*
X150411581Y-53330887D01*
X150449999Y-53336972D01*
X150450000Y-53336972D01*
X150450001Y-53336972D01*
X150473958Y-53333177D01*
X150577306Y-53316809D01*
X150692151Y-53258292D01*
X150783292Y-53167151D01*
X150841809Y-53052306D01*
X150861972Y-52925000D01*
X150841809Y-52797694D01*
X150841808Y-52797692D01*
X150841808Y-52797691D01*
X150783294Y-52682852D01*
X150783293Y-52682851D01*
X150783292Y-52682849D01*
X150692151Y-52591708D01*
X150692148Y-52591706D01*
X150692147Y-52591705D01*
X150577308Y-52533191D01*
X150577309Y-52533191D01*
X150450001Y-52513028D01*
X150449999Y-52513028D01*
X150322691Y-52533191D01*
X150207852Y-52591705D01*
X150116705Y-52682852D01*
X150058191Y-52797691D01*
X150038028Y-52924998D01*
X150038028Y-52925001D01*
X142108012Y-52925001D01*
X142108012Y-52925000D01*
X142104382Y-52902082D01*
X142091809Y-52822694D01*
X142091808Y-52822692D01*
X142091808Y-52822691D01*
X142033294Y-52707852D01*
X142033293Y-52707851D01*
X142033292Y-52707849D01*
X141942151Y-52616708D01*
X141942148Y-52616706D01*
X141942147Y-52616705D01*
X141827308Y-52558191D01*
X141827309Y-52558191D01*
X141700001Y-52538028D01*
X141699999Y-52538028D01*
X141572691Y-52558191D01*
X141457852Y-52616705D01*
X141366705Y-52707852D01*
X141308191Y-52822691D01*
X141288028Y-52949998D01*
X141288028Y-52950001D01*
X119777900Y-52950001D01*
X119777900Y-52320001D01*
X122258028Y-52320001D01*
X122278191Y-52447308D01*
X122336705Y-52562147D01*
X122336706Y-52562148D01*
X122336708Y-52562151D01*
X122427849Y-52653292D01*
X122427851Y-52653293D01*
X122427852Y-52653294D01*
X122542691Y-52711808D01*
X122542692Y-52711808D01*
X122542694Y-52711809D01*
X122631581Y-52725887D01*
X122669999Y-52731972D01*
X122670000Y-52731972D01*
X122670001Y-52731972D01*
X122693958Y-52728177D01*
X122797306Y-52711809D01*
X122912151Y-52653292D01*
X123003292Y-52562151D01*
X123061809Y-52447306D01*
X123081972Y-52320000D01*
X123061809Y-52192694D01*
X123061808Y-52192692D01*
X123061808Y-52192691D01*
X123003294Y-52077852D01*
X123003293Y-52077851D01*
X123003292Y-52077849D01*
X122912151Y-51986708D01*
X122912148Y-51986706D01*
X122912147Y-51986705D01*
X122797308Y-51928191D01*
X122797309Y-51928191D01*
X122670001Y-51908028D01*
X122669999Y-51908028D01*
X122542691Y-51928191D01*
X122427852Y-51986705D01*
X122336705Y-52077852D01*
X122278191Y-52192691D01*
X122258028Y-52319998D01*
X122258028Y-52320001D01*
X119777900Y-52320001D01*
X119777900Y-51675001D01*
X126238028Y-51675001D01*
X126258191Y-51802308D01*
X126316705Y-51917147D01*
X126316706Y-51917148D01*
X126316708Y-51917151D01*
X126407849Y-52008292D01*
X126407851Y-52008293D01*
X126407852Y-52008294D01*
X126522691Y-52066808D01*
X126522692Y-52066808D01*
X126522694Y-52066809D01*
X126592399Y-52077849D01*
X126649999Y-52086972D01*
X126650000Y-52086972D01*
X126650001Y-52086972D01*
X126673958Y-52083177D01*
X126777306Y-52066809D01*
X126892151Y-52008292D01*
X126983292Y-51917151D01*
X127002221Y-51880001D01*
X127728028Y-51880001D01*
X127748191Y-52007308D01*
X127806705Y-52122147D01*
X127806706Y-52122148D01*
X127806708Y-52122151D01*
X127897849Y-52213292D01*
X127897851Y-52213293D01*
X127897852Y-52213294D01*
X128012691Y-52271808D01*
X128012692Y-52271808D01*
X128012694Y-52271809D01*
X128101581Y-52285887D01*
X128139999Y-52291972D01*
X128140000Y-52291972D01*
X128140001Y-52291972D01*
X128163958Y-52288177D01*
X128267306Y-52271809D01*
X128382151Y-52213292D01*
X128473292Y-52122151D01*
X128531809Y-52007306D01*
X128551972Y-51880000D01*
X128531809Y-51752694D01*
X128531808Y-51752692D01*
X128531808Y-51752691D01*
X128473294Y-51637852D01*
X128473293Y-51637851D01*
X128473292Y-51637849D01*
X128382151Y-51546708D01*
X128382148Y-51546706D01*
X128382147Y-51546705D01*
X128267308Y-51488191D01*
X128267309Y-51488191D01*
X128140001Y-51468028D01*
X128139999Y-51468028D01*
X128012691Y-51488191D01*
X127897852Y-51546705D01*
X127806705Y-51637852D01*
X127748191Y-51752691D01*
X127728028Y-51879998D01*
X127728028Y-51880001D01*
X127002221Y-51880001D01*
X127041809Y-51802306D01*
X127061972Y-51675000D01*
X127041809Y-51547694D01*
X127041808Y-51547692D01*
X127041808Y-51547691D01*
X126992032Y-51450001D01*
X133188028Y-51450001D01*
X133208191Y-51577308D01*
X133266705Y-51692147D01*
X133266706Y-51692148D01*
X133266708Y-51692151D01*
X133357849Y-51783292D01*
X133357851Y-51783293D01*
X133357852Y-51783294D01*
X133472691Y-51841808D01*
X133472692Y-51841808D01*
X133472694Y-51841809D01*
X133561581Y-51855887D01*
X133599999Y-51861972D01*
X133600000Y-51861972D01*
X133600001Y-51861972D01*
X133623958Y-51858177D01*
X133727306Y-51841809D01*
X133842151Y-51783292D01*
X133933292Y-51692151D01*
X133991809Y-51577306D01*
X134011972Y-51450000D01*
X133991809Y-51322694D01*
X133991808Y-51322692D01*
X133991808Y-51322691D01*
X133933294Y-51207852D01*
X133933293Y-51207851D01*
X133933292Y-51207849D01*
X133842151Y-51116708D01*
X133842148Y-51116706D01*
X133842147Y-51116705D01*
X133727308Y-51058191D01*
X133727309Y-51058191D01*
X133600001Y-51038028D01*
X133599999Y-51038028D01*
X133472691Y-51058191D01*
X133357852Y-51116705D01*
X133266705Y-51207852D01*
X133208191Y-51322691D01*
X133188028Y-51449998D01*
X133188028Y-51450001D01*
X126992032Y-51450001D01*
X126983294Y-51432852D01*
X126983293Y-51432851D01*
X126983292Y-51432849D01*
X126892151Y-51341708D01*
X126892148Y-51341706D01*
X126892147Y-51341705D01*
X126777308Y-51283191D01*
X126777309Y-51283191D01*
X126650001Y-51263028D01*
X126649999Y-51263028D01*
X126522691Y-51283191D01*
X126407852Y-51341705D01*
X126316705Y-51432852D01*
X126258191Y-51547691D01*
X126238028Y-51674998D01*
X126238028Y-51675001D01*
X119777900Y-51675001D01*
X119777900Y-51000001D01*
X134338028Y-51000001D01*
X134358191Y-51127308D01*
X134416705Y-51242147D01*
X134416706Y-51242148D01*
X134416708Y-51242151D01*
X134507849Y-51333292D01*
X134507851Y-51333293D01*
X134507852Y-51333294D01*
X134622691Y-51391808D01*
X134622692Y-51391808D01*
X134622694Y-51391809D01*
X134711581Y-51405887D01*
X134749999Y-51411972D01*
X134750000Y-51411972D01*
X134750001Y-51411972D01*
X134773958Y-51408177D01*
X134877306Y-51391809D01*
X134992151Y-51333292D01*
X135083292Y-51242151D01*
X135141809Y-51127306D01*
X135161972Y-51000000D01*
X135141809Y-50872694D01*
X135141808Y-50872692D01*
X135141808Y-50872691D01*
X135083294Y-50757852D01*
X135083293Y-50757851D01*
X135083292Y-50757849D01*
X134992151Y-50666708D01*
X134992148Y-50666706D01*
X134992147Y-50666705D01*
X134877308Y-50608191D01*
X134877309Y-50608191D01*
X134750001Y-50588028D01*
X134749999Y-50588028D01*
X134622691Y-50608191D01*
X134507852Y-50666705D01*
X134416705Y-50757852D01*
X134358191Y-50872691D01*
X134338028Y-50999998D01*
X134338028Y-51000001D01*
X119777900Y-51000001D01*
X119777900Y-50530001D01*
X153018028Y-50530001D01*
X153038191Y-50657306D01*
X153038191Y-50657308D01*
X153096705Y-50772147D01*
X153096706Y-50772148D01*
X153096708Y-50772151D01*
X153187849Y-50863292D01*
X153187851Y-50863293D01*
X153187852Y-50863294D01*
X153302691Y-50921808D01*
X153302692Y-50921808D01*
X153302694Y-50921809D01*
X153391581Y-50935887D01*
X153429999Y-50941972D01*
X153430000Y-50941972D01*
X153430001Y-50941972D01*
X153453958Y-50938177D01*
X153557306Y-50921809D01*
X153672151Y-50863292D01*
X153763292Y-50772151D01*
X153821809Y-50657306D01*
X153832781Y-50588028D01*
X153841972Y-50530001D01*
X153841972Y-50529998D01*
X153832442Y-50469827D01*
X153821809Y-50402694D01*
X153821808Y-50402692D01*
X153821808Y-50402691D01*
X153763294Y-50287852D01*
X153763293Y-50287851D01*
X153763292Y-50287849D01*
X153672151Y-50196708D01*
X153672148Y-50196706D01*
X153672147Y-50196705D01*
X153557308Y-50138191D01*
X153557309Y-50138191D01*
X153430001Y-50118028D01*
X153429999Y-50118028D01*
X153302691Y-50138191D01*
X153187852Y-50196705D01*
X153096705Y-50287852D01*
X153038191Y-50402691D01*
X153018028Y-50529998D01*
X153018028Y-50530001D01*
X119777900Y-50530001D01*
X119777900Y-49377100D01*
X119777899Y-49377097D01*
X119777899Y-49377092D01*
X119765883Y-49316683D01*
X119765882Y-49316677D01*
X119755016Y-49290443D01*
X119755013Y-49290438D01*
X119755012Y-49290435D01*
X119734404Y-49254742D01*
X119725693Y-49248058D01*
X119669557Y-49204984D01*
X119669556Y-49204983D01*
X119669554Y-49204982D01*
X119643327Y-49194119D01*
X119643316Y-49194116D01*
X119582907Y-49182100D01*
X119582900Y-49182100D01*
X109957100Y-49182100D01*
X109957092Y-49182100D01*
X109896683Y-49194116D01*
X109896676Y-49194118D01*
X109870435Y-49204987D01*
X109834742Y-49225595D01*
X109784982Y-49290445D01*
X109774119Y-49316672D01*
X109774116Y-49316683D01*
X109762100Y-49377092D01*
X109762100Y-50930000D01*
X109762099Y-53590772D01*
X109751233Y-53617006D01*
X108398613Y-54969626D01*
X108388923Y-54976599D01*
X108387831Y-54977142D01*
X108387827Y-54977145D01*
X108372996Y-54993414D01*
X108347292Y-55005479D01*
X108322993Y-54997851D01*
X108319255Y-54994982D01*
X108293027Y-54984119D01*
X108293016Y-54984116D01*
X108232607Y-54972100D01*
X108232600Y-54972100D01*
X105847100Y-54972100D01*
X105847092Y-54972100D01*
X105786683Y-54984116D01*
X105786676Y-54984118D01*
X105760435Y-54994987D01*
X105724742Y-55015595D01*
X105674982Y-55080445D01*
X105664119Y-55106672D01*
X105664116Y-55106683D01*
X105652100Y-55167092D01*
X105652100Y-55440000D01*
X105641234Y-55466234D01*
X105615000Y-55477100D01*
X105223918Y-55477100D01*
X105101343Y-55492584D01*
X105101342Y-55492585D01*
X104947963Y-55553312D01*
X104814507Y-55650273D01*
X104709357Y-55777378D01*
X104639120Y-55926638D01*
X104639119Y-55926641D01*
X104608210Y-56088677D01*
X104618568Y-56253318D01*
X104665641Y-56398191D01*
X104669543Y-56410201D01*
X104757934Y-56549482D01*
X104878185Y-56662405D01*
X105022741Y-56741876D01*
X105022745Y-56741877D01*
X105182511Y-56782898D01*
X105182514Y-56782898D01*
X105182520Y-56782900D01*
X105615000Y-56782900D01*
X105641234Y-56793766D01*
X105652100Y-56820000D01*
X105652099Y-57115220D01*
X105641233Y-57141454D01*
X105614999Y-57152320D01*
X105590705Y-57143259D01*
X105585645Y-57138875D01*
X105585642Y-57138873D01*
X105573426Y-57133294D01*
X105456033Y-57079682D01*
X105350447Y-57064501D01*
X105350440Y-57064500D01*
X105350436Y-57064500D01*
X105279564Y-57064500D01*
X105279560Y-57064500D01*
X105279552Y-57064501D01*
X105173966Y-57079682D01*
X105044361Y-57138871D01*
X105044354Y-57138875D01*
X104936677Y-57232177D01*
X104936676Y-57232178D01*
X104859644Y-57352042D01*
X104859641Y-57352048D01*
X104819500Y-57488753D01*
X104819500Y-57631246D01*
X104859641Y-57767951D01*
X104859644Y-57767957D01*
X104936676Y-57887821D01*
X104936677Y-57887822D01*
X105044354Y-57981124D01*
X105044355Y-57981124D01*
X105044358Y-57981127D01*
X105173966Y-58040317D01*
X105279564Y-58055500D01*
X105279570Y-58055500D01*
X105350430Y-58055500D01*
X105350436Y-58055500D01*
X105456034Y-58040317D01*
X105585642Y-57981127D01*
X105590704Y-57976740D01*
X105617645Y-57967772D01*
X105643037Y-57980481D01*
X105652100Y-58004778D01*
X105652100Y-62895221D01*
X105641234Y-62921455D01*
X105615000Y-62932321D01*
X105590706Y-62923260D01*
X105585645Y-62918875D01*
X105585642Y-62918873D01*
X105585638Y-62918871D01*
X105456033Y-62859682D01*
X105350447Y-62844501D01*
X105350440Y-62844500D01*
X105350436Y-62844500D01*
X105279564Y-62844500D01*
X105279560Y-62844500D01*
X105279552Y-62844501D01*
X105173966Y-62859682D01*
X105044361Y-62918871D01*
X105044354Y-62918875D01*
X104936677Y-63012177D01*
X104936676Y-63012178D01*
X104859644Y-63132042D01*
X104859641Y-63132048D01*
X104819500Y-63268753D01*
X104819500Y-63411246D01*
X104859641Y-63547951D01*
X104859644Y-63547957D01*
X104936676Y-63667821D01*
X104936677Y-63667822D01*
X105044354Y-63761124D01*
X105044355Y-63761124D01*
X105044358Y-63761127D01*
X105173966Y-63820317D01*
X105279564Y-63835500D01*
X105279570Y-63835500D01*
X105350430Y-63835500D01*
X105350436Y-63835500D01*
X105456034Y-63820317D01*
X105585642Y-63761127D01*
X105590704Y-63756740D01*
X105617645Y-63747772D01*
X105643037Y-63760481D01*
X105652100Y-63784778D01*
X105652100Y-64080000D01*
X105641234Y-64106234D01*
X105615000Y-64117100D01*
X105223918Y-64117100D01*
X105101343Y-64132584D01*
X105101342Y-64132585D01*
X104947963Y-64193312D01*
X104814507Y-64290273D01*
X104709357Y-64417378D01*
X104639120Y-64566638D01*
X104639119Y-64566641D01*
X104608210Y-64728677D01*
X102686590Y-64728677D01*
X102681432Y-64646686D01*
X102681431Y-64646683D01*
X102681431Y-64646681D01*
X102642644Y-64527308D01*
X102630457Y-64489799D01*
X102542066Y-64350518D01*
X102421815Y-64237595D01*
X102277259Y-64158124D01*
X102277258Y-64158123D01*
X102277257Y-64158123D01*
X102277254Y-64158122D01*
X102117488Y-64117101D01*
X102117481Y-64117100D01*
X102117480Y-64117100D01*
X101193925Y-64117100D01*
X101193918Y-64117100D01*
X101071343Y-64132584D01*
X101071342Y-64132585D01*
X100917963Y-64193312D01*
X100784507Y-64290273D01*
X100679357Y-64417378D01*
X100609120Y-64566638D01*
X100609119Y-64566641D01*
X100578210Y-64728677D01*
X99038700Y-64728677D01*
X99038700Y-56088677D01*
X100578210Y-56088677D01*
X100588568Y-56253318D01*
X100635641Y-56398191D01*
X100639543Y-56410201D01*
X100727934Y-56549482D01*
X100848185Y-56662405D01*
X100992741Y-56741876D01*
X100992745Y-56741877D01*
X101152511Y-56782898D01*
X101152514Y-56782898D01*
X101152520Y-56782900D01*
X101152523Y-56782900D01*
X102076082Y-56782900D01*
X102076081Y-56782899D01*
X102116349Y-56777812D01*
X102198656Y-56767415D01*
X102198656Y-56767414D01*
X102198660Y-56767414D01*
X102352037Y-56706688D01*
X102485493Y-56609726D01*
X102590643Y-56482622D01*
X102660880Y-56333361D01*
X102691790Y-56171322D01*
X102681432Y-56006686D01*
X102681431Y-56006683D01*
X102681431Y-56006681D01*
X102655423Y-55926638D01*
X102630457Y-55849799D01*
X102542066Y-55710518D01*
X102421815Y-55597595D01*
X102277259Y-55518124D01*
X102277258Y-55518123D01*
X102277257Y-55518123D01*
X102277254Y-55518122D01*
X102117488Y-55477101D01*
X102117481Y-55477100D01*
X102117480Y-55477100D01*
X101193925Y-55477100D01*
X101193918Y-55477100D01*
X101071343Y-55492584D01*
X101071342Y-55492585D01*
X100917963Y-55553312D01*
X100784507Y-55650273D01*
X100679357Y-55777378D01*
X100609120Y-55926638D01*
X100609119Y-55926641D01*
X100578210Y-56088677D01*
X99038700Y-56088677D01*
X99038700Y-51622681D01*
X101459500Y-51622681D01*
X101499050Y-51885079D01*
X101577262Y-52138641D01*
X101577265Y-52138647D01*
X101577266Y-52138650D01*
X101613212Y-52213292D01*
X101692400Y-52377728D01*
X101692400Y-52377730D01*
X101841882Y-52596979D01*
X101841891Y-52596990D01*
X102022368Y-52791499D01*
X102022372Y-52791503D01*
X102022377Y-52791508D01*
X102229845Y-52956958D01*
X102229854Y-52956963D01*
X102459642Y-53089632D01*
X102459657Y-53089640D01*
X102706666Y-53186584D01*
X102706665Y-53186584D01*
X102706671Y-53186585D01*
X102706673Y-53186586D01*
X102965381Y-53245635D01*
X102965383Y-53245635D01*
X102965387Y-53245636D01*
X102965385Y-53245636D01*
X103134307Y-53258294D01*
X103163745Y-53260500D01*
X103163746Y-53260500D01*
X103296254Y-53260500D01*
X103296255Y-53260500D01*
X103325693Y-53258294D01*
X103494613Y-53245636D01*
X103494616Y-53245635D01*
X103494619Y-53245635D01*
X103753327Y-53186586D01*
X103753330Y-53186584D01*
X103753333Y-53186584D01*
X104000342Y-53089640D01*
X104000340Y-53089640D01*
X104000345Y-53089639D01*
X104230155Y-52956958D01*
X104437623Y-52791508D01*
X104618114Y-52596984D01*
X104767598Y-52377733D01*
X104882734Y-52138650D01*
X104887825Y-52122147D01*
X104923248Y-52007306D01*
X104960950Y-51885078D01*
X105000500Y-51622681D01*
X105000500Y-51357319D01*
X104960950Y-51094922D01*
X104907552Y-50921808D01*
X104906995Y-50920001D01*
X107258028Y-50920001D01*
X107278191Y-51047308D01*
X107336705Y-51162147D01*
X107336706Y-51162148D01*
X107336708Y-51162151D01*
X107427849Y-51253292D01*
X107427851Y-51253293D01*
X107427852Y-51253294D01*
X107542691Y-51311808D01*
X107542692Y-51311808D01*
X107542694Y-51311809D01*
X107631581Y-51325887D01*
X107669999Y-51331972D01*
X107670000Y-51331972D01*
X107670001Y-51331972D01*
X107693958Y-51328177D01*
X107797306Y-51311809D01*
X107912151Y-51253292D01*
X108003292Y-51162151D01*
X108061809Y-51047306D01*
X108080388Y-50930000D01*
X108081972Y-50920001D01*
X108081972Y-50919998D01*
X108072990Y-50863292D01*
X108061809Y-50792694D01*
X108061808Y-50792692D01*
X108061808Y-50792691D01*
X108003294Y-50677852D01*
X108003293Y-50677851D01*
X108003292Y-50677849D01*
X107912151Y-50586708D01*
X107912148Y-50586706D01*
X107912147Y-50586705D01*
X107797308Y-50528191D01*
X107797309Y-50528191D01*
X107670001Y-50508028D01*
X107669999Y-50508028D01*
X107542691Y-50528191D01*
X107427852Y-50586705D01*
X107336705Y-50677852D01*
X107278191Y-50792691D01*
X107258028Y-50919998D01*
X107258028Y-50920001D01*
X104906995Y-50920001D01*
X104882737Y-50841358D01*
X104882735Y-50841355D01*
X104882734Y-50841350D01*
X104767599Y-50602270D01*
X104767599Y-50602269D01*
X104618117Y-50383020D01*
X104618108Y-50383009D01*
X104437631Y-50188500D01*
X104437626Y-50188496D01*
X104437623Y-50188492D01*
X104374547Y-50138191D01*
X104230161Y-50023047D01*
X104230155Y-50023042D01*
X104230145Y-50023036D01*
X104000357Y-49890367D01*
X104000342Y-49890359D01*
X103753333Y-49793415D01*
X103753334Y-49793415D01*
X103494612Y-49734363D01*
X103494614Y-49734363D01*
X103304996Y-49720155D01*
X103296255Y-49719500D01*
X103163745Y-49719500D01*
X103155003Y-49720155D01*
X102965386Y-49734363D01*
X102706666Y-49793415D01*
X102459657Y-49890359D01*
X102459642Y-49890367D01*
X102229854Y-50023036D01*
X102229838Y-50023047D01*
X102022382Y-50188487D01*
X102022368Y-50188500D01*
X101841891Y-50383009D01*
X101841882Y-50383020D01*
X101692400Y-50602268D01*
X101692400Y-50602270D01*
X101577266Y-50841350D01*
X101577262Y-50841358D01*
X101499050Y-51094920D01*
X101459500Y-51357318D01*
X101459500Y-51622681D01*
X99038700Y-51622681D01*
X99038700Y-50791383D01*
X99038724Y-50790433D01*
X99045209Y-50666705D01*
X99045702Y-50657306D01*
X99048461Y-50608191D01*
X99056126Y-50471689D01*
X99056322Y-50469850D01*
X99080811Y-50315231D01*
X99108766Y-50150701D01*
X99109132Y-50149033D01*
X99117440Y-50118028D01*
X99150625Y-49994179D01*
X99195803Y-49837363D01*
X99196293Y-49835902D01*
X99254327Y-49684715D01*
X99316222Y-49535289D01*
X99316807Y-49534021D01*
X99390715Y-49388969D01*
X99468594Y-49248058D01*
X99469241Y-49246979D01*
X99558185Y-49110017D01*
X99651159Y-48978985D01*
X99651839Y-48978089D01*
X99754502Y-48851311D01*
X99755033Y-48850686D01*
X99861778Y-48731238D01*
X99862409Y-48730570D01*
X99942978Y-48650001D01*
X122498028Y-48650001D01*
X122518191Y-48777308D01*
X122576705Y-48892147D01*
X122576706Y-48892148D01*
X122576708Y-48892151D01*
X122667849Y-48983292D01*
X122667851Y-48983293D01*
X122667852Y-48983294D01*
X122782691Y-49041808D01*
X122782692Y-49041808D01*
X122782694Y-49041809D01*
X122871581Y-49055887D01*
X122909999Y-49061972D01*
X122910000Y-49061972D01*
X122910001Y-49061972D01*
X122933958Y-49058177D01*
X122985581Y-49050001D01*
X126408028Y-49050001D01*
X126428191Y-49177308D01*
X126486705Y-49292147D01*
X126486706Y-49292148D01*
X126486708Y-49292151D01*
X126577849Y-49383292D01*
X126577851Y-49383293D01*
X126577852Y-49383294D01*
X126692691Y-49441808D01*
X126692692Y-49441808D01*
X126692694Y-49441809D01*
X126781581Y-49455887D01*
X126819999Y-49461972D01*
X126820000Y-49461972D01*
X126820001Y-49461972D01*
X126843958Y-49458177D01*
X126947306Y-49441809D01*
X127062151Y-49383292D01*
X127153292Y-49292151D01*
X127211809Y-49177306D01*
X127230389Y-49059995D01*
X127231972Y-49050001D01*
X127231972Y-49049998D01*
X127220581Y-48978077D01*
X127211809Y-48922694D01*
X127211808Y-48922692D01*
X127211808Y-48922691D01*
X127153294Y-48807852D01*
X127153293Y-48807851D01*
X127153292Y-48807849D01*
X127062151Y-48716708D01*
X127062148Y-48716706D01*
X127062147Y-48716705D01*
X126947308Y-48658191D01*
X126947309Y-48658191D01*
X126820001Y-48638028D01*
X126819999Y-48638028D01*
X126692691Y-48658191D01*
X126577852Y-48716705D01*
X126486705Y-48807852D01*
X126428191Y-48922691D01*
X126408028Y-49049998D01*
X126408028Y-49050001D01*
X122985581Y-49050001D01*
X123037306Y-49041809D01*
X123152151Y-48983292D01*
X123243292Y-48892151D01*
X123301809Y-48777306D01*
X123321972Y-48650000D01*
X123315637Y-48610001D01*
X127728028Y-48610001D01*
X127748191Y-48737308D01*
X127806705Y-48852147D01*
X127806706Y-48852148D01*
X127806708Y-48852151D01*
X127897849Y-48943292D01*
X127897851Y-48943293D01*
X127897852Y-48943294D01*
X128012691Y-49001808D01*
X128012692Y-49001808D01*
X128012694Y-49001809D01*
X128101581Y-49015887D01*
X128139999Y-49021972D01*
X128140000Y-49021972D01*
X128140001Y-49021972D01*
X128163958Y-49018177D01*
X128267306Y-49001809D01*
X128351717Y-48958799D01*
X133532474Y-48958799D01*
X133532475Y-48958800D01*
X134088606Y-48958800D01*
X134080000Y-48988111D01*
X134080000Y-49131889D01*
X134088606Y-49161200D01*
X133532475Y-49161200D01*
X133542826Y-49266305D01*
X133542826Y-49266306D01*
X133603002Y-49464676D01*
X133603007Y-49464688D01*
X133700726Y-49647507D01*
X133700729Y-49647512D01*
X133832239Y-49807758D01*
X133832241Y-49807760D01*
X133992487Y-49939270D01*
X133992492Y-49939273D01*
X134175311Y-50036992D01*
X134175323Y-50036997D01*
X134373693Y-50097173D01*
X134478799Y-50107524D01*
X134478800Y-50107523D01*
X134478800Y-49550591D01*
X134544237Y-49560000D01*
X134615763Y-49560000D01*
X134681200Y-49550591D01*
X134681200Y-50107524D01*
X134786305Y-50097173D01*
X134786306Y-50097173D01*
X134984676Y-50036997D01*
X134984688Y-50036992D01*
X135167507Y-49939273D01*
X135167512Y-49939270D01*
X135327758Y-49807760D01*
X135327760Y-49807758D01*
X135459270Y-49647512D01*
X135459273Y-49647507D01*
X135556992Y-49464688D01*
X135556997Y-49464676D01*
X135617173Y-49266306D01*
X135617173Y-49266305D01*
X135627525Y-49161200D01*
X135071394Y-49161200D01*
X135080000Y-49131889D01*
X135080000Y-49060004D01*
X136112247Y-49060004D01*
X136131610Y-49256602D01*
X136131610Y-49256603D01*
X136187793Y-49441809D01*
X136188958Y-49445650D01*
X136282084Y-49619878D01*
X136407411Y-49772589D01*
X136560122Y-49897916D01*
X136734350Y-49991042D01*
X136885843Y-50036997D01*
X136923397Y-50048389D01*
X137119996Y-50067753D01*
X137120000Y-50067753D01*
X137120004Y-50067753D01*
X137277282Y-50052261D01*
X137316603Y-50048389D01*
X137505650Y-49991042D01*
X137679878Y-49897916D01*
X137832589Y-49772589D01*
X137957916Y-49619878D01*
X138051042Y-49445650D01*
X138108389Y-49256603D01*
X138116199Y-49177306D01*
X138127753Y-49060004D01*
X138652247Y-49060004D01*
X138671610Y-49256602D01*
X138671610Y-49256603D01*
X138727793Y-49441809D01*
X138728958Y-49445650D01*
X138822084Y-49619878D01*
X138947411Y-49772589D01*
X139100122Y-49897916D01*
X139274350Y-49991042D01*
X139425843Y-50036997D01*
X139463397Y-50048389D01*
X139659996Y-50067753D01*
X139660000Y-50067753D01*
X139660004Y-50067753D01*
X139817282Y-50052261D01*
X139856603Y-50048389D01*
X140045650Y-49991042D01*
X140219878Y-49897916D01*
X140372589Y-49772589D01*
X140497916Y-49619878D01*
X140591042Y-49445650D01*
X140648389Y-49256603D01*
X140656199Y-49177306D01*
X140667753Y-49060004D01*
X141192247Y-49060004D01*
X141211610Y-49256602D01*
X141211610Y-49256603D01*
X141267793Y-49441809D01*
X141268958Y-49445650D01*
X141362084Y-49619878D01*
X141487411Y-49772589D01*
X141640122Y-49897916D01*
X141814350Y-49991042D01*
X141965843Y-50036997D01*
X142003397Y-50048389D01*
X142199996Y-50067753D01*
X142200000Y-50067753D01*
X142200004Y-50067753D01*
X142357282Y-50052261D01*
X142396603Y-50048389D01*
X142585650Y-49991042D01*
X142759878Y-49897916D01*
X142912589Y-49772589D01*
X143037916Y-49619878D01*
X143131042Y-49445650D01*
X143188389Y-49256603D01*
X143196199Y-49177306D01*
X143207753Y-49060004D01*
X143732247Y-49060004D01*
X143751610Y-49256602D01*
X143751610Y-49256603D01*
X143807793Y-49441809D01*
X143808958Y-49445650D01*
X143902084Y-49619878D01*
X144027411Y-49772589D01*
X144180122Y-49897916D01*
X144354350Y-49991042D01*
X144505843Y-50036997D01*
X144543397Y-50048389D01*
X144739996Y-50067753D01*
X144740000Y-50067753D01*
X144740004Y-50067753D01*
X144897282Y-50052261D01*
X144936603Y-50048389D01*
X145125650Y-49991042D01*
X145299878Y-49897916D01*
X145452589Y-49772589D01*
X145577916Y-49619878D01*
X145671042Y-49445650D01*
X145728389Y-49256603D01*
X145736199Y-49177306D01*
X145747753Y-49060004D01*
X146272247Y-49060004D01*
X146291610Y-49256602D01*
X146291610Y-49256603D01*
X146347793Y-49441809D01*
X146348958Y-49445650D01*
X146442084Y-49619878D01*
X146567411Y-49772589D01*
X146720122Y-49897916D01*
X146894350Y-49991042D01*
X147045843Y-50036997D01*
X147083397Y-50048389D01*
X147279996Y-50067753D01*
X147280000Y-50067753D01*
X147280004Y-50067753D01*
X147437282Y-50052261D01*
X147476603Y-50048389D01*
X147665650Y-49991042D01*
X147839878Y-49897916D01*
X147992589Y-49772589D01*
X148117916Y-49619878D01*
X148211042Y-49445650D01*
X148268389Y-49256603D01*
X148276199Y-49177306D01*
X148287753Y-49060004D01*
X148287753Y-49059995D01*
X148274457Y-48925001D01*
X149338028Y-48925001D01*
X149358191Y-49052308D01*
X149416705Y-49167147D01*
X149416706Y-49167148D01*
X149416708Y-49167151D01*
X149507849Y-49258292D01*
X149507851Y-49258293D01*
X149507852Y-49258294D01*
X149622691Y-49316808D01*
X149622692Y-49316808D01*
X149622694Y-49316809D01*
X149711581Y-49330887D01*
X149749999Y-49336972D01*
X149750000Y-49336972D01*
X149750001Y-49336972D01*
X149773958Y-49333177D01*
X149877306Y-49316809D01*
X149992151Y-49258292D01*
X150083292Y-49167151D01*
X150141809Y-49052306D01*
X150161972Y-48925000D01*
X150161606Y-48922691D01*
X150150433Y-48852147D01*
X150141809Y-48797694D01*
X150141808Y-48797692D01*
X150141808Y-48797691D01*
X150083294Y-48682852D01*
X150083293Y-48682851D01*
X150083292Y-48682849D01*
X149992151Y-48591708D01*
X149992148Y-48591706D01*
X149992147Y-48591705D01*
X149877308Y-48533191D01*
X149877309Y-48533191D01*
X149750001Y-48513028D01*
X149749999Y-48513028D01*
X149622691Y-48533191D01*
X149507852Y-48591705D01*
X149416705Y-48682852D01*
X149358191Y-48797691D01*
X149338028Y-48924998D01*
X149338028Y-48925001D01*
X148274457Y-48925001D01*
X148268389Y-48863397D01*
X148268389Y-48863396D01*
X148230140Y-48737308D01*
X148211042Y-48674350D01*
X148117916Y-48500122D01*
X147992589Y-48347411D01*
X147839878Y-48222084D01*
X147665650Y-48128958D01*
X147665643Y-48128955D01*
X147665641Y-48128955D01*
X147476602Y-48071610D01*
X147280004Y-48052247D01*
X147279996Y-48052247D01*
X147083397Y-48071610D01*
X147083396Y-48071610D01*
X146894358Y-48128955D01*
X146894352Y-48128957D01*
X146894350Y-48128958D01*
X146894347Y-48128959D01*
X146894346Y-48128960D01*
X146720125Y-48222082D01*
X146720120Y-48222085D01*
X146567412Y-48347410D01*
X146567410Y-48347412D01*
X146442085Y-48500120D01*
X146442082Y-48500125D01*
X146348960Y-48674346D01*
X146348955Y-48674358D01*
X146291610Y-48863396D01*
X146291610Y-48863397D01*
X146272247Y-49059995D01*
X146272247Y-49060004D01*
X145747753Y-49060004D01*
X145747753Y-49059995D01*
X145728389Y-48863397D01*
X145728389Y-48863396D01*
X145690140Y-48737308D01*
X145671042Y-48674350D01*
X145577916Y-48500122D01*
X145452589Y-48347411D01*
X145299878Y-48222084D01*
X145125650Y-48128958D01*
X145125643Y-48128955D01*
X145125641Y-48128955D01*
X144936602Y-48071610D01*
X144740004Y-48052247D01*
X144739996Y-48052247D01*
X144543397Y-48071610D01*
X144543396Y-48071610D01*
X144354358Y-48128955D01*
X144354352Y-48128957D01*
X144354350Y-48128958D01*
X144354347Y-48128959D01*
X144354346Y-48128960D01*
X144180125Y-48222082D01*
X144180120Y-48222085D01*
X144027412Y-48347410D01*
X144027410Y-48347412D01*
X143902085Y-48500120D01*
X143902082Y-48500125D01*
X143808960Y-48674346D01*
X143808955Y-48674358D01*
X143751610Y-48863396D01*
X143751610Y-48863397D01*
X143732247Y-49059995D01*
X143732247Y-49060004D01*
X143207753Y-49060004D01*
X143207753Y-49059995D01*
X143188389Y-48863397D01*
X143188389Y-48863396D01*
X143150140Y-48737308D01*
X143131042Y-48674350D01*
X143037916Y-48500122D01*
X142912589Y-48347411D01*
X142759878Y-48222084D01*
X142585650Y-48128958D01*
X142585643Y-48128955D01*
X142585641Y-48128955D01*
X142396602Y-48071610D01*
X142200004Y-48052247D01*
X142199996Y-48052247D01*
X142003397Y-48071610D01*
X142003396Y-48071610D01*
X141814358Y-48128955D01*
X141814352Y-48128957D01*
X141814350Y-48128958D01*
X141814347Y-48128959D01*
X141814346Y-48128960D01*
X141640125Y-48222082D01*
X141640120Y-48222085D01*
X141487412Y-48347410D01*
X141487410Y-48347412D01*
X141362085Y-48500120D01*
X141362082Y-48500125D01*
X141268960Y-48674346D01*
X141268955Y-48674358D01*
X141211610Y-48863396D01*
X141211610Y-48863397D01*
X141192247Y-49059995D01*
X141192247Y-49060004D01*
X140667753Y-49060004D01*
X140667753Y-49059995D01*
X140648389Y-48863397D01*
X140648389Y-48863396D01*
X140610140Y-48737308D01*
X140591042Y-48674350D01*
X140497916Y-48500122D01*
X140372589Y-48347411D01*
X140219878Y-48222084D01*
X140045650Y-48128958D01*
X140045643Y-48128955D01*
X140045641Y-48128955D01*
X139856602Y-48071610D01*
X139660004Y-48052247D01*
X139659996Y-48052247D01*
X139463397Y-48071610D01*
X139463396Y-48071610D01*
X139274358Y-48128955D01*
X139274352Y-48128957D01*
X139274350Y-48128958D01*
X139274347Y-48128959D01*
X139274346Y-48128960D01*
X139100125Y-48222082D01*
X139100120Y-48222085D01*
X138947412Y-48347410D01*
X138947410Y-48347412D01*
X138822085Y-48500120D01*
X138822082Y-48500125D01*
X138728960Y-48674346D01*
X138728955Y-48674358D01*
X138671610Y-48863396D01*
X138671610Y-48863397D01*
X138652247Y-49059995D01*
X138652247Y-49060004D01*
X138127753Y-49060004D01*
X138127753Y-49059995D01*
X138108389Y-48863397D01*
X138108389Y-48863396D01*
X138070140Y-48737308D01*
X138051042Y-48674350D01*
X137957916Y-48500122D01*
X137832589Y-48347411D01*
X137679878Y-48222084D01*
X137505650Y-48128958D01*
X137505643Y-48128955D01*
X137505641Y-48128955D01*
X137316602Y-48071610D01*
X137120004Y-48052247D01*
X137119996Y-48052247D01*
X136923397Y-48071610D01*
X136923396Y-48071610D01*
X136734358Y-48128955D01*
X136734352Y-48128957D01*
X136734350Y-48128958D01*
X136734347Y-48128959D01*
X136734346Y-48128960D01*
X136560125Y-48222082D01*
X136560120Y-48222085D01*
X136407412Y-48347410D01*
X136407410Y-48347412D01*
X136282085Y-48500120D01*
X136282082Y-48500125D01*
X136188960Y-48674346D01*
X136188955Y-48674358D01*
X136131610Y-48863396D01*
X136131610Y-48863397D01*
X136112247Y-49059995D01*
X136112247Y-49060004D01*
X135080000Y-49060004D01*
X135080000Y-48988111D01*
X135071394Y-48958800D01*
X135627525Y-48958800D01*
X135627525Y-48958799D01*
X135617173Y-48853694D01*
X135617173Y-48853693D01*
X135556997Y-48655323D01*
X135556992Y-48655311D01*
X135459273Y-48472492D01*
X135459270Y-48472487D01*
X135327760Y-48312241D01*
X135327758Y-48312239D01*
X135167512Y-48180729D01*
X135167507Y-48180726D01*
X134984688Y-48083007D01*
X134984676Y-48083002D01*
X134786305Y-48022826D01*
X134681200Y-48012474D01*
X134681200Y-48569408D01*
X134615763Y-48560000D01*
X134544237Y-48560000D01*
X134478800Y-48569408D01*
X134478800Y-48012474D01*
X134478799Y-48012474D01*
X134373694Y-48022826D01*
X134373693Y-48022826D01*
X134175323Y-48083002D01*
X134175311Y-48083007D01*
X133992492Y-48180726D01*
X133992487Y-48180729D01*
X133832241Y-48312239D01*
X133832239Y-48312241D01*
X133700729Y-48472487D01*
X133700726Y-48472492D01*
X133603007Y-48655311D01*
X133603002Y-48655323D01*
X133542826Y-48853693D01*
X133542826Y-48853694D01*
X133532474Y-48958799D01*
X128351717Y-48958799D01*
X128382151Y-48943292D01*
X128473292Y-48852151D01*
X128531809Y-48737306D01*
X128551972Y-48610000D01*
X128549074Y-48591705D01*
X128535780Y-48507768D01*
X128531809Y-48482694D01*
X128531808Y-48482692D01*
X128531808Y-48482691D01*
X128473294Y-48367852D01*
X128473293Y-48367851D01*
X128473292Y-48367849D01*
X128382151Y-48276708D01*
X128382148Y-48276706D01*
X128382147Y-48276705D01*
X128267308Y-48218191D01*
X128267309Y-48218191D01*
X128140001Y-48198028D01*
X128139999Y-48198028D01*
X128012691Y-48218191D01*
X127897852Y-48276705D01*
X127806705Y-48367852D01*
X127748191Y-48482691D01*
X127728028Y-48609998D01*
X127728028Y-48610001D01*
X123315637Y-48610001D01*
X123301809Y-48522694D01*
X123301808Y-48522692D01*
X123301808Y-48522691D01*
X123243294Y-48407852D01*
X123243293Y-48407851D01*
X123243292Y-48407849D01*
X123152151Y-48316708D01*
X123152148Y-48316706D01*
X123152147Y-48316705D01*
X123037308Y-48258191D01*
X123037309Y-48258191D01*
X122910001Y-48238028D01*
X122909999Y-48238028D01*
X122782691Y-48258191D01*
X122667852Y-48316705D01*
X122576705Y-48407852D01*
X122518191Y-48522691D01*
X122498028Y-48649998D01*
X122498028Y-48650001D01*
X99942978Y-48650001D01*
X99977870Y-48615109D01*
X99978538Y-48614478D01*
X100097986Y-48507733D01*
X100098611Y-48507202D01*
X100225389Y-48404539D01*
X100226285Y-48403859D01*
X100357317Y-48310885D01*
X100494279Y-48221941D01*
X100495358Y-48221294D01*
X100636269Y-48143415D01*
X100781321Y-48069507D01*
X100782589Y-48068922D01*
X100932015Y-48007027D01*
X101083202Y-47948993D01*
X101084663Y-47948503D01*
X101241479Y-47903325D01*
X101396340Y-47861830D01*
X101398001Y-47861466D01*
X101562484Y-47833518D01*
X101717150Y-47809022D01*
X101718989Y-47808826D01*
X101904781Y-47798392D01*
X102037733Y-47791424D01*
X102038683Y-47791400D01*
X102038700Y-47791400D01*
X151917700Y-47791400D01*
X151917717Y-47791400D01*
X151918666Y-47791424D01*
G37*
%TD.AperFunction*%
%TD*%
%TA.AperFunction,Conductor*%
%TO.N,+1V8*%
G36*
X117437561Y-54932027D02*
G01*
X118951704Y-56092214D01*
X118965917Y-56116794D01*
X118958587Y-56144227D01*
X118934006Y-56158441D01*
X118912295Y-56154718D01*
X118877308Y-56136891D01*
X118877309Y-56136891D01*
X118750001Y-56116728D01*
X118749999Y-56116728D01*
X118622691Y-56136891D01*
X118507852Y-56195405D01*
X118416705Y-56286552D01*
X118358191Y-56401391D01*
X118338028Y-56528698D01*
X118338028Y-56528701D01*
X118358191Y-56656008D01*
X118416705Y-56770847D01*
X118416706Y-56770848D01*
X118416708Y-56770851D01*
X118507849Y-56861992D01*
X118507851Y-56861993D01*
X118507852Y-56861994D01*
X118622691Y-56920508D01*
X118622692Y-56920508D01*
X118622694Y-56920509D01*
X118711581Y-56934587D01*
X118749999Y-56940672D01*
X118750000Y-56940672D01*
X118750001Y-56940672D01*
X118773958Y-56936877D01*
X118877306Y-56920509D01*
X118992151Y-56861992D01*
X119083292Y-56770851D01*
X119141809Y-56656006D01*
X119161972Y-56528700D01*
X119141809Y-56401394D01*
X119141808Y-56401392D01*
X119141808Y-56401391D01*
X119083294Y-56286552D01*
X119083293Y-56286551D01*
X119083292Y-56286549D01*
X119081432Y-56284689D01*
X119070567Y-56258457D01*
X119081433Y-56232223D01*
X119107667Y-56221357D01*
X119130229Y-56229007D01*
X126219827Y-61661296D01*
X126810627Y-62113987D01*
X126824841Y-62138568D01*
X126825161Y-62143105D01*
X126849664Y-64887471D01*
X126839032Y-64913800D01*
X126812896Y-64924901D01*
X126812469Y-64924902D01*
X117414903Y-64900493D01*
X117388697Y-64889558D01*
X117377900Y-64863395D01*
X117377900Y-63746602D01*
X121766427Y-63746602D01*
X121786590Y-63873909D01*
X121845104Y-63988748D01*
X121845105Y-63988749D01*
X121845107Y-63988752D01*
X121936248Y-64079893D01*
X121936250Y-64079894D01*
X121936251Y-64079895D01*
X122051090Y-64138409D01*
X122051091Y-64138409D01*
X122051093Y-64138410D01*
X122139980Y-64152488D01*
X122178398Y-64158573D01*
X122178399Y-64158573D01*
X122178400Y-64158573D01*
X122202357Y-64154778D01*
X122305705Y-64138410D01*
X122420550Y-64079893D01*
X122511691Y-63988752D01*
X122570208Y-63873907D01*
X122590371Y-63746601D01*
X122570208Y-63619295D01*
X122570207Y-63619293D01*
X122570207Y-63619292D01*
X122511693Y-63504453D01*
X122511692Y-63504452D01*
X122511691Y-63504450D01*
X122420550Y-63413309D01*
X122420547Y-63413307D01*
X122420546Y-63413306D01*
X122305707Y-63354792D01*
X122305708Y-63354792D01*
X122178400Y-63334629D01*
X122178398Y-63334629D01*
X122051090Y-63354792D01*
X121936251Y-63413306D01*
X121845104Y-63504453D01*
X121786590Y-63619292D01*
X121766427Y-63746599D01*
X121766427Y-63746602D01*
X117377900Y-63746602D01*
X117377900Y-60635000D01*
X117377899Y-60634994D01*
X117377899Y-60634992D01*
X117365883Y-60574583D01*
X117365882Y-60574577D01*
X117355016Y-60548343D01*
X117348042Y-60536265D01*
X117346559Y-60525000D01*
X123338027Y-60525000D01*
X123358190Y-60652307D01*
X123416704Y-60767146D01*
X123416705Y-60767147D01*
X123416707Y-60767150D01*
X123507848Y-60858291D01*
X123507850Y-60858292D01*
X123507851Y-60858293D01*
X123622690Y-60916807D01*
X123622691Y-60916807D01*
X123622693Y-60916808D01*
X123711580Y-60930886D01*
X123749998Y-60936971D01*
X123749999Y-60936971D01*
X123750000Y-60936971D01*
X123773957Y-60933176D01*
X123877305Y-60916808D01*
X123992150Y-60858291D01*
X124083291Y-60767150D01*
X124141808Y-60652305D01*
X124161971Y-60524999D01*
X124141808Y-60397693D01*
X124141807Y-60397691D01*
X124141807Y-60397690D01*
X124083293Y-60282851D01*
X124083292Y-60282850D01*
X124083291Y-60282848D01*
X123992150Y-60191707D01*
X123992147Y-60191705D01*
X123992146Y-60191704D01*
X123877307Y-60133190D01*
X123877308Y-60133190D01*
X123750000Y-60113027D01*
X123749998Y-60113027D01*
X123622690Y-60133190D01*
X123507851Y-60191704D01*
X123416704Y-60282851D01*
X123358190Y-60397690D01*
X123338027Y-60524997D01*
X123338027Y-60525000D01*
X117346559Y-60525000D01*
X117344336Y-60508114D01*
X117350738Y-60495131D01*
X117355016Y-60489557D01*
X117365882Y-60463323D01*
X117377900Y-60402900D01*
X117377900Y-59300001D01*
X121763028Y-59300001D01*
X121783191Y-59427308D01*
X121841705Y-59542147D01*
X121841706Y-59542148D01*
X121841708Y-59542151D01*
X121932849Y-59633292D01*
X121932851Y-59633293D01*
X121932852Y-59633294D01*
X122047691Y-59691808D01*
X122047692Y-59691808D01*
X122047694Y-59691809D01*
X122136581Y-59705887D01*
X122174999Y-59711972D01*
X122175000Y-59711972D01*
X122175001Y-59711972D01*
X122210130Y-59706408D01*
X122302306Y-59691809D01*
X122417151Y-59633292D01*
X122508292Y-59542151D01*
X122566809Y-59427306D01*
X122586972Y-59300000D01*
X122566809Y-59172694D01*
X122566808Y-59172692D01*
X122566808Y-59172691D01*
X122508294Y-59057852D01*
X122508293Y-59057851D01*
X122508292Y-59057849D01*
X122417151Y-58966708D01*
X122417148Y-58966706D01*
X122417147Y-58966705D01*
X122302308Y-58908191D01*
X122302309Y-58908191D01*
X122175001Y-58888028D01*
X122174999Y-58888028D01*
X122047691Y-58908191D01*
X121932852Y-58966705D01*
X121841705Y-59057852D01*
X121783191Y-59172691D01*
X121763028Y-59299998D01*
X121763028Y-59300001D01*
X117377900Y-59300001D01*
X117377900Y-54961478D01*
X117388766Y-54935244D01*
X117415000Y-54924378D01*
X117437561Y-54932027D01*
G37*
%TD.AperFunction*%
%TD*%
%TA.AperFunction,Conductor*%
%TO.N,VUSB*%
G36*
X108258834Y-55140866D02*
G01*
X108269700Y-55167100D01*
X108269700Y-55185273D01*
X108268715Y-55193767D01*
X108264743Y-55210653D01*
X108264743Y-55210656D01*
X108269521Y-55244916D01*
X108269699Y-55247475D01*
X108269699Y-55754689D01*
X108258833Y-55780923D01*
X108232599Y-55791789D01*
X108206366Y-55780923D01*
X108192151Y-55766708D01*
X108192148Y-55766706D01*
X108192147Y-55766705D01*
X108077308Y-55708191D01*
X108077309Y-55708191D01*
X107950001Y-55688028D01*
X107949999Y-55688028D01*
X107822691Y-55708191D01*
X107707852Y-55766705D01*
X107616705Y-55857852D01*
X107558191Y-55972691D01*
X107538028Y-56099998D01*
X107538028Y-56100001D01*
X107558191Y-56227308D01*
X107616705Y-56342147D01*
X107616706Y-56342148D01*
X107616708Y-56342151D01*
X107707849Y-56433292D01*
X107707851Y-56433293D01*
X107707852Y-56433294D01*
X107822691Y-56491808D01*
X107822692Y-56491808D01*
X107822694Y-56491809D01*
X107911581Y-56505887D01*
X107949999Y-56511972D01*
X107950000Y-56511972D01*
X107950001Y-56511972D01*
X107973958Y-56508177D01*
X108077306Y-56491809D01*
X108192151Y-56433292D01*
X108206367Y-56419075D01*
X108232599Y-56408209D01*
X108258833Y-56419075D01*
X108269700Y-56445308D01*
X108269700Y-67090545D01*
X108267777Y-67102334D01*
X108267390Y-67103487D01*
X108267389Y-67103491D01*
X108269680Y-67153011D01*
X108269700Y-67153868D01*
X108269700Y-67174690D01*
X108270767Y-67180408D01*
X108271063Y-67182958D01*
X108272661Y-67217505D01*
X108272661Y-67217507D01*
X108272662Y-67217509D01*
X108276615Y-67226462D01*
X108279668Y-67233378D01*
X108282196Y-67241541D01*
X108285385Y-67258598D01*
X108294398Y-67273153D01*
X108303599Y-67288013D01*
X108304795Y-67290283D01*
X108318766Y-67321925D01*
X108331032Y-67334191D01*
X108336341Y-67340894D01*
X108345473Y-67355642D01*
X108373075Y-67376487D01*
X108375015Y-67378175D01*
X108563507Y-67566666D01*
X108574373Y-67592900D01*
X108563507Y-67619134D01*
X108537273Y-67630000D01*
X105847100Y-67630000D01*
X105820866Y-67619134D01*
X105810000Y-67592900D01*
X105810000Y-65460000D01*
X105820866Y-65433766D01*
X105847100Y-65422900D01*
X106406082Y-65422900D01*
X106406081Y-65422899D01*
X106446349Y-65417812D01*
X106528656Y-65407415D01*
X106528656Y-65407414D01*
X106528660Y-65407414D01*
X106682037Y-65346688D01*
X106815493Y-65249726D01*
X106920643Y-65122622D01*
X106990880Y-64973361D01*
X107021790Y-64811322D01*
X107011432Y-64646686D01*
X107011431Y-64646683D01*
X107011431Y-64646681D01*
X106979935Y-64549748D01*
X106960457Y-64489799D01*
X106872066Y-64350518D01*
X106751815Y-64237595D01*
X106607259Y-64158124D01*
X106607258Y-64158123D01*
X106607257Y-64158123D01*
X106607254Y-64158122D01*
X106447488Y-64117101D01*
X106447481Y-64117100D01*
X106447480Y-64117100D01*
X105847100Y-64117100D01*
X105820866Y-64106234D01*
X105810000Y-64080000D01*
X105810000Y-63710001D01*
X106898028Y-63710001D01*
X106918191Y-63837308D01*
X106976705Y-63952147D01*
X106976706Y-63952148D01*
X106976708Y-63952151D01*
X107067849Y-64043292D01*
X107067851Y-64043293D01*
X107067852Y-64043294D01*
X107182691Y-64101808D01*
X107182692Y-64101808D01*
X107182694Y-64101809D01*
X107271581Y-64115887D01*
X107309999Y-64121972D01*
X107310000Y-64121972D01*
X107310001Y-64121972D01*
X107333958Y-64118177D01*
X107437306Y-64101809D01*
X107552151Y-64043292D01*
X107643292Y-63952151D01*
X107701809Y-63837306D01*
X107721972Y-63710000D01*
X107701809Y-63582694D01*
X107701808Y-63582692D01*
X107701808Y-63582691D01*
X107643294Y-63467852D01*
X107643293Y-63467851D01*
X107643292Y-63467849D01*
X107552151Y-63376708D01*
X107552148Y-63376706D01*
X107552147Y-63376705D01*
X107437308Y-63318191D01*
X107437309Y-63318191D01*
X107310001Y-63298028D01*
X107309999Y-63298028D01*
X107182691Y-63318191D01*
X107067852Y-63376705D01*
X106976705Y-63467852D01*
X106918191Y-63582691D01*
X106898028Y-63709998D01*
X106898028Y-63710001D01*
X105810000Y-63710001D01*
X105810000Y-63417372D01*
X105810378Y-63412088D01*
X105810500Y-63411240D01*
X105810500Y-63268759D01*
X105810377Y-63267904D01*
X105810000Y-63262626D01*
X105810000Y-57637372D01*
X105810378Y-57632088D01*
X105810500Y-57631240D01*
X105810500Y-57488759D01*
X105810377Y-57487904D01*
X105810000Y-57482626D01*
X105810000Y-57250001D01*
X106950133Y-57250001D01*
X106970296Y-57377308D01*
X107028810Y-57492147D01*
X107028811Y-57492148D01*
X107028813Y-57492151D01*
X107119954Y-57583292D01*
X107119956Y-57583293D01*
X107119957Y-57583294D01*
X107234796Y-57641808D01*
X107234797Y-57641808D01*
X107234799Y-57641809D01*
X107323686Y-57655887D01*
X107362104Y-57661972D01*
X107362105Y-57661972D01*
X107362106Y-57661972D01*
X107386063Y-57658177D01*
X107489411Y-57641809D01*
X107604256Y-57583292D01*
X107695397Y-57492151D01*
X107753914Y-57377306D01*
X107774077Y-57250000D01*
X107753914Y-57122694D01*
X107753913Y-57122692D01*
X107753913Y-57122691D01*
X107695399Y-57007852D01*
X107695398Y-57007851D01*
X107695397Y-57007849D01*
X107604256Y-56916708D01*
X107604253Y-56916706D01*
X107604252Y-56916705D01*
X107489413Y-56858191D01*
X107489414Y-56858191D01*
X107362106Y-56838028D01*
X107362104Y-56838028D01*
X107234796Y-56858191D01*
X107119957Y-56916705D01*
X107028810Y-57007852D01*
X106970296Y-57122691D01*
X106950133Y-57249998D01*
X106950133Y-57250001D01*
X105810000Y-57250001D01*
X105810000Y-56820000D01*
X105820866Y-56793766D01*
X105847100Y-56782900D01*
X106406082Y-56782900D01*
X106406081Y-56782899D01*
X106446349Y-56777812D01*
X106528656Y-56767415D01*
X106528656Y-56767414D01*
X106528660Y-56767414D01*
X106682037Y-56706688D01*
X106815493Y-56609726D01*
X106920643Y-56482622D01*
X106990880Y-56333361D01*
X107021790Y-56171322D01*
X107011432Y-56006686D01*
X107011431Y-56006683D01*
X107011431Y-56006681D01*
X106983857Y-55921818D01*
X106960457Y-55849799D01*
X106872066Y-55710518D01*
X106751815Y-55597595D01*
X106607259Y-55518124D01*
X106607258Y-55518123D01*
X106607257Y-55518123D01*
X106607254Y-55518122D01*
X106447488Y-55477101D01*
X106447481Y-55477100D01*
X106447480Y-55477100D01*
X105847100Y-55477100D01*
X105820866Y-55466234D01*
X105810000Y-55440000D01*
X105810000Y-55167100D01*
X105820866Y-55140866D01*
X105847100Y-55130000D01*
X108232600Y-55130000D01*
X108258834Y-55140866D01*
G37*
%TD.AperFunction*%
%TD*%
M02*
