%TF.GenerationSoftware,KiCad,Pcbnew,7.0.6*%
%TF.CreationDate,2023-10-17T01:06:07-04:00*%
%TF.ProjectId,tstick-5gw-pro-USB-V2-pcb,74737469-636b-42d3-9567-772d70726f2d,v0.0.2*%
%TF.SameCoordinates,Original*%
%TF.FileFunction,Soldermask,Top*%
%TF.FilePolarity,Negative*%
%FSLAX46Y46*%
G04 Gerber Fmt 4.6, Leading zero omitted, Abs format (unit mm)*
G04 Created by KiCad (PCBNEW 7.0.6) date 2023-10-17 01:06:07*
%MOMM*%
%LPD*%
G01*
G04 APERTURE LIST*
G04 Aperture macros list*
%AMRoundRect*
0 Rectangle with rounded corners*
0 $1 Rounding radius*
0 $2 $3 $4 $5 $6 $7 $8 $9 X,Y pos of 4 corners*
0 Add a 4 corners polygon primitive as box body*
4,1,4,$2,$3,$4,$5,$6,$7,$8,$9,$2,$3,0*
0 Add four circle primitives for the rounded corners*
1,1,$1+$1,$2,$3*
1,1,$1+$1,$4,$5*
1,1,$1+$1,$6,$7*
1,1,$1+$1,$8,$9*
0 Add four rect primitives between the rounded corners*
20,1,$1+$1,$2,$3,$4,$5,0*
20,1,$1+$1,$4,$5,$6,$7,0*
20,1,$1+$1,$6,$7,$8,$9,0*
20,1,$1+$1,$8,$9,$2,$3,0*%
G04 Aperture macros list end*
%ADD10RoundRect,0.300800X-0.250000X-2.500000X0.250000X-2.500000X0.250000X2.500000X-0.250000X2.500000X0*%
%ADD11RoundRect,0.300800X-0.550000X-1.250000X0.550000X-1.250000X0.550000X1.250000X-0.550000X1.250000X0*%
%ADD12RoundRect,0.150800X0.130000X0.100000X-0.130000X0.100000X-0.130000X-0.100000X0.130000X-0.100000X0*%
%ADD13RoundRect,0.150800X-0.130000X-0.100000X0.130000X-0.100000X0.130000X0.100000X-0.130000X0.100000X0*%
%ADD14RoundRect,0.150800X-0.100000X0.130000X-0.100000X-0.130000X0.100000X-0.130000X0.100000X0.130000X0*%
%ADD15RoundRect,0.150800X0.100000X-0.130000X0.100000X0.130000X-0.100000X0.130000X-0.100000X-0.130000X0*%
%ADD16O,2.101600X3.101600*%
%ADD17RoundRect,0.050800X0.525000X0.325000X-0.525000X0.325000X-0.525000X-0.325000X0.525000X-0.325000X0*%
%ADD18RoundRect,0.050800X-0.353199X-0.102000X0.353199X-0.102000X0.353199X0.102000X-0.353199X0.102000X0*%
%ADD19RoundRect,0.050800X-0.647700X-0.698500X0.647700X-0.698500X0.647700X0.698500X-0.647700X0.698500X0*%
%ADD20RoundRect,0.050800X0.327799X-0.102000X0.327799X0.102000X-0.327799X0.102000X-0.327799X-0.102000X0*%
%ADD21RoundRect,0.050800X-0.102000X-0.327799X0.102000X-0.327799X0.102000X0.327799X-0.102000X0.327799X0*%
%ADD22RoundRect,0.050800X-0.450000X0.750000X-0.450000X-0.750000X0.450000X-0.750000X0.450000X0.750000X0*%
%ADD23RoundRect,0.050800X-0.750000X-0.450000X0.750000X-0.450000X0.750000X0.450000X-0.750000X0.450000X0*%
%ADD24RoundRect,0.050800X0.450000X-0.750000X0.450000X0.750000X-0.450000X0.750000X-0.450000X-0.750000X0*%
%ADD25RoundRect,0.050800X0.500000X-0.500000X0.500000X0.500000X-0.500000X0.500000X-0.500000X-0.500000X0*%
%ADD26RoundRect,0.200800X0.150000X0.625000X-0.150000X0.625000X-0.150000X-0.625000X0.150000X-0.625000X0*%
%ADD27RoundRect,0.300800X0.350000X0.650000X-0.350000X0.650000X-0.350000X-0.650000X0.350000X-0.650000X0*%
%ADD28RoundRect,0.269550X-0.218750X-0.256250X0.218750X-0.256250X0.218750X0.256250X-0.218750X0.256250X0*%
%ADD29RoundRect,0.275800X0.225000X0.250000X-0.225000X0.250000X-0.225000X-0.250000X0.225000X-0.250000X0*%
%ADD30RoundRect,0.200800X0.625000X-0.150000X0.625000X0.150000X-0.625000X0.150000X-0.625000X-0.150000X0*%
%ADD31RoundRect,0.300800X0.650000X-0.350000X0.650000X0.350000X-0.650000X0.350000X-0.650000X-0.350000X0*%
%ADD32RoundRect,0.102000X0.500000X-0.425000X0.500000X0.425000X-0.500000X0.425000X-0.500000X-0.425000X0*%
%ADD33C,3.301600*%
%ADD34RoundRect,0.050800X0.403999X-0.102000X0.403999X0.102000X-0.403999X0.102000X-0.403999X-0.102000X0*%
%ADD35RoundRect,0.050800X-0.102000X-0.403999X0.102000X-0.403999X0.102000X0.403999X-0.102000X0.403999X0*%
%ADD36RoundRect,0.050800X-1.346200X-1.346200X1.346200X-1.346200X1.346200X1.346200X-1.346200X1.346200X0*%
%ADD37RoundRect,0.050800X-0.550000X-0.200000X0.550000X-0.200000X0.550000X0.200000X-0.550000X0.200000X0*%
%ADD38RoundRect,0.050800X-0.525000X-0.325000X0.525000X-0.325000X0.525000X0.325000X-0.525000X0.325000X0*%
%ADD39RoundRect,0.050800X0.671900X0.356000X-0.671900X0.356000X-0.671900X-0.356000X0.671900X-0.356000X0*%
%ADD40C,0.751600*%
%ADD41RoundRect,0.050800X-0.575000X0.300000X-0.575000X-0.300000X0.575000X-0.300000X0.575000X0.300000X0*%
%ADD42RoundRect,0.050800X-0.575000X0.150000X-0.575000X-0.150000X0.575000X-0.150000X0.575000X0.150000X0*%
%ADD43O,2.201600X1.101600*%
%ADD44O,1.901600X1.101600*%
%ADD45RoundRect,0.200800X-0.150000X0.587500X-0.150000X-0.587500X0.150000X-0.587500X0.150000X0.587500X0*%
%ADD46O,1.801600X1.801600*%
G04 APERTURE END LIST*
D10*
%TO.C,BT1*%
X111220000Y-52830000D03*
X113220000Y-52830000D03*
D11*
X108820000Y-50580000D03*
X115620000Y-50580000D03*
%TD*%
D12*
%TO.C,R23*%
X125125000Y-67350000D03*
X124485000Y-67350000D03*
%TD*%
D13*
%TO.C,R11*%
X113975000Y-61975000D03*
X114615000Y-61975000D03*
%TD*%
D14*
%TO.C,R18*%
X126050000Y-56008750D03*
X126050000Y-56648750D03*
%TD*%
D15*
%TO.C,R3*%
X115609300Y-69045000D03*
X115609300Y-68405000D03*
%TD*%
D16*
%TO.C,BT2*%
X118710000Y-49800000D03*
X121250000Y-49800000D03*
%TD*%
D15*
%TO.C,R19*%
X134160000Y-58540000D03*
X134160000Y-57900000D03*
%TD*%
%TO.C,CHARGLED1*%
X114899999Y-69030699D03*
X114899999Y-68390699D03*
%TD*%
D17*
%TO.C,SW2*%
X131800000Y-67200000D03*
X127650000Y-67200000D03*
X131800000Y-65050000D03*
X127650000Y-65050000D03*
%TD*%
D18*
%TO.C,FG1*%
X111077200Y-56550000D03*
X111077200Y-56950002D03*
X111077200Y-57350001D03*
X111077200Y-57750000D03*
X111077200Y-58150002D03*
X113460000Y-58150002D03*
X113460000Y-57750000D03*
X113460000Y-57350001D03*
X113460000Y-56950002D03*
X113460000Y-56550000D03*
D19*
X112268600Y-57350001D03*
%TD*%
D20*
%TO.C,IMU1*%
X120056800Y-60524999D03*
X120056800Y-60925001D03*
X120056800Y-61325000D03*
X120056800Y-61725000D03*
X120056800Y-62124999D03*
X120056800Y-62525001D03*
D21*
X120578399Y-63046600D03*
X120978401Y-63046600D03*
X121378400Y-63046600D03*
X121778400Y-63046600D03*
X122178399Y-63046600D03*
X122578401Y-63046600D03*
D20*
X123100000Y-62525001D03*
X123100000Y-62124999D03*
X123100000Y-61725000D03*
X123100000Y-61325000D03*
X123100000Y-60925001D03*
X123100000Y-60524999D03*
D21*
X122578401Y-60003400D03*
X122178399Y-60003400D03*
X121778400Y-60003400D03*
X121378400Y-60003400D03*
X120978401Y-60003400D03*
X120578399Y-60003400D03*
%TD*%
D22*
%TO.C,MCU1*%
X153430000Y-51700000D03*
X152160000Y-51700000D03*
X150890000Y-51700000D03*
X149620000Y-51700000D03*
X148350000Y-51700000D03*
X147080000Y-51700000D03*
X145810000Y-51700000D03*
X144540000Y-51700000D03*
X143270000Y-51700000D03*
X142000000Y-51700000D03*
X140730000Y-51700000D03*
X139460000Y-51700000D03*
X138190000Y-51700000D03*
X136920000Y-51700000D03*
D23*
X135670000Y-53465000D03*
X135670000Y-54735000D03*
X135670000Y-56005000D03*
X135670000Y-57275000D03*
X135670000Y-58545000D03*
X135670000Y-59815000D03*
X135670000Y-61085000D03*
X135670000Y-62355000D03*
X135670000Y-63625000D03*
X135670000Y-64895000D03*
X135670000Y-66165000D03*
X135670000Y-67435000D03*
D24*
X136920000Y-69200000D03*
X138190000Y-69200000D03*
X139460000Y-69200000D03*
X140730000Y-69200000D03*
X142000000Y-69200000D03*
X143270000Y-69200000D03*
X144540000Y-69200000D03*
X145810000Y-69200000D03*
X147080000Y-69200000D03*
X148350000Y-69200000D03*
X149620000Y-69200000D03*
X150890000Y-69200000D03*
X152160000Y-69200000D03*
X153430000Y-69200000D03*
D25*
X149580000Y-57590000D03*
X148080000Y-57590000D03*
X148080000Y-57590000D03*
X146580000Y-57590000D03*
X149580000Y-59090000D03*
X149580000Y-59090000D03*
X148080000Y-59090000D03*
X146580000Y-59090000D03*
X149580000Y-60590000D03*
X148080000Y-60590000D03*
X146580000Y-60590000D03*
%TD*%
D12*
%TO.C,R21*%
X123020000Y-64525000D03*
X122380000Y-64525000D03*
%TD*%
D15*
%TO.C,R6*%
X108590000Y-62840000D03*
X108590000Y-62200000D03*
%TD*%
%TO.C,R8*%
X112799999Y-69035699D03*
X112799999Y-68395699D03*
%TD*%
D26*
%TO.C,QWIIC1*%
X121390000Y-69570000D03*
X120390000Y-69570000D03*
X119390000Y-69570000D03*
X118390000Y-69570000D03*
D27*
X122690000Y-72095000D03*
X117090000Y-72095000D03*
%TD*%
D28*
%TO.C,L2*%
X116709300Y-64190700D03*
X118284300Y-64190700D03*
%TD*%
D26*
%TO.C,TrillExtensionInput1*%
X129210000Y-69570000D03*
X128210000Y-69570000D03*
X127210000Y-69570000D03*
X126210000Y-69570000D03*
D27*
X130510000Y-72095000D03*
X124910000Y-72095000D03*
%TD*%
D29*
%TO.C,C4*%
X118284300Y-67150700D03*
X116734300Y-67150700D03*
%TD*%
D15*
%TO.C,R4*%
X114199999Y-69035699D03*
X114199999Y-68395699D03*
%TD*%
D14*
%TO.C,C1*%
X115360000Y-57800000D03*
X115360000Y-58440000D03*
%TD*%
D30*
%TO.C,FSR1*%
X131885000Y-50890000D03*
X131885000Y-49890000D03*
D31*
X129360000Y-52190000D03*
X129360000Y-48590000D03*
%TD*%
D32*
%TO.C,PWLED1*%
X128100000Y-55475000D03*
X128100000Y-57225000D03*
X131600000Y-57225000D03*
X131600000Y-55475000D03*
%TD*%
D15*
%TO.C,C9*%
X149750000Y-50200000D03*
X149750000Y-49560000D03*
%TD*%
D30*
%TO.C,SW1*%
X126650000Y-50900000D03*
X126650000Y-49900000D03*
D31*
X124125000Y-52200000D03*
X124125000Y-48600000D03*
%TD*%
D14*
%TO.C,C13*%
X132725000Y-55480000D03*
X132725000Y-56120000D03*
%TD*%
D33*
%TO.C,H2*%
X103230000Y-69270000D03*
%TD*%
D14*
%TO.C,R9*%
X113499999Y-68395699D03*
X113499999Y-69035699D03*
%TD*%
D15*
%TO.C,R5*%
X150480000Y-50210000D03*
X150480000Y-49570000D03*
%TD*%
D33*
%TO.C,H1*%
X103230000Y-51490000D03*
%TD*%
D12*
%TO.C,C3*%
X110324999Y-69145699D03*
X109684999Y-69145699D03*
%TD*%
D15*
%TO.C,TH1*%
X109460000Y-57100000D03*
X109460000Y-56460000D03*
%TD*%
D14*
%TO.C,C14*%
X126770000Y-56008750D03*
X126770000Y-56648750D03*
%TD*%
D34*
%TO.C,U1*%
X110059299Y-64174999D03*
X110059299Y-64574998D03*
X110059299Y-64975000D03*
X110059299Y-65374999D03*
X110059299Y-65774998D03*
X110059299Y-66175000D03*
X110059299Y-66574999D03*
D35*
X110799999Y-67315699D03*
X111199998Y-67315699D03*
X111600000Y-67315699D03*
X111999999Y-67315699D03*
X112399998Y-67315699D03*
X112800000Y-67315699D03*
X113199999Y-67315699D03*
D34*
X113940699Y-66574999D03*
X113940699Y-66175000D03*
X113940699Y-65774998D03*
X113940699Y-65374999D03*
X113940699Y-64975000D03*
X113940699Y-64574998D03*
X113940699Y-64174999D03*
D35*
X113199999Y-63434299D03*
X112800000Y-63434299D03*
X112399998Y-63434299D03*
X111999999Y-63434299D03*
X111600000Y-63434299D03*
X111199998Y-63434299D03*
X110799999Y-63434299D03*
D36*
X111999999Y-65374999D03*
%TD*%
D14*
%TO.C,C2*%
X114640000Y-57815000D03*
X114640000Y-58455000D03*
%TD*%
D37*
%TO.C,U4*%
X119825000Y-56600000D03*
X119825000Y-57250000D03*
X119825000Y-57900000D03*
X119825000Y-58550000D03*
X124125000Y-58550000D03*
X124125000Y-57900000D03*
X124125000Y-57250000D03*
X124125000Y-56600000D03*
%TD*%
D38*
%TO.C,SW3*%
X127650000Y-61300000D03*
X131800000Y-61300000D03*
X127650000Y-63450000D03*
X131800000Y-63450000D03*
%TD*%
D29*
%TO.C,C5*%
X118259300Y-62730700D03*
X116709300Y-62730700D03*
%TD*%
D39*
%TO.C,R2*%
X113419900Y-60195000D03*
X113419900Y-59145000D03*
X111060100Y-59145000D03*
X111060100Y-60195000D03*
%TD*%
D15*
%TO.C,R12*%
X108750000Y-57120000D03*
X108750000Y-56480000D03*
%TD*%
D40*
%TO.C,J1*%
X105315000Y-57560000D03*
X105315000Y-63340000D03*
D41*
X106390000Y-57250000D03*
X106390000Y-58050000D03*
D42*
X106390000Y-59200000D03*
X106390000Y-60200000D03*
X106390000Y-60700000D03*
X106390000Y-61700000D03*
D41*
X106390000Y-62850000D03*
X106390000Y-63650000D03*
X106390000Y-63650000D03*
X106390000Y-62850000D03*
D42*
X106390000Y-62200000D03*
X106390000Y-61200000D03*
X106390000Y-59700000D03*
X106390000Y-58700000D03*
D41*
X106390000Y-58050000D03*
X106390000Y-57250000D03*
D43*
X105815000Y-56130000D03*
D44*
X101635000Y-56130000D03*
D43*
X105815000Y-64770000D03*
D44*
X101635000Y-64770000D03*
%TD*%
D45*
%TO.C,Q3*%
X126075000Y-64112500D03*
X124175000Y-64112500D03*
X125125000Y-65987500D03*
%TD*%
D46*
%TO.C,BOARDLAYOUT1*%
X134580000Y-49060000D03*
X137120000Y-49060000D03*
X139660000Y-49060000D03*
X142200000Y-49060000D03*
X144740000Y-49060000D03*
X147280000Y-49060000D03*
X152360000Y-71920000D03*
X149820000Y-71920000D03*
X147280000Y-71920000D03*
X144740000Y-71920000D03*
X142200000Y-71920000D03*
X139660000Y-71920000D03*
X137120000Y-71920000D03*
X134580000Y-71920000D03*
X114260000Y-71920000D03*
X111720000Y-71920000D03*
X109180000Y-71920000D03*
X106640000Y-71920000D03*
%TD*%
D14*
%TO.C,R20*%
X134160000Y-59810000D03*
X134160000Y-60450000D03*
%TD*%
D12*
%TO.C,R10*%
X114615000Y-62675000D03*
X113975000Y-62675000D03*
%TD*%
D14*
%TO.C,R7*%
X108590000Y-58570000D03*
X108590000Y-59210000D03*
%TD*%
D12*
%TO.C,C8*%
X110329999Y-68435699D03*
X109689999Y-68435699D03*
%TD*%
D13*
%TO.C,R1*%
X133590000Y-51010000D03*
X134230000Y-51010000D03*
%TD*%
D12*
%TO.C,R13*%
X133395000Y-57225000D03*
X132755000Y-57225000D03*
%TD*%
D28*
%TO.C,L1*%
X116721800Y-65680700D03*
X118296800Y-65680700D03*
%TD*%
M02*
