M48
; DRILL file {KiCad 7.0.6} date Tue Oct 17 01:06:07 2023
; FORMAT={-:-/ absolute / inch / decimal}
; #@! TF.CreationDate,2023-10-17T01:06:07-04:00
; #@! TF.GenerationSoftware,Kicad,Pcbnew,7.0.6
; #@! TF.FileFunction,Plated,1,4,PTH
FMAT,2
INCH
; #@! TA.AperFunction,Plated,PTH,ViaDrill
T1C0.0100
; #@! TA.AperFunction,Plated,PTH,ViaDrill
T2C0.0120
; #@! TA.AperFunction,Plated,PTH,ComponentDrill
T3C0.0236
; #@! TA.AperFunction,Plated,PTH,ComponentDrill
T4C0.0394
%
G90
G05
T1
X4.2248Y-2.5083
X4.2269Y-2.2539
X4.239Y-2.0047
X4.25Y-2.2087
X4.2945Y-2.6634
X4.2953Y-2.7067
X4.2966Y-2.5305
X4.2966Y-2.5522
X4.2966Y-2.5728
X4.2966Y-2.5945
X4.2966Y-2.6156
X4.2992Y-2.4744
X4.313Y-2.2825
X4.313Y-2.3199
X4.3297Y-2.3681
X4.3327Y-2.6417
X4.3386Y-2.4675
X4.3602Y-2.4675
X4.3807Y-2.4665
X4.3839Y-2.699
X4.4023Y-2.4668
X4.424Y-2.7309
X4.4272Y-2.4638
X4.4893Y-2.7362
X4.5049Y-2.2244
X4.5079Y-2.6683
X4.5124Y-2.4886
X4.5492Y-2.56
X4.55Y-2.2075
X4.5593Y-2.4697
X4.5719Y-2.8396
X4.5886Y-2.678
X4.5961Y-2.0051
X4.6302Y-2.7585
X4.6752Y-2.2255
X4.6821Y-2.7785
X4.8051Y-2.6957
X4.81Y-2.3346
X4.8102Y-2.5097
X4.8295Y-2.0598
X4.839Y-1.9154
X4.872Y-2.3829
X4.8736Y-2.8384
X4.938Y-2.313
X4.9465Y-2.2791
X4.9713Y-2.6921
X4.9862Y-2.0344
X4.9921Y-2.2519
X4.9929Y-1.9311
X5.0098Y-2.2785
X5.0128Y-2.377
X5.0134Y-2.689
X5.0449Y-1.9138
X5.0449Y-2.0425
X5.0502Y-2.6929
X5.0886Y-2.6939
X5.1768Y-2.837
X5.2032Y-2.471
X5.2146Y-2.3917
X5.2215Y-2.3051
X5.2262Y-2.3546
X5.248Y-2.2255
X5.2598Y-2.0256
X5.298Y-2.6285
X5.2982Y-2.1894
X5.3006Y-2.1049
X5.3051Y-2.0079
X5.3854Y-2.6047
X5.4996Y-2.5089
X5.5Y-2.5354
X5.5Y-2.5605
X5.5Y-2.5866
X5.5787Y-2.0846
X5.7402Y-2.2677
X5.7402Y-2.3264
X5.7421Y-2.3854
X5.7707Y-2.2372
X5.7709Y-2.4163
X5.8299Y-2.4185
X5.8299Y-2.2362
X5.8398Y-2.1406
X5.8874Y-2.2358
X5.8886Y-2.1362
X5.889Y-2.4163
X5.8957Y-1.9262
X5.9193Y-2.3258
X5.9203Y-2.2667
X5.9203Y-2.3839
X5.9232Y-2.0837
X6.0406Y-1.9894
X6.0413Y-2.7687
T2
X4.2224Y-2.2864
X4.2274Y-2.4744
X4.3386Y-2.1102
X4.3823Y-2.7361
X4.46Y-2.7375
X4.4803Y-2.2037
X4.5423Y-2.2572
X4.6142Y-1.9636
X4.6329Y-2.4262
X4.6744Y-2.2539
X4.6939Y-2.4705
X4.6969Y-2.5866
X4.6976Y-2.6445
X4.698Y-2.5272
X4.7629Y-2.5098
X4.7631Y-2.6923
X4.7963Y-2.5404
X4.874Y-2.6516
X4.877Y-2.4636
X4.9626Y-2.25
X4.9636Y-2.4793
X5.1923Y-2.0285
X5.2254Y-2.1624
X5.2815Y-2.2539
X5.2815Y-2.402
X5.9244Y-1.9264
X5.9906Y-1.9843
T4
X4.1984Y-2.8315
X4.2984Y-2.8315
X4.3984Y-2.8315
X4.4984Y-2.8315
X5.2984Y-1.9315
X5.2984Y-2.8315
X5.3984Y-1.9315
X5.3984Y-2.8315
X5.4984Y-1.9315
X5.4984Y-2.8315
X5.5984Y-1.9315
X5.5984Y-2.8315
X5.6984Y-1.9315
X5.6984Y-2.8315
X5.7984Y-1.9315
X5.7984Y-2.8315
X5.8984Y-2.8315
X5.9984Y-2.8315
T3
G00X4.0171Y-2.2098
M15
G01X3.9856Y-2.2098
M16
G05
G00X4.0171Y-2.55
M15
G01X3.9856Y-2.55
M16
G05
G00X4.1876Y-2.2098
M15
G01X4.1443Y-2.2098
M16
G05
G00X4.1876Y-2.55
M15
G01X4.1443Y-2.55
M16
G05
T0
M30
